<?xml version="1.0" encoding="UTF-8" standalone="no"?><!DOCTYPE svg PUBLIC "-//W3C//DTD SVG 1.1//EN" "http://www.w3.org/Graphics/SVG/1.1/DTD/svg11.dtd"><svg width="100%" height="100%" viewBox="0 0 213 300" version="1.1" xmlns="http://www.w3.org/2000/svg" xmlns:xlink="http://www.w3.org/1999/xlink" xml:space="preserve" style="fill-rule:evenodd;clip-rule:evenodd;stroke-linejoin:round;stroke-miterlimit:1.41421;"><g><path d="M204.217,119.099c0.111,-0.828 0.675,-1.597 1.603,-2.185c4.164,-2.601 6.549,-6.513 6.549,-10.73c0,-4.217 -2.385,-8.122 -6.543,-10.724c-0.934,-0.587 -1.503,-1.357 -1.609,-2.185c-0.106,-0.828 0.241,-1.72 0.987,-2.519c3.347,-3.589 4.639,-7.987 3.547,-12.057c-1.093,-4.07 -4.405,-7.23 -9.103,-8.669c-1.052,-0.323 -1.803,-0.922 -2.121,-1.691c-0.317,-0.764 -0.205,-1.721 0.312,-2.69c2.302,-4.34 2.408,-8.921 0.299,-12.569c-2.102,-3.647 -6.125,-5.837 -11.029,-6.008c-1.093,-0.035 -1.974,-0.423 -2.479,-1.08c-0.505,-0.658 -0.646,-1.61 -0.399,-2.69c0.987,-4.311 0.229,-8.316 -2.132,-11.282c-2.884,-3.624 -7.758,-5.092 -13.044,-3.888c-2.144,0.517 -3.676,-0.646 -3.765,-2.884c-0.264,-7.382 -5.091,-12.539 -11.752,-12.539c-2.266,0 -4.557,0.611 -6.824,1.815c-1.92,1.028 -3.723,0.323 -4.381,-1.809c-1.792,-5.849 -6.214,-9.485 -11.547,-9.485c-3.247,0 -6.425,1.357 -9.173,3.923c-1.621,1.504 -3.536,1.251 -4.705,-0.616c-2.601,-4.147 -6.513,-6.537 -10.724,-6.537c-4.211,0 -8.122,2.384 -10.73,6.543c-1.174,1.879 -3.095,2.114 -4.698,0.622c-2.76,-2.572 -5.932,-3.929 -9.174,-3.929c-5.333,0 -9.755,3.635 -11.546,9.479c-0.652,2.132 -2.437,2.849 -4.381,1.815c-2.267,-1.204 -4.564,-1.815 -6.831,-1.815c-6.66,0 -11.493,5.157 -11.752,12.539c-0.082,2.232 -1.591,3.383 -3.764,2.884c-5.28,-1.216 -10.161,0.264 -13.05,3.888c-2.361,2.965 -3.119,6.977 -2.126,11.282c0.246,1.074 0.106,2.026 -0.4,2.684c-0.505,0.657 -1.386,1.045 -2.478,1.08c-4.904,0.171 -8.927,2.367 -11.035,6.014c-2.109,3.647 -1.997,8.228 0.305,12.569c0.517,0.969 0.623,1.926 0.305,2.689c-0.317,0.764 -1.069,1.369 -2.12,1.692c-4.692,1.439 -8.011,4.598 -9.097,8.668c-1.087,4.07 0.205,8.463 3.547,12.052c0.746,0.804 1.104,1.703 0.993,2.525c-0.112,0.822 -0.682,1.598 -1.609,2.179c-4.159,2.602 -6.543,6.513 -6.543,10.73c0,4.217 2.384,8.123 6.543,10.73c0.933,0.582 1.503,1.357 1.609,2.179c0.105,0.822 -0.247,1.715 -0.987,2.52c-3.348,3.588 -4.64,7.987 -3.547,12.057c1.092,4.07 4.405,7.23 9.097,8.669c1.051,0.323 1.803,0.922 2.12,1.685c0.317,0.764 0.212,1.721 -0.305,2.69c-2.302,4.334 -2.414,8.915 -0.306,12.562c2.109,3.647 6.126,5.844 11.036,6.014c1.098,0.041 1.979,0.423 2.484,1.087c0.505,0.663 0.646,1.609 0.4,2.678c-0.993,4.305 -0.235,8.316 2.126,11.282c2.778,3.494 7.417,4.939 12.497,3.953c-0.563,0.575 -1.033,1.25 -1.339,2.049l-34.198,90.856c-0.852,2.267 -0.229,4.81 1.568,6.437c1.791,1.615 4.399,1.973 6.56,0.887l24.461,-12.228l12.234,24.461c0.986,1.997 3.024,3.242 5.238,3.242c0.141,0 0.276,-0.006 0.417,-0.018c2.367,-0.164 4.405,-1.744 5.157,-3.999l30.557,-91.666c0.764,0.146 1.48,0.634 2.032,1.515c2.602,4.164 6.513,6.548 10.73,6.548c4.217,0 8.123,-2.384 10.724,-6.548c0.664,-1.069 1.58,-1.551 2.538,-1.539l30.563,91.69c0.752,2.255 2.784,3.829 5.15,3.999c0.141,0.012 0.282,0.018 0.417,0.018c2.215,0 4.258,-1.245 5.257,-3.248l12.233,-24.461l24.461,12.228c2.15,1.086 4.763,0.728 6.561,-0.887c1.797,-1.621 2.413,-4.17 1.562,-6.437l-34.199,-90.856c-0.288,-0.763 -0.716,-1.427 -1.245,-1.985c4.81,0.758 9.221,-0.652 11.893,-4.011c2.361,-2.972 3.119,-6.977 2.132,-11.288c-0.247,-1.069 -0.106,-2.026 0.399,-2.678c0.505,-0.658 1.386,-1.045 2.479,-1.087c4.904,-0.17 8.927,-2.361 11.035,-6.008c2.103,-3.653 1.997,-8.228 -0.305,-12.568c-0.517,-0.969 -0.623,-1.926 -0.312,-2.69c0.312,-0.763 1.075,-1.362 2.121,-1.685c4.698,-1.439 8.01,-4.599 9.103,-8.675c1.092,-4.07 -0.2,-8.463 -3.547,-12.051c-0.746,-0.793 -1.093,-1.692 -0.987,-2.514Zm-98.033,56.393c-38.21,0 -69.301,-31.086 -69.301,-69.302c0,-38.216 31.091,-69.302 69.301,-69.302c38.216,0 69.302,31.086 69.302,69.302c0,38.216 -31.086,69.302 -69.302,69.302Z" style="fill:#cea76a;fill-rule:nonzero;"/><path d="M106.184,48.635c-31.738,0 -57.555,25.817 -57.555,57.555c0,31.738 25.817,57.556 57.555,57.556c31.732,0 57.556,-25.818 57.556,-57.556c0,-31.738 -25.824,-57.555 -57.556,-57.555Z" style="fill:#cea76a;fill-rule:nonzero;"/></g></svg>