<?xml version="1.0" standalone="no"?><!DOCTYPE svg PUBLIC "-//W3C//DTD SVG 1.1//EN" "http://www.w3.org/Graphics/SVG/1.1/DTD/svg11.dtd"><svg width="100%" height="100%" viewBox="0 0 1590 2953" version="1.1" xmlns="http://www.w3.org/2000/svg" xmlns:xlink="http://www.w3.org/1999/xlink" xml:space="preserve" style="fill-rule:evenodd;clip-rule:evenodd;stroke-linecap:round;stroke-linejoin:round;stroke-miterlimit:1.41421;"><path d="M794.638,1976.37c-2.174,46.436 -34.391,110.572 -16.151,172.82c15.519,52.963 46.209,101.438 43.781,153.816c-4.921,106.185 -37.47,201.798 -64.563,305.987c-40.73,156.628 30.413,282.765 36.933,307.547" style="fill:none;stroke-width:41px;stroke:#000;"/><path d="M732.387,1835.92l-41.272,174.139c0,0 73.198,-65.198 196.477,0.726c2.315,-7.671 -31.493,-179.72 -31.493,-179.72c0,0 505.332,9.686 723.904,-920.66c1.279,2.577 146.55,-919.187 -760.788,-910.342c-907.338,8.845 -811.527,656.443 -819.215,864.495c4.215,-4.319 121.034,908.409 732.387,971.362Z" style="fill:#dc4437;"/></svg>