<?xml version="1.0" standalone="no"?><!DOCTYPE svg PUBLIC "-//W3C//DTD SVG 1.1//EN" "http://www.w3.org/Graphics/SVG/1.1/DTD/svg11.dtd"><svg width="100%" height="100%" viewBox="0 0 417 521" version="1.1" xmlns="http://www.w3.org/2000/svg" xmlns:xlink="http://www.w3.org/1999/xlink" xml:space="preserve" style="fill-rule:evenodd;clip-rule:evenodd;stroke-linejoin:round;stroke-miterlimit:1.41421;"><path d="M320.833,62.233l0,-18.483l-201.041,0c-18.954,0 -34.375,15.421 -34.375,34.375l0,260.417c0,18.954 15.421,34.375 34.375,34.375l201.041,0l0,-83.384l0,-195.516c-6.195,-2.784 -10.416,-8.938 -10.416,-15.892c0,-6.954 4.22,-13.108 10.416,-15.892ZM250,195.833l-33.333,0l0,75l-16.667,0l0,-75l-33.333,0l0,-16.666l33.333,0l0,-33.334l16.667,0l0,33.334l33.333,0l0,16.666ZM298.787,95.833l-178.995,0c-9.763,0 -17.709,-7.945 -17.709,-17.708c0,-9.763 7.946,-17.708 17.709,-17.708l178.996,0c-3.196,5.212 -5.038,11.287 -5.038,17.708c0,6.421 1.842,12.496 5.037,17.708Z" style="fill:#fff;fill-rule:nonzero;"/></svg>