<?xml version="1.0" encoding="UTF-8" standalone="no"?><!DOCTYPE svg PUBLIC "-//W3C//DTD SVG 1.1//EN" "http://www.w3.org/Graphics/SVG/1.1/DTD/svg11.dtd"><svg width="100%" height="100%" viewBox="0 0 287 300" version="1.1" xmlns="http://www.w3.org/2000/svg" xmlns:xlink="http://www.w3.org/1999/xlink" xml:space="preserve" style="fill-rule:evenodd;clip-rule:evenodd;stroke-linejoin:round;stroke-miterlimit:1.41421;"><rect id="Artboard1" x="0" y="0" width="286.018" height="300" style="fill:none;"/><path d="M250.287,16.845l0,-16.845l-183.227,0c-17.274,0 -31.329,14.055 -31.329,31.329l0,237.342c0,17.274 14.055,31.329 31.329,31.329l183.227,0l0,-75.995l0,-178.192c-5.646,-2.537 -9.493,-8.146 -9.493,-14.484c0,-6.338 3.846,-11.946 9.493,-14.484l0,0Zm-64.556,121.762l-30.38,0l0,68.355l-15.19,0l0,-68.355l-30.379,0l0,-15.189l30.379,0l0,-30.38l15.19,0l0,30.38l30.38,0l0,15.189Zm44.464,-91.139l-163.135,0c-8.898,0 -16.14,-7.241 -16.14,-16.139c0,-8.898 7.242,-16.139 16.14,-16.139l163.136,0c-2.913,4.75 -4.592,10.287 -4.592,16.139c0,5.852 1.679,11.389 4.591,16.139Z" style="fill:#fff;fill-rule:nonzero;"/></svg>