<?xml version="1.0" standalone="no"?><!DOCTYPE svg PUBLIC "-//W3C//DTD SVG 1.1//EN" "http://www.w3.org/Graphics/SVG/1.1/DTD/svg11.dtd"><svg width="100%" height="100%" viewBox="0 0 2892 2892" version="1.1" xmlns="http://www.w3.org/2000/svg" xmlns:xlink="http://www.w3.org/1999/xlink" xml:space="preserve" style="fill-rule:evenodd;clip-rule:evenodd;stroke-linejoin:round;stroke-miterlimit:1.41421;"><g><path d="M2665.7,715.56l-160.26,0l0,-28.323c0,-27.579 -40.981,-28.953 -68.588,-28.953l-265.275,0c-27.55,0 -38.433,1.374 -38.433,28.953l0,28.323l-1059.1,0c-27.035,-57.276 -73.83,-143.191 -137.091,-143.191l-343.057,0c-61.744,0 -108.882,85.915 -136.403,143.191l-198.807,0c-57.62,0 -130.217,42.957 -130.217,100.577l0,1393.53c0,57.619 72.597,109.626 130.217,109.626l2407.01,0c57.562,0 97.484,-52.007 97.484,-109.626l0,-1393.53c0,-57.62 -39.922,-100.577 -97.484,-100.577ZM758.517,935.845c0,20.705 -16.753,37.459 -37.458,37.459l-182.826,0c-20.706,0 -37.459,-16.754 -37.459,-37.459l0,-96.912c0,-20.705 16.753,-37.458 37.459,-37.458l182.826,0c20.705,0 37.458,16.753 37.458,37.458l0,96.912ZM1922.94,2029.57c-282.83,0 -512.938,-230.079 -512.938,-512.938c0,-282.831 230.108,-512.938 512.938,-512.938c282.859,0 512.938,230.107 512.938,512.938c0,282.859 -230.079,512.938 -512.938,512.938Z" style="fill:#109d59;fill-rule:nonzero;"/><path d="M1922.94,1130.36c-212.982,0 -386.243,173.29 -386.243,386.272c0,213.011 173.29,386.271 386.243,386.271c213.011,0 386.272,-173.289 386.272,-386.271c0,-212.982 -173.261,-386.272 -386.272,-386.272Z" style="fill:#109d59;fill-rule:nonzero;"/></g></svg>