<?xml version="1.0" standalone="no"?><!DOCTYPE svg PUBLIC "-//W3C//DTD SVG 1.1//EN" "http://www.w3.org/Graphics/SVG/1.1/DTD/svg11.dtd"><svg width="100%" height="100%" viewBox="0 0 12050 12050" version="1.1" xmlns="http://www.w3.org/2000/svg" xmlns:xlink="http://www.w3.org/1999/xlink" xml:space="preserve" style="fill-rule:evenodd;clip-rule:evenodd;stroke-linejoin:round;stroke-miterlimit:1.41421;"><g><path d="M11107.1,2981.5l-667.75,0l0,-118.012c0,-114.913 -170.754,-120.638 -285.783,-120.638l-1105.31,0c-114.791,0 -160.137,5.725 -160.137,120.638l0,118.012l-4412.92,0c-112.646,-238.65 -307.625,-596.629 -571.212,-596.629l-1429.4,0c-257.267,0 -453.675,357.979 -568.346,596.629l-828.363,0c-240.083,0 -542.571,178.988 -542.571,419.071l0,5806.38c0,240.079 302.488,456.775 542.571,456.775l10029.2,0c239.841,0 406.183,-216.696 406.183,-456.775l0,-5806.38c0,-240.083 -166.342,-419.071 -406.183,-419.071l0.016,0ZM3160.49,3899.35c0,86.271 -69.805,156.079 -156.075,156.079l-761.776,0c-86.275,0 -156.079,-69.808 -156.079,-156.079l0,-403.8c0,-86.271 69.804,-156.075 156.079,-156.075l761.775,0c86.271,0 156.075,69.804 156.075,156.075l0.001,403.8ZM8012.25,8456.54c-1178.46,0 -2137.24,-958.663 -2137.24,-2137.24c0,-1178.46 958.784,-2137.24 2137.24,-2137.24c1178.58,0 2137.24,958.78 2137.24,2137.24c0,1178.58 -958.663,2137.24 -2137.24,2137.24l0,0Z" style="fill:#fff;fill-rule:nonzero;"/><path d="M8012.25,4709.83c-887.425,0 -1609.35,722.042 -1609.35,1609.47c0,887.546 722.042,1609.46 1609.35,1609.46c887.546,0 1609.47,-722.037 1609.47,-1609.46c0,-887.425 -721.921,-1609.47 -1609.47,-1609.47Z" style="fill:#fff;fill-rule:nonzero;"/></g></svg>