<?xml version="1.0" encoding="UTF-8" standalone="no"?><!DOCTYPE svg PUBLIC "-//W3C//DTD SVG 1.1//EN" "http://www.w3.org/Graphics/SVG/1.1/DTD/svg11.dtd"><svg width="100%" height="100%" viewBox="0 0 300 300" version="1.1" xmlns="http://www.w3.org/2000/svg" xmlns:xlink="http://www.w3.org/1999/xlink" xml:space="preserve" style="fill-rule:evenodd;clip-rule:evenodd;stroke-linejoin:round;stroke-miterlimit:1.41421;"><rect id="Artboard1" x="0" y="0" width="300" height="300" style="fill:none;"/><clipPath id="_clip1"><rect x="0" y="0" width="300" height="300"/></clipPath><g clip-path="url(#_clip1)"><path d="M84.488,172.12c-21.351,0 -38.671,17.325 -38.671,38.677c0,21.369 17.317,38.679 38.671,38.679c21.343,0 38.653,-17.31 38.653,-38.679c-0.003,-21.352 -17.31,-38.677 -38.653,-38.677l0,0Zm0,51.991c-7.356,0 -13.332,-5.977 -13.332,-13.315c0,-7.338 5.976,-13.299 13.332,-13.299c7.323,0 13.308,5.958 13.308,13.299c0,7.341 -5.985,13.315 -13.308,13.315l0,0Z" style="fill:#fff;fill-rule:nonzero;"/><path d="M220.376,172.12c-21.333,0 -38.668,17.325 -38.668,38.677c0,21.369 17.332,38.679 38.668,38.679c21.336,0 38.656,-17.31 38.656,-38.679c0,-21.352 -17.32,-38.677 -38.656,-38.677l0,0Zm0,51.991c-7.353,0 -13.32,-5.977 -13.32,-13.315c0,-7.338 5.967,-13.299 13.32,-13.299c7.332,0 13.308,5.958 13.308,13.299c0,7.341 -5.976,13.315 -13.308,13.315l0,0Z" style="fill:#fff;fill-rule:nonzero;"/><path d="M277.098,134.031c-43.453,-18.475 -87.44,-59.854 -87.44,-59.854c-46.324,-37.996 -93.689,-18.808 -93.689,-18.808c-94.742,35.323 -95.969,117.717 -95.969,117.717c1.357,24.093 23.863,23.904 23.863,23.904l7.458,0c0,0 9.51,-39.565 53.299,-41.278c0,0 40.168,-1.251 53.26,41.278l29.221,0c0,0 10.026,-40.255 53.41,-41.278c0,0 39.7,-1.776 53.26,41.278l10.239,-0.015c0,0 14.785,0.237 15.843,-16.317c0,0 3.418,-35.497 -22.755,-46.627l0,0Zm-229.631,-26.359c14.464,-14.781 28.381,-24.348 41.419,-30.304l-5.334,45.277c-16.794,-0.548 -29.649,-0.939 -33.541,-0.993c-14.814,-0.198 -2.544,-13.98 -2.544,-13.98l0,0Zm161.8,19.272c0,0 -62.525,-2.201 -109.524,-3.767l6.094,-51.752c42.378,-10.332 71.725,15.859 71.725,15.859l40.627,34.368c6.864,7.29 -8.922,5.292 -8.922,5.292Z" style="fill:#fff;fill-rule:nonzero;"/></g></svg>