<?xml version="1.0" standalone="no"?><!DOCTYPE svg PUBLIC "-//W3C//DTD SVG 1.1//EN" "http://www.w3.org/Graphics/SVG/1.1/DTD/svg11.dtd"><svg width="100%" height="100%" viewBox="0 0 417 521" version="1.1" xmlns="http://www.w3.org/2000/svg" xmlns:xlink="http://www.w3.org/1999/xlink" xml:space="preserve" style="fill-rule:evenodd;clip-rule:evenodd;stroke-linejoin:round;stroke-miterlimit:1.41421;"><path d="M117.346,245.296c-29.654,0 -53.709,24.062 -53.709,53.717c0.001,29.679 24.051,53.72 53.709,53.72c29.642,0 53.683,-24.041 53.683,-53.72c-0.004,-29.655 -24.041,-53.717 -53.683,-53.717ZM117.346,317.504c-10.217,0 -18.517,-8.3 -18.517,-18.492c0,-10.191 8.3,-18.47 18.517,-18.47c10.171,0 18.483,8.275 18.483,18.47c0,10.196 -8.312,18.492 -18.483,18.492Z" style="fill:#fff;fill-rule:nonzero;"/><path d="M306.075,245.296c-29.629,0 -53.704,24.062 -53.704,53.717c0,29.679 24.071,53.72 53.704,53.72c29.633,0 53.688,-24.041 53.688,-53.72c0,-29.655 -24.055,-53.717 -53.688,-53.717ZM306.075,317.504c-10.212,0 -18.5,-8.3 -18.5,-18.492c0,-10.191 8.288,-18.47 18.5,-18.47c10.183,0 18.483,8.275 18.483,18.47c0,10.196 -8.3,18.492 -18.483,18.492Z" style="fill:#fff;fill-rule:nonzero;"/><path d="M384.854,192.396c-60.35,-25.659 -121.442,-83.129 -121.442,-83.129c-64.337,-52.771 -130.12,-26.121 -130.12,-26.121c-131.584,49.058 -133.288,163.492 -133.288,163.492c1.884,33.462 33.142,33.2 33.142,33.2l10.358,0c0,0 13.209,-54.951 74.025,-57.33c0,0 55.788,-1.737 73.971,57.329l40.583,0c0,0 13.925,-55.908 74.18,-57.329c0,0 55.137,-2.466 73.97,57.329l14.221,-0.02c0,0 20.534,0.329 22.004,-22.663c0,0 4.746,-49.3 -31.604,-64.758ZM65.929,155.788c20.088,-20.53 39.417,-33.817 57.525,-42.088l-7.408,62.883c-23.325,-0.762 -41.179,-1.304 -46.584,-1.379c-20.575,-0.275 -3.533,-19.417 -3.533,-19.417ZM290.646,182.554c0,0 -86.838,-3.058 -152.113,-5.233l8.463,-71.875c58.858,-14.35 99.617,22.025 99.617,22.025l56.425,47.733c9.533,10.125 -12.392,7.35 -12.392,7.35Z" style="fill:#fff;fill-rule:nonzero;"/></svg>