<?xml version="1.0" standalone="no"?><!DOCTYPE svg PUBLIC "-//W3C//DTD SVG 1.1//EN" "http://www.w3.org/Graphics/SVG/1.1/DTD/svg11.dtd"><svg width="100%" height="100%" viewBox="0 0 3416 679" version="1.1" xmlns="http://www.w3.org/2000/svg" xmlns:xlink="http://www.w3.org/1999/xlink" xml:space="preserve" style="fill-rule:evenodd;clip-rule:evenodd;stroke-linejoin:round;stroke-miterlimit:1.41421;"><path d="M0.232,678.066c0,0 -19.125,-110.366 290.215,-64.71c2.952,-4.915 73.64,-411.077 554.562,-286.747c-2.444,-2.714 131.308,-382.091 518.082,-316.824c386.774,65.266 397.416,440.442 397.416,440.442c0,0 112.866,-216.318 468.287,-124.828c-0.721,-2.039 140.555,-391.409 526.972,-315.614c386.418,75.794 388.525,439.232 388.525,439.232c0,0 182.428,-25.436 270.856,162.888c-0.016,-5.249 0,66.161 0,66.161l-3414.91,0Z" style="fill:#fff;"/></svg>