<?xml version="1.0" standalone="no"?><!DOCTYPE svg PUBLIC "-//W3C//DTD SVG 1.1//EN" "http://www.w3.org/Graphics/SVG/1.1/DTD/svg11.dtd"><svg width="100%" height="100%" viewBox="0 0 1912 1008" version="1.1" xmlns="http://www.w3.org/2000/svg" xmlns:xlink="http://www.w3.org/1999/xlink" xml:space="preserve" style="fill-rule:evenodd;clip-rule:evenodd;stroke-linejoin:round;stroke-miterlimit:1.41421;"><path d="M1149.11,1007.35c0,0 168.775,-0.808 167.6,-195.948c-1.173,-195.139 -186.206,-180.103 -186.206,-180.103c0,0 -68.556,-265.381 -305.655,-251.41c-12.363,-5.911 -92.16,-164.132 -320.508,-161.837c-228.347,2.295 -308.145,156.623 -324.261,337.644c3.131,6.041 -179.145,17.038 -180.071,226.148c-0.924,209.111 145.864,224.276 145.864,224.276l1003.24,1.23Z" style="fill:#fff;"/><path d="M1743.65,1007.35c0,0 168.775,-0.808 167.6,-195.948c-1.173,-195.139 -186.206,-180.103 -186.206,-180.103c0,0 -68.556,-265.381 -305.655,-251.41c-12.363,-5.911 -92.16,-164.132 -320.508,-161.837c-228.347,2.295 -308.145,156.623 -324.261,337.644c3.131,6.041 -179.145,17.038 -180.071,226.148c-0.924,209.111 145.864,224.276 145.864,224.276l1003.24,1.23Z" style="fill:#fff;"/><path d="M1496.73,789.323c0,0 168.775,-0.809 167.6,-195.948c-1.173,-195.139 -186.206,-180.103 -186.206,-180.103c0,0 -68.556,-265.382 -305.655,-251.41c-12.363,-5.912 -92.16,-164.132 -320.508,-161.837c-228.347,2.295 -308.145,156.623 -324.261,337.644c3.131,6.04 -179.145,17.037 -180.071,226.148c-0.924,209.111 145.864,224.276 145.864,224.276l1003.24,1.23Z" style="fill:#fff;"/><path d="M1715.83,798.466c0,0 168.775,-0.809 167.6,-195.948c-1.173,-195.139 -186.206,-180.103 -186.206,-180.103c0,0 -68.556,-265.382 -305.654,-251.41c-12.364,-5.912 -92.161,-164.132 -320.509,-161.837c-228.347,2.295 -308.145,156.623 -324.261,337.644c3.131,6.04 -179.145,17.037 -180.071,226.148c-0.924,209.11 145.864,224.276 145.864,224.276l1003.24,1.23Z" style="fill:#fff;"/><path d="M1210.55,790.289c0,0 168.775,-0.809 167.6,-195.948c-1.173,-195.14 -186.207,-180.103 -186.207,-180.103c0,0 -68.556,-265.382 -305.654,-251.41c-12.364,-5.912 -92.161,-164.133 -320.509,-161.837c-228.346,2.295 -308.145,156.622 -324.26,337.644c3.13,6.04 -179.145,17.037 -180.071,226.148c-0.925,209.11 145.863,224.276 145.863,224.276l1003.24,1.23Z" style="fill:#fff;"/></svg>