<?xml version="1.0" encoding="UTF-8" standalone="no"?><!DOCTYPE svg PUBLIC "-//W3C//DTD SVG 1.1//EN" "http://www.w3.org/Graphics/SVG/1.1/DTD/svg11.dtd"><svg width="100%" height="100%" viewBox="0 0 501 294" version="1.1" xmlns="http://www.w3.org/2000/svg" xmlns:xlink="http://www.w3.org/1999/xlink" xml:space="preserve" style="fill-rule:evenodd;clip-rule:evenodd;stroke-linejoin:round;stroke-miterlimit:1.41421;"><path d="M493.794,10.094c0,-3.778 -483.999,-6.844 -483.999,-6.844c-3.613,0 -6.545,3.066 -6.545,6.844l0,219c0,3.785 2.932,6.844 6.545,6.844l45.814,0l0,47.906c0,2.525 1.329,4.846 3.456,6.036c0.969,0.541 2.029,0.808 3.089,0.808c1.27,0 2.533,-0.39 3.633,-1.15l76.89,-53.6l352.826,0c3.62,0 1.492,-9.492 1.492,0.062l-3.201,-225.906Z" style="fill:none;stroke:url(#_Linear1);stroke-width:6.5px;"/><defs><linearGradient id="_Linear1" x1="0" y1="0" x2="1" y2="0" gradientUnits="userSpaceOnUse" gradientTransform="matrix(327.247,0,0,287.438,3.25,146.969)"><stop offset="0" style="stop-color:#ffc371;stop-opacity:1"/><stop offset="1" style="stop-color:#ff5f6d;stop-opacity:1"/></linearGradient></defs></svg>