<?xml version="1.0" encoding="UTF-8" standalone="no"?><!DOCTYPE svg PUBLIC "-//W3C//DTD SVG 1.1//EN" "http://www.w3.org/Graphics/SVG/1.1/DTD/svg11.dtd"><svg width="100%" height="100%" viewBox="0 0 32 32" version="1.1" xmlns="http://www.w3.org/2000/svg" xmlns:xlink="http://www.w3.org/1999/xlink" xml:space="preserve" style="fill-rule:evenodd;clip-rule:evenodd;stroke-linejoin:round;stroke-miterlimit:1.41421;"><path d="M15.909,0c-8.772,0 -15.909,7.137 -15.909,15.909c0,8.772 7.137,15.909 15.909,15.909c8.772,0 15.909,-7.137 15.909,-15.909c0,-8.772 -7.137,-15.909 -15.909,-15.909Zm-5.849,21.759c3.225,3.225 8.473,3.225 11.699,0c0.249,-0.249 0.651,-0.249 0.9,0c0.249,0.248 0.249,0.651 0,0.899c-1.861,1.861 -4.306,2.792 -6.75,2.792c-2.444,0 -4.888,-0.931 -6.749,-2.792c-1.803,-1.802 -2.796,-4.199 -2.796,-6.749c0,-2.55 0.992,-4.947 2.796,-6.75c1.803,-1.802 4.2,-2.795 6.749,-2.795c2.55,0 4.947,0.993 6.749,2.796c0.249,0.249 0.249,0.651 0,0.9c-0.248,0.248 -0.651,0.248 -0.899,0c-1.563,-1.563 -3.64,-2.424 -5.85,-2.424c-2.209,0 -4.287,0.861 -5.849,2.424c-1.563,1.562 -2.424,3.64 -2.424,5.849c0,2.21 0.861,4.287 2.424,5.85Z" style="fill:#fff;"/></svg>