<?xml version="1.0" standalone="no"?><!DOCTYPE svg PUBLIC "-//W3C//DTD SVG 1.1//EN" "http://www.w3.org/Graphics/SVG/1.1/DTD/svg11.dtd"><svg width="100%" height="100%" viewBox="0 0 2917 2917" version="1.1" xmlns="http://www.w3.org/2000/svg" xmlns:xlink="http://www.w3.org/1999/xlink" xml:space="preserve" style="fill-rule:evenodd;clip-rule:evenodd;stroke-linejoin:round;stroke-miterlimit:1.41421;"><path d="M557.007,818.683c-17.445,0 -29.075,11.63 -29.075,29.075l0,116.3c0,17.445 11.979,34.134 23.609,40.007l877.717,443.394c17.445,5.815 41.054,5.815 52.684,0l877.717,-443.394c17.445,-5.815 29.075,-22.562 29.075,-40.007l0,-116.3c0,-17.445 -11.63,-29.075 -29.075,-29.075l-1802.65,0l0,0ZM542.47,1176.65c-8.199,0 -14.538,6.92 -14.538,20.004l0,872.251c0,17.445 11.63,29.075 29.075,29.075l1802.65,0c17.445,0 29.075,-11.63 29.075,-29.075l0,-872.251c0,-17.445 -11.979,-23.958 -23.609,-18.201l-877.717,443.394c-17.445,5.815 -41.054,5.815 -52.684,0l-883.183,-443.394c-2.907,-1.454 -6.338,-1.803 -9.071,-1.803l0,0Z" style="fill:#fff;fill-rule:nonzero;"/></svg>