<?xml version="1.0" standalone="no"?><!DOCTYPE svg PUBLIC "-//W3C//DTD SVG 1.1//EN" "http://www.w3.org/Graphics/SVG/1.1/DTD/svg11.dtd"><svg width="100%" height="100%" viewBox="0 0 12155 12155" version="1.1" xmlns="http://www.w3.org/2000/svg" xmlns:xlink="http://www.w3.org/1999/xlink" xml:space="preserve" style="fill-rule:evenodd;clip-rule:evenodd;stroke-linejoin:round;stroke-miterlimit:1.41421;"><g><path d="M10513.8,3615.24c192.212,527.237 9.058,1077.86 -408.225,1229.73c-417.704,152.192 -911.029,-151.975 -1103.35,-679.846c-191.471,-527.662 -9.054,-1078.38 408.225,-1230.36c417.179,-151.875 911.346,152.82 1103.35,680.479l0,0Z" style="fill:#fff;fill-rule:nonzero;"/><path d="M7156.04,5152.29c-366.938,-29.492 -689.959,-55.821 -1179.49,-95.105c-320.283,-25.804 -1062.48,-388.108 -1062.48,-388.108c-51.925,-121.962 -164.304,-310.596 -266.675,-392.533c-74.042,-59.192 -378.208,-106.796 -527.238,-112.588c-106.375,-4.108 -321.125,66.88 -404.433,132.6c-263.725,208.429 -505.858,689.959 -795.175,1084.17c-289.108,394.113 -578.004,788.329 -794.967,1083.75c-3.475,4.109 -170.2,150.717 -172.62,162.721c-190,200.113 -291.213,418.55 -291.213,747.046c0,602.858 471.838,870.692 983.279,1077.12c34.438,13.692 963.267,661.733 1573.29,797.387c95.104,21.275 -700.704,-145.87 -1494.51,-128.6c-313.858,6.846 -628.662,52.98 -878.275,100.688c-212.641,-123.646 -420.862,-158.404 -537.662,-41.704c-171.463,171.354 49.921,536.608 339.133,826.033c289.421,289.529 684.167,525.554 855.629,353.879c64.775,-64.666 69.617,-169.358 35.284,-290.266c919.033,100.37 2672.32,230.654 2762.37,-338.925c88.784,-561.15 -1328.63,-2232.18 -1722,-2452.19c198.425,-270.783 435.188,-593.696 674.583,-920.088c115.642,-157.558 356.301,-483.633 467.1,-634.77c362.725,29.066 707.655,237.079 1180.97,275.1c489.429,39.495 810.658,64.983 1178.12,94.787c311.221,8.425 497.642,-251.083 512.279,-431.604c14.429,-180.521 -188.837,-488.692 -435.291,-508.808l0,0Z" style="fill:#fff;fill-rule:nonzero;"/><path d="M10614.9,8837.92c0,-399.8 0,-799.917 0,-1100.08c1.371,-18.745 290.054,-1098.18 290.054,-1449.85c0,-351.458 -127.438,-972.854 -214.013,-1050.79c-85.52,-99.317 -355.458,-261.829 -513.125,-261.829c-155.345,0 -488.687,223.808 -537.979,259.408c-9.375,-18.746 -12.746,-23.383 -3.475,2.421c-199.375,71.512 -390.112,396.008 -656.362,491.221c-265.834,95.524 -795.28,273.516 -801.075,293.529c-42.759,31.491 -212.538,142.287 -143.55,420.862c62.662,256.038 344.083,237.604 377.995,234.025c17.275,11.692 539.246,-186.421 805.605,-281.733c141.866,-50.663 283.312,-101.321 414.858,-148.504c0.212,7.583 -321.442,769.266 15.379,1398.45c295.004,550.725 240.975,1451.54 178.308,2023.64l-30.858,0c-158.721,0 -287.425,128.704 -287.425,287.529c0,158.72 128.808,287.421 287.425,287.421l623.183,-0.001c158.721,0.001 287.421,-128.808 287.421,-287.42c0,-77.729 -31.383,-147.975 -81.412,-199.688c-1.475,-293.533 -10.954,-685.854 -10.954,-918.612l0,0Z" style="fill:#fff;fill-rule:nonzero;"/><path d="M5681.25,2118.52c201.163,-63.613 153.875,-289 -196.742,-358.196c-693.329,-137.025 -1202.14,330.708 -1325.47,554.938c-141.342,256.983 -597.171,1267.64 -867.638,1367.6c-331.55,122.488 465.838,484.055 800.021,360.725c58.771,-21.8 112.063,-46.866 161.037,-74.25c73.409,68.459 158.509,122.804 254.876,157.875c487.008,177.254 1066.9,-187.366 1294.72,-814.133c162.192,-445.825 102.054,-903.233 -120.804,-1194.55l0,0Z" style="fill:#fff;fill-rule:nonzero;"/></g></svg>