<?xml version="1.0" standalone="no"?><!DOCTYPE svg PUBLIC "-//W3C//DTD SVG 1.1//EN" "http://www.w3.org/Graphics/SVG/1.1/DTD/svg11.dtd"><svg width="100%" height="100%" viewBox="0 0 2917 2917" version="1.1" xmlns="http://www.w3.org/2000/svg" xmlns:xlink="http://www.w3.org/1999/xlink" xml:space="preserve" style="fill-rule:evenodd;clip-rule:evenodd;stroke-linejoin:round;stroke-miterlimit:1.41421;"><g><path d="M2523.31,867.658c46.131,126.537 2.174,258.686 -97.974,295.135c-100.249,36.526 -218.647,-36.474 -264.803,-163.163c-45.953,-126.639 -2.173,-258.812 97.974,-295.287c100.123,-36.45 218.723,36.677 264.803,163.315Z" style="fill:#109d59;fill-rule:nonzero;"/><path d="M1717.45,1236.55c-88.065,-7.078 -165.59,-13.397 -283.078,-22.825c-76.868,-6.193 -254.995,-93.146 -254.995,-93.146c-12.462,-29.271 -39.433,-74.543 -64.002,-94.208c-17.77,-14.206 -90.77,-25.631 -126.537,-27.021c-25.53,-0.986 -77.07,16.051 -97.064,31.824c-63.294,50.023 -121.406,165.59 -190.842,260.202c-69.386,94.587 -138.721,189.199 -190.792,260.101c-0.834,0.986 -40.848,36.172 -41.429,39.053c-45.6,48.027 -69.891,100.452 -69.891,179.291c0,144.686 113.241,208.966 235.987,258.509c8.265,3.286 231.184,158.816 377.589,191.373c22.825,5.106 -168.169,-35.009 -358.682,-30.864c-75.326,1.643 -150.879,12.715 -210.786,24.165c-51.034,-29.675 -101.007,-38.017 -129.039,-10.009c-41.151,41.125 11.981,128.786 81.392,198.248c69.461,69.487 164.2,126.133 205.351,84.931c15.546,-15.52 16.708,-40.646 8.468,-69.664c220.568,24.089 641.356,55.357 662.968,-81.342c21.308,-134.676 -318.871,-535.722 -413.281,-588.526c47.622,-64.988 104.445,-142.487 161.9,-220.821c27.754,-37.814 85.512,-116.072 112.104,-152.345c87.054,6.976 169.837,56.899 283.432,66.024c117.463,9.479 194.558,15.596 282.75,22.749c74.693,2.022 119.434,-60.26 122.947,-103.585c3.463,-43.325 -45.321,-117.286 -104.47,-122.114Z" style="fill:#109d59;fill-rule:nonzero;"/><path d="M2547.58,2121.1c0,-95.952 0,-191.98 0,-264.02c0.329,-4.499 69.613,-263.564 69.613,-347.964c0,-84.35 -30.585,-233.485 -51.363,-252.19c-20.525,-23.836 -85.31,-62.839 -123.15,-62.839c-37.283,0 -117.285,53.714 -129.115,62.258c-2.25,-4.499 -3.059,-5.612 -0.834,0.581c-47.85,17.163 -93.627,95.042 -157.527,117.893c-63.8,22.926 -190.867,65.644 -192.258,70.447c-10.262,7.558 -51.009,34.149 -34.452,101.007c15.039,61.449 82.58,57.025 90.719,56.166c4.146,2.806 129.419,-44.741 193.345,-67.616c34.048,-12.159 67.995,-24.317 99.566,-35.641c0.051,1.82 -77.146,184.624 3.691,335.629c70.801,132.174 57.834,348.369 42.794,485.674l-7.406,0c-38.093,0 -68.982,30.889 -68.982,69.007c0,38.093 30.914,68.981 68.982,68.981l149.564,0c38.093,0 68.981,-30.914 68.981,-68.981c0,-18.655 -7.532,-35.514 -19.539,-47.925c-0.354,-70.448 -2.629,-164.605 -2.629,-220.467Z" style="fill:#109d59;fill-rule:nonzero;"/><path d="M1363.5,508.445c48.279,-15.267 36.93,-69.36 -47.218,-85.967c-166.399,-32.886 -288.513,79.37 -318.112,133.185c-33.922,61.676 -143.321,304.235 -208.233,328.223c-79.572,29.397 111.801,116.173 192.005,86.574c14.105,-5.232 26.895,-11.248 38.649,-17.82c17.618,16.43 38.042,29.473 61.17,37.89c116.882,42.541 256.057,-44.968 310.732,-195.392c38.926,-106.998 24.493,-216.776 -28.993,-286.693Z" style="fill:#109d59;fill-rule:nonzero;"/></g></svg>