<?xml version="1.0" standalone="no"?><!DOCTYPE svg PUBLIC "-//W3C//DTD SVG 1.1//EN" "http://www.w3.org/Graphics/SVG/1.1/DTD/svg11.dtd"><svg width="100%" height="100%" viewBox="0 0 2917 2917" version="1.1" xmlns="http://www.w3.org/2000/svg" xmlns:xlink="http://www.w3.org/1999/xlink" xml:space="preserve" style="fill-rule:evenodd;clip-rule:evenodd;stroke-linejoin:round;stroke-miterlimit:1.41421;"><path d="M1631.58,446.105c-608.674,0 -552.467,508.737 -552.467,508.737l-184.156,0l0,524.394l184.135,0l0,991.326l589.919,0l0,-991.326l252.799,0l0,-471.327l99.896,-471.286c-193.534,-81.14 -390.126,-90.518 -390.126,-90.518ZM1815.72,826.873c0,0 -199.751,-35.142 -246.601,21.45c-68.785,34.493 -46.808,256.363 -46.808,256.363l249.679,0l0,224.706l-249.659,0l0,995.701l-296.508,0l0,-995.701l-184.176,0l0,-224.726c0,0 186.991,0 187.274,0c-17.094,-0.04 9.297,-219.946 11.303,-240.727c10.573,-110.327 91.956,-207.55 196.632,-243.664c143.363,-49.401 274.37,-22.22 416.315,13.064c-12.477,64.491 -25.034,129.245 -37.451,193.534Z" style="fill:#fff;fill-rule:nonzero;"/></svg>