<?xml version="1.0" encoding="UTF-8" standalone="no"?><!DOCTYPE svg PUBLIC "-//W3C//DTD SVG 1.1//EN" "http://www.w3.org/Graphics/SVG/1.1/DTD/svg11.dtd"><svg width="100%" height="100%" viewBox="0 0 28 28" version="1.1" xmlns="http://www.w3.org/2000/svg" xmlns:xlink="http://www.w3.org/1999/xlink" xml:space="preserve" style="fill-rule:evenodd;clip-rule:evenodd;stroke-linejoin:round;stroke-miterlimit:1.41421;"><path d="M27.893,4.655c0,-2.447 -2.206,-4.655 -4.652,-4.655l-18.593,0c-2.441,0 -4.648,2.208 -4.648,4.655l0,18.586c0,2.448 2.207,4.652 4.648,4.652l9.298,0l0,-10.538l-3.406,0l0,-4.646l3.406,0l0,-1.813c0,-3.121 2.346,-5.936 5.23,-5.936l3.759,0l0,4.653l-3.759,0c-0.409,0 -0.893,0.496 -0.893,1.244l0,1.853l4.653,0l0,4.646l-4.653,0l0,10.537l4.958,0c2.446,0 4.652,-2.204 4.652,-4.652l0,-18.586Z" style="fill:#fff;"/></svg>