<?xml version="1.0" standalone="no"?><!DOCTYPE svg PUBLIC "-//W3C//DTD SVG 1.1//EN" "http://www.w3.org/Graphics/SVG/1.1/DTD/svg11.dtd"><svg width="100%" height="100%" viewBox="0 0 773 781" version="1.1" xmlns="http://www.w3.org/2000/svg" xmlns:xlink="http://www.w3.org/1999/xlink" xml:space="preserve" style="fill-rule:evenodd;clip-rule:evenodd;stroke-linejoin:round;stroke-miterlimit:1.41421;"><rect x="0" y="390.09" width="772.239" height="390.09" style="fill:#4385f5;"/><path d="M386.119,0l38.971,119.04l70.93,-103.239l3.855,125.198l97.143,-79.074l-31.574,121.213l115.486,-48.503l-64.444,107.407l124.472,-14.001l-92.094,84.9l123.375,21.633l-112.283,55.516l112.283,55.516l-123.375,21.633l92.094,84.9l-124.472,-14.002l64.444,107.408l-115.486,-48.503l31.574,121.212l-97.143,-79.073l-3.855,125.198l-70.93,-103.239l-38.971,119.04l-38.971,-119.04l-70.93,103.239l-3.855,-125.198l-97.142,79.073l31.573,-121.212l-115.485,48.503l64.444,-107.408l-124.472,14.002l92.094,-84.9l-123.375,-21.633l112.282,-55.516l-112.282,-55.516l123.375,-21.633l-92.094,-84.9l124.472,14.001l-64.444,-107.407l115.485,48.503l-31.573,-121.213l97.142,79.074l3.855,-125.198l70.93,103.239l38.971,-119.04Z" style="fill:#fcbe1f;"/></svg>