<?xml version="1.0" encoding="UTF-8" standalone="no"?><!DOCTYPE svg PUBLIC "-//W3C//DTD SVG 1.1//EN" "http://www.w3.org/Graphics/SVG/1.1/DTD/svg11.dtd"><svg width="100%" height="100%" viewBox="0 0 32 28" version="1.1" xmlns="http://www.w3.org/2000/svg" xmlns:xlink="http://www.w3.org/1999/xlink" xml:space="preserve" style="fill-rule:evenodd;clip-rule:evenodd;stroke-linejoin:round;stroke-miterlimit:1.41421;"><path d="M28.625,2.589c-1.669,-1.669 -3.889,-2.589 -6.251,-2.589c-2.361,0 -4.581,0.92 -6.252,2.589l-0.516,0.517l-0.517,-0.517c-1.67,-1.669 -3.89,-2.589 -6.251,-2.589c-2.362,0 -4.582,0.92 -6.253,2.589c-3.447,3.448 -3.447,9.056 0,12.504l12.571,12.57c0.12,0.119 0.281,0.186 0.45,0.186c0.169,0 0.331,-0.067 0.45,-0.186l12.569,-12.57c3.447,-3.448 3.447,-9.056 0,-12.504Z" style="fill:#fff;"/></svg>