<?xml version="1.0" standalone="no"?><!DOCTYPE svg PUBLIC "-//W3C//DTD SVG 1.1//EN" "http://www.w3.org/Graphics/SVG/1.1/DTD/svg11.dtd"><svg width="100%" height="100%" viewBox="0 0 417 417" version="1.1" xmlns="http://www.w3.org/2000/svg" xmlns:xlink="http://www.w3.org/1999/xlink" xml:space="preserve" style="fill-rule:evenodd;clip-rule:evenodd;stroke-linejoin:round;stroke-miterlimit:1.41421;"><g><path d="M127.779,210.227c-17.5,-42.084 -71.25,-29.584 -71.25,-29.584c0,0 -1.25,-18.75 -19.167,-18.75c-17.916,0 -26.666,66.25 50.834,63.75c0,0 -13.75,30 8.75,50.834c0,0 48.75,-24.167 30.833,-66.25Z" style="fill:#4385f5;fill-rule:nonzero;"/><path d="M176.529,192.727l-46.25,0c0,0 43.333,45 -24.167,91.25c0,0 12.5,17.083 57.917,25.416c-0.417,0 -6.667,-91.25 12.5,-116.666Z" style="fill:#4385f5;fill-rule:nonzero;"/><circle cx="327.779" cy="229.393" r="63.75" style="fill:#4385f5;"/><path d="M233.612,141.893l0.417,0l20.833,-3.333c2.5,10.417 12.5,18.333 24.584,18.333l2.916,0l-11.25,-45.833l-1.25,0.417c-9.166,3.333 -15.416,11.25 -15.833,20.416l-19.583,3.334c1.666,-3.334 2.916,-5.417 2.916,-5.417c0,0 9.584,-15.417 -12.916,-22.083c-12.084,-3.334 -22.917,12.083 -26.667,33.75c-0.417,0 -0.417,0 -0.833,0l-10.834,1.666c-2.083,-4.166 -5.833,-6.666 -10.833,-6.666c-6.667,0 -12.083,5.416 -12.083,12.083c0,6.667 5.416,12.083 12.083,12.083c6.25,0 11.25,-4.583 11.667,-10.833l10,-1.667c-1.667,16.667 1.25,36.25 10.833,53.334l-24.167,-7.917c0,0 -16.25,46.667 -10.833,115c0,0 84.167,6.25 84.583,-51.667c0,0 2.5,-24.166 -18.333,-55c-15.417,-23.333 -11.667,-46.25 -7.083,-60c0.416,0 1.25,0 1.666,0ZM175.696,153.977c-2.917,0 -5.417,-2.5 -5.417,-5.417c0,-2.917 2.5,-5.417 5.417,-5.417c2.916,0 5.416,2.5 5.416,5.417c0,2.917 -2.5,5.417 -5.416,5.417Z" style="fill:#4385f5;fill-rule:nonzero;"/><path d="M287.779,155.643c10.417,-3.333 16.667,-12.083 16.667,-22.083c0,-1.25 0,-2.083 -0.417,-3.333l4.583,-0.834c1.667,-0.416 2.917,-2.083 2.5,-3.75c-0.416,-1.666 -2.083,-2.916 -3.75,-2.5l-5.416,0.834c-3.75,-8.334 -12.917,-14.167 -23.334,-14.167l-2.083,0l0.417,1.25c9.166,44.583 9.583,44.583 10.833,44.583Z" style="fill:#4385f5;fill-rule:nonzero;"/></g></svg>