<svg xmlns="http://www.w3.org/2000/svg" xmlns:xlink="http://www.w3.org/1999/xlink" version="1.1" x="0px" y="0px" viewBox="0 0 40 50" enable-background="new 0 0 40 40" xml:space="preserve"><path fill-rule="evenodd" clip-rule="evenodd" d="M20,6c-4.7,0-8.5,3.8-8.5,8.5c0,1.2,0.6,2.9,0.6,2.9  c2.3,5.8,7.7,16.4,7.7,16.4c0.1,0.1,0.2,0.2,0.2,0.2c0.1,0,0.2-0.1,0.2-0.2c0,0,5.4-10.6,7.7-16.4c0,0,0.6-1.7,0.6-2.9  C28.5,9.8,24.7,6,20,6z M20,17c-1.4,0-2.5-1.1-2.5-2.5c0-1.4,1.1-2.5,2.5-2.5c1.4,0,2.5,1.1,2.5,2.5C22.5,15.8,21.4,17,20,17z"/></svg>