<svg fill="#109D59" xmlns="http://www.w3.org/2000/svg" xmlns:xlink="http://www.w3.org/1999/xlink" version="1.1" x="0px" y="0px" viewBox="0 0 100 125" enable-background="new 0 0 100 100" xml:space="preserve">
  <g>
    <path d="M43.315,59.678c-0.827-0.734-1.687-1.466-2.679-2.159c-0.349-0.247-0.545-0.42-0.614-0.489   c-2.989-3.044-0.019-8.708,4.247-12.975l0.177-0.175c2.696-2.66,6.751-5.496,10.06-5.471c1.616,0.011,2.617,0.686,3.175,1.252   c0.054,0.057,0.232,0.26,0.475,0.622c0.663,0.979,1.365,1.826,2.072,2.646c6.203-7.977,9.122-14.952,6.736-17.38   c-3.266-3.312-15.224,3.153-26.698,14.442C28.79,51.293,22.144,63.14,25.401,66.463C27.836,68.929,35.056,65.987,43.315,59.678z"/>
    <g>
      <path d="M31.258,31.348c-0.632,0.624-1.145,1.317-1.601,2.035c0.308-0.123,0.614-0.251,0.904-0.421    c1.936-1.133,4.438-0.49,5.583,1.44c0.939,1.609,0.678,3.638-0.631,4.945c-0.246,0.247-0.522,0.464-0.826,0.637    c-1.983,1.174-4.181,1.778-6.422,1.921c0.403,1.703,1.161,3.341,2.374,4.742c2.157-2.702,4.685-5.524,7.507-8.296    c2.817-2.781,5.673-5.268,8.422-7.375C42.187,27.072,35.491,27.183,31.258,31.348z"/>
      <path d="M24.067,39.914c3.34,0.867,6.818,0.382,9.78-1.369c1.15-0.668,1.531-2.148,0.862-3.294    c-0.679-1.145-2.153-1.524-3.3-0.851c-1.863,1.098-4.039,1.404-6.128,0.863c-2.097-0.549-3.854-1.874-4.948-3.737    c-2.263-3.844-0.982-8.823,2.871-11.083c1.862-1.098,4.043-1.402,6.126-0.859c1.508,0.39,2.826,1.197,3.865,2.305    c0.175,0.187,0.323,0.39,0.476,0.589c0.162,0.209,0.329,0.417,0.473,0.646c0.754,1.213,1.162,2.578,1.22,3.962    c1.55-0.467,3.156-0.639,4.759-0.515c-0.123-1.857-0.673-3.676-1.577-5.353c-0.044-0.112-0.054-0.231-0.117-0.338    c-0.076-0.13-0.183-0.237-0.264-0.362c-0.214-0.34-0.464-0.662-0.714-0.983c-0.25-0.325-0.495-0.655-0.774-0.953    c-0.064-0.068-0.107-0.145-0.174-0.211l-0.027,0.026c-1.623-1.654-3.639-2.871-5.932-3.466c-3.332-0.867-6.811-0.377-9.78,1.372    c-0.938,0.551-1.774,1.197-2.513,1.922c-4.116,4.051-5.128,10.545-2.071,15.749C17.93,36.938,20.725,39.054,24.067,39.914z"/>
    </g>
    <g>
      <path d="M80.69,80.472c-0.033,0.033-0.068,0.068-0.104,0.104c-6.782,6.677-17.689,6.592-24.369-0.188    c-3.286-3.341-4.933-7.688-4.938-12.036c-0.006-0.011-0.006-0.025-0.006-0.029c-0.908-7.714-9.223-12.802-9.467-13.046    c-1.433-1.462,0.457-5.676,4.232-9.453c0.054-0.054,0.109-0.109,0.166-0.164c3.884-3.835,8.233-5.728,9.69-4.247    c0.241,0.244,5.193,8.64,12.892,9.664c0.013,0.003,0.021,0.006,0.03,0.006c4.35,0.09,8.668,1.789,11.96,5.134    C87.413,62.964,87.367,73.796,80.69,80.472 M59.141,75.332c-0.62,0.62-0.615,1.624-0.002,2.25    c5.098,5.178,13.462,5.242,18.644,0.147c0.002-0.002,0.004-0.004,0.007-0.007c0.623-0.624,0.628-1.638,0.006-2.262    c-0.617-0.633-1.639-0.645-2.271-0.019c-3.915,3.852-10.245,3.813-14.1-0.115c-0.619-0.628-1.634-0.635-2.269-0.01    C59.152,75.321,59.145,75.327,59.141,75.332"/>
    </g>
  </g>
</svg>
