<svg xmlns="http://www.w3.org/2000/svg" xmlns:xlink="http://www.w3.org/1999/xlink" version="1.1" x="0px" y="0px" viewBox="0 0 100 125" enable-background="new 0 0 100 100" xml:space="preserve"><path fill="#000000" d="M28.163,58.871c-7.117,0-12.89,5.775-12.89,12.892c0,7.123,5.772,12.893,12.89,12.893  c7.114,0,12.884-5.77,12.884-12.893C41.046,64.646,35.277,58.871,28.163,58.871z M28.163,76.201c-2.452,0-4.444-1.992-4.444-4.438  s1.992-4.433,4.444-4.433c2.441,0,4.436,1.986,4.436,4.433S30.604,76.201,28.163,76.201z"/><path fill="#000000" d="M73.458,58.871c-7.111,0-12.889,5.775-12.889,12.892c0,7.123,5.777,12.893,12.889,12.893  c7.112,0,12.885-5.77,12.885-12.893C86.343,64.646,80.57,58.871,73.458,58.871z M73.458,76.201c-2.451,0-4.44-1.992-4.44-4.438  s1.989-4.433,4.44-4.433c2.444,0,4.436,1.986,4.436,4.433S75.902,76.201,73.458,76.201z"/><g><path fill="#000000" d="M92.365,46.175c-14.484-6.158-29.146-19.951-29.146-19.951C47.778,13.559,31.99,19.955,31.99,19.955   C0.41,31.729,0.001,59.193,0.001,59.193c0.452,8.031,7.954,7.968,7.954,7.968h2.486c0,0,3.17-13.188,17.766-13.759   c0,0,13.389-0.417,17.753,13.759h9.74c0,0,3.342-13.418,17.803-13.759c0,0,13.233-0.592,17.753,13.759l3.413-0.005   c0,0,4.928,0.079,5.281-5.439C99.95,61.717,101.089,49.885,92.365,46.175z M15.823,37.389c4.821-4.927,9.46-8.116,13.806-10.101   L27.851,42.38c-5.598-0.183-9.883-0.313-11.18-0.331C11.733,41.983,15.823,37.389,15.823,37.389z M69.755,43.813   c0,0-20.841-0.734-36.507-1.256l2.031-17.25c14.126-3.444,23.908,5.286,23.908,5.286l13.542,11.456   C75.017,44.479,69.755,43.813,69.755,43.813z"/></g></svg>
