<?xml version="1.0" encoding="UTF-8" standalone="no"?>
<!DOCTYPE svg PUBLIC "-//W3C//DTD SVG 1.1//EN" "http://www.w3.org/Graphics/SVG/1.1/DTD/svg11.dtd">
<svg width="100%" height="100%" viewBox="0 0 374 274" version="1.1" xmlns="http://www.w3.org/2000/svg" xmlns:xlink="http://www.w3.org/1999/xlink" xml:space="preserve" style="fill-rule:evenodd;clip-rule:evenodd;stroke-linejoin:round;stroke-miterlimit:1.41421;">
    <g transform="matrix(0.24,0,0,0.24,-167.993,-269.067)">
        <g transform="matrix(1,0,0,1,-48.0293,-68.8893)">
            <rect x="748" y="1190" width="1556" height="1140" style="fill:rgb(206,167,106);fill-opacity:0.843137;"/>
        </g>
        <g transform="matrix(0.621051,0,0,0.621051,797.254,1157.09)">
            <path d="M393.178,168.479C416.392,170.162 437.588,175.965 456.765,185.89C475.942,195.815 492.428,208.768 506.222,224.749C520.016,240.73 530.698,259.487 538.268,281.019C545.838,302.552 549.455,325.766 549.118,350.663C548.782,367.821 546.932,385.653 543.567,404.157C540.203,422.661 534.904,440.409 527.67,457.399C520.437,474.389 511.185,489.781 499.914,503.576C488.643,517.37 475.269,528.304 459.793,536.379C442.971,544.79 425.056,550.257 406.047,552.78C387.038,555.303 368.533,555.808 350.534,554.294C332.534,552.78 315.88,550.005 300.572,545.967C285.264,541.93 273.068,537.556 263.984,532.846C241.442,520.734 222.77,504.248 207.966,483.389C201.574,474.305 195.77,463.875 190.556,452.1C185.341,440.324 181.387,427.035 178.696,412.232C176.004,397.428 174.995,380.858 175.668,362.522C176.341,344.186 179.537,323.916 185.257,301.71C191.313,283.206 198.882,267.057 207.966,253.263C217.05,239.469 227.059,227.693 237.994,217.936C248.928,208.18 260.367,200.189 272.311,193.965C284.255,187.741 295.946,182.778 307.385,179.077C334.3,170.33 362.898,166.797 393.178,168.479ZM461.307,357.728C461.307,346.962 460.13,336.869 457.774,327.448C455.419,319.71 451.719,311.972 446.672,304.234C441.625,296.496 433.887,291.281 423.457,288.589C412.355,286.907 402.43,288.085 393.682,292.122C385.944,295.823 378.795,302.888 372.234,313.318C365.674,323.747 361.72,340.065 360.375,362.27C359.029,384.812 360.375,402.138 364.412,414.25C368.449,426.362 373.159,435.278 378.542,440.997C384.598,447.39 391.832,451.091 400.243,452.1C407.645,452.773 414.289,451.932 420.177,449.577C426.065,447.222 431.196,443.857 435.569,439.483C439.943,435.11 443.56,430.063 446.42,424.343C449.279,418.624 451.719,412.736 453.737,406.68C458.111,392.55 460.634,376.232 461.307,357.728Z" style="fill:white;fill-rule:nonzero;"/>
            <path d="M950.83,462.698C943.428,476.828 935.101,488.688 925.849,498.277C916.597,507.865 907.093,515.603 897.336,521.491C887.579,527.379 877.906,531.837 868.318,534.865C858.729,537.893 849.897,539.995 841.823,541.173C833.748,542.35 826.767,542.939 820.879,542.939C814.992,542.939 810.87,542.939 808.515,542.939C792.029,542.939 778.235,540.668 767.133,536.126C756.03,531.584 747.03,525.528 740.133,517.958C733.236,510.389 728.021,501.893 724.489,492.473C720.956,483.053 718.685,473.296 717.676,463.203C714.984,439.652 717.508,412.904 725.246,382.961C726.928,377.578 727.937,372.7 728.274,368.326C728.61,364.625 728.106,360.924 726.76,357.223C725.414,353.522 722.386,351.167 717.676,350.158C712.293,349.149 707.751,350.579 704.05,354.448C700.349,358.317 697.658,362.775 695.975,367.821C693.284,387.335 691.77,407.017 691.433,426.867C691.097,446.717 691.265,464.885 691.938,481.37C692.947,500.548 694.293,519.22 695.975,537.388L577.884,537.388C574.52,517.874 572.585,497.688 572.081,476.828C571.576,455.969 571.66,436.96 572.333,419.802C573.006,399.615 574.183,380.101 575.866,361.261C576.875,350.495 577.968,340.401 579.146,330.981C580.323,321.561 581.417,313.318 582.426,306.252C583.772,298.178 585.118,290.776 586.463,284.047L705.564,284.047C704.555,287.748 703.545,291.449 702.536,295.15C701.863,298.514 701.19,301.963 700.517,305.495C699.844,309.028 699.508,312.308 699.508,315.336C705.9,309.617 712.209,304.486 718.433,299.944C724.657,295.402 731.218,291.701 738.115,288.842C745.012,285.982 752.413,283.963 760.32,282.786C768.226,281.608 777.058,281.187 786.815,281.524C801.955,282.87 814.739,287.075 825.169,294.14C829.543,297.168 833.664,300.953 837.533,305.495C841.402,310.037 844.346,315.589 846.365,322.149C848.383,328.71 849.393,336.448 849.393,345.364C849.393,354.279 847.879,364.457 844.851,375.896C840.141,389.017 836.944,401.465 835.262,413.241C833.58,423.334 833.159,433.427 834.001,443.521C834.842,453.614 838.458,461.352 844.851,466.735C852.589,473.464 860.916,476.071 869.832,474.557C878.747,473.043 887.074,469.931 894.812,465.221C902.551,460.511 909.279,455.296 914.999,449.577C920.718,443.857 924.251,439.82 925.597,437.465L950.83,462.698Z" style="fill:white;fill-rule:nonzero;"/>
            <path d="M1146.64,377.41C1142.94,389.185 1136.71,399.026 1127.97,406.933C1119.22,414.839 1109.63,421.316 1099.2,426.362C1088.77,431.409 1078.34,435.194 1067.91,437.717C1057.48,440.24 1048.57,442.007 1041.16,443.016C1043.18,452.1 1047.05,459.249 1052.77,464.464C1058.49,469.679 1063.37,473.296 1067.41,475.314C1073.8,478.342 1080.53,479.856 1087.59,479.856C1093.65,479.856 1100.46,478.342 1108.03,475.314C1115.6,472.286 1123.59,466.231 1132,457.147L1168.34,482.884C1164.64,488.94 1160.27,494.996 1155.22,501.052C1150.85,506.099 1145.46,511.23 1139.07,516.444C1132.68,521.659 1125.44,526.117 1117.37,529.818C1110.98,533.519 1102.57,536.631 1092.14,539.154C1081.71,541.678 1070.35,543.192 1058.07,543.696C1045.79,544.201 1033.09,543.444 1019.97,541.425C1006.85,539.407 994.567,535.538 983.128,529.818C970.344,523.762 959.662,516.108 951.082,506.856C942.503,497.604 935.774,487.426 930.896,476.324C926.017,465.221 922.821,453.614 921.307,441.502C919.793,429.39 919.541,417.446 920.55,405.671C921.56,393.896 923.746,382.793 927.111,372.363C930.475,361.934 934.513,352.681 939.223,344.607C949.989,327.112 963.363,312.897 979.343,301.963C995.324,291.028 1011.81,283.374 1028.8,279.001C1045.79,274.627 1062.53,273.618 1079.01,275.973C1095.5,278.328 1109.63,284.215 1121.41,293.636C1131.16,302.047 1138.06,311.047 1142.1,320.635C1146.13,330.224 1148.49,339.224 1149.16,347.635C1150.17,357.392 1149.33,367.317 1146.64,377.41ZM1038.64,410.213C1047.39,409.876 1055.3,408.699 1062.36,406.68C1068.42,404.998 1074.14,402.138 1079.52,398.101C1084.9,394.064 1088.1,388.344 1089.11,380.942C1089.78,375.559 1087.59,370.765 1082.55,366.56C1077.5,362.354 1071.28,361.092 1063.88,362.775C1056.47,364.793 1051.01,368.326 1047.47,373.373C1043.94,378.419 1041.5,383.802 1040.15,389.522C1038.81,395.914 1038.31,402.811 1038.64,410.213Z" style="fill:white;fill-rule:nonzero;"/>
            <path d="M270.04,897.661C277.778,876.129 284.423,852.326 289.974,826.251C295.525,800.177 300.151,774.103 303.852,748.029C307.553,721.954 310.329,697.226 312.179,673.843C314.03,650.46 315.291,630.526 315.964,614.041L462.316,614.041C462.316,614.714 462.148,616.564 461.812,619.592C461.475,622.62 461.139,625.9 460.802,629.433C460.466,632.965 460.13,636.246 459.793,639.274C459.457,642.302 459.288,644.152 459.288,644.825C463.662,640.451 468.709,636.919 474.428,634.227C480.148,631.536 486.12,629.433 492.344,627.919C498.568,626.405 504.792,625.564 511.016,625.396C517.241,625.227 523.212,625.48 528.932,626.153C545.081,628.171 558.791,632.545 570.062,639.274C581.333,646.003 590.501,654.33 597.566,664.255C604.631,674.18 609.762,685.366 612.958,697.815C616.154,710.263 617.584,723.216 617.248,736.674C617.248,745.085 615.986,753.496 613.463,761.907C610.94,770.318 607.659,778.056 603.622,785.121C599.585,792.187 594.959,798.327 589.744,803.542C584.529,808.756 578.894,812.541 572.838,814.896C581.922,824.653 588.23,834.999 591.762,845.933C595.295,856.868 596.809,867.97 596.304,879.241C595.8,890.512 593.697,901.53 589.996,912.296C586.295,923.062 581.501,932.988 575.613,942.071C569.726,951.155 563.249,959.146 556.184,966.043C549.118,972.94 542.053,978.071 534.988,981.435C517.829,989.846 501.428,994.725 485.783,996.07C470.139,997.416 456.092,997.248 443.644,995.566C429.177,993.884 415.383,990.519 402.262,985.472C395.196,982.781 389.056,979.921 383.841,976.893C378.627,973.865 372.486,970.333 365.421,966.295C350.281,976.725 333.796,984.211 315.964,988.753C298.133,993.295 280.301,995.566 262.47,995.566C244.302,994.893 229.751,992.033 218.817,986.986C207.882,981.94 199.555,976.557 193.836,970.837C186.771,964.445 181.892,957.043 179.201,948.632C176.846,939.548 176.341,931.137 177.687,923.399C179.032,916.67 182.144,910.109 187.023,903.717C191.901,897.325 200.733,892.615 213.518,889.587C220.583,887.904 227.48,887.316 234.209,887.82C240.938,888.325 246.994,889.418 252.377,891.101C258.433,892.783 264.32,894.97 270.04,897.661ZM460.298,884.54C462.989,873.774 461.728,864.858 456.513,857.793C451.298,850.727 443.307,846.017 432.541,843.662C429.513,856.447 426.401,867.802 423.205,877.727C420.009,887.652 416.056,897.661 411.345,907.754C416.056,909.437 420.85,910.53 425.728,911.035C430.607,911.539 435.317,910.951 439.859,909.268C444.401,907.586 448.438,904.811 451.971,900.941C455.503,897.072 458.279,891.605 460.298,884.54ZM483.512,744.244C483.512,740.879 483.344,737.262 483.008,733.393C482.671,729.524 481.494,725.908 479.475,722.543C477.456,719.179 474.344,716.319 470.139,713.964C465.933,711.609 460.13,710.095 452.728,709.422C452.391,716.151 451.971,722.038 451.466,727.085C450.962,732.132 450.457,737.01 449.952,741.72C449.448,746.431 448.859,751.141 448.186,755.851C447.513,760.561 446.672,765.944 445.663,772C449.027,772.673 452.728,772.925 456.765,772.757C460.802,772.589 464.756,771.58 468.625,769.729C472.494,767.879 475.774,764.935 478.466,760.898C481.157,756.86 482.839,751.309 483.512,744.244ZM231.181,925.418C233.872,926.09 236.732,926.427 239.76,926.427C242.452,926.427 245.396,925.922 248.592,924.913C251.788,923.904 255.236,922.053 258.937,919.362C256.582,918.352 254.059,917.175 251.367,915.829C249.012,915.156 246.321,914.399 243.293,913.558C240.265,912.717 237.069,912.296 233.704,912.296C232.358,912.296 231.013,912.633 229.667,913.306C227.312,914.651 226.134,916.67 226.134,919.362C226.134,921.38 226.975,922.894 228.658,923.904C229.33,924.576 230.172,925.081 231.181,925.418Z" style="fill:white;fill-rule:nonzero;"/>
            <path d="M857.467,911.287C848.72,928.782 837.281,943.922 823.15,956.707C817.094,962.09 810.113,967.22 802.207,972.099C794.3,976.977 785.385,981.015 775.46,984.211C765.535,987.407 754.516,989.594 742.404,990.771C730.292,991.949 717.003,991.528 702.536,989.51C683.695,986.818 668.555,981.099 657.116,972.351C645.677,963.604 637.014,953.006 631.126,940.557C625.238,928.109 621.79,914.315 620.781,899.175C619.771,884.035 620.276,868.727 622.295,853.251C626.332,817.252 637.603,777.215 656.107,733.141L776.721,733.141C765.619,762.412 757.376,789.495 751.993,814.392C749.638,825.158 747.871,835.84 746.694,846.438C745.516,857.036 745.264,866.877 745.937,875.961C746.61,885.045 748.46,893.035 751.488,899.932C754.516,906.829 759.226,911.792 765.619,914.82C773.021,917.511 780.59,918.352 788.329,917.343C795.057,916.67 802.375,914.063 810.281,909.521C818.188,904.979 825.674,896.82 832.739,885.045L857.467,911.287ZM809.524,644.825C809.524,653.909 807.842,662.32 804.478,670.058C801.113,677.796 796.487,684.609 790.6,690.497C784.712,696.385 777.899,701.011 770.161,704.375C762.423,707.74 754.18,709.422 745.432,709.422C736.348,709.422 727.937,707.74 720.199,704.375C712.461,701.011 705.648,696.385 699.76,690.497C693.873,684.609 689.246,677.796 685.882,670.058C682.518,662.32 680.835,653.909 680.835,644.825C680.835,636.078 682.518,627.835 685.882,620.097C689.246,612.358 693.873,605.545 699.76,599.658C705.648,593.77 712.461,589.144 720.199,585.78C727.937,582.415 736.348,580.733 745.432,580.733C754.18,580.733 762.423,582.415 770.161,585.78C777.899,589.144 784.712,593.77 790.6,599.658C796.487,605.545 801.113,612.358 804.478,620.097C807.842,627.835 809.524,636.078 809.524,644.825Z" style="fill:white;fill-rule:nonzero;"/>
            <path d="M900.868,998.594C906.251,997.584 911.887,997.416 917.775,998.089C923.662,998.762 928.961,999.603 933.672,1000.61C939.391,1001.96 944.942,1003.64 950.325,1005.66C954.026,998.257 956.802,989.93 958.652,980.678C960.503,971.426 961.596,963.94 961.933,958.221C958.232,963.94 952.512,969.66 944.774,975.379C937.036,981.099 926.438,983.958 912.98,983.958C895.485,983.958 880.934,981.015 869.327,975.127C857.72,969.239 848.383,961.669 841.318,952.417C834.253,943.165 829.206,932.988 826.178,921.885C823.15,910.782 821.216,899.848 820.375,889.082C819.534,878.316 819.534,868.391 820.375,859.307C821.216,850.223 822.141,843.326 823.15,838.616C825.842,825.158 829.711,811.953 834.758,799C839.804,786.047 846.281,774.355 854.187,763.925C862.093,753.496 871.682,744.917 882.953,738.188C894.224,731.459 907.429,727.422 922.569,726.076C937.709,724.73 950.83,726.244 961.933,730.618C973.035,734.991 981.446,741.889 987.166,751.309L989.184,732.636L1111.31,732.636C1106.94,773.346 1102.73,811.364 1098.7,846.69C1097.01,861.83 1095.16,877.054 1093.14,892.362C1091.13,907.67 1089.02,922.137 1086.84,935.763C1084.65,949.389 1082.55,961.669 1080.53,972.604C1078.51,983.538 1076.66,992.201 1074.98,998.594C1070.27,1017.77 1063.88,1034 1055.8,1047.29C1047.72,1060.58 1038.22,1071.35 1027.29,1079.59C1016.35,1087.84 1004.07,1093.89 990.446,1097.76C976.82,1101.63 962.269,1103.56 946.793,1103.56C929.634,1103.56 915.672,1101.12 904.906,1096.25C894.14,1091.37 885.729,1086.07 879.673,1080.35C872.271,1073.62 866.888,1065.71 863.523,1056.63C861.168,1047.55 860.664,1038.97 862.009,1030.89C863.355,1024.16 866.72,1017.69 872.103,1011.46C877.486,1005.24 887.074,1000.95 900.868,998.594ZM975.559,858.297C976.231,849.214 975.054,841.391 972.026,834.831C968.998,828.27 963.783,824.653 956.381,823.98C949.316,823.307 943.681,826.083 939.475,832.307C935.27,838.531 932.83,846.186 932.158,855.269C931.485,864.017 932.746,871.671 935.942,878.232C939.139,884.792 944.269,888.409 951.335,889.082C958.736,889.755 964.456,887.063 968.493,881.007C972.531,874.951 974.886,867.381 975.559,858.297ZM915.504,1033.41C918.195,1034.09 921.055,1034.42 924.083,1034.42C926.774,1034.42 929.718,1033.92 932.915,1032.91C936.111,1031.9 939.559,1030.05 943.26,1027.36C940.905,1026.35 938.382,1025.17 935.69,1023.83C933.335,1023.15 930.644,1022.4 927.616,1021.56C924.588,1020.72 921.391,1020.29 918.027,1020.29C916.681,1020.29 915.335,1020.63 913.99,1021.3C911.635,1022.65 910.457,1024.67 910.457,1027.36C910.457,1029.38 911.298,1030.89 912.98,1031.9C913.653,1032.57 914.494,1033.08 915.504,1033.41Z" style="fill:white;fill-rule:nonzero;"/>
            <path d="M507.231,1266.01C500.166,1266.35 493.606,1266.51 487.55,1266.51L455.251,1266.51C449.195,1293.43 441.878,1318.07 433.298,1340.45C424.719,1362.82 413.28,1382.33 398.981,1398.99C384.682,1415.64 366.767,1428.76 345.235,1438.35C323.702,1447.94 296.787,1453.24 264.489,1454.25C253.386,1453.58 243.713,1452.31 235.471,1450.46C227.228,1448.61 220.415,1446.51 215.032,1444.15C208.976,1441.46 203.761,1438.43 199.387,1435.07C193.668,1430.7 188.957,1425.48 185.257,1419.43C182.229,1414.38 179.873,1408.07 178.191,1400.5C176.509,1392.93 177.518,1384.27 181.219,1374.51C182.901,1368.79 186.771,1363.41 192.827,1358.36C198.882,1353.32 206.284,1350.29 215.032,1349.28C221.088,1348.27 227.228,1348.02 233.452,1348.52C239.676,1349.03 245.48,1349.95 250.863,1351.3C256.919,1352.64 262.806,1354.33 268.526,1356.34C276.601,1339.18 283.582,1323.04 289.469,1307.9C295.357,1292.76 300.488,1277.2 304.862,1261.21C309.235,1245.23 313.104,1228.16 316.469,1209.99C319.833,1191.82 323.03,1171.13 326.057,1147.92C320.338,1147.58 315.375,1147.58 311.17,1147.92C306.964,1148.25 303.011,1148.84 299.31,1149.68C295.609,1150.53 291.825,1151.79 287.955,1153.47C284.086,1155.15 279.629,1157.34 274.582,1160.03L250.863,1096.95C256.919,1091.9 264.152,1087.53 272.563,1083.83C279.629,1080.46 288.376,1077.43 298.806,1074.74C309.235,1072.05 321.347,1070.7 335.141,1070.7L488.559,1070.7C496.97,1070.37 505.213,1069.53 513.287,1068.18C520.016,1067.17 526.913,1065.91 533.979,1064.4C541.044,1062.88 546.932,1060.78 551.642,1058.09C551.642,1058.09 552.062,1059.18 552.903,1061.37C553.745,1063.56 554.754,1066.33 555.931,1069.69C557.109,1073.06 558.371,1076.84 559.716,1081.05C561.062,1085.26 562.408,1089.55 563.754,1093.92C567.118,1104.35 570.651,1115.96 574.352,1128.74C566.95,1132.44 558.371,1135.64 548.614,1138.33C540.203,1140.68 530.025,1142.79 518.082,1144.64C506.138,1146.49 492.428,1147.41 476.952,1147.41C475.942,1155.15 474.597,1163.23 472.914,1171.64C471.232,1180.05 469.55,1189.3 467.868,1199.39L520.353,1199.39C520.353,1199.39 520.016,1201.08 519.343,1204.44C518.67,1207.8 517.829,1211.93 516.82,1216.8C515.811,1221.68 514.717,1226.98 513.54,1232.7C512.362,1238.42 511.269,1243.72 510.259,1248.6C509.25,1253.48 508.493,1257.6 507.988,1260.96C507.484,1264.33 507.231,1266.01 507.231,1266.01ZM229.667,1384.1C232.358,1384.77 235.218,1385.11 238.246,1385.11C240.938,1385.11 243.882,1384.61 247.078,1383.6C250.274,1382.59 253.722,1380.74 257.423,1378.04C255.068,1377.04 252.545,1375.86 249.853,1374.51C247.498,1373.84 244.807,1373.08 241.779,1372.24C238.751,1371.4 235.555,1370.98 232.19,1370.98C230.844,1370.98 229.499,1371.32 228.153,1371.99C225.798,1373.33 224.62,1375.35 224.62,1378.04C224.62,1380.06 225.461,1381.58 227.144,1382.59C227.816,1383.26 228.658,1383.76 229.667,1384.1Z" style="fill:white;fill-rule:nonzero;"/>
            <path d="M877.149,1359.88C869.411,1376.36 859.486,1390.83 847.374,1403.28C842.328,1408.66 836.44,1413.79 829.711,1418.67C822.982,1423.55 815.412,1427.67 807.001,1431.03C798.59,1434.4 789.422,1436.84 779.497,1438.35C769.572,1439.87 758.722,1439.95 746.946,1438.6C731.47,1436.92 718.265,1432.72 707.33,1425.99C696.396,1419.26 687.732,1411.35 681.34,1402.27C678.649,1408.66 674.864,1414.13 669.985,1418.67C665.107,1423.21 659.555,1427 653.331,1430.02C647.107,1433.05 640.462,1435.24 633.397,1436.59C626.332,1437.93 619.435,1438.6 612.706,1438.6C595.211,1438.6 580.576,1435.49 568.8,1429.27C557.025,1423.04 547.604,1415.05 540.539,1405.3C533.474,1395.54 528.343,1384.77 525.147,1373C521.951,1361.22 519.932,1349.7 519.091,1338.43C518.25,1327.16 518.25,1316.81 519.091,1307.39C519.932,1297.97 520.857,1290.91 521.867,1286.19C524.558,1272.74 528.427,1259.79 533.474,1247.34C538.521,1234.89 545.081,1223.87 553.156,1214.28C561.23,1204.69 570.903,1196.79 582.174,1190.56C593.445,1184.34 606.65,1180.55 621.79,1179.21C636.593,1177.86 648.958,1179.04 658.883,1182.74C668.808,1186.44 677.135,1191.49 683.863,1197.88C684.873,1195.19 685.798,1192.75 686.639,1190.56C687.48,1188.38 688.237,1186.44 688.91,1184.76C689.583,1183.08 690.256,1181.56 690.929,1180.22L808.515,1180.22C796.067,1209.49 786.646,1236.57 780.254,1261.47C777.562,1272.23 775.376,1282.91 773.693,1293.51C772.011,1304.11 771.338,1313.95 771.675,1323.04C772.011,1332.12 773.609,1340.19 776.469,1347.26C779.329,1354.33 783.955,1359.37 790.347,1362.4C796.74,1365.76 803.3,1366.94 810.029,1365.93C815.749,1365.26 822.309,1362.74 829.711,1358.36C837.113,1353.99 844.514,1345.91 851.916,1334.14L877.149,1359.88ZM677.303,1305.88C677.976,1296.79 676.798,1288.97 673.77,1282.41C670.742,1275.85 665.527,1272.23 658.126,1271.56C650.724,1270.89 645.004,1273.66 640.967,1279.89C636.93,1286.11 634.575,1293.6 633.902,1302.35C633.229,1311.43 634.406,1319.25 637.434,1325.81C640.462,1332.37 645.677,1335.99 653.079,1336.66C660.481,1337.34 666.2,1334.64 670.238,1328.59C674.275,1322.53 676.63,1314.96 677.303,1305.88Z" style="fill:white;fill-rule:nonzero;"/>
            <path d="M1367.68,1359.88C1355.91,1381.41 1342.87,1397.73 1328.57,1408.83C1314.27,1419.93 1300.39,1427.75 1286.93,1432.3C1273.48,1436.84 1261.2,1439.28 1250.1,1439.61C1238.99,1439.95 1230.92,1440.12 1225.87,1440.12C1209.39,1440.12 1195.59,1437.85 1184.49,1433.31C1173.39,1428.76 1164.39,1422.71 1157.49,1415.14C1150.59,1407.57 1145.38,1399.07 1141.85,1389.65C1138.31,1380.23 1136.04,1370.47 1135.03,1360.38C1132.34,1336.83 1134.7,1310.08 1142.1,1280.14C1143.44,1274.08 1144.12,1268.7 1144.12,1263.99C1144.12,1259.95 1143.53,1256.17 1142.35,1252.63C1141.17,1249.1 1138.73,1247.34 1135.03,1247.34C1133.35,1247.34 1131.67,1247.84 1129.99,1248.85C1128.3,1249.86 1126.62,1252.55 1124.94,1256.92C1124.27,1259.62 1123.68,1262.31 1123.17,1265C1122.67,1267.69 1122.08,1270.38 1121.41,1273.07C1116.7,1290.57 1114.09,1308.65 1113.58,1327.33C1113.08,1346 1113.33,1363.41 1114.34,1379.56C1115.69,1398.06 1117.7,1416.4 1120.4,1434.57L1000.79,1434.57C996.081,1413.37 993.306,1393.69 992.465,1375.52C991.624,1357.35 991.54,1341.37 992.212,1327.58C993.222,1311.43 994.904,1296.79 997.259,1283.67C998.268,1277.62 998.773,1272.07 998.773,1267.02C998.773,1262.64 998.184,1258.52 997.007,1254.65C995.829,1250.79 993.39,1248.35 989.689,1247.34C981.278,1244.98 975.222,1248.68 971.521,1258.44C968.83,1277.95 967.4,1298.06 967.232,1318.75C967.063,1339.44 967.316,1358.36 967.989,1375.52C968.998,1395.71 970.512,1415.39 972.531,1434.57L854.439,1434.57C851.075,1415.05 849.056,1394.87 848.383,1374.01C847.711,1353.15 847.711,1334.14 848.383,1316.98C849.056,1296.79 850.402,1277.28 852.421,1258.44C853.43,1247.67 854.524,1237.58 855.701,1228.16C856.879,1218.74 857.972,1210.5 858.981,1203.43C860.327,1195.36 861.505,1187.95 862.514,1181.23L981.614,1181.23C980.605,1184.93 979.596,1188.63 978.586,1192.33C976.904,1199.73 976.063,1206.46 976.063,1212.52C988.848,1200.74 1001.72,1191.91 1014.67,1186.02C1027.62,1180.13 1043.86,1177.69 1063.37,1178.7C1070.77,1179.38 1078.01,1180.89 1085.07,1183.24C1090.79,1185.26 1096.85,1188.38 1103.24,1192.58C1109.63,1196.79 1114.85,1202.76 1118.88,1210.5C1131.33,1199.73 1143.95,1191.49 1156.73,1185.77C1169.52,1180.05 1185.33,1177.69 1204.17,1178.7C1219.31,1180.05 1232.1,1184.25 1242.53,1191.32C1246.9,1194.35 1251.02,1198.13 1254.89,1202.67C1258.76,1207.22 1261.7,1212.77 1263.72,1219.33C1265.74,1225.89 1266.75,1233.63 1266.75,1242.54C1266.75,1251.46 1265.24,1261.63 1262.21,1273.07C1257.5,1286.53 1254.13,1299.15 1252.11,1310.92C1250.43,1321.02 1250.01,1331.11 1250.85,1341.2C1251.69,1351.3 1255.48,1358.87 1262.21,1363.91C1271.29,1370.98 1280.46,1373.59 1289.71,1371.74C1298.96,1369.88 1307.37,1366.44 1314.94,1361.39C1322.51,1356.34 1328.82,1350.88 1333.87,1344.99C1338.92,1339.1 1341.94,1335.32 1342.95,1333.63L1367.68,1359.88Z" style="fill:white;fill-rule:nonzero;"/>
            <path d="M1567.02,1359.88C1558.28,1377.37 1546.84,1392.51 1532.71,1405.3C1526.65,1410.68 1519.67,1415.81 1511.76,1420.69C1503.86,1425.57 1494.94,1429.6 1485.02,1432.8C1475.09,1436 1464.07,1438.18 1451.96,1439.36C1439.85,1440.54 1426.56,1440.12 1412.09,1438.1C1393.25,1435.41 1378.11,1429.69 1366.67,1420.94C1355.23,1412.19 1346.57,1401.6 1340.68,1389.15C1334.79,1376.7 1331.35,1362.9 1330.34,1347.76C1329.33,1332.62 1329.83,1317.32 1331.85,1301.84C1335.89,1265.84 1347.16,1225.8 1365.66,1181.73L1486.28,1181.73C1475.17,1211 1466.93,1238.08 1461.55,1262.98C1459.19,1273.75 1457.43,1284.43 1456.25,1295.03C1455.07,1305.62 1454.82,1315.47 1455.49,1324.55C1456.17,1333.63 1458.02,1341.62 1461.04,1348.52C1464.07,1355.42 1468.78,1360.38 1475.17,1363.41C1482.58,1366.1 1490.15,1366.94 1497.88,1365.93C1504.61,1365.26 1511.93,1362.65 1519.84,1358.11C1527.74,1353.57 1535.23,1345.41 1542.3,1333.63L1567.02,1359.88ZM1519.08,1093.41C1519.08,1102.5 1517.4,1110.91 1514.03,1118.65C1510.67,1126.39 1506.04,1133.2 1500.16,1139.09C1494.27,1144.97 1487.45,1149.6 1479.72,1152.96C1471.98,1156.33 1463.74,1158.01 1454.99,1158.01C1445.9,1158.01 1437.49,1156.33 1429.76,1152.96C1422.02,1149.6 1415.2,1144.97 1409.32,1139.09C1403.43,1133.2 1398.8,1126.39 1395.44,1118.65C1392.07,1110.91 1390.39,1102.5 1390.39,1093.41C1390.39,1084.67 1392.07,1076.42 1395.44,1068.69C1398.8,1060.95 1403.43,1054.13 1409.32,1048.25C1415.2,1042.36 1422.02,1037.73 1429.76,1034.37C1437.49,1031 1445.9,1029.32 1454.99,1029.32C1463.74,1029.32 1471.98,1031 1479.72,1034.37C1487.45,1037.73 1494.27,1042.36 1500.16,1048.25C1506.04,1054.13 1510.67,1060.95 1514.03,1068.69C1517.4,1076.42 1519.08,1084.67 1519.08,1093.41Z" style="fill:white;fill-rule:nonzero;"/>
            <path d="M1653.32,1298.81C1665.1,1301.5 1675.27,1305.88 1683.85,1311.93C1692.43,1317.99 1699.25,1324.97 1704.29,1332.88C1709.34,1340.78 1712.45,1349.36 1713.63,1358.62C1714.81,1367.87 1714.05,1377.04 1711.36,1386.12C1706.65,1400.92 1700.09,1412.19 1691.67,1419.93C1683.26,1427.67 1674.85,1433.39 1666.44,1437.09C1656.68,1441.13 1646.26,1443.48 1635.15,1444.15C1614.97,1444.49 1597.13,1440.45 1581.66,1432.04C1574.93,1428.68 1568.54,1424.14 1562.48,1418.42C1556.42,1412.7 1551.04,1405.55 1546.33,1396.97C1541.62,1388.39 1538.01,1378.21 1535.48,1366.44C1532.96,1354.66 1532.2,1340.87 1533.21,1325.05C1535.23,1288.38 1539.6,1253.81 1546.33,1221.35C1553.06,1188.88 1560.13,1160.2 1567.53,1135.3C1576.28,1106.7 1585.53,1079.96 1595.28,1055.06L1718.93,1055.06C1703.79,1087.36 1692.01,1118.06 1683.6,1147.16C1675.19,1176.26 1668.63,1202.09 1663.92,1224.63C1658.54,1250.87 1655,1275.6 1653.32,1298.81ZM1664.42,1375.52C1669.81,1376.53 1674.01,1375.61 1677.04,1372.75C1680.07,1369.88 1681.92,1365.93 1682.59,1360.89C1683.26,1354.16 1681.92,1348.77 1678.55,1344.74C1675.19,1340.7 1671.32,1337.34 1666.95,1334.64C1661.9,1331.62 1656.18,1329.43 1649.79,1328.08C1649.45,1336.49 1649.79,1344.06 1650.8,1350.79C1651.47,1356.51 1652.82,1361.89 1654.84,1366.94C1656.85,1371.99 1660.05,1374.85 1664.42,1375.52Z" style="fill:white;fill-rule:nonzero;"/>
            <path d="M1903.13,1180.22L2016.68,1180.22C2011.63,1221.93 2006.59,1260.63 2001.54,1296.29C1999.52,1311.43 1997.33,1326.82 1994.98,1342.46C1992.62,1358.11 1990.35,1372.83 1988.16,1386.62C1985.98,1400.42 1983.79,1412.87 1981.6,1423.97C1979.42,1435.07 1977.48,1443.82 1975.8,1450.21C1971.09,1469.39 1964.95,1485.45 1957.38,1498.41C1949.81,1511.36 1940.81,1521.79 1930.38,1529.69C1919.95,1537.6 1908.17,1543.24 1895.05,1546.6C1881.93,1549.97 1867.63,1551.65 1852.16,1551.65C1835.67,1550.98 1822.05,1548.12 1811.28,1543.07C1800.51,1538.02 1791.93,1532.64 1785.54,1526.92C1778.14,1520.53 1772.42,1513.12 1768.38,1504.71C1766.03,1495.63 1765.69,1487.22 1767.37,1479.48C1768.72,1472.75 1772.17,1466.19 1777.72,1459.8C1783.27,1453.41 1792.78,1448.87 1806.23,1446.17C1810.94,1445.5 1816.07,1445.42 1821.63,1445.92C1827.18,1446.43 1832.48,1447.35 1837.52,1448.7C1843.58,1450.04 1849.63,1451.73 1855.69,1453.74C1859.39,1446.34 1862.17,1438.02 1864.02,1428.76C1865.87,1419.51 1866.79,1412.03 1866.79,1406.31C1863.09,1412.03 1857.46,1417.74 1849.89,1423.46C1842.32,1429.18 1831.63,1432.04 1817.84,1432.04C1800.35,1432.04 1785.71,1429.1 1773.93,1423.21C1762.16,1417.32 1752.65,1409.84 1745.42,1400.75C1738.19,1391.67 1732.81,1381.49 1729.27,1370.22C1725.74,1358.95 1723.3,1347.93 1721.95,1337.17C1720.61,1326.4 1720.1,1316.48 1720.44,1307.39C1720.78,1298.31 1721.11,1291.41 1721.45,1286.7C1722.46,1274.92 1723.81,1264.16 1725.49,1254.4C1727.17,1244.64 1729.1,1235.56 1731.29,1227.15C1733.48,1218.74 1735.83,1210.75 1738.36,1203.18C1740.88,1195.61 1743.32,1188.29 1745.67,1181.23L1859.73,1181.23C1855.69,1196.03 1851.99,1210.66 1848.62,1225.13C1845.93,1237.58 1843.41,1250.79 1841.06,1264.75C1838.7,1278.71 1837.52,1291.41 1837.52,1302.85C1837.52,1311.93 1838.87,1320.77 1841.56,1329.34C1844.25,1337.92 1849.13,1343.05 1856.19,1344.74C1863.6,1346.42 1869.65,1344.57 1874.36,1339.18C1879.07,1333.8 1881.43,1328.42 1881.43,1323.04L1903.13,1180.22ZM1820.87,1481.5C1823.56,1482.17 1826.42,1482.51 1829.45,1482.51C1832.14,1482.51 1835.08,1482.01 1838.28,1481C1841.48,1479.99 1844.92,1478.14 1848.62,1475.44C1846.27,1474.43 1843.75,1473.26 1841.06,1471.91C1838.7,1471.24 1836.01,1470.48 1832.98,1469.64C1829.95,1468.8 1826.59,1468.38 1822.89,1468.38C1821.54,1468.38 1820.36,1468.71 1819.36,1469.39C1817,1470.73 1815.82,1472.75 1815.82,1475.44C1815.82,1477.46 1816.66,1478.98 1818.35,1479.99C1819.02,1480.66 1819.86,1481.16 1820.87,1481.5Z" style="fill:white;fill-rule:nonzero;"/>
        </g>
    </g>
</svg>
