<?xml version="1.0" standalone="no"?><!DOCTYPE svg PUBLIC "-//W3C//DTD SVG 1.1//EN" "http://www.w3.org/Graphics/SVG/1.1/DTD/svg11.dtd"><svg width="100%" height="100%" viewBox="0 0 5360 4690" version="1.1" xmlns="http://www.w3.org/2000/svg" xmlns:xlink="http://www.w3.org/1999/xlink" xml:space="preserve" style="fill-rule:evenodd;clip-rule:evenodd;stroke-linejoin:round;stroke-miterlimit:1.41421;"><g><rect x="9.479" y="2763.44" width="5344.86" height="1926.56" style="fill:#109d59;"/><g><g id="Layer5"><rect x="2163.76" y="1928.5" width="1339.71" height="1413.12" style="fill:#926c4f;"/><path d="M3507.3,1932.48l-1337.68,0l334.421,-239.047l668.841,0l334.42,239.047Z" style="fill:#926c4f;"/><path d="M1927.58,2050.2l239.643,-152.071l2.658,161.734l-242.301,-9.663Z" style="fill:#928c7f;"/><rect x="1013.57" y="3223.99" width="1195.24" height="117.901" style="fill:#926c4f;"/><rect x="3494.86" y="3130.6" width="745.413" height="209.059" style="fill:#926c4f;"/></g><g id="Layer6"><rect x="1506" y="2046.57" width="659.928" height="1147.6" style="fill:#928c7f;"/><rect x="3501.18" y="2007.16" width="741.225" height="1121.18" style="fill:#928c7f;"/><path d="M2836.42,1305.81l-1340.58,725.265l110.192,203.678l1340.58,-725.265l-110.192,-203.678Z" style="fill:#928c7f;"/><path d="M4246.05,1997.5l-1422.84,-691.141l-107.016,220.312l1422.84,691.14l107.016,-220.311Z" style="fill:#928c7f;"/><path d="M3502.54,1894.9l254.739,113.03l-254.739,0l0,-113.03Z" style="fill:#928c7f;"/><path d="M3540.65,3132.37l0,143.246" style="fill:none;stroke-width:6.25px;stroke:#fff;"/><path d="M2318.49,3116.92l0,113.851l-1010.61,0l1010.61,-113.851Z" style="fill:#926c4f;"/><path d="M2577.54,1464.52l524.467,0" style="fill:none;stroke-width:4.17px;stroke:#757167;"/><path d="M2467.77,1526l754.579,0" style="fill:none;stroke-width:4.17px;stroke:#757167;"/><path d="M2363.8,1584.5l384.113,0" style="fill:none;stroke-width:4.17px;stroke:#757167;"/><path d="M2879.91,1580.49l452.788,0" style="fill:none;stroke-width:4.17px;stroke:#757167;"/><path d="M2247.6,1651.02l360.637,0" style="fill:none;stroke-width:4.17px;stroke:#757167;"/><path d="M3028.06,1655.02l477.297,0" style="fill:none;stroke-width:4.17px;stroke:#757167;"/><path d="M2092.47,1729.33l400.922,0" style="fill:none;stroke-width:4.17px;stroke:#757167;"/><path d="M3166.35,1734.37l471.569,0" style="fill:none;stroke-width:4.17px;stroke:#757167;"/><path d="M1973.85,1792.76l382.267,0" style="fill:none;stroke-width:4.17px;stroke:#757167;"/><path d="M3313.92,1806.72l501.227,0" style="fill:none;stroke-width:4.17px;stroke:#757167;"/><path d="M1829.13,1877.25l380.326,0" style="fill:none;stroke-width:4.17px;stroke:#757167;"/><path d="M1660.03,1967.58l484.621,0" style="fill:none;stroke-width:4.17px;stroke:#757167;"/><path d="M1536.15,2044.05l609.529,0" style="fill:none;stroke-width:4.17px;stroke:#757167;"/><path d="M1526.53,2135.31l616.509,0" style="fill:none;stroke-width:4.17px;stroke:#757167;"/><path d="M1530.64,2229.63l608.387,0" style="fill:none;stroke-width:4.17px;stroke:#757167;"/><path d="M1524.8,2331.88l602.439,0" style="fill:none;stroke-width:4.17px;stroke:#757167;"/><path d="M1538.78,2424.16l604.38,0" style="fill:none;stroke-width:4.17px;stroke:#757167;"/><path d="M1539.69,2498.68l598.543,0" style="fill:none;stroke-width:4.17px;stroke:#757167;"/><path d="M1539.8,2598.86l593.628,0" style="fill:none;stroke-width:4.17px;stroke:#757167;"/><path d="M1548.95,2685.3l590.639,0" style="fill:none;stroke-width:4.17px;stroke:#757167;"/><path d="M1550.22,2789.49l579.762,0" style="fill:none;stroke-width:4.17px;stroke:#757167;"/><path d="M1557.31,2880.84l556.974,0" style="fill:none;stroke-width:4.17px;stroke:#757167;"/><path d="M1564.07,2969.22l529.726,0" style="fill:none;stroke-width:4.17px;stroke:#757167;"/><path d="M1577.92,3073.41l529.272,0" style="fill:none;stroke-width:4.17px;stroke:#757167;"/><path d="M3529.32,1893.62l420.047,0" style="fill:none;stroke-width:4.17px;stroke:#757167;"/><path d="M3531.49,2002.84l667.108,0" style="fill:none;stroke-width:4.17px;stroke:#757167;"/><path d="M3522.36,2107.72l684.057,0" style="fill:none;stroke-width:4.17px;stroke:#757167;"/><path d="M3531.51,2208.8l681.773,0" style="fill:none;stroke-width:4.17px;stroke:#757167;"/><path d="M3528.3,2307.15l678.001,0" style="fill:none;stroke-width:4.17px;stroke:#757167;"/><path d="M3530.48,2423.23l668.954,0" style="fill:none;stroke-width:4.17px;stroke:#757167;"/><path d="M3541.46,2516.65l652.005,0" style="fill:none;stroke-width:4.17px;stroke:#757167;"/><path d="M3533.12,2647.63l650.049,0" style="fill:none;stroke-width:4.17px;stroke:#757167;"/><path d="M3538.84,2780.66l646.981,0" style="fill:none;stroke-width:4.17px;stroke:#757167;"/><path d="M3533.81,2932.47l645.933,0" style="fill:none;stroke-width:4.17px;stroke:#757167;"/><path d="M3533.58,3060.7l664.839,0" style="fill:none;stroke-width:4.17px;stroke:#757167;"/></g><g id="Layer4"><rect x="1725.59" y="2111.51" width="216.158" height="283.988" style="fill:#3b362b;"/><rect x="1729.05" y="2746.09" width="213.811" height="281.71" style="fill:#3b362b;"/><rect x="3730.44" y="2060.07" width="224.323" height="155.181" style="fill:#3b362b;"/><rect x="3738.36" y="2216.68" width="216.856" height="142.394" style="fill:#3b362b;"/><rect x="3740.1" y="2718.01" width="231.433" height="302.42" style="fill:#3b362b;"/><rect x="3781.63" y="3200.77" width="87.97" height="53.291" style="fill:#3b362b;"/><path d="M2821.6,1860.36c102.484,0 185.689,83.204 185.689,185.689c0,102.484 -371.378,102.484 -371.378,0c0,-102.485 83.204,-185.689 185.689,-185.689Z" style="fill:#3b362b;"/><path d="M2398.63,1999.61c31.748,0 57.524,25.775 57.524,57.523c0,31.749 -115.047,31.749 -115.047,0c0,-31.748 25.775,-57.523 57.523,-57.523Z" style="fill:#3b362b;"/><path d="M3276.42,1991.64c24.454,0 44.308,23.897 44.308,53.332c0,29.435 -88.617,29.435 -88.617,0c0,-29.435 19.854,-53.332 44.309,-53.332Z" style="fill:#3b362b;"/><rect x="2650.73" y="2058.9" width="346.752" height="302.11" style="fill:#3b362b;"/><rect x="2346.64" y="2066.87" width="95.359" height="306.235" style="fill:#3b362b;"/><rect x="3234.72" y="2053.13" width="78.694" height="297.572" style="fill:#3b362b;"/><path d="M3242.39,2642.68c35.485,0 64.295,29.638 64.295,66.142c0,36.505 -128.59,36.505 -128.59,0c0,-36.504 28.81,-66.142 64.295,-66.142Z" style="fill:#3b362b;"/><path d="M2398.85,2647.33c28.663,0 51.933,29.133 51.933,65.017c0,35.884 -103.867,35.884 -103.867,0c0,-35.884 23.271,-65.017 51.934,-65.017Z" style="fill:#3b362b;"/><rect x="2351.97" y="2718.84" width="93.638" height="307.176" style="fill:#3b362b;"/><rect x="3179.19" y="2712.61" width="126.863" height="306.593" style="fill:#3b362b;"/><rect x="2635.59" y="2656.66" width="370.469" height="47.426" style="fill:#3b362b;"/><g transform="matrix(5.77432,0,0,5.77432,-1884.46,-748.928)"><text x="749.002px" y="562.815px" style="font-family:Comic Sans MS;font-size:23.239px;font-weight:700;fill:#2b4519;">O</text><text x="767.554px" y="562.815px" style="font-family:Comic Sans MS;font-size:23.239px;font-weight:700;fill:#254162;">P</text><text x="779.934px" y="562.815px" style="font-family:Comic Sans MS;font-size:23.239px;font-weight:700;fill:#fcbe1f;">E</text><text x="794.448px" y="562.815px" style="font-family:Comic Sans MS;font-size:23.239px;font-weight:700;fill:#c54f39;">N</text><text x="813.341px" y="562.815px" style="font-family:Comic Sans MS;font-size:23.239px;font-weight:700;fill:#2b4519;">A</text><text x="830.339px" y="562.815px" style="font-family:Comic Sans MS;font-size:23.239px;font-weight:700;fill:#9d2727;">R</text><text x="845.215px" y="562.815px" style="font-family:Comic Sans MS;font-size:23.239px;font-weight:700;fill:#fcbe1f;">M</text><text x="865.731px" y="562.815px" style="font-family:Comic Sans MS;font-size:23.239px;font-weight:700;fill:#254162;">S</text></g><g transform="matrix(5.77432,0,0,5.77432,-1895.62,-752.072)"><text x="745.347px" y="582.534px" style="font-family:Comic Sans MS;font-size:13.794px;font-weight:700;fill:#fcbe1f;">C</text><text x="753.881px" y="582.534px" style="font-family:Comic Sans MS;font-size:13.794px;font-weight:700;fill:#c54f39;">H</text><text x="764.476px" y="582.534px" style="font-family:Comic Sans MS;font-size:13.794px;font-weight:700;fill:#9d2727;">I</text><text x="772.013px" y="582.534px" style="font-family:Comic Sans MS;font-size:13.794px;font-weight:700;fill:#2b4519;">L</text><text x="779.61px" y="582.534px" style="font-family:Comic Sans MS;font-size:13.794px;font-weight:700;fill:#254162;">D</text><text x="789.565px" y="582.534px" style="font-family:Comic Sans MS;font-size:13.794px;font-weight:700;fill:#fcbe1f;">C</text><text x="798.099px" y="582.534px" style="font-family:Comic Sans MS;font-size:13.794px;font-weight:700;fill:#9d2727;">A</text><text x="808.189px" y="582.534px" style="font-family:Comic Sans MS;font-size:13.794px;font-weight:700;fill:#254162;">R</text><text x="817.019px" y="582.534px" style="font-family:Comic Sans MS;font-size:13.794px;font-weight:700;fill:#c54f39;">E</text><text x="831.615px" y="582.534px" style="font-family:Comic Sans MS;font-size:13.794px;font-weight:700;fill:#254162;">C</text><text x="840.149px" y="582.534px" style="font-family:Comic Sans MS;font-size:13.794px;font-weight:700;fill:#fcbe1f;">E</text><text x="848.763px" y="582.534px" style="font-family:Comic Sans MS;font-size:13.794px;font-weight:700;fill:#c54f39;">N</text><text x="859.978px" y="582.534px" style="font-family:Comic Sans MS;font-size:13.794px;font-weight:700;fill:#254162;">T</text><text x="869.576px" y="582.534px" style="font-family:Comic Sans MS;font-size:13.794px;font-weight:700;fill:#9d2727;">E</text><text x="878.19px" y="582.534px" style="font-family:Comic Sans MS;font-size:13.794px;font-weight:700;fill:#2b4519;">R</text></g><rect x="2634.36" y="2711.02" width="379.217" height="419.514" style="fill:#979587;"/><rect x="2675.28" y="2741.02" width="108.762" height="348.904" style="fill:#3b362b;"/><rect x="2876.83" y="2748.48" width="112.78" height="341.199" style="fill:#3b362b;"/><path d="M2829.68,2714.02l0,388.067" style="fill:none;stroke-width:3.33px;stroke:#1e1e1b;"/><rect x="2627.09" y="2635.18" width="391.888" height="28.773" style="fill:#4e443a;"/></g><g id="Layer3"><path d="M2826.69,1292.15l1.043,0.224l0.995,0.385l0,0l1469.68,705.079l-2.937,6.123l-2.937,6.122l-1466.56,-703.582l-1404.77,760.178l-3.232,-5.972l-3.231,-5.972l1407.82,-761.826l0.975,-0.432l1.03,-0.275l1.061,-0.109l1.065,0.057Z" style="fill:#f2f2f2;"/><path d="M2116.31,1957.81l690.4,-380.657l705.425,343.685" style="fill:none;stroke-width:10.42px;stroke:#f2f2f2;"/><path d="M3504.85,3126.52l715.877,0" style="fill:none;stroke-width:3.96px;stroke:#f2f2f2;"/><path d="M4245.94,2084.04l0,1163.57" style="fill:none;stroke-width:8.33px;stroke:#f2f2f2;"/><path d="M4321.72,2005.25c0.685,80.446 -74.536,5.993 -75.139,70.569" style="fill:none;stroke-width:8.33px;stroke:#f2f2f2;"/><path d="M4247.8,2069.07l-1.288,32.361" style="fill:none;stroke-width:8.33px;stroke:#f2f2f2;"/><path d="M1393.11,2044.19l1433.76,-771.026" style="fill:none;stroke-width:12.5px;stroke:#786858;"/><path d="M2828.99,1274.9l1478.98,706.927" style="fill:none;stroke-width:12.5px;stroke:#786858;"/><path d="M1645.09,1787.62l224.241,-0.524l-346.421,188.557l122.18,-188.033Z" style="fill:#786858;stroke-width:12.5px;stroke:#786858;"/><path d="M4314.59,1708.32l9.722,269.861l-627.494,-285.401l617.772,15.54Z" style="fill:#786858;stroke-width:12.5px;stroke:#786858;"/><path d="M2660.17,1402.57l353.908,0" style="fill:none;stroke-width:4.17px;stroke:#322e28;"/><path d="M2834.38,1308.5l168.548,91.202l-337.097,0l168.549,-91.202Z" style="fill:#786858;"/><path d="M2841.25,1351.46l0.837,18.555l-1.673,0l0.836,-18.555Z" style="fill:#786858;"/><path d="M1501.75,2031.32l0,1093.11" style="fill:none;stroke-width:4.17px;stroke:#928c7d;"/><g><path d="M1832.52,2103.14l0,297.324" style="fill:none;stroke-width:10.42px;stroke:#f2f2f2;"/><path d="M1835.02,2738.8l0,295.439" style="fill:none;stroke-width:10.42px;stroke:#f2f2f2;"/><path d="M3844.63,2061.23l0,304.965" style="fill:none;stroke-width:10.42px;stroke:#f2f2f2;"/><path d="M3849.18,2712.85l0,304.827" style="fill:none;stroke-width:10.42px;stroke:#f2f2f2;"/><path d="M2826.57,2064.98l0,298.687" style="fill:none;stroke-width:10.42px;stroke:#f2f2f2;"/><path d="M2347.63,2714.21l94.823,0" style="fill:none;stroke-width:10.42px;stroke:#f2f2f2;"/><path d="M3301.98,2709.24l-139.525,0" style="fill:none;stroke-width:10.42px;stroke:#f2f2f2;"/><path d="M1720.91,2103.91l223.657,0l0,293.631l-222.216,0l-1.441,-293.631Z" style="fill:none;stroke-width:8.33px;stroke:#f2f2f2;"/><path d="M1724.08,2738.04l222.867,0l0,296.1l-224.161,0l1.294,-296.1Z" style="fill:none;stroke-width:8.33px;stroke:#f2f2f2;"/><path d="M3726.84,2058.98l234.704,0l0,300.503l-221.633,0l-13.071,-300.503Z" style="fill:none;stroke-width:8.33px;stroke:#f2f2f2;"/><path d="M3738.03,2714.65l232.176,0l0,305.913l-235.355,0l3.179,-305.913Z" style="fill:none;stroke-width:8.33px;stroke:#f2f2f2;"/><path d="M2442.31,2068.59l-90.845,0l0,304.185l88.466,0l2.379,-304.185Z" style="fill:none;stroke-width:8.33px;stroke:#f2f2f2;"/><path d="M3309.36,2051.04l-77.843,0l0,301.154l80.301,0l-2.458,-301.154Z" style="fill:none;stroke-width:8.33px;stroke:#f2f2f2;"/><path d="M2348.59,2713.34l0,315.016l100.243,0l0,-318.264" style="fill:none;stroke-width:8.33px;stroke:#f2f2f2;"/><path d="M3305.51,2706.34l0,313.347l-127.175,0l0,-311.906" style="fill:none;stroke-width:8.33px;stroke:#f2f2f2;"/><path d="M2649.63,2057.39l347.505,0l0,305.262l-345.333,0l-2.172,-305.262Z" style="fill:none;stroke-width:8.33px;stroke:#f2f2f2;"/><path d="M2656.22,2213.59l339.992,0" style="fill:none;stroke-width:8.33px;stroke:#f2f2f2;"/><path d="M2824.18,2057.42l0,-184.809" style="fill:none;stroke-width:4.17px;stroke:#f2f2f2;"/><path d="M2825.41,2049.9l-118.038,-118.038" style="fill:none;stroke-width:4.17px;stroke:#f2f2f2;"/><path d="M2825.34,2047.23l123.448,-123.448" style="fill:none;stroke-width:4.17px;stroke:#f2f2f2;"/><path d="M1773.91,2108.41l0,285.33" style="fill:none;stroke-width:4.17px;stroke:#f2f2f2;"/><path d="M1902.31,2107.54l0,288.073" style="fill:none;stroke-width:4.17px;stroke:#f2f2f2;"/><path d="M1722.56,2184.45l222.937,0" style="fill:none;stroke-width:4.17px;stroke:#f2f2f2;"/><path d="M1725.74,2254.58l219.758,0" style="fill:none;stroke-width:4.17px;stroke:#f2f2f2;"/><path d="M1722.49,2327.81l221.051,0" style="fill:none;stroke-width:4.17px;stroke:#f2f2f2;"/><path d="M1773.98,2742.19l0,286.702" style="fill:none;stroke-width:4.17px;stroke:#f2f2f2;"/><path d="M1903.75,2739.66l0,293.059" style="fill:none;stroke-width:4.17px;stroke:#f2f2f2;"/><path d="M1721.83,2817.37l224.16,0" style="fill:none;stroke-width:4.17px;stroke:#f2f2f2;"/><path d="M1726.89,2893.13l220.913,0" style="fill:none;stroke-width:4.17px;stroke:#f2f2f2;"/><path d="M1725.66,2958.92l216.648,0" style="fill:none;stroke-width:4.17px;stroke:#f2f2f2;"/><path d="M2401.18,2714.02l0,312.418" style="fill:none;stroke-width:4.17px;stroke:#f2f2f2;"/><path d="M2355.4,2802.78l91.359,0" style="fill:none;stroke-width:4.17px;stroke:#f2f2f2;"/><path d="M2354.68,2877.31l94.537,0" style="fill:none;stroke-width:4.17px;stroke:#f2f2f2;"/><path d="M2357.13,2957.41l92.8,0" style="fill:none;stroke-width:4.17px;stroke:#f2f2f2;"/><path d="M2397.42,2070.86l0,301.214" style="fill:none;stroke-width:4.17px;stroke:#f2f2f2;"/><path d="M2355.18,2298.78l85.86,0" style="fill:none;stroke-width:4.17px;stroke:#f2f2f2;"/><path d="M2359.65,2226.78l81.536,0" style="fill:none;stroke-width:4.17px;stroke:#f2f2f2;"/><path d="M2353.73,2147.2l90.845,0" style="fill:none;stroke-width:4.17px;stroke:#f2f2f2;"/><path d="M2399.15,2710.57l0,-46.439" style="fill:none;stroke-width:4.17px;stroke:#f2f2f2;"/><path d="M2402.04,2707.46l-28.24,-28.24" style="fill:none;stroke-width:4.17px;stroke:#f2f2f2;"/><path d="M2400.16,2708.11l28.887,-28.886" style="fill:none;stroke-width:4.17px;stroke:#f2f2f2;"/><path d="M3246.98,2706.81l41.346,-41.345" style="fill:none;stroke-width:4.17px;stroke:#f2f2f2;"/><path d="M3246.34,2710.57l-43.261,-43.26" style="fill:none;stroke-width:4.17px;stroke:#f2f2f2;"/><path d="M3243.81,2705.65l0,-50.842" style="fill:none;stroke-width:4.17px;stroke:#f2f2f2;"/><path d="M2398.93,2068.34l35.496,-35.496" style="fill:none;stroke-width:4.17px;stroke:#f2f2f2;"/><path d="M2400.24,2062.63l0,-46.509" style="fill:none;stroke-width:4.17px;stroke:#f2f2f2;"/><path d="M2401.61,2065.59l-31.631,-31.631" style="fill:none;stroke-width:4.17px;stroke:#f2f2f2;"/><path d="M2701.89,2060.54l0,295.586" style="fill:none;stroke-width:4.17px;stroke:#f2f2f2;"/><path d="M2763.28,2063.13l0,296.742" style="fill:none;stroke-width:4.17px;stroke:#f2f2f2;"/><path d="M2892.26,2063.06l0,297.462" style="fill:none;stroke-width:4.17px;stroke:#f2f2f2;"/><path d="M2946.2,2056.92l0,303.741" style="fill:none;stroke-width:4.17px;stroke:#f2f2f2;"/><path d="M2656.54,2318.07l342.667,0" style="fill:none;stroke-width:4.17px;stroke:#f2f2f2;"/><path d="M2653.07,2262.89l341.947,0" style="fill:none;stroke-width:4.17px;stroke:#f2f2f2;"/><path d="M2652.49,2158.89l341.148,0" style="fill:none;stroke-width:4.17px;stroke:#f2f2f2;"/><path d="M2653.65,2113.76l341.73,0" style="fill:none;stroke-width:4.17px;stroke:#f2f2f2;"/><path d="M3234.47,2284.12l79.798,0" style="fill:none;stroke-width:4.17px;stroke:#f2f2f2;"/><path d="M3234.18,2213.27l77.132,0" style="fill:none;stroke-width:4.17px;stroke:#f2f2f2;"/><path d="M3235.55,2132.4l75.178,0" style="fill:none;stroke-width:4.17px;stroke:#f2f2f2;"/><path d="M3271.37,2054.04l0,291.904" style="fill:none;stroke-width:4.17px;stroke:#f2f2f2;"/><path d="M3268.99,2048.04l35.777,-35.777" style="fill:none;stroke-width:4.17px;stroke:#f2f2f2;"/><path d="M3270.14,2045.44l0,-48.957" style="fill:none;stroke-width:4.17px;stroke:#f2f2f2;"/><path d="M3273.25,2042.7l-34.81,-34.809" style="fill:none;stroke-width:4.17px;stroke:#f2f2f2;"/><path d="M3785.85,2061.34l0,294.353" style="fill:none;stroke-width:4.17px;stroke:#f2f2f2;"/><path d="M3735.16,2295.54l109.039,0" style="fill:none;stroke-width:4.17px;stroke:#f2f2f2;"/><path d="M3738.33,2214.72l226.184,0" style="fill:none;stroke-width:4.17px;stroke:#f2f2f2;"/><path d="M3742.02,2296.04l219.757,0" style="fill:none;stroke-width:4.17px;stroke:#f2f2f2;"/><path d="M3733.27,2138.9l231.604,0" style="fill:none;stroke-width:4.17px;stroke:#f2f2f2;"/><path d="M3906.6,2059.83l0,295.586" style="fill:none;stroke-width:4.17px;stroke:#f2f2f2;"/><path d="M3793.8,2718.88l0,296.307" style="fill:none;stroke-width:4.17px;stroke:#f2f2f2;"/><path d="M3924.08,2717.87l0,298.755" style="fill:none;stroke-width:4.17px;stroke:#f2f2f2;"/><path d="M3739.93,2795.65l229.146,0" style="fill:none;stroke-width:4.17px;stroke:#f2f2f2;"/><path d="M3738.56,2870.24l232.897,0" style="fill:none;stroke-width:4.17px;stroke:#f2f2f2;"/><path d="M3739.78,2942.1l230.311,0" style="fill:none;stroke-width:4.17px;stroke:#f2f2f2;"/><path d="M3246.39,2711.8l0,305.045" style="fill:none;stroke-width:4.17px;stroke:#f2f2f2;"/><path d="M3185.66,2789.44l122.189,0" style="fill:none;stroke-width:4.17px;stroke:#f2f2f2;"/><path d="M3179.38,2861.44l128.399,0" style="fill:none;stroke-width:4.17px;stroke:#f2f2f2;"/><path d="M3184.5,2947.88l124.065,0" style="fill:none;stroke-width:4.17px;stroke:#f2f2f2;"/><path d="M2636.25,2709.81l377.426,0" style="fill:none;stroke-width:4.17px;stroke:#f2f2f2;"/><path d="M2722.01,2660.11l0,48.938" style="fill:none;stroke-width:4.17px;stroke:#f2f2f2;"/><path d="M2770.77,2661.32l0,47.834" style="fill:none;stroke-width:4.17px;stroke:#f2f2f2;"/><path d="M2831.83,2660.65l0,48.21" style="fill:none;stroke-width:4.17px;stroke:#f2f2f2;"/><path d="M2891.14,2657.1l0,48.838" style="fill:none;stroke-width:4.17px;stroke:#f2f2f2;"/><path d="M2955.62,2659.65l0,49.671" style="fill:none;stroke-width:4.17px;stroke:#f2f2f2;"/><path d="M2674.64,2740.89l109.603,0l0,354.215l-106.73,0l-2.873,-354.215Z" style="fill:none;stroke-width:4.17px;stroke:#f2f2f2;"/><path d="M2713.72,2747.31l0,343.913" style="fill:none;stroke-width:4.17px;stroke:#f2f2f2;"/><path d="M2754.14,2743.81l0,350.709" style="fill:none;stroke-width:4.17px;stroke:#f2f2f2;"/><path d="M2678.56,2817.92l104.854,0" style="fill:none;stroke-width:4.17px;stroke:#f2f2f2;"/><path d="M2680.73,2885.9l103.474,0" style="fill:none;stroke-width:4.17px;stroke:#f2f2f2;"/><path d="M2875.54,2748.44l0,354.632l117.408,0l0,-356.923l-117.408,2.291Z" style="fill:none;stroke-width:4.17px;stroke:#f2f2f2;"/><path d="M2911.99,2752.65l0,348.833" style="fill:none;stroke-width:4.17px;stroke:#f2f2f2;"/><path d="M2951.36,2748.61l0,354.712" style="fill:none;stroke-width:4.17px;stroke:#f2f2f2;"/><path d="M2879.75,2818.09l115.025,0" style="fill:none;stroke-width:4.17px;stroke:#f2f2f2;"/><path d="M2878.67,2887.2l114.945,0" style="fill:none;stroke-width:4.17px;stroke:#f2f2f2;"/><path d="M1095.49,2991.07l0,235.263" style="fill:none;stroke-width:14.58px;stroke:#f2f2f2;"/><path d="M1197.63,2994.76l0,229.417" style="fill:none;stroke-width:14.58px;stroke:#f2f2f2;"/><path d="M1408.33,2986.87l0,233.826" style="fill:none;stroke-width:14.58px;stroke:#f2f2f2;"/><path d="M1895.42,3174.39l0,-216.084" style="fill:none;stroke-width:14.58px;stroke:#f2f2f2;"/><path d="M2396.01,3127.22l0,-216.14" style="fill:none;stroke-width:14.58px;stroke:#f2f2f2;"/><path d="M2723.79,3118.19l0,-213.364" style="fill:none;stroke-width:14.58px;stroke:#f2f2f2;"/><path d="M3056.84,3127.47l0,-220.9" style="fill:none;stroke-width:14.58px;stroke:#f2f2f2;"/><path d="M3297.23,3281.36l0,-226.438" style="fill:none;stroke-width:14.58px;stroke:#f2f2f2;"/><path d="M1096.07,3022.97l100.5,0" style="fill:none;stroke-width:14.58px;stroke:#f2f2f2;"/><path d="M1096.58,3071.89l101.887,0" style="fill:none;stroke-width:14.58px;stroke:#f2f2f2;"/><path d="M1094.48,3128.3l100.962,0" style="fill:none;stroke-width:14.58px;stroke:#f2f2f2;"/><path d="M1096.78,3190.08l100.037,0" style="fill:none;stroke-width:14.58px;stroke:#f2f2f2;"/><path d="M1202.71,3021.17l203.579,-5.79" style="fill:none;stroke-width:14.58px;stroke:#f2f2f2;"/><path d="M1201.75,3074.15l204.034,1.332" style="fill:none;stroke-width:14.58px;stroke:#f2f2f2;"/><path d="M1195.59,3128.91l204.953,-6.666" style="fill:none;stroke-width:14.58px;stroke:#f2f2f2;"/><path d="M1203.13,3192.39l207.16,-4.045" style="fill:none;stroke-width:14.58px;stroke:#f2f2f2;"/><path d="M1412.24,3189.72l482.681,-46.615" style="fill:none;stroke-width:14.58px;stroke:#f2f2f2;"/><path d="M1899.02,3000.35l496.883,-62.766" style="fill:none;stroke-width:14.58px;stroke:#f2f2f2;"/><path d="M1896.81,2999.33l-486.628,14.202" style="fill:none;stroke-width:14.58px;stroke:#f2f2f2;"/><path d="M1412.44,3071.22l482.317,-25.334" style="fill:none;stroke-width:14.58px;stroke:#f2f2f2;"/><path d="M1898.65,3043.64l495.551,-52.608" style="fill:none;stroke-width:14.58px;stroke:#f2f2f2;"/><path d="M1406.12,3123.63l486.725,-19.999" style="fill:none;stroke-width:14.58px;stroke:#f2f2f2;"/><path d="M1896.65,3100.97l493.91,-61.378" style="fill:none;stroke-width:14.58px;stroke:#f2f2f2;"/><path d="M1898.14,3147.17l493.91,-47.583" style="fill:none;stroke-width:14.58px;stroke:#f2f2f2;"/><path d="M2394.3,3099.12l328.08,-4.872" style="fill:none;stroke-width:14.58px;stroke:#f2f2f2;"/><path d="M2398.2,3039.12l326.327,1.332" style="fill:none;stroke-width:14.58px;stroke:#f2f2f2;"/><path d="M2397.84,2986.67l324.028,-3.539" style="fill:none;stroke-width:14.58px;stroke:#f2f2f2;"/><path d="M2397.48,2927.08l325.822,6.666" style="fill:none;stroke-width:14.58px;stroke:#f2f2f2;"/><path d="M2728.52,2936.26l330.638,-3.077" style="fill:none;stroke-width:14.58px;stroke:#f2f2f2;"/><path d="M2723.64,2986.97l335.152,1.794" style="fill:none;stroke-width:14.58px;stroke:#f2f2f2;"/><path d="M2721.8,3035.38l333.765,3.995" style="fill:none;stroke-width:14.58px;stroke:#f2f2f2;"/><path d="M2720.36,3094.45l337.768,0.869" style="fill:none;stroke-width:14.58px;stroke:#f2f2f2;"/><path d="M3058.13,3095.32l237.365,155.169" style="fill:none;stroke-width:14.58px;stroke:#f2f2f2;"/><path d="M3057.36,3039.79l237.78,152.912" style="fill:none;stroke-width:14.58px;stroke:#f2f2f2;"/><path d="M3060.95,2985.07l234.752,151.685" style="fill:none;stroke-width:14.58px;stroke:#f2f2f2;"/><path d="M3060.13,2926.88l239.574,145.832" style="fill:none;stroke-width:14.58px;stroke:#f2f2f2;"/></g><path d="M2254.08,2077.96l-83.296,0" style="fill:none;stroke-width:8.33px;stroke:#6d4a30;"/><path d="M2255.69,2163.38l-86.062,0" style="fill:none;stroke-width:4.17px;stroke:#7d573a;"/><path d="M2253.88,2249.96l-87.093,0" style="fill:none;stroke-width:4.17px;stroke:#7d573a;"/><path d="M2260.13,2339.83l-88.827,0" style="fill:none;stroke-width:4.17px;stroke:#7d573a;"/><path d="M2260.52,2426.4l-86.061,0" style="fill:none;stroke-width:4.17px;stroke:#7d573a;"/><path d="M2256.59,2512.92l-85.604,0" style="fill:none;stroke-width:4.17px;stroke:#7d573a;"/><path d="M2251.37,2594.98l-78.269,0" style="fill:none;stroke-width:4.17px;stroke:#7d573a;"/><path d="M2254.53,2688.13l-84.97,0" style="fill:none;stroke-width:4.17px;stroke:#7d573a;"/><path d="M2252.22,2768.6l-78.145,0" style="fill:none;stroke-width:4.17px;stroke:#7d573a;"/><path d="M2252.8,2861.16l-80.981,0" style="fill:none;stroke-width:4.17px;stroke:#7d573a;"/><path d="M3485.57,2048.78l-89.99,0" style="fill:none;stroke-width:4.17px;stroke:#7d573a;"/><path d="M3490.28,2142l-91.029,0" style="fill:none;stroke-width:4.17px;stroke:#7d573a;"/><path d="M3489.18,2227.93l-86.634,0" style="fill:none;stroke-width:4.17px;stroke:#7d573a;"/><path d="M3487.45,2316.24l-85.938,0" style="fill:none;stroke-width:4.17px;stroke:#7d573a;"/><path d="M3490.87,2401.66l-93.926,0" style="fill:none;stroke-width:4.17px;stroke:#7d573a;"/><path d="M3487.39,2487.66l-85.552,0" style="fill:none;stroke-width:4.17px;stroke:#7d573a;"/><path d="M3480.69,2575.92l-82.073,0" style="fill:none;stroke-width:4.17px;stroke:#7d573a;"/><path d="M3494.15,2666.36l-88.317,0" style="fill:none;stroke-width:4.17px;stroke:#7d573a;"/><path d="M3484.03,2754.55l-75.495,0" style="fill:none;stroke-width:4.17px;stroke:#7d573a;"/><path d="M3487.39,2841.19l-78.85,0" style="fill:none;stroke-width:4.17px;stroke:#7d573a;"/><path d="M3495.3,2936.72l-90.5,0" style="fill:none;stroke-width:4.17px;stroke:#7d573a;"/><path d="M3489.06,3026.07l-84.451,0" style="fill:none;stroke-width:4.17px;stroke:#7d573a;"/><path d="M3497.31,3100.92l-93.794,0" style="fill:none;stroke-width:4.17px;stroke:#7d573a;"/><path d="M3503.56,3182.54l-88.898,0" style="fill:none;stroke-width:4.17px;stroke:#7d573a;"/><path d="M3549.24,1970.96l0,1299.18" style="fill:none;stroke-width:6.25px;stroke:#7d573a;"/><path d="M2812.25,1587.02l224.493,110.198l-445.799,6.268l221.306,-116.466Z" style="fill:#786858;"/><path d="M1020.01,3223.73l350.176,5.188l1024.21,-100.563l659.046,-1.984l252.588,168.893" style="fill:none;stroke-width:8.33px;stroke:#6d4a30;"/><path d="M3304.32,3335.78l-1.294,-41.012" style="fill:none;stroke-width:8.33px;stroke:#6d4a30;"/></g></g><g><g><rect x="4575.42" y="1561.8" width="380.048" height="1780.09" style="fill:#4e443a;"/><path d="M4419.81,3378.97l686.741,-49.598l-373.372,-198.437c0,0 -289.906,276.66 -313.369,248.035Z" style="fill:#4e443a;stroke-width:4.17px;stroke:#4e443a;"/><path d="M4955.47,1561.8c0,0 70.635,-337.663 -19.778,-368.15c-3.5,-4.119 -150.81,-184.484 -35.677,-535.155c-60.297,-19.796 -214.062,107.031 -214.062,107.031c0,0 79.473,388.125 24.143,374.462c-6.743,-7.378 -26.342,68.003 -212.425,-275.041c5.48,-11.596 -69.449,9.445 -69.449,9.445l102.91,209.833c0,0 -54.323,39.337 -212.05,-69.211c-597.46,-685.582 -769.258,-618.003 -810.47,-606.258c4.371,-7.262 896.376,856.735 992.797,836.769c-0.239,-3.143 77.513,316.275 77.513,316.275l376.548,0Z" style="fill:#4e443a;stroke-width:4.17px;stroke-linecap:round;stroke:#4e443a;"/></g><g><rect x="163.346" y="1305.33" width="380.048" height="1780.09" style="fill:#4e443a;"/><path d="M699.008,3122.49l-686.742,-49.599l373.373,-198.437c0,0 289.906,276.66 313.369,248.036Z" style="fill:#4e443a;stroke-width:4.17px;stroke:#4e443a;"/><path d="M163.346,1305.33c0,0 -4.449,-195.671 -8.372,-368.149c4.119,-61.781 -29.788,-187.476 63.827,-535.155c60.296,-19.797 214.062,107.031 214.062,107.031c0,0 -79.473,388.125 -24.143,374.462c6.743,-7.378 26.342,68.003 212.425,-275.042c-5.48,-11.596 69.449,9.446 69.449,9.446l-102.91,209.833c0,0 54.323,39.336 212.05,-69.211c597.46,-685.582 455.693,-482.59 496.904,-470.846c-4.37,-7.262 -582.81,721.323 -679.232,701.357c0.239,-3.143 -77.512,316.274 -77.512,316.274l-376.548,0Z" style="fill:#4e443a;stroke-width:4.17px;stroke-linecap:round;stroke:#4e443a;"/></g><path d="M3934.84,434.98c0,0 75.739,466.798 553.688,446.854c477.949,-19.945 817.444,-791.249 865.807,-798.501c144.772,-21.706 -3032.17,-24.606 -2982.28,-22.361c0.169,-3.757 -17.655,529.092 344.634,646.477c362.288,117.384 646.917,-223.041 646.917,-223.041l74.482,-55.912c0,0 124.636,150.636 496.757,6.484Z" style="fill:#109d59;"/><path id="(Curve)" d="M1737.23,434.98c0,0 75.739,466.798 553.688,446.854c477.95,-19.945 498.014,-457.037 498.014,-457.037c0,0 591.534,-363.984 324.855,-363.825c-127.281,0.076 -3125.76,-45.916 -3113.75,22.361c3.037,17.27 30.274,42.209 62.632,62.5c40.939,25.672 97.848,38.925 106.222,47.543c0.169,-3.757 -12.103,396.688 350.185,514.073c362.288,117.384 646.917,-223.041 646.917,-223.041l74.482,-55.912c0,0 124.636,150.636 496.757,6.484Z" style="fill:#109d59;"/></g><rect x="0.036" y="0" width="5354.3" height="83.333" style="fill:#109d59;"/></g></svg>