<?xml version="1.0" standalone="no"?><!DOCTYPE svg PUBLIC "-//W3C//DTD SVG 1.1//EN" "http://www.w3.org/Graphics/SVG/1.1/DTD/svg11.dtd"><svg width="100%" height="100%" viewBox="0 0 647 409" version="1.1" xmlns="http://www.w3.org/2000/svg" xmlns:xlink="http://www.w3.org/1999/xlink" xml:space="preserve" style="fill-rule:evenodd;clip-rule:evenodd;stroke-linecap:round;stroke-linejoin:round;stroke-miterlimit:1.41421;"><g><path d="M29.255,371.757c3.878,12.328 44.25,9.136 53.426,9.379c4.834,0.128 9.673,-0.3 14.505,-0.13c16.337,0.575 36.51,-2.438 52.633,1.329c22.034,5.148 42.927,14.342 64.574,20.928c21.038,6.4 68.775,9.189 84.523,-11.843c2.197,-2.935 5.811,-13.44 6.764,-16.342c8.827,-26.908 18.121,-53.673 26.21,-80.811c2.828,-9.487 -13.487,-28.925 -17.62,-35.886c-9.192,-15.485 -17.879,-32.152 -28.908,-46.513c-7.935,-10.332 -18.771,-18.624 -25.558,-29.706c-10.958,-17.889 -12.799,-40.189 -22.898,-57.361c-12.39,-21.066 -25.539,12.26 -27.237,19.984c-6.571,29.897 22.447,51.611 29.448,76.798c3.164,11.381 -5.91,17.136 -16.128,17.873c-40.832,2.946 -80.506,-29.912 -111.917,-51.577c-10.878,-7.503 -37.672,-32.956 -52.101,-24.234c-10.045,6.072 -0.972,21.293 4.557,26.364c19.558,17.937 45.332,34.747 67.573,49.138c4.073,2.635 24.366,14.344 17.556,20.818c-2.739,2.605 -11.222,0.871 -13.436,0.176c-37.893,-11.902 -75.543,-24.562 -113.34,-36.762c-5.731,-1.85 -14.849,-3.549 -18.728,2.616c-6.085,9.671 -2.163,20.186 8.403,23.839c34.664,11.982 69.725,22.805 104.337,34.938c4.46,1.563 13.721,7.112 11.826,13.313c-3.347,10.95 -20.301,5.955 -27.892,4.472c-21.923,-4.284 -43.637,-8.489 -65.674,-12.226c-5.716,-0.97 -24.199,-6.809 -29.742,-0.479c-15.966,18.231 15.766,23.439 26.155,26.444c26.6,7.694 53.418,14.143 80.729,18.781c4.539,0.771 21.783,3.017 23.259,8.321c2.697,9.687 -15.236,10.173 -19.681,10.85c-21.268,3.241 -43.585,-0.468 -64.659,3.311c-6.293,1.129 -24.416,3.208 -20.959,14.198" style="fill:#0e76bc;"/><path d="M617.152,371.757c-3.878,12.328 -44.25,9.136 -53.426,9.379c-4.834,0.128 -9.673,-0.3 -14.505,-0.13c-16.337,0.575 -36.51,-2.438 -52.633,1.329c-22.034,5.148 -42.927,14.342 -64.574,20.928c-21.507,6.543 -68.658,9.344 -84.523,-11.843c-2.197,-2.935 -5.811,-13.44 -6.763,-16.342c-8.828,-26.908 -18.122,-53.673 -26.211,-80.811c-2.828,-9.487 13.487,-28.925 17.62,-35.886c9.192,-15.485 17.879,-32.152 28.908,-46.513c7.935,-10.332 18.771,-18.624 25.558,-29.706c10.958,-17.889 12.799,-40.189 22.898,-57.361c12.39,-21.066 25.539,12.26 27.237,19.984c6.571,29.897 -22.447,51.611 -29.448,76.798c-3.164,11.381 5.91,17.136 16.128,17.873c40.832,2.946 80.506,-29.912 111.917,-51.577c10.878,-7.503 37.672,-32.956 52.101,-24.234c10.045,6.072 0.972,21.293 -4.557,26.364c-19.558,17.937 -45.332,34.747 -67.573,49.138c-4.073,2.635 -24.366,14.344 -17.556,20.818c2.739,2.605 11.222,0.871 13.436,0.176c37.893,-11.902 75.543,-24.562 113.34,-36.762c5.731,-1.85 14.849,-3.549 18.728,2.616c6.085,9.671 2.163,20.186 -8.403,23.839c-34.664,11.982 -69.725,22.805 -104.337,34.938c-4.46,1.563 -13.721,7.112 -11.826,13.313c3.347,10.95 20.301,5.955 27.892,4.472c21.923,-4.284 43.637,-8.489 65.675,-12.226c5.715,-0.97 24.198,-6.809 29.741,-0.479c15.966,18.231 -15.766,23.439 -26.155,26.444c-26.6,7.694 -53.418,14.143 -80.729,18.781c-4.539,0.771 -21.783,3.017 -23.259,8.321c-2.697,9.687 15.236,10.173 19.681,10.85c21.268,3.241 43.586,-0.468 64.659,3.311c6.293,1.129 24.416,3.208 20.959,14.198" style="fill:#f36f21;"/><path d="M68.395,196.542c-3.915,12.316 30.951,32.917 38.32,38.392c3.881,2.883 8.086,5.316 11.942,8.233c13.036,9.863 31.274,18.997 42.299,31.35c15.067,16.88 26.875,36.416 40.8,54.25c13.533,17.332 50.987,47.061 75.964,38.908c3.485,-1.138 12.483,-7.655 14.93,-9.482c22.694,-16.94 45.686,-33.495 67.909,-51.047c7.768,-6.136 5.595,-31.421 6.217,-39.493c1.382,-17.954 3.857,-36.585 3.091,-54.676c-0.552,-13.017 -4.65,-26.031 -3.832,-39c1.321,-20.937 12.636,-40.241 14.246,-60.098c1.976,-24.359 -27.944,-4.652 -33.774,0.691c-22.567,20.683 -11.309,55.133 -20.063,79.766c-3.955,11.13 -14.688,10.621 -23.472,5.35c-35.101,-21.066 -48.669,-70.761 -61.913,-106.547c-4.586,-12.393 -11.874,-48.624 -28.694,-49.784c-11.71,-0.807 -13.038,16.862 -11.43,24.19c5.689,25.921 17.111,54.494 27.034,79.055c1.817,4.499 11.689,25.747 2.395,27.128c-3.739,0.556 -9.683,-5.739 -11.095,-7.582c-24.159,-31.524 -47.685,-63.53 -71.595,-95.244c-3.625,-4.808 -10.109,-11.441 -16.827,-8.627c-10.539,4.414 -13.376,15.272 -6.831,24.336c21.472,29.734 43.935,58.747 65.278,88.575c2.75,3.844 7.137,13.708 2.021,17.692c-9.035,7.035 -20.034,-6.8 -25.392,-12.377c-15.474,-16.111 -30.822,-32.036 -46.704,-47.765c-4.119,-4.079 -15.884,-19.483 -24.059,-17.491c-23.544,5.736 -0.577,28.241 6.196,36.674c17.339,21.588 35.573,42.285 55.252,61.782c3.271,3.241 16.087,14.993 14.246,20.181c-3.363,9.477 -18.315,-0.437 -22.341,-2.438c-19.264,-9.577 -35.392,-25.444 -54.806,-34.468c-5.798,-2.695 -21.821,-11.414 -25.312,-0.434" style="fill:#0ba14b;"/><path d="M578.723,197.225c3.915,12.316 -30.951,32.917 -38.32,38.392c-3.881,2.884 -8.086,5.317 -11.941,8.234c-13.037,9.863 -31.275,18.997 -42.3,31.349c-15.067,16.881 -26.875,36.416 -40.8,54.251c-13.835,17.719 -50.802,47.121 -75.964,38.908c-3.485,-1.138 -12.482,-7.655 -14.93,-9.483c-22.693,-16.939 -45.686,-33.494 -67.909,-51.047c-7.768,-6.135 -5.595,-31.421 -6.217,-39.492c-1.382,-17.955 -3.857,-36.586 -3.09,-54.677c0.551,-13.016 4.649,-26.03 3.831,-39c-1.32,-20.936 -12.636,-40.24 -14.246,-60.097c-1.975,-24.359 27.944,-4.653 33.774,0.69c22.567,20.683 11.31,55.133 20.063,79.766c3.955,11.131 14.688,10.622 23.472,5.35c35.102,-21.065 48.67,-70.76 61.913,-106.546c4.586,-12.394 11.874,-48.624 28.694,-49.784c11.71,-0.808 13.038,16.861 11.43,24.19c-5.689,25.921 -17.111,54.493 -27.034,79.055c-1.817,4.499 -11.688,25.747 -2.394,27.128c3.738,0.556 9.682,-5.74 11.094,-7.582c24.16,-31.525 47.685,-63.53 71.595,-95.244c3.626,-4.808 10.11,-11.441 16.828,-8.628c10.539,4.414 13.375,15.273 6.831,24.336c-21.472,29.735 -43.936,58.748 -65.278,88.576c-2.75,3.843 -7.137,13.708 -2.021,17.692c9.034,7.035 20.033,-6.8 25.391,-12.378c15.474,-16.11 30.822,-32.035 46.704,-47.764c4.119,-4.08 15.884,-19.484 24.059,-17.492c23.545,5.737 0.577,28.242 -6.196,36.674c-17.339,21.589 -35.573,42.286 -55.252,61.783c-3.271,3.24 -16.087,14.992 -14.246,20.181c3.363,9.477 18.315,-0.437 22.341,-2.439c19.265,-9.576 35.392,-25.443 54.806,-34.467c5.798,-2.695 21.822,-11.414 25.312,-0.435" style="fill:#ffd503;"/><g><path d="M203.515,74.03c-10.53,7.492 4.962,44.909 7.562,53.713c1.37,4.637 3.269,9.108 4.598,13.757c4.495,15.717 13.585,33.977 14.975,50.476c1.901,22.546 -0.399,45.257 0.016,67.88c0.403,21.986 12.479,68.255 37.343,76.745c3.469,1.185 14.577,1.382 17.632,1.392c28.318,0.095 56.644,0.678 84.955,0c9.896,-0.237 23.353,-21.754 28.699,-27.832c11.894,-13.522 25.067,-26.927 35.324,-41.849c7.381,-10.736 11.925,-23.601 20.372,-33.476c13.635,-15.942 34.28,-24.574 47.498,-39.479c16.216,-18.284 -19.541,-20.51 -27.412,-19.742c-30.467,2.973 -42.168,37.275 -63.966,51.706c-9.85,6.52 -18.123,-0.336 -21.977,-9.828c-15.401,-37.93 3.614,-85.806 14.531,-122.369c3.781,-12.662 19.725,-46.002 6.977,-57.036c-8.875,-7.682 -20.554,5.644 -23.672,12.468c-11.028,24.138 -19.065,53.841 -25.892,79.437c-1.25,4.687 -6.127,27.603 -14.386,23.123c-3.323,-1.802 -4.291,-10.406 -4.313,-12.727c-0.37,-39.716 0.057,-79.435 0,-119.152c-0.008,-6.022 -1.206,-15.22 -8.267,-17.008c-11.076,-2.804 -19.868,4.171 -20.082,15.348c-0.704,36.67 -0.181,73.36 -1.044,110.026c-0.111,4.725 -2.532,15.246 -9.015,15.357c-11.448,0.195 -11.927,-17.473 -12.859,-25.151c-2.689,-22.176 -5.388,-44.128 -8.632,-66.243c-0.841,-5.736 -0.99,-25.119 -8.722,-28.439c-22.267,-9.562 -17.43,22.228 -17.083,33.038c0.888,27.676 3.027,55.176 7.042,82.586c0.667,4.555 3.851,21.65 -0.739,24.691c-8.383,5.554 -14.377,-11.354 -16.393,-15.373c-9.644,-19.231 -13.002,-41.604 -23.098,-60.483c-3.016,-5.638 -10.585,-22.236 -19.972,-15.556" style="fill:#e41e26;"/><path d="M329.626,1.528l0.27,0.006l0.271,0.01l0.273,0.013l0.273,0.017l0.274,0.021l0.275,0.025l0.276,0.028l0.277,0.032l0.277,0.036l0.279,0.04l0.279,0.043l0.28,0.047l0.281,0.051l0.281,0.055l0.282,0.059l0.283,0.062l0.283,0.066l0.287,0.071l0.199,0.052l0.199,0.057l0.198,0.06l0.205,0.066l0.374,0.133l0.375,0.15l0.366,0.162l0.357,0.175l0.346,0.187l0.337,0.198l0.327,0.209l0.317,0.219l0.307,0.229l0.297,0.239l0.287,0.248l0.277,0.257l0.267,0.264l0.256,0.272l0.248,0.279l0.237,0.285l0.229,0.292l0.219,0.297l0.21,0.303l0.202,0.308l0.193,0.312l0.185,0.317l0.177,0.321l0.169,0.325l0.161,0.328l0.154,0.331l0.147,0.334l0.14,0.337l0.134,0.339l0.127,0.342l0.12,0.344l0.115,0.345l0.108,0.347l0.103,0.348l0.098,0.349l0.092,0.35l0.086,0.351l0.082,0.351l0.077,0.352l0.072,0.351l0.067,0.352l0.063,0.351l0.059,0.35l0.054,0.35l0.05,0.348l0.047,0.348l0.043,0.345l0.04,0.349l0.067,0.678l0.055,0.673l0.043,0.662l0.032,0.65l0.022,0.634l0.013,0.618l0.005,0.595l0.005,7.455l-0.004,7.45l-0.012,7.449l-0.018,7.448l-0.044,14.895l-0.045,14.894l-0.018,7.446l-0.012,7.445l-0.005,7.445l0.005,7.444l0.015,7.444l0.013,3.721l0.016,3.721l0.019,3.722l0.024,3.721l0.028,3.721l0.032,3.71l0.005,0.203l0.009,0.234l0.015,0.271l0.021,0.304l0.027,0.332l0.034,0.358l0.041,0.382l0.048,0.401l0.055,0.418l0.063,0.433l0.07,0.444l0.078,0.454l0.086,0.46l0.094,0.464l0.102,0.465l0.11,0.464l0.118,0.459l0.127,0.451l0.136,0.448l0.068,0.21l0.072,0.213l0.074,0.208l0.076,0.204l0.077,0.199l0.079,0.194l0.08,0.188l0.082,0.182l0.083,0.176l0.083,0.169l0.085,0.162l0.085,0.155l0.086,0.146l0.086,0.138l0.085,0.129l0.085,0.121l0.083,0.111l0.082,0.101l0.079,0.092l0.077,0.082l0.074,0.072l0.07,0.063l0.065,0.054l0.061,0.044l0.056,0.037l0.061,0.035l0.112,0.059l0.117,0.055l0.112,0.047l0.107,0.04l0.102,0.033l0.097,0.027l0.093,0.021l0.09,0.016l0.086,0.012l0.083,0.007l0.081,0.003l0.08,-0.001l0.08,-0.004l0.079,-0.008l0.08,-0.013l0.082,-0.016l0.083,-0.02l0.084,-0.025l0.088,-0.03l0.089,-0.035l0.093,-0.04l0.095,-0.046l0.099,-0.052l0.1,-0.059l0.104,-0.064l0.106,-0.071l0.108,-0.078l0.111,-0.084l0.113,-0.091l0.114,-0.098l0.116,-0.105l0.117,-0.111l0.119,-0.118l0.12,-0.125l0.121,-0.131l0.121,-0.138l0.122,-0.144l0.123,-0.15l0.123,-0.156l0.123,-0.162l0.123,-0.167l0.123,-0.173l0.123,-0.179l0.123,-0.184l0.123,-0.189l0.122,-0.194l0.122,-0.198l0.119,-0.199l0.244,-0.425l0.239,-0.437l0.236,-0.452l0.232,-0.466l0.229,-0.479l0.226,-0.491l0.222,-0.502l0.217,-0.511l0.214,-0.519l0.209,-0.527l0.205,-0.532l0.201,-0.538l0.196,-0.54l0.191,-0.544l0.187,-0.545l0.182,-0.545l0.177,-0.544l0.172,-0.543l0.168,-0.54l0.163,-0.535l0.157,-0.531l0.153,-0.522l0.291,-1.029l0.271,-0.989l0.251,-0.943l0.23,-0.889l0.211,-0.827l0.361,-1.441l0.151,-0.598l0.131,-0.506l1.297,-4.852l0.66,-2.457l0.667,-2.475l0.676,-2.493l0.685,-2.509l0.694,-2.523l0.704,-2.535l0.714,-2.545l0.724,-2.555l0.734,-2.561l0.745,-2.566l0.757,-2.569l0.767,-2.572l0.78,-2.569l0.395,-1.286l0.397,-1.285l0.401,-1.283l0.404,-1.282l0.407,-1.281l0.41,-1.279l0.414,-1.278l0.417,-1.275l0.42,-1.273l0.424,-1.271l0.428,-1.268l0.431,-1.266l0.434,-1.262l0.438,-1.258l0.442,-1.256l0.445,-1.251l0.449,-1.248l0.453,-1.243l0.457,-1.239l0.461,-1.234l0.464,-1.229l0.469,-1.225l0.472,-1.219l0.477,-1.213l0.481,-1.208l0.484,-1.202l0.49,-1.196l0.493,-1.189l0.497,-1.183l0.502,-1.176l0.507,-1.169l0.51,-1.162l0.516,-1.154l0.523,-1.154l0.167,-0.355l0.182,-0.369l0.194,-0.375l0.205,-0.381l0.217,-0.386l0.227,-0.391l0.239,-0.395l0.249,-0.4l0.259,-0.403l0.27,-0.406l0.28,-0.409l0.289,-0.411l0.3,-0.413l0.308,-0.414l0.318,-0.414l0.327,-0.414l0.336,-0.414l0.344,-0.412l0.353,-0.411l0.361,-0.408l0.369,-0.406l0.377,-0.402l0.385,-0.397l0.392,-0.394l0.4,-0.388l0.407,-0.382l0.414,-0.375l0.421,-0.369l0.428,-0.36l0.434,-0.353l0.441,-0.343l0.448,-0.334l0.453,-0.323l0.46,-0.313l0.461,-0.298l0.241,-0.149l0.237,-0.142l0.238,-0.14l0.24,-0.136l0.242,-0.133l0.243,-0.129l0.244,-0.126l0.246,-0.121l0.248,-0.118l0.249,-0.114l0.251,-0.11l0.251,-0.106l0.254,-0.101l0.255,-0.098l0.256,-0.092l0.258,-0.088l0.259,-0.083l0.261,-0.079l0.262,-0.073l0.263,-0.068l0.265,-0.063l0.266,-0.057l0.267,-0.052l0.269,-0.046l0.27,-0.041l0.27,-0.034l0.272,-0.028l0.273,-0.022l0.274,-0.016l0.274,-0.008l0.276,-0.003l0.276,0.005l0.276,0.012l0.277,0.019l0.278,0.026l0.277,0.033l0.277,0.041l0.278,0.048l0.277,0.057l0.276,0.064l0.276,0.071l0.275,0.08l0.275,0.088l0.273,0.095l0.272,0.104l0.271,0.111l0.269,0.12l0.268,0.128l0.266,0.136l0.264,0.144l0.263,0.152l0.26,0.16l0.258,0.168l0.256,0.177l0.253,0.184l0.251,0.192l0.249,0.2l0.244,0.206l0.177,0.156l0.17,0.155l0.168,0.158l0.165,0.16l0.162,0.163l0.159,0.165l0.156,0.167l0.153,0.169l0.149,0.172l0.152,0.18l0.28,0.347l0.272,0.361l0.261,0.37l0.249,0.377l0.237,0.383l0.225,0.391l0.215,0.397l0.202,0.404l0.192,0.409l0.181,0.416l0.171,0.42l0.159,0.426l0.15,0.431l0.14,0.436l0.129,0.441l0.121,0.446l0.11,0.449l0.102,0.454l0.092,0.459l0.084,0.462l0.075,0.466l0.067,0.47l0.059,0.473l0.05,0.477l0.043,0.481l0.035,0.484l0.028,0.487l0.02,0.49l0.013,0.494l0.006,0.496l0,0.499l-0.008,0.502l-0.013,0.505l-0.02,0.507l-0.027,0.51l-0.032,0.512l-0.038,0.514l-0.045,0.517l-0.049,0.519l-0.056,0.521l-0.06,0.523l-0.066,0.524l-0.071,0.527l-0.076,0.528l-0.081,0.53l-0.085,0.531l-0.09,0.532l-0.095,0.534l-0.099,0.534l-0.103,0.536l-0.107,0.537l-0.111,0.537l-0.115,0.538l-0.119,0.539l-0.122,0.539l-0.126,0.54l-0.13,0.543l-0.267,1.077l-0.279,1.08l-0.291,1.079l-0.301,1.077l-0.31,1.073l-0.318,1.07l-0.326,1.065l-0.331,1.06l-0.337,1.052l-0.342,1.045l-0.345,1.036l-0.347,1.027l-0.349,1.016l-0.349,1.005l-0.35,0.993l-0.693,1.941l-0.68,1.881l-0.661,1.811l-0.632,1.732l-0.596,1.646l-0.554,1.551l-0.258,0.735l-0.243,0.708l-0.23,0.679l-0.213,0.649l-0.196,0.618l-0.181,0.592l-0.517,1.721l-0.53,1.744l-0.54,1.759l-0.549,1.773l-1.119,3.585l-1.142,3.638l-1.157,3.685l-1.165,3.73l-0.583,1.879l-0.582,1.889l-0.58,1.898l-0.577,1.907l-0.573,1.914l-0.568,1.922l-0.562,1.93l-0.556,1.935l-0.547,1.942l-0.539,1.948l-0.53,1.952l-0.519,1.959l-0.254,0.979l-0.252,0.981l-0.249,0.982l-0.246,0.983l-0.242,0.983l-0.239,0.984l-0.235,0.985l-0.231,0.986l-0.228,0.986l-0.223,0.987l-0.219,0.986l-0.216,0.988l-0.21,0.987l-0.207,0.988l-0.201,0.988l-0.197,0.988l-0.193,0.988l-0.187,0.987l-0.182,0.988l-0.177,0.988l-0.172,0.987l-0.166,0.987l-0.161,0.987l-0.155,0.986l-0.15,0.986l-0.143,0.985l-0.138,0.984l-0.131,0.984l-0.126,0.983l-0.118,0.983l-0.113,0.981l-0.106,0.981l-0.099,0.979l-0.092,0.978l-0.085,0.978l-0.079,0.976l-0.071,0.974l-0.063,0.974l-0.057,0.972l-0.049,0.97l-0.041,0.97l-0.034,0.967l-0.025,0.966l-0.018,0.964l-0.01,0.962l-0.001,0.961l0.007,0.959l0.015,0.956l0.024,0.955l0.032,0.953l0.042,0.95l0.05,0.948l0.059,0.947l0.068,0.943l0.077,0.942l0.087,0.939l0.096,0.936l0.106,0.934l0.115,0.931l0.126,0.929l0.135,0.926l0.145,0.923l0.155,0.92l0.165,0.918l0.176,0.914l0.186,0.912l0.196,0.908l0.208,0.905l0.218,0.903l0.229,0.899l0.24,0.896l0.251,0.892l0.262,0.889l0.274,0.886l0.286,0.886l0.146,0.437l0.15,0.439l0.153,0.438l0.155,0.437l0.159,0.436l0.162,0.436l0.164,0.434l0.168,0.434l0.17,0.433l0.172,0.427l0.174,0.418l0.177,0.408l0.183,0.405l0.188,0.399l0.194,0.395l0.2,0.389l0.205,0.384l0.21,0.377l0.215,0.372l0.22,0.366l0.225,0.359l0.23,0.352l0.235,0.345l0.239,0.338l0.243,0.33l0.248,0.322l0.251,0.314l0.256,0.306l0.26,0.298l0.263,0.289l0.267,0.28l0.271,0.27l0.274,0.262l0.276,0.252l0.28,0.242l0.283,0.232l0.286,0.222l0.288,0.212l0.291,0.202l0.293,0.191l0.295,0.181l0.305,0.174l0.143,0.077l0.15,0.079l0.15,0.075l0.151,0.073l0.152,0.07l0.152,0.068l0.153,0.064l0.153,0.062l0.154,0.059l0.154,0.057l0.155,0.053l0.155,0.051l0.156,0.048l0.156,0.046l0.157,0.042l0.157,0.04l0.158,0.036l0.159,0.034l0.159,0.031l0.16,0.028l0.16,0.026l0.161,0.022l0.162,0.019l0.162,0.017l0.164,0.013l0.164,0.011l0.164,0.007l0.166,0.005l0.167,0.001l0.167,-0.001l0.168,-0.005l0.17,-0.008l0.17,-0.012l0.171,-0.014l0.172,-0.018l0.173,-0.021l0.175,-0.024l0.175,-0.028l0.177,-0.032l0.177,-0.034l0.179,-0.039l0.18,-0.042l0.181,-0.045l0.182,-0.05l0.183,-0.053l0.185,-0.057l0.186,-0.061l0.187,-0.064l0.188,-0.069l0.19,-0.073l0.191,-0.077l0.192,-0.081l0.193,-0.085l0.195,-0.089l0.196,-0.094l0.197,-0.098l0.198,-0.102l0.2,-0.107l0.2,-0.112l0.202,-0.116l0.203,-0.121l0.205,-0.125l0.205,-0.13l0.207,-0.135l0.486,-0.326l0.484,-0.334l0.481,-0.341l0.478,-0.348l0.475,-0.355l0.473,-0.361l0.47,-0.368l0.468,-0.375l0.466,-0.381l0.463,-0.387l0.461,-0.393l0.458,-0.399l0.457,-0.405l0.455,-0.411l0.452,-0.416l0.451,-0.421l0.449,-0.427l0.447,-0.432l0.446,-0.437l0.444,-0.441l0.442,-0.447l0.441,-0.451l0.439,-0.455l0.438,-0.46l0.437,-0.464l0.436,-0.467l0.434,-0.472l0.432,-0.474l0.866,-0.963l0.861,-0.974l0.858,-0.986l0.856,-0.997l0.854,-1.006l0.854,-1.014l0.853,-1.022l0.853,-1.028l1.712,-2.07l1.719,-2.078l0.865,-1.04l0.87,-1.039l0.874,-1.037l0.88,-1.034l0.887,-1.029l0.893,-1.023l0.902,-1.016l0.908,-1.006l0.46,-0.503l0.46,-0.498l0.464,-0.495l0.465,-0.493l0.469,-0.49l0.471,-0.487l0.474,-0.483l0.477,-0.48l0.48,-0.477l0.483,-0.473l0.486,-0.469l0.49,-0.465l0.493,-0.461l0.497,-0.456l0.5,-0.452l0.504,-0.448l0.508,-0.442l0.511,-0.438l0.515,-0.433l0.52,-0.427l0.524,-0.422l0.528,-0.417l0.532,-0.41l0.537,-0.405l0.541,-0.399l0.546,-0.393l0.55,-0.386l0.556,-0.379l0.56,-0.373l0.565,-0.366l0.57,-0.359l0.576,-0.351l0.58,-0.344l0.586,-0.337l0.591,-0.329l0.597,-0.321l0.602,-0.312l0.608,-0.305l0.613,-0.296l0.619,-0.287l0.625,-0.279l0.631,-0.269l0.637,-0.261l0.643,-0.251l0.649,-0.242l0.655,-0.231l0.661,-0.222l0.667,-0.212l0.673,-0.202l0.68,-0.192l0.687,-0.181l0.692,-0.17l0.699,-0.159l0.706,-0.149l0.712,-0.137l0.719,-0.126l0.725,-0.114l0.732,-0.103l0.739,-0.091l0.748,-0.08l0.428,-0.037l0.465,-0.031l0.497,-0.026l0.528,-0.02l0.56,-0.014l0.59,-0.007l0.618,-0.002l0.645,0.006l0.671,0.012l0.694,0.02l0.717,0.027l0.738,0.036l0.757,0.043l0.774,0.052l0.789,0.06l0.804,0.07l0.815,0.079l0.826,0.089l0.835,0.099l0.841,0.11l0.847,0.12l0.851,0.131l0.852,0.143l0.853,0.155l0.847,0.166l0.428,0.089l0.423,0.092l0.422,0.095l0.421,0.098l0.42,0.101l0.417,0.105l0.415,0.109l0.413,0.112l0.411,0.115l0.408,0.12l0.406,0.123l0.402,0.127l0.399,0.131l0.396,0.135l0.392,0.139l0.388,0.143l0.385,0.148l0.38,0.152l0.376,0.156l0.371,0.161l0.367,0.166l0.361,0.17l0.357,0.176l0.351,0.181l0.346,0.186l0.34,0.191l0.334,0.197l0.328,0.203l0.322,0.209l0.314,0.215l0.309,0.221l0.301,0.228l0.293,0.235l0.286,0.242l0.278,0.25l0.269,0.257l0.26,0.264l0.251,0.273l0.242,0.281l0.231,0.29l0.22,0.298l0.208,0.307l0.197,0.315l0.184,0.324l0.165,0.322l0.084,0.179l0.077,0.172l0.072,0.173l0.069,0.176l0.065,0.177l0.061,0.179l0.057,0.182l0.053,0.182l0.049,0.185l0.044,0.186l0.041,0.188l0.036,0.189l0.031,0.19l0.028,0.192l0.023,0.193l0.018,0.194l0.014,0.196l0.009,0.196l0.005,0.198l0.001,0.198l-0.004,0.199l-0.009,0.2l-0.013,0.201l-0.017,0.202l-0.022,0.201l-0.027,0.202l-0.031,0.204l-0.035,0.203l-0.04,0.204l-0.044,0.205l-0.049,0.205l-0.053,0.205l-0.057,0.206l-0.061,0.206l-0.066,0.207l-0.071,0.207l-0.074,0.207l-0.079,0.208l-0.083,0.209l-0.087,0.209l-0.092,0.209l-0.099,0.217l-0.2,0.413l-0.221,0.423l-0.238,0.425l-0.255,0.428l-0.273,0.431l-0.289,0.433l-0.307,0.436l-0.324,0.44l-0.342,0.443l-0.359,0.447l-0.378,0.451l-0.392,0.45l-0.326,0.364l-0.324,0.358l-0.327,0.355l-0.329,0.352l-0.332,0.35l-0.334,0.348l-0.336,0.345l-0.341,0.346l-0.682,0.677l-0.693,0.671l-0.702,0.662l-0.709,0.655l-0.717,0.647l-0.724,0.64l-0.731,0.632l-0.738,0.627l-0.744,0.619l-0.75,0.614l-0.755,0.609l-0.761,0.603l-0.765,0.598l-0.77,0.593l-0.774,0.59l-0.778,0.585l-0.781,0.582l-0.785,0.578l-0.787,0.576l-0.791,0.573l-1.584,1.138l-1.593,1.133l-3.19,2.254l-1.595,1.127l-1.589,1.131l-1.585,1.138l-0.786,0.57l-0.785,0.573l-0.782,0.577l-0.779,0.579l-0.775,0.582l-0.77,0.586l-0.767,0.59l-0.762,0.594l-0.756,0.598l-0.752,0.603l-0.745,0.608l-0.74,0.614l-0.734,0.619l-0.726,0.625l-0.72,0.631l-0.713,0.638l-0.705,0.644l-0.698,0.652l-0.689,0.659l-0.681,0.666l-0.674,0.677l-0.331,0.338l-0.33,0.342l-0.328,0.345l-0.326,0.347l-0.323,0.349l-0.321,0.351l-0.318,0.353l-0.316,0.356l-0.314,0.358l-0.309,0.359l-0.379,0.448l-0.372,0.452l-0.368,0.455l-0.363,0.46l-0.358,0.464l-0.355,0.469l-0.35,0.472l-0.345,0.477l-0.342,0.48l-0.338,0.484l-0.335,0.488l-0.331,0.492l-0.327,0.495l-0.325,0.498l-0.321,0.501l-0.318,0.505l-0.316,0.508l-0.312,0.511l-0.311,0.513l-0.308,0.516l-0.305,0.519l-0.302,0.519l-0.603,1.051l-0.595,1.058l-0.589,1.065l-0.585,1.072l-0.582,1.077l-1.16,2.171l-1.161,2.179l-0.585,1.093l-0.589,1.092l-0.595,1.092l-0.601,1.09l-0.61,1.087l-0.619,1.083l-0.628,1.077l-0.32,0.539l-0.323,0.536l-0.326,0.534l-0.329,0.532l-0.333,0.531l-0.336,0.528l-0.341,0.527l-0.345,0.524l-0.349,0.522l-0.353,0.517l-0.49,0.709l-0.494,0.706l-0.498,0.703l-0.501,0.701l-0.505,0.698l-0.509,0.696l-0.513,0.694l-0.516,0.692l-0.519,0.689l-0.523,0.688l-0.526,0.685l-0.529,0.683l-0.532,0.682l-0.534,0.679l-0.538,0.677l-0.542,0.677l-1.087,1.345l-1.098,1.338l-1.107,1.332l-1.115,1.326l-1.122,1.319l-1.129,1.314l-1.134,1.309l-1.139,1.303l-1.144,1.298l-1.147,1.294l-1.15,1.29l-1.152,1.286l-2.305,2.56l-2.304,2.549l-2.296,2.539l-2.283,2.533l-1.133,1.264l-1.128,1.263l-1.121,1.262l-1.11,1.258l-0.242,0.278l-0.252,0.299l-0.266,0.323l-0.279,0.345l-0.292,0.367l-0.303,0.385l-0.645,0.833l-0.687,0.899l-0.726,0.96l-1.562,2.074l-0.831,1.1l-0.861,1.132l-0.889,1.157l-0.914,1.175l-0.467,0.595l-0.473,0.595l-0.477,0.597l-0.483,0.597l-0.488,0.597l-0.493,0.596l-0.497,0.594l-0.501,0.591l-0.506,0.587l-0.509,0.583l-0.513,0.578l-0.516,0.572l-0.52,0.565l-0.523,0.557l-0.525,0.549l-0.528,0.539l-0.531,0.53l-0.533,0.519l-0.535,0.507l-0.538,0.494l-0.54,0.482l-0.541,0.467l-0.54,0.449l-0.276,0.223l-0.274,0.217l-0.273,0.212l-0.274,0.208l-0.275,0.204l-0.275,0.199l-0.276,0.195l-0.276,0.19l-0.277,0.185l-0.278,0.18l-0.278,0.176l-0.279,0.17l-0.28,0.165l-0.28,0.16l-0.281,0.154l-0.282,0.148l-0.283,0.143l-0.284,0.136l-0.285,0.131l-0.286,0.124l-0.287,0.118l-0.288,0.111l-0.289,0.104l-0.29,0.097l-0.291,0.09l-0.293,0.082l-0.294,0.075l-0.295,0.066l-0.296,0.058l-0.298,0.05l-0.298,0.04l-0.3,0.032l-0.3,0.022l-0.286,0.012l-2.675,0.06l-2.66,0.053l-2.659,0.046l-2.66,0.04l-2.659,0.033l-2.659,0.028l-2.659,0.023l-2.658,0.017l-2.658,0.012l-2.659,0.008l-2.658,0.004l-2.657,-0.001l-2.658,-0.003l-2.658,-0.007l-5.313,-0.023l-5.314,-0.031l-5.312,-0.038l-10.621,-0.085l-5.309,-0.042l-5.308,-0.038l-5.307,-0.032l-5.311,-0.024l-0.671,-0.004l-0.84,-0.01l-0.983,-0.017l-1.103,-0.024l-1.201,-0.034l-1.277,-0.045l-1.327,-0.055l-0.679,-0.033l-0.683,-0.036l-0.684,-0.04l-0.684,-0.043l-0.681,-0.047l-0.675,-0.052l-0.666,-0.055l-0.655,-0.06l-0.641,-0.065l-0.625,-0.07l-0.606,-0.075l-0.587,-0.081l-0.564,-0.087l-0.54,-0.094l-0.509,-0.1l-0.255,-0.056l-0.242,-0.057l-0.237,-0.06l-0.232,-0.063l-0.226,-0.068l-0.213,-0.069l-0.322,-0.112l-0.312,-0.113l-0.312,-0.117l-0.309,-0.12l-0.309,-0.124l-0.307,-0.127l-0.305,-0.131l-0.304,-0.134l-0.303,-0.138l-0.301,-0.141l-0.3,-0.145l-0.298,-0.148l-0.297,-0.151l-0.296,-0.154l-0.294,-0.158l-0.292,-0.161l-0.291,-0.165l-0.29,-0.167l-0.288,-0.171l-0.287,-0.173l-0.285,-0.177l-0.288,-0.183l-0.559,-0.366l-0.558,-0.38l-0.551,-0.393l-0.546,-0.403l-0.541,-0.415l-0.534,-0.426l-0.53,-0.437l-0.523,-0.447l-0.518,-0.458l-0.512,-0.468l-0.506,-0.478l-0.502,-0.488l-0.495,-0.497l-0.491,-0.507l-0.484,-0.516l-0.48,-0.524l-0.474,-0.534l-0.469,-0.542l-0.463,-0.551l-0.459,-0.559l-0.453,-0.567l-0.447,-0.575l-0.443,-0.582l-0.438,-0.59l-0.432,-0.598l-0.427,-0.604l-0.423,-0.612l-0.417,-0.618l-0.412,-0.626l-0.407,-0.631l-0.402,-0.638l-0.398,-0.644l-0.392,-0.649l-0.387,-0.656l-0.383,-0.661l-0.377,-0.667l-0.373,-0.672l-0.368,-0.677l-0.363,-0.681l-0.359,-0.687l-0.353,-0.691l-0.349,-0.695l-0.344,-0.7l-0.339,-0.704l-0.334,-0.707l-0.33,-0.711l-0.325,-0.715l-0.32,-0.718l-0.316,-0.722l-0.311,-0.724l-0.306,-0.727l-0.302,-0.73l-0.297,-0.732l-0.292,-0.735l-0.288,-0.736l-0.283,-0.739l-0.278,-0.74l-0.274,-0.742l-0.269,-0.744l-0.265,-0.745l-0.26,-0.746l-0.256,-0.747l-0.251,-0.747l-0.246,-0.748l-0.242,-0.749l-0.237,-0.749l-0.233,-0.749l-0.228,-0.749l-0.224,-0.748l-0.219,-0.748l-0.215,-0.748l-0.21,-0.746l-0.206,-0.746l-0.201,-0.745l-0.197,-0.743l-0.192,-0.742l-0.188,-0.74l-0.183,-0.738l-0.179,-0.737l-0.175,-0.734l-0.17,-0.732l-0.165,-0.729l-0.161,-0.726l-0.157,-0.724l-0.152,-0.721l-0.148,-0.717l-0.143,-0.715l-0.139,-0.71l-0.135,-0.707l-0.13,-0.703l-0.126,-0.699l-0.121,-0.695l-0.117,-0.69l-0.112,-0.686l-0.108,-0.681l-0.104,-0.677l-0.1,-0.671l-0.095,-0.666l-0.09,-0.66l-0.086,-0.655l-0.082,-0.649l-0.078,-0.644l-0.073,-0.637l-0.068,-0.631l-0.065,-0.625l-0.06,-0.618l-0.056,-0.612l-0.051,-0.604l-0.047,-0.598l-0.042,-0.59l-0.039,-0.583l-0.033,-0.576l-0.03,-0.568l-0.025,-0.56l-0.021,-0.553l-0.016,-0.544l-0.012,-0.534l-0.018,-1.07l-0.013,-1.068l-0.01,-1.068l-0.007,-1.067l-0.003,-1.068l0,-1.068l0.009,-2.132l0.02,-2.133l0.029,-2.132l0.038,-2.131l0.045,-2.129l0.051,-2.129l0.055,-2.128l0.119,-4.25l0.121,-4.247l0.058,-2.121l0.056,-2.12l0.051,-2.118l0.045,-2.117l0.039,-2.115l0.03,-2.114l0.021,-2.112l0.01,-2.111l0.001,-1.053l-0.002,-1.054l-0.006,-1.054l-0.009,-1.053l-0.012,-1.053l-0.017,-1.052l-0.02,-1.052l-0.025,-1.051l-0.028,-1.051l-0.033,-1.05l-0.038,-1.05l-0.042,-1.049l-0.047,-1.049l-0.052,-1.048l-0.057,-1.048l-0.062,-1.047l-0.068,-1.046l-0.073,-1.047l-0.079,-1.045l-0.085,-1.041l-0.069,-0.75l-0.079,-0.749l-0.089,-0.753l-0.099,-0.756l-0.11,-0.759l-0.119,-0.762l-0.129,-0.765l-0.138,-0.767l-0.146,-0.771l-0.156,-0.773l-0.164,-0.775l-0.172,-0.778l-0.18,-0.78l-0.188,-0.782l-0.195,-0.784l-0.202,-0.786l-0.209,-0.787l-0.215,-0.789l-0.222,-0.791l-0.228,-0.792l-0.234,-0.793l-0.239,-0.795l-0.244,-0.796l-0.25,-0.796l-0.254,-0.797l-0.258,-0.798l-0.262,-0.799l-0.266,-0.797l-0.544,-1.602l-0.555,-1.6l-0.565,-1.6l-0.572,-1.599l-0.578,-1.598l-0.58,-1.594l-1.162,-3.179l-0.577,-1.583l-0.571,-1.577l-0.562,-1.57l-0.552,-1.564l-0.539,-1.554l-0.265,-0.776l-0.261,-0.773l-0.256,-0.77l-0.251,-0.768l-0.247,-0.766l-0.241,-0.763l-0.236,-0.761l-0.231,-0.758l-0.224,-0.755l-0.216,-0.745l-0.124,-0.428l-0.124,-0.417l-0.261,-0.844l-0.27,-0.842l-0.281,-0.842l-0.288,-0.844l-0.294,-0.845l-0.604,-1.704l-0.609,-1.712l-0.304,-0.864l-0.3,-0.869l-0.296,-0.874l-0.289,-0.881l-0.28,-0.887l-0.267,-0.88l-0.128,-0.423l-0.143,-0.455l-0.162,-0.498l-0.178,-0.538l-0.406,-1.199l-0.461,-1.338l-1.062,-3.055l-0.586,-1.693l-0.612,-1.788l-0.631,-1.872l-0.321,-0.966l-0.323,-0.982l-0.324,-0.997l-0.325,-1.013l-0.324,-1.025l-0.323,-1.037l-0.32,-1.047l-0.317,-1.057l-0.313,-1.064l-0.308,-1.071l-0.302,-1.077l-0.295,-1.08l-0.288,-1.083l-0.279,-1.084l-0.269,-1.084l-0.259,-1.084l-0.248,-1.081l-0.236,-1.077l-0.222,-1.07l-0.106,-0.537l-0.103,-0.533l-0.098,-0.53l-0.095,-0.529l-0.091,-0.527l-0.087,-0.524l-0.083,-0.522l-0.078,-0.52l-0.074,-0.517l-0.069,-0.514l-0.065,-0.511l-0.059,-0.509l-0.055,-0.505l-0.05,-0.501l-0.045,-0.498l-0.039,-0.495l-0.034,-0.491l-0.028,-0.487l-0.022,-0.484l-0.017,-0.479l-0.011,-0.475l-0.004,-0.471l0.002,-0.466l0.009,-0.462l0.015,-0.458l0.022,-0.453l0.029,-0.448l0.036,-0.443l0.044,-0.438l0.051,-0.434l0.06,-0.428l0.067,-0.423l0.076,-0.417l0.084,-0.413l0.094,-0.406l0.103,-0.401l0.112,-0.396l0.122,-0.389l0.133,-0.383l0.143,-0.377l0.154,-0.37l0.165,-0.364l0.177,-0.356l0.19,-0.348l0.202,-0.341l0.208,-0.323l0.119,-0.171l0.115,-0.16l0.119,-0.158l0.122,-0.155l0.126,-0.153l0.128,-0.15l0.133,-0.147l0.136,-0.145l0.139,-0.141l0.142,-0.139l0.146,-0.135l0.149,-0.132l0.153,-0.129l0.156,-0.126l0.159,-0.122l0.142,-0.103l0.022,-0.013l0.019,-0.017l0.241,-0.167l0.263,-0.173l0.264,-0.164l0.266,-0.155l0.266,-0.146l0.268,-0.138l0.27,-0.129l0.27,-0.12l0.271,-0.111l0.272,-0.102l0.272,-0.093l0.274,-0.084l0.274,-0.074l0.274,-0.066l0.274,-0.057l0.275,-0.047l0.274,-0.039l0.273,-0.029l0.273,-0.021l0.272,-0.012l0.271,-0.003l0.27,0.005l0.268,0.014l0.266,0.022l0.265,0.03l0.262,0.038l0.26,0.046l0.258,0.053l0.256,0.06l0.253,0.067l0.25,0.074l0.248,0.081l0.245,0.086l0.243,0.093l0.239,0.099l0.238,0.104l0.234,0.11l0.231,0.115l0.229,0.121l0.227,0.125l0.223,0.13l0.221,0.134l0.219,0.139l0.216,0.143l0.214,0.147l0.211,0.151l0.209,0.155l0.206,0.159l0.205,0.162l0.202,0.165l0.2,0.169l0.198,0.172l0.195,0.176l0.199,0.182l0.376,0.36l0.374,0.376l0.366,0.386l0.359,0.394l0.352,0.403l0.345,0.411l0.339,0.417l0.331,0.423l0.326,0.429l0.318,0.434l0.313,0.437l0.306,0.44l0.299,0.443l0.294,0.444l0.287,0.446l0.281,0.445l0.275,0.445l0.269,0.443l0.262,0.442l0.257,0.438l0.251,0.438l0.479,0.852l0.456,0.832l0.43,0.801l0.403,0.764l0.723,1.389l0.319,0.611l0.294,0.556l0.474,0.898l0.469,0.912l0.459,0.916l0.449,0.921l0.441,0.924l0.431,0.928l0.424,0.932l0.414,0.936l0.407,0.938l0.4,0.942l0.392,0.945l0.385,0.947l0.378,0.951l0.372,0.953l0.367,0.955l0.36,0.957l0.355,0.96l0.35,0.961l0.345,0.963l0.34,0.965l0.337,0.966l0.332,0.967l0.329,0.969l0.326,0.971l0.643,1.939l0.633,1.944l0.627,1.944l0.622,1.944l1.24,3.883l0.623,1.935l0.627,1.931l0.636,1.926l0.32,0.958l0.324,0.957l0.327,0.955l0.33,0.953l0.334,0.95l0.337,0.948l0.342,0.944l0.346,0.942l0.35,0.939l0.356,0.935l0.361,0.932l0.367,0.929l0.373,0.924l0.378,0.921l0.386,0.917l0.392,0.913l0.399,0.908l0.406,0.904l0.414,0.9l0.421,0.895l0.43,0.89l0.447,0.902l0.212,0.437l0.236,0.509l0.252,0.558l0.27,0.603l0.6,1.337l0.327,0.716l0.348,0.744l0.368,0.766l0.189,0.384l0.194,0.39l0.199,0.391l0.204,0.392l0.207,0.392l0.212,0.391l0.216,0.39l0.22,0.386l0.224,0.384l0.228,0.379l0.231,0.374l0.234,0.368l0.238,0.361l0.241,0.354l0.243,0.345l0.246,0.335l0.249,0.324l0.25,0.314l0.252,0.301l0.253,0.288l0.253,0.275l0.26,0.265l0.122,0.119l0.126,0.12l0.127,0.116l0.126,0.112l0.126,0.108l0.126,0.104l0.125,0.099l0.124,0.095l0.124,0.091l0.123,0.086l0.122,0.081l0.122,0.077l0.12,0.073l0.119,0.068l0.118,0.064l0.117,0.059l0.116,0.054l0.114,0.051l0.113,0.046l0.112,0.041l0.111,0.038l0.109,0.033l0.109,0.029l0.108,0.026l0.106,0.021l0.106,0.018l0.106,0.014l0.105,0.01l0.106,0.007l0.105,0.002l0.106,-0.001l0.107,-0.004l0.108,-0.009l0.109,-0.013l0.111,-0.017l0.113,-0.022l0.115,-0.026l0.118,-0.031l0.119,-0.036l0.123,-0.041l0.126,-0.048l0.128,-0.053l0.132,-0.059l0.135,-0.066l0.139,-0.073l0.141,-0.08l0.145,-0.088l0.139,-0.09l0.038,-0.026l0.031,-0.023l0.032,-0.027l0.034,-0.031l0.036,-0.035l0.037,-0.04l0.039,-0.045l0.041,-0.051l0.042,-0.055l0.043,-0.061l0.044,-0.067l0.044,-0.073l0.045,-0.078l0.045,-0.084l0.045,-0.09l0.045,-0.096l0.045,-0.101l0.045,-0.107l0.043,-0.112l0.044,-0.118l0.042,-0.122l0.038,-0.119l0.083,-0.28l0.074,-0.289l0.07,-0.306l0.064,-0.324l0.059,-0.338l0.052,-0.354l0.047,-0.367l0.04,-0.38l0.035,-0.392l0.029,-0.403l0.023,-0.413l0.017,-0.422l0.012,-0.431l0.006,-0.438l0.002,-0.446l-0.004,-0.452l-0.009,-0.457l-0.013,-0.463l-0.017,-0.466l-0.022,-0.47l-0.026,-0.472l-0.029,-0.475l-0.034,-0.476l-0.036,-0.476l-0.039,-0.474l-0.088,-0.954l-0.098,-0.944l-0.105,-0.93l-0.111,-0.913l-0.116,-0.89l-0.118,-0.863l-0.118,-0.83l-0.117,-0.79l-0.223,-1.457l-0.197,-1.25l-0.154,-1.007l-0.372,-2.583l-0.362,-2.579l-0.35,-2.58l-0.34,-2.58l-0.329,-2.58l-0.319,-2.581l-0.308,-2.582l-0.298,-2.582l-0.288,-2.583l-0.278,-2.583l-0.268,-2.584l-0.259,-2.585l-0.248,-2.585l-0.24,-2.586l-0.229,-2.586l-0.221,-2.587l-0.211,-2.588l-0.202,-2.589l-0.193,-2.589l-0.185,-2.59l-0.175,-2.591l-0.167,-2.591l-0.159,-2.592l-0.15,-2.594l-0.142,-2.593l-0.133,-2.595l-0.126,-2.596l-0.118,-2.596l-0.11,-2.598l-0.102,-2.598l-0.094,-2.599l-0.087,-2.593l-0.019,-0.509l-0.025,-0.535l-0.03,-0.567l-0.034,-0.596l-0.079,-1.277l-0.089,-1.372l-0.093,-1.456l-0.09,-1.527l-0.042,-0.789l-0.04,-0.801l-0.036,-0.814l-0.032,-0.824l-0.026,-0.834l-0.021,-0.842l-0.015,-0.848l-0.007,-0.854l0.001,-0.857l0.01,-0.86l0.019,-0.861l0.03,-0.861l0.041,-0.86l0.053,-0.853l0.031,-0.431l0.035,-0.426l0.038,-0.425l0.042,-0.423l0.045,-0.422l0.049,-0.42l0.053,-0.418l0.057,-0.416l0.061,-0.414l0.065,-0.412l0.07,-0.409l0.074,-0.406l0.079,-0.404l0.084,-0.4l0.088,-0.398l0.094,-0.395l0.099,-0.391l0.104,-0.387l0.11,-0.385l0.115,-0.38l0.122,-0.376l0.127,-0.373l0.134,-0.368l0.14,-0.363l0.147,-0.36l0.154,-0.354l0.161,-0.35l0.168,-0.344l0.176,-0.339l0.183,-0.334l0.192,-0.328l0.2,-0.321l0.208,-0.316l0.217,-0.308l0.226,-0.302l0.235,-0.295l0.245,-0.286l0.254,-0.279l0.264,-0.27l0.273,-0.261l0.283,-0.252l0.294,-0.241l0.303,-0.231l0.313,-0.221l0.322,-0.208l0.332,-0.197l0.341,-0.185l0.351,-0.171l0.359,-0.159l0.358,-0.141l0.197,-0.071l0.189,-0.064l0.191,-0.06l0.193,-0.057l0.195,-0.053l0.197,-0.05l0.199,-0.046l0.2,-0.043l0.202,-0.039l0.204,-0.035l0.206,-0.032l0.207,-0.028l0.21,-0.024l0.219,-0.022l0.418,-0.03l0.432,-0.016l0.44,-0.002l0.445,0.012l0.452,0.028l0.458,0.041l0.465,0.056l0.471,0.07l0.477,0.085l0.485,0.099l0.491,0.114l0.498,0.128l0.505,0.142l0.513,0.157l0.52,0.171l0.527,0.187l0.536,0.201l0.543,0.216l0.559,0.234l0.235,0.105l0.237,0.116l0.233,0.124l0.228,0.13l0.224,0.137l0.219,0.143l0.214,0.149l0.209,0.155l0.204,0.161l0.2,0.166l0.194,0.172l0.191,0.176l0.185,0.181l0.181,0.186l0.177,0.19l0.173,0.194l0.168,0.198l0.164,0.203l0.161,0.206l0.156,0.209l0.152,0.213l0.15,0.217l0.145,0.22l0.142,0.223l0.138,0.226l0.135,0.229l0.133,0.232l0.128,0.235l0.126,0.238l0.123,0.241l0.12,0.243l0.12,0.251l0.224,0.492l0.216,0.508l0.206,0.517l0.197,0.525l0.188,0.533l0.179,0.539l0.171,0.546l0.163,0.552l0.155,0.558l0.148,0.562l0.141,0.567l0.135,0.57l0.128,0.574l0.121,0.576l0.116,0.577l0.11,0.579l0.105,0.58l0.1,0.58l0.094,0.579l0.09,0.577l0.086,0.576l0.08,0.573l0.077,0.571l0.074,0.568l0.134,1.116l0.122,1.095l0.11,1.066l0.101,1.031l0.091,0.992l0.085,0.946l0.155,1.732l0.073,0.771l0.071,0.7l0.072,0.625l0.035,0.272l0.036,0.262l0.602,4.142l0.591,4.147l0.579,4.144l0.569,4.141l0.56,4.14l0.55,4.138l0.542,4.138l0.535,4.137l0.529,4.138l0.523,4.138l0.517,4.14l0.514,4.142l0.51,4.145l0.507,4.148l1.011,8.314l0.088,0.763l0.088,0.815l0.178,1.747l0.096,0.925l0.103,0.952l0.113,0.976l0.124,0.998l0.066,0.499l0.07,0.505l0.074,0.507l0.078,0.508l0.083,0.509l0.086,0.509l0.092,0.509l0.096,0.507l0.102,0.505l0.106,0.502l0.113,0.499l0.118,0.494l0.124,0.49l0.129,0.485l0.136,0.478l0.143,0.471l0.149,0.463l0.155,0.455l0.162,0.446l0.169,0.437l0.176,0.425l0.185,0.421l0.091,0.197l0.095,0.2l0.098,0.196l0.098,0.194l0.101,0.19l0.102,0.187l0.104,0.183l0.106,0.18l0.107,0.176l0.109,0.173l0.11,0.169l0.113,0.165l0.113,0.161l0.116,0.157l0.116,0.154l0.119,0.149l0.12,0.146l0.121,0.141l0.124,0.138l0.124,0.133l0.126,0.13l0.128,0.125l0.129,0.121l0.131,0.117l0.132,0.113l0.135,0.109l0.135,0.105l0.138,0.101l0.139,0.096l0.141,0.093l0.143,0.089l0.145,0.085l0.148,0.081l0.149,0.077l0.152,0.073l0.155,0.069l0.157,0.065l0.16,0.062l0.163,0.057l0.166,0.054l0.169,0.049l0.173,0.045l0.176,0.041l0.18,0.037l0.185,0.033l0.188,0.028l0.192,0.023l0.197,0.019l0.202,0.014l0.206,0.01l0.21,0.004l0.215,-0.001l0.099,-0.003l0.097,-0.006l0.095,-0.007l0.094,-0.01l0.092,-0.013l0.091,-0.014l0.09,-0.017l0.089,-0.018l0.087,-0.021l0.087,-0.024l0.086,-0.025l0.086,-0.027l0.085,-0.03l0.084,-0.031l0.084,-0.034l0.083,-0.037l0.083,-0.038l0.083,-0.041l0.083,-0.043l0.082,-0.045l0.082,-0.047l0.073,-0.045l0.173,-0.113l0.163,-0.117l0.162,-0.126l0.161,-0.137l0.161,-0.146l0.159,-0.156l0.159,-0.165l0.157,-0.175l0.155,-0.184l0.153,-0.193l0.151,-0.202l0.149,-0.21l0.146,-0.218l0.144,-0.226l0.141,-0.233l0.138,-0.24l0.134,-0.247l0.132,-0.253l0.128,-0.258l0.125,-0.264l0.122,-0.268l0.118,-0.273l0.114,-0.277l0.111,-0.281l0.107,-0.284l0.103,-0.286l0.1,-0.289l0.095,-0.291l0.092,-0.292l0.088,-0.294l0.085,-0.294l0.081,-0.294l0.076,-0.294l0.073,-0.293l0.07,-0.292l0.065,-0.291l0.062,-0.289l0.058,-0.287l0.054,-0.283l0.051,-0.281l0.047,-0.277l0.043,-0.273l0.039,-0.263l0.07,-0.527l0.054,-0.498l0.041,-0.47l0.029,-0.446l0.009,-0.2l0.006,-0.203l0.076,-3.426l0.07,-3.434l0.062,-3.433l0.055,-3.434l0.049,-3.435l0.044,-3.435l0.038,-3.435l0.033,-3.435l0.029,-3.436l0.026,-3.436l0.041,-6.874l0.031,-6.875l0.026,-6.876l0.024,-6.877l0.027,-6.879l0.031,-6.879l0.042,-6.88l0.025,-3.441l0.03,-3.441l0.033,-3.441l0.039,-3.442l0.044,-3.441l0.049,-3.442l0.056,-3.442l0.063,-3.447l0.007,-0.281l0.01,-0.285l0.015,-0.284l0.017,-0.282l0.021,-0.281l0.024,-0.279l0.028,-0.278l0.031,-0.276l0.034,-0.274l0.038,-0.273l0.041,-0.271l0.044,-0.27l0.048,-0.268l0.051,-0.266l0.054,-0.265l0.057,-0.263l0.061,-0.261l0.064,-0.26l0.067,-0.257l0.07,-0.256l0.073,-0.254l0.077,-0.252l0.08,-0.251l0.083,-0.248l0.086,-0.246l0.089,-0.245l0.092,-0.242l0.095,-0.241l0.098,-0.238l0.102,-0.237l0.104,-0.234l0.107,-0.232l0.111,-0.23l0.113,-0.228l0.116,-0.226l0.12,-0.224l0.122,-0.221l0.125,-0.219l0.128,-0.217l0.13,-0.214l0.134,-0.213l0.137,-0.21l0.139,-0.207l0.142,-0.205l0.145,-0.203l0.147,-0.2l0.15,-0.197l0.153,-0.196l0.156,-0.192l0.158,-0.19l0.161,-0.188l0.164,-0.185l0.166,-0.182l0.169,-0.179l0.171,-0.177l0.174,-0.175l0.176,-0.171l0.179,-0.169l0.181,-0.165l0.183,-0.163l0.186,-0.161l0.189,-0.157l0.19,-0.155l0.193,-0.151l0.196,-0.149l0.197,-0.145l0.2,-0.143l0.202,-0.14l0.204,-0.137l0.207,-0.133l0.208,-0.131l0.211,-0.127l0.213,-0.125l0.214,-0.121l0.217,-0.118l0.219,-0.115l0.22,-0.112l0.223,-0.108l0.225,-0.106l0.226,-0.102l0.228,-0.099l0.23,-0.095l0.232,-0.092l0.234,-0.089l0.235,-0.086l0.237,-0.082l0.239,-0.079l0.24,-0.075l0.242,-0.072l0.244,-0.069l0.245,-0.065l0.246,-0.062l0.249,-0.058l0.249,-0.055l0.251,-0.051l0.253,-0.048l0.253,-0.045l0.256,-0.04l0.256,-0.038l0.258,-0.033l0.259,-0.031l0.26,-0.026l0.262,-0.023l0.263,-0.019l0.264,-0.016l0.265,-0.012l0.266,-0.009l0.267,-0.005l0.268,-0.001l0.27,0.003ZM329.135,5.693l-0.21,0.004l-0.208,0.006l-0.208,0.01l-0.206,0.012l-0.205,0.015l-0.203,0.018l-0.202,0.021l-0.2,0.023l-0.199,0.026l-0.198,0.029l-0.196,0.031l-0.195,0.034l-0.193,0.037l-0.192,0.039l-0.191,0.042l-0.189,0.044l-0.187,0.047l-0.186,0.05l-0.185,0.052l-0.183,0.054l-0.182,0.057l-0.18,0.06l-0.178,0.062l-0.177,0.064l-0.176,0.067l-0.174,0.069l-0.172,0.072l-0.171,0.074l-0.169,0.076l-0.168,0.079l-0.166,0.081l-0.165,0.083l-0.163,0.086l-0.161,0.088l-0.16,0.09l-0.158,0.092l-0.157,0.095l-0.155,0.097l-0.153,0.1l-0.152,0.101l-0.15,0.104l-0.148,0.106l-0.147,0.108l-0.145,0.11l-0.143,0.113l-0.142,0.115l-0.14,0.117l-0.138,0.119l-0.137,0.121l-0.135,0.123l-0.133,0.126l-0.131,0.128l-0.129,0.129l-0.128,0.132l-0.126,0.134l-0.124,0.136l-0.122,0.139l-0.121,0.14l-0.118,0.142l-0.117,0.145l-0.115,0.147l-0.113,0.148l-0.111,0.151l-0.109,0.153l-0.108,0.155l-0.105,0.156l-0.103,0.159l-0.102,0.161l-0.099,0.163l-0.097,0.165l-0.096,0.167l-0.093,0.169l-0.091,0.171l-0.089,0.173l-0.087,0.175l-0.085,0.177l-0.083,0.179l-0.08,0.181l-0.078,0.183l-0.077,0.184l-0.074,0.187l-0.071,0.189l-0.07,0.19l-0.067,0.193l-0.065,0.194l-0.062,0.197l-0.061,0.198l-0.057,0.2l-0.056,0.202l-0.053,0.204l-0.051,0.206l-0.048,0.207l-0.046,0.21l-0.043,0.211l-0.04,0.213l-0.039,0.215l-0.035,0.217l-0.033,0.218l-0.031,0.221l-0.027,0.222l-0.026,0.224l-0.022,0.225l-0.02,0.227l-0.017,0.23l-0.014,0.23l-0.012,0.233l-0.009,0.234l-0.006,0.241l-0.062,3.429l-0.056,3.434l-0.049,3.434l-0.044,3.435l-0.038,3.435l-0.034,3.436l-0.029,3.436l-0.026,3.436l-0.041,6.874l-0.032,6.875l-0.026,6.876l-0.024,6.877l-0.026,6.879l-0.032,6.879l-0.041,6.88l-0.025,3.441l-0.029,3.441l-0.034,3.441l-0.038,3.441l-0.044,3.441l-0.049,3.442l-0.055,3.442l-0.063,3.442l-0.069,3.442l-0.077,3.449l-0.008,0.248l-0.011,0.268l-0.034,0.535l-0.05,0.566l-0.065,0.589l-0.079,0.605l-0.047,0.317l-0.05,0.316l-0.055,0.32l-0.058,0.324l-0.063,0.328l-0.067,0.33l-0.071,0.333l-0.076,0.336l-0.08,0.338l-0.084,0.34l-0.089,0.341l-0.094,0.342l-0.099,0.343l-0.103,0.344l-0.109,0.344l-0.113,0.344l-0.118,0.344l-0.124,0.342l-0.129,0.342l-0.134,0.341l-0.14,0.339l-0.145,0.336l-0.151,0.335l-0.158,0.331l-0.163,0.329l-0.169,0.326l-0.176,0.322l-0.183,0.318l-0.19,0.314l-0.196,0.309l-0.204,0.304l-0.212,0.298l-0.219,0.293l-0.228,0.287l-0.235,0.28l-0.245,0.273l-0.253,0.265l-0.263,0.256l-0.273,0.248l-0.282,0.238l-0.292,0.228l-0.302,0.217l-0.304,0.199l-0.169,0.103l-0.163,0.095l-0.166,0.091l-0.168,0.087l-0.17,0.084l-0.173,0.08l-0.176,0.076l-0.178,0.072l-0.18,0.068l-0.183,0.063l-0.185,0.06l-0.187,0.055l-0.189,0.05l-0.191,0.046l-0.193,0.041l-0.195,0.036l-0.197,0.031l-0.198,0.026l-0.2,0.022l-0.202,0.016l-0.202,0.011l-0.204,0.006l-0.317,0.002l-0.314,-0.007l-0.311,-0.013l-0.308,-0.022l-0.304,-0.029l-0.301,-0.037l-0.298,-0.044l-0.294,-0.052l-0.29,-0.06l-0.287,-0.067l-0.283,-0.074l-0.279,-0.081l-0.276,-0.089l-0.271,-0.095l-0.267,-0.103l-0.263,-0.109l-0.258,-0.116l-0.254,-0.122l-0.25,-0.129l-0.245,-0.134l-0.241,-0.141l-0.236,-0.147l-0.231,-0.152l-0.227,-0.157l-0.222,-0.163l-0.217,-0.168l-0.212,-0.172l-0.208,-0.178l-0.204,-0.182l-0.199,-0.186l-0.194,-0.191l-0.19,-0.194l-0.185,-0.199l-0.181,-0.202l-0.177,-0.206l-0.173,-0.209l-0.168,-0.213l-0.165,-0.216l-0.16,-0.219l-0.157,-0.222l-0.153,-0.225l-0.149,-0.228l-0.145,-0.23l-0.142,-0.233l-0.138,-0.235l-0.135,-0.238l-0.131,-0.24l-0.128,-0.243l-0.125,-0.244l-0.122,-0.247l-0.119,-0.248l-0.118,-0.257l-0.221,-0.5l-0.211,-0.513l-0.201,-0.519l-0.191,-0.525l-0.181,-0.529l-0.171,-0.534l-0.163,-0.538l-0.154,-0.542l-0.146,-0.544l-0.138,-0.546l-0.13,-0.548l-0.124,-0.548l-0.117,-0.55l-0.11,-0.549l-0.104,-0.549l-0.099,-0.547l-0.093,-0.545l-0.087,-0.543l-0.083,-0.54l-0.079,-0.536l-0.074,-0.532l-0.07,-0.529l-0.128,-1.033l-0.117,-1.009l-0.105,-0.976l-0.098,-0.938l-0.178,-1.739l-0.084,-0.789l-0.084,-0.733l-1.01,-8.299l-0.507,-4.145l-0.509,-4.142l-0.513,-4.138l-0.518,-4.135l-0.522,-4.133l-0.527,-4.132l-0.534,-4.13l-0.542,-4.13l-0.549,-4.13l-0.558,-4.131l-0.568,-4.132l-0.578,-4.134l-0.589,-4.136l-0.603,-4.147l-0.041,-0.297l-0.042,-0.323l-0.077,-0.678l-0.076,-0.741l-0.075,-0.797l-0.156,-1.742l-0.084,-0.939l-0.091,-0.977l-0.098,-1.01l-0.107,-1.037l-0.118,-1.059l-0.13,-1.08l-0.07,-0.54l-0.073,-0.545l-0.077,-0.546l-0.081,-0.547l-0.085,-0.547l-0.09,-0.547l-0.093,-0.545l-0.098,-0.542l-0.103,-0.54l-0.108,-0.536l-0.112,-0.532l-0.118,-0.527l-0.122,-0.52l-0.128,-0.515l-0.134,-0.506l-0.139,-0.499l-0.144,-0.489l-0.15,-0.48l-0.156,-0.469l-0.161,-0.457l-0.167,-0.445l-0.173,-0.433l-0.178,-0.418l-0.186,-0.411l-0.091,-0.19l-0.095,-0.192l-0.096,-0.188l-0.098,-0.185l-0.098,-0.18l-0.1,-0.175l-0.101,-0.171l-0.102,-0.167l-0.103,-0.162l-0.104,-0.157l-0.105,-0.153l-0.106,-0.148l-0.107,-0.143l-0.107,-0.138l-0.109,-0.134l-0.109,-0.128l-0.109,-0.123l-0.11,-0.118l-0.111,-0.114l-0.111,-0.108l-0.111,-0.103l-0.112,-0.099l-0.112,-0.093l-0.113,-0.089l-0.113,-0.084l-0.113,-0.079l-0.114,-0.075l-0.115,-0.07l-0.115,-0.065l-0.115,-0.061l-0.117,-0.057l-0.125,-0.056l-0.475,-0.199l-0.471,-0.188l-0.459,-0.172l-0.448,-0.158l-0.436,-0.144l-0.425,-0.13l-0.413,-0.117l-0.402,-0.103l-0.391,-0.09l-0.379,-0.078l-0.367,-0.065l-0.357,-0.053l-0.345,-0.042l-0.334,-0.03l-0.323,-0.019l-0.312,-0.009l-0.302,0.001l-0.291,0.011l-0.291,0.021l-0.127,0.012l-0.135,0.016l-0.132,0.018l-0.129,0.02l-0.128,0.022l-0.125,0.024l-0.123,0.026l-0.121,0.028l-0.118,0.03l-0.117,0.032l-0.115,0.034l-0.113,0.036l-0.111,0.037l-0.099,0.036l-0.223,0.088l-0.207,0.091l-0.201,0.099l-0.196,0.105l-0.19,0.113l-0.186,0.12l-0.181,0.128l-0.177,0.135l-0.173,0.143l-0.17,0.151l-0.166,0.158l-0.163,0.167l-0.159,0.175l-0.157,0.183l-0.153,0.191l-0.149,0.2l-0.146,0.208l-0.143,0.217l-0.14,0.224l-0.136,0.233l-0.133,0.241l-0.129,0.249l-0.125,0.257l-0.122,0.264l-0.118,0.272l-0.114,0.28l-0.111,0.286l-0.106,0.294l-0.103,0.3l-0.099,0.307l-0.095,0.314l-0.092,0.319l-0.087,0.326l-0.084,0.331l-0.08,0.337l-0.076,0.342l-0.073,0.347l-0.068,0.353l-0.066,0.357l-0.061,0.361l-0.058,0.366l-0.055,0.37l-0.051,0.373l-0.048,0.377l-0.044,0.381l-0.042,0.384l-0.038,0.387l-0.034,0.39l-0.032,0.392l-0.029,0.391l-0.05,0.8l-0.038,0.803l-0.028,0.809l-0.018,0.812l-0.009,0.816l-0.001,0.816l0.007,0.816l0.013,0.814l0.021,0.81l0.026,0.805l0.03,0.799l0.035,0.791l0.039,0.782l0.041,0.77l0.089,1.506l0.092,1.445l0.089,1.374l0.08,1.292l0.036,0.616l0.031,0.591l0.026,0.567l0.02,0.535l0.087,2.595l0.094,2.587l0.102,2.586l0.109,2.584l0.117,2.584l0.125,2.583l0.133,2.582l0.141,2.58l0.15,2.58l0.157,2.579l0.166,2.578l0.175,2.576l0.183,2.576l0.192,2.575l0.201,2.574l0.21,2.573l0.22,2.573l0.228,2.571l0.238,2.571l0.247,2.57l0.257,2.569l0.266,2.568l0.277,2.567l0.286,2.567l0.296,2.566l0.307,2.565l0.316,2.565l0.327,2.564l0.338,2.563l0.348,2.562l0.359,2.562l0.369,2.557l0.15,0.982l0.196,1.249l0.226,1.475l0.12,0.812l0.122,0.852l0.121,0.889l0.12,0.92l0.115,0.947l0.11,0.969l0.102,0.987l0.091,0.995l0.043,0.506l0.038,0.505l0.035,0.505l0.032,0.506l0.027,0.505l0.024,0.505l0.019,0.504l0.014,0.502l0.009,0.499l0.004,0.497l-0.001,0.493l-0.007,0.49l-0.014,0.486l-0.019,0.481l-0.027,0.476l-0.034,0.47l-0.041,0.465l-0.049,0.459l-0.057,0.451l-0.066,0.446l-0.076,0.438l-0.085,0.431l-0.096,0.423l-0.108,0.416l-0.117,0.398l-0.068,0.21l-0.069,0.199l-0.072,0.197l-0.076,0.194l-0.08,0.193l-0.084,0.191l-0.089,0.188l-0.094,0.186l-0.098,0.183l-0.104,0.181l-0.109,0.178l-0.115,0.176l-0.121,0.172l-0.127,0.169l-0.133,0.165l-0.14,0.161l-0.148,0.157l-0.154,0.152l-0.161,0.147l-0.169,0.141l-0.176,0.134l-0.175,0.122l-0.252,0.162l-0.246,0.148l-0.247,0.14l-0.249,0.131l-0.25,0.123l-0.251,0.113l-0.253,0.105l-0.254,0.095l-0.255,0.086l-0.256,0.078l-0.256,0.067l-0.258,0.059l-0.257,0.049l-0.258,0.039l-0.257,0.031l-0.257,0.02l-0.256,0.012l-0.255,0.003l-0.253,-0.007l-0.252,-0.016l-0.25,-0.024l-0.247,-0.032l-0.245,-0.041l-0.243,-0.049l-0.24,-0.057l-0.237,-0.064l-0.233,-0.071l-0.231,-0.078l-0.228,-0.085l-0.224,-0.091l-0.221,-0.097l-0.218,-0.103l-0.214,-0.108l-0.211,-0.114l-0.208,-0.119l-0.205,-0.123l-0.202,-0.129l-0.199,-0.133l-0.196,-0.137l-0.192,-0.141l-0.191,-0.145l-0.187,-0.149l-0.185,-0.152l-0.182,-0.156l-0.18,-0.16l-0.177,-0.162l-0.175,-0.166l-0.178,-0.174l-0.333,-0.341l-0.33,-0.356l-0.322,-0.367l-0.314,-0.376l-0.307,-0.384l-0.299,-0.392l-0.293,-0.398l-0.286,-0.405l-0.279,-0.41l-0.273,-0.415l-0.267,-0.418l-0.26,-0.422l-0.255,-0.424l-0.248,-0.426l-0.243,-0.426l-0.236,-0.427l-0.231,-0.426l-0.225,-0.425l-0.22,-0.422l-0.213,-0.42l-0.208,-0.416l-0.203,-0.414l-0.386,-0.803l-0.363,-0.778l-0.341,-0.745l-0.608,-1.353l-0.268,-0.599l-0.24,-0.532l-0.212,-0.457l-0.189,-0.389l-0.448,-0.906l-0.447,-0.926l-0.439,-0.93l-0.429,-0.934l-0.421,-0.937l-0.413,-0.941l-0.405,-0.943l-0.398,-0.946l-0.39,-0.95l-0.384,-0.952l-0.377,-0.954l-0.371,-0.956l-0.364,-0.959l-0.359,-0.961l-0.354,-0.963l-0.349,-0.964l-0.344,-0.966l-0.339,-0.967l-0.336,-0.969l-0.332,-0.969l-0.328,-0.971l-0.325,-0.972l-0.641,-1.943l-0.633,-1.945l-0.626,-1.946l-1.241,-3.886l-0.62,-1.939l-0.623,-1.933l-0.629,-1.928l-0.636,-1.922l-0.321,-0.956l-0.325,-0.954l-0.327,-0.953l-0.331,-0.95l-0.334,-0.947l-0.338,-0.944l-0.343,-0.941l-0.347,-0.938l-0.352,-0.935l-0.357,-0.931l-0.362,-0.928l-0.368,-0.923l-0.374,-0.92l-0.38,-0.916l-0.386,-0.912l-0.394,-0.907l-0.4,-0.903l-0.408,-0.898l-0.415,-0.893l-0.423,-0.889l-0.432,-0.883l-0.44,-0.878l-0.449,-0.873l-0.462,-0.877l-0.299,-0.564l-0.325,-0.624l-0.718,-1.379l-0.392,-0.743l-0.414,-0.772l-0.436,-0.795l-0.458,-0.815l-0.234,-0.407l-0.241,-0.412l-0.246,-0.413l-0.25,-0.413l-0.255,-0.413l-0.259,-0.411l-0.264,-0.409l-0.268,-0.406l-0.272,-0.402l-0.277,-0.397l-0.279,-0.392l-0.284,-0.386l-0.287,-0.378l-0.29,-0.37l-0.293,-0.362l-0.296,-0.352l-0.298,-0.341l-0.3,-0.33l-0.302,-0.318l-0.304,-0.305l-0.31,-0.297l-0.148,-0.136l-0.152,-0.136l-0.153,-0.133l-0.153,-0.129l-0.153,-0.126l-0.153,-0.121l-0.152,-0.117l-0.152,-0.113l-0.152,-0.109l-0.152,-0.104l-0.151,-0.1l-0.151,-0.096l-0.15,-0.091l-0.15,-0.087l-0.149,-0.082l-0.148,-0.078l-0.148,-0.074l-0.146,-0.068l-0.146,-0.065l-0.145,-0.059l-0.144,-0.056l-0.144,-0.05l-0.142,-0.047l-0.142,-0.041l-0.141,-0.038l-0.14,-0.033l-0.139,-0.029l-0.139,-0.024l-0.139,-0.02l-0.138,-0.016l-0.138,-0.011l-0.138,-0.007l-0.138,-0.003l-0.139,0.002l-0.139,0.006l-0.14,0.01l-0.141,0.016l-0.141,0.019l-0.144,0.025l-0.144,0.03l-0.147,0.035l-0.148,0.041l-0.15,0.046l-0.153,0.052l-0.154,0.058l-0.158,0.064l-0.159,0.071l-0.162,0.077l-0.165,0.085l-0.167,0.092l-0.17,0.099l-0.172,0.107l-0.175,0.115l-0.177,0.123l-0.082,0.06l-0.081,0.062l-0.079,0.064l-0.078,0.065l-0.076,0.068l-0.075,0.07l-0.074,0.071l-0.073,0.074l-0.072,0.077l-0.07,0.078l-0.069,0.081l-0.069,0.083l-0.067,0.085l-0.066,0.088l-0.065,0.091l-0.059,0.084l-0.13,0.202l-0.121,0.204l-0.117,0.214l-0.111,0.225l-0.108,0.236l-0.102,0.246l-0.098,0.257l-0.092,0.268l-0.088,0.278l-0.081,0.288l-0.077,0.298l-0.071,0.308l-0.065,0.318l-0.059,0.328l-0.054,0.336l-0.048,0.346l-0.042,0.354l-0.036,0.363l-0.031,0.371l-0.024,0.379l-0.019,0.387l-0.013,0.395l-0.007,0.402l-0.002,0.409l0.004,0.415l0.009,0.423l0.015,0.428l0.02,0.435l0.026,0.441l0.03,0.447l0.036,0.452l0.041,0.457l0.046,0.463l0.051,0.467l0.055,0.472l0.061,0.477l0.064,0.48l0.07,0.485l0.073,0.489l0.078,0.492l0.082,0.496l0.086,0.499l0.09,0.502l0.094,0.505l0.098,0.508l0.101,0.507l0.213,1.03l0.227,1.035l0.239,1.042l0.25,1.047l0.261,1.05l0.271,1.052l0.279,1.052l0.288,1.052l0.294,1.05l0.301,1.046l0.306,1.042l0.311,1.035l0.314,1.027l0.317,1.019l0.318,1.007l0.32,0.997l0.319,0.983l0.319,0.968l0.316,0.951l0.625,1.854l0.607,1.774l0.583,1.683l1.062,3.057l0.467,1.354l0.414,1.223l0.187,0.564l0.171,0.528l0.155,0.493l0.135,0.444l0.259,0.855l0.266,0.842l0.277,0.842l0.285,0.843l0.292,0.845l0.297,0.847l0.607,1.707l0.609,1.716l0.302,0.868l0.298,0.872l0.292,0.878l0.284,0.884l0.274,0.888l0.135,0.451l0.128,0.443l0.212,0.732l0.217,0.729l0.223,0.734l0.229,0.738l0.235,0.742l0.24,0.746l0.245,0.749l0.251,0.754l0.255,0.757l0.259,0.759l0.531,1.533l0.546,1.543l0.557,1.556l0.567,1.566l0.574,1.576l1.162,3.18l0.583,1.601l0.582,1.608l0.577,1.614l0.572,1.62l0.563,1.624l0.552,1.625l0.272,0.817l0.268,0.816l0.264,0.816l0.261,0.816l0.255,0.817l0.251,0.818l0.247,0.817l0.24,0.818l0.236,0.818l0.229,0.818l0.223,0.817l0.217,0.818l0.211,0.817l0.203,0.817l0.196,0.816l0.188,0.816l0.181,0.816l0.172,0.814l0.164,0.814l0.155,0.813l0.145,0.813l0.137,0.811l0.127,0.81l0.116,0.809l0.107,0.808l0.095,0.806l0.085,0.805l0.073,0.799l0.087,1.073l0.081,1.069l0.075,1.069l0.07,1.069l0.063,1.068l0.058,1.069l0.053,1.068l0.048,1.068l0.043,1.069l0.038,1.068l0.034,1.068l0.029,1.067l0.025,1.068l0.02,1.067l0.017,1.068l0.013,1.067l0.009,1.067l0.006,1.067l0.002,1.067l-0.001,1.067l-0.01,2.131l-0.021,2.132l-0.031,2.131l-0.039,2.13l-0.046,2.129l-0.051,2.128l-0.055,2.127l-0.059,2.126l-0.121,4.247l-0.119,4.245l-0.055,2.119l-0.05,2.119l-0.045,2.117l-0.037,2.116l-0.03,2.114l-0.019,2.113l-0.009,2.113l0,1.053l0.003,1.055l0.006,1.054l0.01,1.054l0.014,1.053l0.017,1.051l0.011,0.505l0.016,0.513l0.019,0.521l0.024,0.531l0.028,0.539l0.032,0.547l0.037,0.556l0.04,0.563l0.045,0.572l0.049,0.579l0.053,0.586l0.058,0.593l0.062,0.601l0.066,0.607l0.071,0.614l0.074,0.62l0.079,0.626l0.083,0.633l0.088,0.638l0.092,0.644l0.096,0.649l0.1,0.655l0.105,0.66l0.109,0.664l0.114,0.67l0.117,0.674l0.122,0.678l0.126,0.682l0.131,0.686l0.135,0.691l0.139,0.693l0.144,0.697l0.148,0.701l0.152,0.703l0.156,0.706l0.161,0.709l0.166,0.711l0.169,0.714l0.174,0.716l0.178,0.718l0.183,0.719l0.187,0.721l0.191,0.723l0.196,0.723l0.199,0.725l0.205,0.726l0.208,0.726l0.213,0.726l0.218,0.727l0.221,0.727l0.226,0.727l0.231,0.727l0.234,0.726l0.239,0.726l0.244,0.725l0.247,0.724l0.252,0.723l0.257,0.721l0.26,0.72l0.265,0.718l0.27,0.716l0.273,0.714l0.278,0.712l0.283,0.71l0.286,0.707l0.291,0.704l0.295,0.701l0.3,0.697l0.304,0.695l0.308,0.691l0.313,0.687l0.316,0.683l0.321,0.679l0.326,0.675l0.329,0.671l0.334,0.665l0.338,0.661l0.343,0.656l0.346,0.651l0.351,0.646l0.355,0.639l0.359,0.635l0.364,0.628l0.367,0.622l0.372,0.616l0.376,0.609l0.38,0.603l0.384,0.596l0.389,0.588l0.392,0.582l0.397,0.574l0.4,0.567l0.405,0.559l0.408,0.551l0.413,0.543l0.417,0.535l0.42,0.527l0.425,0.517l0.428,0.509l0.433,0.501l0.436,0.491l0.44,0.481l0.444,0.473l0.447,0.462l0.452,0.453l0.455,0.443l0.459,0.433l0.463,0.423l0.466,0.412l0.47,0.402l0.473,0.391l0.478,0.38l0.48,0.369l0.485,0.358l0.487,0.347l0.492,0.335l0.499,0.327l0.245,0.155l0.249,0.155l0.251,0.152l0.251,0.148l0.252,0.146l0.254,0.143l0.254,0.14l0.254,0.137l0.256,0.133l0.257,0.131l0.258,0.128l0.258,0.125l0.259,0.121l0.26,0.119l0.262,0.115l0.262,0.112l0.263,0.109l0.263,0.106l0.265,0.103l0.266,0.099l0.266,0.097l0.26,0.09l0.123,0.04l0.132,0.04l0.148,0.04l0.162,0.041l0.176,0.042l0.183,0.039l0.42,0.083l0.454,0.08l0.492,0.075l0.524,0.073l0.553,0.068l0.579,0.065l0.6,0.06l0.619,0.057l0.633,0.053l0.646,0.049l0.654,0.045l0.661,0.042l0.662,0.039l0.663,0.035l0.657,0.031l1.299,0.055l1.248,0.043l1.176,0.033l1.08,0.024l0.961,0.017l0.818,0.01l0.655,0.004l5.309,0.023l5.313,0.032l5.312,0.038l5.311,0.042l10.62,0.085l5.308,0.038l5.307,0.032l5.306,0.022l2.652,0.007l2.653,0.004l2.652,0l2.651,-0.004l2.652,-0.008l2.651,-0.012l2.65,-0.017l2.651,-0.022l2.65,-0.028l2.65,-0.034l2.649,-0.039l2.65,-0.046l2.648,-0.053l2.633,-0.059l0.18,-0.008l0.167,-0.012l0.171,-0.018l0.174,-0.023l0.177,-0.03l0.181,-0.035l0.184,-0.042l0.188,-0.048l0.191,-0.053l0.194,-0.06l0.198,-0.066l0.2,-0.072l0.203,-0.079l0.207,-0.084l0.209,-0.091l0.211,-0.097l0.214,-0.103l0.216,-0.109l0.219,-0.115l0.221,-0.121l0.223,-0.127l0.225,-0.133l0.227,-0.138l0.228,-0.144l0.23,-0.15l0.232,-0.155l0.233,-0.16l0.235,-0.166l0.235,-0.17l0.237,-0.176l0.239,-0.181l0.239,-0.185l0.24,-0.191l0.238,-0.192l0.488,-0.406l0.488,-0.421l0.49,-0.437l0.491,-0.452l0.494,-0.467l0.494,-0.481l0.494,-0.494l0.495,-0.505l0.495,-0.517l0.494,-0.527l0.493,-0.536l0.492,-0.544l0.49,-0.552l0.488,-0.559l0.486,-0.565l0.483,-0.569l0.48,-0.574l0.477,-0.577l0.474,-0.579l0.469,-0.581l0.466,-0.582l0.461,-0.581l0.455,-0.579l0.899,-1.156l0.876,-1.14l0.851,-1.119l0.825,-1.091l1.562,-2.075l0.735,-0.971l0.7,-0.918l0.664,-0.857l0.321,-0.408l0.31,-0.389l0.302,-0.373l0.293,-0.355l0.284,-0.337l0.272,-0.314l1.127,-1.277l1.129,-1.271l1.135,-1.271l1.14,-1.271l2.288,-2.539l2.298,-2.541l2.301,-2.546l2.299,-2.553l1.145,-1.279l1.143,-1.281l1.139,-1.285l1.134,-1.288l1.129,-1.291l1.122,-1.294l1.116,-1.299l1.108,-1.303l1.1,-1.307l1.09,-1.312l1.081,-1.318l1.071,-1.324l0.529,-0.662l0.528,-0.665l0.524,-0.666l0.522,-0.668l0.518,-0.67l0.515,-0.671l0.511,-0.672l0.508,-0.675l0.505,-0.676l0.5,-0.677l0.497,-0.68l0.493,-0.681l0.489,-0.683l0.485,-0.685l0.48,-0.687l0.476,-0.688l0.335,-0.491l0.33,-0.494l0.328,-0.498l0.324,-0.5l0.321,-0.504l0.318,-0.507l0.315,-0.509l0.312,-0.513l0.31,-0.515l0.307,-0.516l0.61,-1.045l0.601,-1.052l0.595,-1.061l0.589,-1.067l0.585,-1.074l0.581,-1.079l0.58,-1.083l1.161,-2.179l1.166,-2.181l0.59,-1.092l0.595,-1.091l0.602,-1.088l0.61,-1.086l0.619,-1.079l0.315,-0.54l0.316,-0.538l0.32,-0.536l0.323,-0.534l0.326,-0.533l0.33,-0.531l0.334,-0.528l0.337,-0.527l0.341,-0.525l0.346,-0.522l0.35,-0.519l0.354,-0.517l0.359,-0.514l0.364,-0.512l0.369,-0.508l0.374,-0.505l0.38,-0.502l0.385,-0.499l0.39,-0.495l0.397,-0.492l0.403,-0.487l0.407,-0.482l0.332,-0.386l0.334,-0.381l0.336,-0.378l0.338,-0.376l0.341,-0.372l0.342,-0.371l0.345,-0.367l0.348,-0.365l0.349,-0.362l0.354,-0.362l0.707,-0.709l0.717,-0.702l0.724,-0.693l0.732,-0.683l0.738,-0.675l0.745,-0.666l0.751,-0.658l0.756,-0.651l0.762,-0.643l0.767,-0.636l0.772,-0.629l0.775,-0.623l0.78,-0.616l0.784,-0.611l0.786,-0.606l0.79,-0.6l0.792,-0.595l0.795,-0.591l0.796,-0.587l0.798,-0.583l0.8,-0.58l1.6,-1.149l1.602,-1.139l1.6,-1.132l3.186,-2.25l1.579,-1.124l1.569,-1.126l0.777,-0.564l0.774,-0.566l0.769,-0.567l0.765,-0.57l0.76,-0.572l0.755,-0.574l0.749,-0.577l0.743,-0.581l0.736,-0.584l0.73,-0.588l0.723,-0.592l0.716,-0.596l0.708,-0.601l0.7,-0.606l0.692,-0.611l0.683,-0.617l0.675,-0.622l0.665,-0.629l0.656,-0.635l0.648,-0.644l0.317,-0.32l0.317,-0.326l0.314,-0.326l0.311,-0.329l0.309,-0.331l0.307,-0.332l0.303,-0.335l0.297,-0.332l0.349,-0.401l0.326,-0.389l0.306,-0.381l0.288,-0.373l0.27,-0.365l0.251,-0.357l0.232,-0.349l0.216,-0.341l0.198,-0.332l0.181,-0.323l0.164,-0.315l0.152,-0.313l0.065,-0.142l0.065,-0.148l0.06,-0.145l0.057,-0.143l0.054,-0.14l0.049,-0.139l0.046,-0.136l0.043,-0.134l0.04,-0.132l0.036,-0.129l0.032,-0.127l0.03,-0.126l0.026,-0.122l0.024,-0.121l0.021,-0.119l0.017,-0.116l0.015,-0.115l0.013,-0.113l0.009,-0.11l0.007,-0.109l0.005,-0.107l0.002,-0.105l0,-0.104l-0.003,-0.102l-0.004,-0.1l-0.008,-0.099l-0.009,-0.098l-0.011,-0.096l-0.014,-0.095l-0.015,-0.095l-0.018,-0.093l-0.02,-0.092l-0.022,-0.091l-0.024,-0.09l-0.026,-0.09l-0.028,-0.089l-0.03,-0.089l-0.032,-0.087l-0.034,-0.088l-0.037,-0.088l-0.039,-0.086l-0.036,-0.077l-0.093,-0.183l-0.098,-0.172l-0.107,-0.171l-0.116,-0.171l-0.126,-0.17l-0.136,-0.17l-0.145,-0.17l-0.156,-0.169l-0.166,-0.169l-0.176,-0.168l-0.185,-0.166l-0.196,-0.166l-0.205,-0.164l-0.215,-0.163l-0.224,-0.162l-0.234,-0.159l-0.243,-0.158l-0.251,-0.155l-0.261,-0.154l-0.268,-0.151l-0.277,-0.149l-0.284,-0.146l-0.293,-0.144l-0.299,-0.141l-0.307,-0.139l-0.313,-0.136l-0.32,-0.133l-0.327,-0.131l-0.332,-0.127l-0.338,-0.125l-0.344,-0.122l-0.349,-0.119l-0.354,-0.116l-0.358,-0.113l-0.363,-0.11l-0.367,-0.108l-0.371,-0.104l-0.375,-0.102l-0.378,-0.099l-0.382,-0.095l-0.384,-0.094l-0.387,-0.09l-0.389,-0.087l-0.391,-0.085l-0.39,-0.081l-0.795,-0.156l-0.796,-0.144l-0.798,-0.134l-0.799,-0.123l-0.797,-0.114l-0.794,-0.103l-0.789,-0.094l-0.782,-0.084l-0.773,-0.075l-0.761,-0.066l-0.749,-0.057l-0.733,-0.049l-0.717,-0.041l-0.698,-0.034l-0.677,-0.026l-0.654,-0.018l-0.629,-0.012l-0.603,-0.005l-0.573,0.001l-0.542,0.007l-0.509,0.013l-0.473,0.018l-0.433,0.022l-0.392,0.027l-0.35,0.03l-0.673,0.071l-0.669,0.083l-0.662,0.093l-0.656,0.103l-0.649,0.114l-0.643,0.124l-0.637,0.134l-0.63,0.144l-0.625,0.153l-0.619,0.163l-0.613,0.173l-0.607,0.182l-0.602,0.191l-0.597,0.201l-0.591,0.209l-0.586,0.218l-0.581,0.227l-0.576,0.236l-0.572,0.244l-0.566,0.252l-0.562,0.261l-0.557,0.269l-0.553,0.277l-0.549,0.285l-0.544,0.293l-0.54,0.3l-0.536,0.308l-0.533,0.316l-0.528,0.322l-0.524,0.33l-0.521,0.337l-0.516,0.344l-0.514,0.351l-0.51,0.358l-0.506,0.364l-0.503,0.37l-0.5,0.377l-0.496,0.383l-0.494,0.39l-0.49,0.395l-0.487,0.401l-0.485,0.406l-0.482,0.413l-0.479,0.417l-0.476,0.423l-0.473,0.428l-0.471,0.433l-0.469,0.438l-0.466,0.443l-0.464,0.447l-0.461,0.452l-0.459,0.456l-0.458,0.46l-0.455,0.464l-0.453,0.468l-0.451,0.472l-0.449,0.475l-0.448,0.479l-0.446,0.482l-0.443,0.484l-0.886,0.982l-0.879,0.991l-0.874,1l-0.869,1.009l-0.866,1.017l-0.863,1.023l-0.86,1.029l-0.858,1.032l-1.715,2.073l-1.715,2.073l-0.859,1.035l-0.862,1.032l-0.864,1.028l-0.868,1.022l-0.873,1.016l-0.877,1.008l-0.883,1l-0.888,0.987l-0.449,0.493l-0.449,0.487l-0.452,0.485l-0.453,0.481l-0.455,0.478l-0.458,0.474l-0.46,0.471l-0.463,0.467l-0.465,0.463l-0.468,0.458l-0.47,0.455l-0.474,0.449l-0.476,0.446l-0.479,0.44l-0.482,0.436l-0.486,0.431l-0.489,0.425l-0.492,0.42l-0.496,0.414l-0.5,0.409l-0.503,0.403l-0.507,0.396l-0.51,0.391l-0.515,0.384l-0.519,0.378l-0.523,0.371l-0.527,0.364l-0.532,0.357l-0.255,0.166l-0.254,0.161l-0.254,0.156l-0.255,0.151l-0.254,0.146l-0.255,0.141l-0.254,0.137l-0.254,0.131l-0.255,0.127l-0.254,0.121l-0.254,0.117l-0.254,0.112l-0.254,0.107l-0.253,0.102l-0.254,0.097l-0.254,0.093l-0.253,0.088l-0.253,0.082l-0.253,0.078l-0.253,0.074l-0.252,0.068l-0.252,0.063l-0.252,0.059l-0.251,0.054l-0.251,0.049l-0.251,0.045l-0.25,0.04l-0.249,0.035l-0.249,0.03l-0.249,0.026l-0.247,0.021l-0.247,0.016l-0.247,0.012l-0.246,0.007l-0.244,0.002l-0.244,-0.002l-0.243,-0.006l-0.242,-0.011l-0.242,-0.016l-0.24,-0.02l-0.239,-0.024l-0.238,-0.029l-0.237,-0.033l-0.235,-0.037l-0.235,-0.041l-0.233,-0.045l-0.232,-0.05l-0.23,-0.054l-0.229,-0.057l-0.228,-0.062l-0.227,-0.065l-0.225,-0.07l-0.223,-0.073l-0.222,-0.077l-0.22,-0.08l-0.219,-0.085l-0.218,-0.088l-0.216,-0.091l-0.214,-0.095l-0.212,-0.098l-0.211,-0.102l-0.21,-0.105l-0.207,-0.108l-0.213,-0.116l-0.4,-0.228l-0.4,-0.245l-0.394,-0.257l-0.387,-0.268l-0.38,-0.28l-0.373,-0.29l-0.366,-0.301l-0.359,-0.311l-0.353,-0.321l-0.346,-0.33l-0.339,-0.339l-0.333,-0.349l-0.325,-0.357l-0.319,-0.365l-0.312,-0.373l-0.306,-0.382l-0.298,-0.388l-0.292,-0.396l-0.286,-0.403l-0.278,-0.41l-0.272,-0.417l-0.265,-0.422l-0.258,-0.429l-0.252,-0.435l-0.244,-0.44l-0.238,-0.446l-0.231,-0.45l-0.224,-0.456l-0.218,-0.46l-0.21,-0.465l-0.203,-0.469l-0.195,-0.469l-0.186,-0.462l-0.181,-0.459l-0.177,-0.46l-0.175,-0.46l-0.171,-0.462l-0.168,-0.462l-0.165,-0.464l-0.162,-0.464l-0.159,-0.465l-0.156,-0.468l-0.301,-0.931l-0.289,-0.937l-0.278,-0.94l-0.265,-0.943l-0.253,-0.946l-0.242,-0.948l-0.23,-0.952l-0.219,-0.954l-0.207,-0.957l-0.196,-0.959l-0.184,-0.962l-0.174,-0.964l-0.163,-0.967l-0.152,-0.968l-0.142,-0.971l-0.131,-0.973l-0.121,-0.976l-0.11,-0.977l-0.101,-0.979l-0.091,-0.981l-0.08,-0.983l-0.072,-0.984l-0.061,-0.987l-0.052,-0.988l-0.043,-0.989l-0.034,-0.991l-0.025,-0.992l-0.016,-0.994l-0.007,-0.995l0.002,-0.997l0.01,-0.997l0.018,-0.999l0.027,-1l0.034,-1l0.043,-1.002l0.051,-1.003l0.058,-1.003l0.066,-1.005l0.073,-1.005l0.081,-1.005l0.087,-1.006l0.095,-1.007l0.102,-1.008l0.109,-1.007l0.115,-1.009l0.122,-1.008l0.129,-1.009l0.135,-1.009l0.141,-1.009l0.147,-1.009l0.153,-1.009l0.158,-1.009l0.165,-1.009l0.17,-1.009l0.176,-1.009l0.18,-1.008l0.186,-1.009l0.191,-1.008l0.196,-1.007l0.201,-1.007l0.206,-1.006l0.21,-1.006l0.214,-1.005l0.219,-1.004l0.223,-1.004l0.228,-1.003l0.231,-1.001l0.235,-1.001l0.238,-1l0.242,-0.999l0.246,-0.998l0.249,-0.996l0.252,-0.995l0.256,-0.994l0.258,-0.994l0.525,-1.979l0.535,-1.975l0.545,-1.968l0.553,-1.961l0.56,-1.953l0.567,-1.945l0.573,-1.937l0.576,-1.927l0.581,-1.918l0.583,-1.908l0.584,-1.898l0.585,-1.887l1.168,-3.736l1.158,-3.688l1.141,-3.634l1.116,-3.577l0.546,-1.764l0.537,-1.749l0.526,-1.733l0.518,-1.723l0.191,-0.625l0.21,-0.658l0.224,-0.683l0.239,-0.708l0.251,-0.731l0.265,-0.757l0.562,-1.573l0.602,-1.659l0.633,-1.736l0.659,-1.806l0.675,-1.867l0.687,-1.923l0.344,-0.978l0.344,-0.99l0.343,-0.999l0.341,-1.008l0.338,-1.016l0.334,-1.022l0.329,-1.028l0.324,-1.033l0.316,-1.036l0.309,-1.039l0.301,-1.041l0.291,-1.041l0.28,-1.041l0.269,-1.039l0.258,-1.039l0.123,-0.514l0.12,-0.516l0.117,-0.515l0.113,-0.513l0.109,-0.512l0.106,-0.51l0.101,-0.509l0.098,-0.506l0.093,-0.505l0.089,-0.502l0.085,-0.5l0.08,-0.498l0.075,-0.495l0.071,-0.492l0.066,-0.489l0.061,-0.486l0.056,-0.484l0.051,-0.479l0.046,-0.477l0.04,-0.472l0.035,-0.469l0.029,-0.465l0.024,-0.461l0.018,-0.457l0.013,-0.452l0.006,-0.448l0.001,-0.443l-0.006,-0.438l-0.011,-0.433l-0.018,-0.428l-0.024,-0.423l-0.03,-0.417l-0.037,-0.411l-0.043,-0.406l-0.05,-0.4l-0.056,-0.394l-0.062,-0.388l-0.069,-0.381l-0.076,-0.375l-0.082,-0.369l-0.089,-0.362l-0.096,-0.355l-0.103,-0.348l-0.109,-0.341l-0.116,-0.335l-0.123,-0.327l-0.129,-0.32l-0.137,-0.313l-0.143,-0.306l-0.15,-0.299l-0.157,-0.291l-0.165,-0.285l-0.171,-0.277l-0.179,-0.27l-0.186,-0.264l-0.193,-0.257l-0.206,-0.256l-0.098,-0.116l-0.106,-0.121l-0.107,-0.119l-0.109,-0.117l-0.112,-0.116l-0.113,-0.114l-0.116,-0.112l-0.118,-0.111l-0.12,-0.109l-0.119,-0.105l-0.174,-0.147l-0.17,-0.137l-0.17,-0.13l-0.169,-0.123l-0.169,-0.116l-0.168,-0.11l-0.168,-0.103l-0.167,-0.097l-0.167,-0.091l-0.167,-0.085l-0.166,-0.079l-0.166,-0.074l-0.166,-0.068l-0.165,-0.064l-0.166,-0.058l-0.166,-0.052l-0.165,-0.048l-0.167,-0.044l-0.166,-0.038l-0.167,-0.034l-0.167,-0.029l-0.168,-0.025l-0.168,-0.02l-0.169,-0.016l-0.17,-0.012l-0.171,-0.007l-0.171,-0.003l-0.173,0.002l-0.173,0.005l-0.175,0.01l-0.175,0.014l-0.177,0.019l-0.177,0.022l-0.179,0.027l-0.18,0.031l-0.18,0.035l-0.182,0.039l-0.183,0.043l-0.183,0.048l-0.184,0.051l-0.186,0.056l-0.186,0.06l-0.186,0.063l-0.188,0.068l-0.188,0.072l-0.189,0.075l-0.189,0.08l-0.19,0.083l-0.19,0.087l-0.19,0.091l-0.191,0.094l-0.191,0.098l-0.191,0.102l-0.191,0.105l-0.192,0.109l-0.191,0.111l-0.191,0.116l-0.186,0.115l-0.387,0.25l-0.381,0.258l-0.379,0.271l-0.377,0.281l-0.374,0.291l-0.371,0.302l-0.368,0.31l-0.365,0.319l-0.36,0.327l-0.356,0.334l-0.351,0.34l-0.345,0.347l-0.341,0.351l-0.334,0.357l-0.328,0.36l-0.321,0.363l-0.314,0.366l-0.308,0.368l-0.299,0.369l-0.292,0.369l-0.283,0.369l-0.275,0.369l-0.266,0.367l-0.257,0.364l-0.247,0.361l-0.237,0.358l-0.227,0.353l-0.217,0.348l-0.206,0.341l-0.195,0.335l-0.183,0.327l-0.172,0.318l-0.159,0.308l-0.147,0.298l-0.138,0.293l-0.506,1.117l-0.506,1.133l-0.501,1.141l-0.498,1.148l-0.493,1.156l-0.489,1.163l-0.486,1.17l-0.481,1.177l-0.478,1.184l-0.473,1.19l-0.47,1.196l-0.466,1.202l-0.462,1.208l-0.459,1.213l-0.454,1.218l-0.452,1.224l-0.447,1.228l-0.444,1.233l-0.44,1.237l-0.437,1.242l-0.434,1.245l-0.429,1.249l-0.427,1.253l-0.423,1.255l-0.42,1.259l-0.416,1.261l-0.414,1.265l-0.41,1.266l-0.407,1.268l-0.404,1.271l-0.4,1.272l-0.398,1.273l-0.395,1.275l-0.391,1.275l-0.775,2.554l-0.763,2.555l-0.752,2.555l-0.741,2.552l-0.73,2.548l-0.721,2.542l-0.71,2.535l-0.702,2.525l-0.691,2.514l-0.683,2.502l-0.675,2.486l-0.666,2.471l-0.658,2.452l-1.293,4.837l-0.124,0.477l-0.147,0.581l-0.362,1.444l-0.214,0.843l-0.236,0.911l-0.258,0.971l-0.28,1.021l-0.301,1.062l-0.16,0.548l-0.164,0.553l-0.17,0.56l-0.176,0.565l-0.181,0.569l-0.186,0.574l-0.192,0.575l-0.198,0.578l-0.204,0.577l-0.209,0.578l-0.215,0.576l-0.221,0.573l-0.226,0.571l-0.233,0.566l-0.239,0.561l-0.245,0.554l-0.252,0.548l-0.258,0.54l-0.265,0.531l-0.272,0.521l-0.279,0.511l-0.284,0.494l-0.149,0.251l-0.149,0.242l-0.15,0.238l-0.153,0.236l-0.156,0.232l-0.157,0.228l-0.16,0.225l-0.162,0.221l-0.165,0.217l-0.168,0.213l-0.171,0.209l-0.174,0.205l-0.177,0.2l-0.18,0.196l-0.183,0.191l-0.188,0.186l-0.19,0.181l-0.195,0.176l-0.199,0.17l-0.204,0.165l-0.208,0.158l-0.212,0.153l-0.218,0.146l-0.222,0.138l-0.228,0.132l-0.233,0.123l-0.238,0.115l-0.244,0.106l-0.248,0.097l-0.254,0.087l-0.259,0.076l-0.263,0.065l-0.267,0.053l-0.271,0.041l-0.275,0.029l-0.276,0.016l-0.279,0.003l-0.279,-0.011l-0.281,-0.024l-0.28,-0.037l-0.279,-0.051l-0.278,-0.064l-0.276,-0.077l-0.274,-0.089l-0.272,-0.101l-0.269,-0.114l-0.266,-0.125l-0.273,-0.141l-0.248,-0.144l-0.245,-0.161l-0.234,-0.173l-0.222,-0.181l-0.211,-0.19l-0.201,-0.197l-0.191,-0.204l-0.182,-0.21l-0.174,-0.215l-0.165,-0.22l-0.158,-0.225l-0.151,-0.229l-0.145,-0.233l-0.139,-0.237l-0.133,-0.241l-0.127,-0.244l-0.123,-0.247l-0.118,-0.25l-0.113,-0.253l-0.109,-0.255l-0.105,-0.258l-0.1,-0.259l-0.097,-0.262l-0.094,-0.264l-0.09,-0.265l-0.088,-0.272l-0.161,-0.529l-0.151,-0.538l-0.139,-0.539l-0.127,-0.537l-0.118,-0.534l-0.107,-0.528l-0.097,-0.521l-0.087,-0.511l-0.079,-0.499l-0.07,-0.486l-0.062,-0.469l-0.054,-0.451l-0.046,-0.432l-0.039,-0.409l-0.032,-0.385l-0.025,-0.36l-0.018,-0.333l-0.012,-0.306l-0.006,-0.268l-0.032,-3.737l-0.028,-3.725l-0.024,-3.726l-0.02,-3.726l-0.016,-3.725l-0.013,-3.726l-0.015,-7.45l-0.005,-7.449l0.005,-7.45l0.013,-7.449l0.017,-7.448l0.045,-14.895l0.045,-14.894l0.017,-7.445l0.012,-7.446l0.004,-7.444l-0.005,-7.439l-0.004,-0.552l-0.012,-0.563l-0.02,-0.575l-0.029,-0.586l-0.039,-0.595l-0.049,-0.602l-0.061,-0.611l-0.034,-0.3l-0.037,-0.305l-0.041,-0.304l-0.044,-0.305l-0.048,-0.304l-0.051,-0.304l-0.054,-0.302l-0.058,-0.301l-0.061,-0.3l-0.065,-0.298l-0.069,-0.296l-0.072,-0.293l-0.077,-0.291l-0.08,-0.288l-0.084,-0.285l-0.088,-0.281l-0.092,-0.278l-0.096,-0.273l-0.1,-0.27l-0.104,-0.265l-0.109,-0.26l-0.112,-0.255l-0.116,-0.25l-0.121,-0.245l-0.124,-0.239l-0.129,-0.233l-0.132,-0.227l-0.137,-0.221l-0.14,-0.215l-0.145,-0.208l-0.148,-0.201l-0.153,-0.195l-0.156,-0.187l-0.16,-0.181l-0.165,-0.174l-0.168,-0.167l-0.173,-0.161l-0.177,-0.153l-0.182,-0.146l-0.186,-0.139l-0.192,-0.133l-0.196,-0.125l-0.203,-0.119l-0.208,-0.112l-0.214,-0.105l-0.221,-0.098l-0.228,-0.091l-0.245,-0.087l-0.111,-0.036l-0.123,-0.037l-0.125,-0.036l-0.13,-0.034l-0.231,-0.057l-0.234,-0.055l-0.232,-0.051l-0.231,-0.048l-0.23,-0.045l-0.229,-0.041l-0.227,-0.039l-0.227,-0.035l-0.225,-0.032l-0.224,-0.029l-0.223,-0.026l-0.222,-0.023l-0.22,-0.019l-0.22,-0.017l-0.217,-0.014l-0.217,-0.011l-0.215,-0.007l-0.214,-0.005l-0.213,-0.002l-0.212,0.001Z" style="fill:#fff;"/></g><rect x="317.095" y="200.688" width="11.926" height="138.201" style="fill:#fff;stroke-width:2.08px;stroke:#fff;"/><path d="M281.837,245.565l0,11.926l82.443,0l0,-11.926l-82.443,0Z" style="fill:#fff;stroke-width:2.08px;stroke:#fff;"/></g></svg>