<?xml version="1.0" standalone="no"?><!DOCTYPE svg PUBLIC "-//W3C//DTD SVG 1.1//EN" "http://www.w3.org/Graphics/SVG/1.1/DTD/svg11.dtd"><svg width="100%" height="100%" viewBox="0 0 5345 4053" version="1.1" xmlns="http://www.w3.org/2000/svg" xmlns:xlink="http://www.w3.org/1999/xlink" xml:space="preserve" style="fill-rule:evenodd;clip-rule:evenodd;stroke-linejoin:round;stroke-miterlimit:1.41421;"><rect x="0" y="1501.1" width="5344.86" height="2551.48" style="fill:#109d59;"/><g><g id="Layer5"><rect x="2008.91" y="666.16" width="1339.71" height="1413.12" style="fill:#926c4f;"/><path d="M3352.45,670.134l-1337.68,0l334.42,-239.048l668.841,0l334.42,239.048Z" style="fill:#926c4f;"/><path d="M1772.73,787.859l239.643,-152.071l2.658,161.734l-242.301,-9.663Z" style="fill:#928c7f;"/><rect x="858.72" y="1961.65" width="1195.24" height="117.901" style="fill:#926c4f;"/><rect x="3340.01" y="1868.25" width="745.413" height="209.059" style="fill:#926c4f;"/></g><g id="Layer6"><rect x="1351.15" y="784.226" width="659.928" height="1147.6" style="fill:#928c7f;"/><rect x="3346.33" y="744.823" width="741.225" height="1121.18" style="fill:#928c7f;"/><path d="M2681.58,43.467l-1340.58,725.265l110.191,203.678l1340.58,-725.265l-110.192,-203.678Z" style="fill:#928c7f;"/><path d="M4091.2,735.157l-1422.84,-691.14l-107.016,220.311l1422.84,691.141l107.016,-220.312Z" style="fill:#928c7f;"/><path d="M3347.7,632.553l254.739,113.03l-254.739,0l0,-113.03Z" style="fill:#928c7f;"/><path d="M3385.8,1870.03l0,143.245" style="fill:none;stroke-width:6.25px;stroke:#fff;"/><path d="M2163.65,1854.58l0,113.851l-1010.61,0l1010.61,-113.851Z" style="fill:#926c4f;"/><path d="M2422.7,202.18l524.468,0" style="fill:none;stroke-width:4.17px;stroke:#757167;"/><path d="M2312.92,263.656l754.579,0" style="fill:none;stroke-width:4.17px;stroke:#757167;"/><path d="M2208.96,322.158l384.113,0" style="fill:none;stroke-width:4.17px;stroke:#757167;"/><path d="M2725.07,318.151l452.788,0" style="fill:none;stroke-width:4.17px;stroke:#757167;"/><path d="M2092.75,388.673l360.638,0" style="fill:none;stroke-width:4.17px;stroke:#757167;"/><path d="M2873.22,392.68l477.297,0" style="fill:none;stroke-width:4.17px;stroke:#757167;"/><path d="M1937.62,466.989l400.922,0" style="fill:none;stroke-width:4.17px;stroke:#757167;"/><path d="M3011.5,472.028l471.569,0" style="fill:none;stroke-width:4.17px;stroke:#757167;"/><path d="M1819.01,530.421l382.267,0" style="fill:none;stroke-width:4.17px;stroke:#757167;"/><path d="M3159.07,544.381l501.227,0" style="fill:none;stroke-width:4.17px;stroke:#757167;"/><path d="M1674.28,614.903l380.326,0" style="fill:none;stroke-width:4.17px;stroke:#757167;"/><path d="M1505.18,705.238l484.622,0" style="fill:none;stroke-width:4.17px;stroke:#757167;"/><path d="M1381.3,781.707l609.529,0" style="fill:none;stroke-width:4.17px;stroke:#757167;"/><path d="M1371.68,872.966l616.51,0" style="fill:none;stroke-width:4.17px;stroke:#757167;"/><path d="M1375.8,967.292l608.387,0" style="fill:none;stroke-width:4.17px;stroke:#757167;"/><path d="M1369.96,1069.54l602.439,0" style="fill:none;stroke-width:4.17px;stroke:#757167;"/><path d="M1383.93,1161.81l604.38,0" style="fill:none;stroke-width:4.17px;stroke:#757167;"/><path d="M1384.84,1236.34l598.543,0" style="fill:none;stroke-width:4.17px;stroke:#757167;"/><path d="M1384.95,1336.52l593.628,0" style="fill:none;stroke-width:4.17px;stroke:#757167;"/><path d="M1394.11,1422.96l590.638,0" style="fill:none;stroke-width:4.17px;stroke:#757167;"/><path d="M1395.37,1527.15l579.762,0" style="fill:none;stroke-width:4.17px;stroke:#757167;"/><path d="M1402.46,1618.5l556.974,0" style="fill:none;stroke-width:4.17px;stroke:#757167;"/><path d="M1409.23,1706.88l529.727,0" style="fill:none;stroke-width:4.17px;stroke:#757167;"/><path d="M1423.08,1811.06l529.273,0" style="fill:none;stroke-width:4.17px;stroke:#757167;"/><path d="M3374.47,631.273l420.047,0" style="fill:none;stroke-width:4.17px;stroke:#757167;"/><path d="M3376.65,740.499l667.108,0" style="fill:none;stroke-width:4.17px;stroke:#757167;"/><path d="M3367.51,845.374l684.057,0" style="fill:none;stroke-width:4.17px;stroke:#757167;"/><path d="M3376.66,946.461l681.772,0" style="fill:none;stroke-width:4.17px;stroke:#757167;"/><path d="M3373.46,1044.81l678.001,0" style="fill:none;stroke-width:4.17px;stroke:#757167;"/><path d="M3375.63,1160.89l668.954,0" style="fill:none;stroke-width:4.17px;stroke:#757167;"/><path d="M3386.62,1254.31l652.005,0" style="fill:none;stroke-width:4.17px;stroke:#757167;"/><path d="M3378.28,1385.29l650.048,0" style="fill:none;stroke-width:4.17px;stroke:#757167;"/><path d="M3383.99,1518.32l646.981,0" style="fill:none;stroke-width:4.17px;stroke:#757167;"/><path d="M3378.97,1670.13l645.933,0" style="fill:none;stroke-width:4.17px;stroke:#757167;"/><path d="M3378.73,1798.36l664.838,0" style="fill:none;stroke-width:4.17px;stroke:#757167;"/></g><g id="Layer4"><rect x="1570.75" y="849.168" width="216.158" height="283.988" style="fill:#3b362b;"/><rect x="1574.21" y="1483.74" width="213.811" height="281.71" style="fill:#3b362b;"/><rect x="3575.59" y="797.729" width="224.323" height="155.181" style="fill:#3b362b;"/><rect x="3583.51" y="954.337" width="216.856" height="142.394" style="fill:#3b362b;"/><rect x="3585.26" y="1455.67" width="231.433" height="302.42" style="fill:#3b362b;"/><rect x="3626.79" y="1938.43" width="87.97" height="53.291" style="fill:#3b362b;"/><path d="M2666.75,598.013c102.484,0 185.689,83.204 185.689,185.688c0,102.485 -371.378,102.485 -371.378,0c0,-102.484 83.204,-185.688 185.689,-185.688Z" style="fill:#3b362b;"/><path d="M2243.78,737.264c31.749,0 57.524,25.776 57.524,57.524c0,31.748 -115.047,31.748 -115.047,0c0,-31.748 25.775,-57.524 57.523,-57.524Z" style="fill:#3b362b;"/><path d="M3121.57,729.296c24.454,0 44.308,23.897 44.308,53.332c0,29.435 -88.616,29.435 -88.616,0c0,-29.435 19.854,-53.332 44.308,-53.332Z" style="fill:#3b362b;"/><rect x="2495.88" y="796.556" width="346.752" height="302.11" style="fill:#3b362b;"/><rect x="2191.8" y="804.527" width="95.359" height="306.235" style="fill:#3b362b;"/><rect x="3079.87" y="790.785" width="78.694" height="297.572" style="fill:#3b362b;"/><path d="M3087.54,1380.34c35.486,0 64.295,29.637 64.295,66.142c0,36.505 -128.59,36.505 -128.59,0c0,-36.505 28.81,-66.142 64.295,-66.142Z" style="fill:#3b362b;"/><path d="M2244,1384.99c28.663,0 51.933,29.133 51.933,65.017c0,35.884 -103.866,35.884 -103.866,0c0,-35.884 23.27,-65.017 51.933,-65.017Z" style="fill:#3b362b;"/><rect x="2197.12" y="1456.5" width="93.638" height="307.176" style="fill:#3b362b;"/><rect x="3024.34" y="1450.27" width="126.863" height="306.593" style="fill:#3b362b;"/><rect x="2480.75" y="1394.31" width="370.469" height="47.426" style="fill:#3b362b;"/><g transform="matrix(5.77432,0,0,5.77432,-2039.3,-2011.27)"><text x="749.002px" y="562.815px" style="font-family:Comic Sans MS;font-size:23.239px;font-weight:700;fill:#2b4519;">O</text><text x="767.554px" y="562.815px" style="font-family:Comic Sans MS;font-size:23.239px;font-weight:700;fill:#254162;">P</text><text x="779.934px" y="562.815px" style="font-family:Comic Sans MS;font-size:23.239px;font-weight:700;fill:#fcbe1f;">E</text><text x="794.448px" y="562.815px" style="font-family:Comic Sans MS;font-size:23.239px;font-weight:700;fill:#c54f39;">N</text><text x="813.341px" y="562.815px" style="font-family:Comic Sans MS;font-size:23.239px;font-weight:700;fill:#2b4519;">A</text><text x="830.339px" y="562.815px" style="font-family:Comic Sans MS;font-size:23.239px;font-weight:700;fill:#9d2727;">R</text><text x="845.215px" y="562.815px" style="font-family:Comic Sans MS;font-size:23.239px;font-weight:700;fill:#fcbe1f;">M</text><text x="865.731px" y="562.815px" style="font-family:Comic Sans MS;font-size:23.239px;font-weight:700;fill:#254162;">S</text></g><g transform="matrix(5.77432,0,0,5.77432,-2050.47,-2014.41)"><text x="745.347px" y="582.534px" style="font-family:Comic Sans MS;font-size:13.794px;font-weight:700;fill:#fcbe1f;">C</text><text x="753.881px" y="582.534px" style="font-family:Comic Sans MS;font-size:13.794px;font-weight:700;fill:#c54f39;">H</text><text x="764.476px" y="582.534px" style="font-family:Comic Sans MS;font-size:13.794px;font-weight:700;fill:#9d2727;">I</text><text x="772.013px" y="582.534px" style="font-family:Comic Sans MS;font-size:13.794px;font-weight:700;fill:#2b4519;">L</text><text x="779.61px" y="582.534px" style="font-family:Comic Sans MS;font-size:13.794px;font-weight:700;fill:#254162;">D</text><text x="789.565px" y="582.534px" style="font-family:Comic Sans MS;font-size:13.794px;font-weight:700;fill:#fcbe1f;">C</text><text x="798.099px" y="582.534px" style="font-family:Comic Sans MS;font-size:13.794px;font-weight:700;fill:#9d2727;">A</text><text x="808.189px" y="582.534px" style="font-family:Comic Sans MS;font-size:13.794px;font-weight:700;fill:#254162;">R</text><text x="817.019px" y="582.534px" style="font-family:Comic Sans MS;font-size:13.794px;font-weight:700;fill:#c54f39;">E</text><text x="831.615px" y="582.534px" style="font-family:Comic Sans MS;font-size:13.794px;font-weight:700;fill:#254162;">C</text><text x="840.149px" y="582.534px" style="font-family:Comic Sans MS;font-size:13.794px;font-weight:700;fill:#fcbe1f;">E</text><text x="848.763px" y="582.534px" style="font-family:Comic Sans MS;font-size:13.794px;font-weight:700;fill:#c54f39;">N</text><text x="859.978px" y="582.534px" style="font-family:Comic Sans MS;font-size:13.794px;font-weight:700;fill:#254162;">T</text><text x="869.576px" y="582.534px" style="font-family:Comic Sans MS;font-size:13.794px;font-weight:700;fill:#9d2727;">E</text><text x="878.19px" y="582.534px" style="font-family:Comic Sans MS;font-size:13.794px;font-weight:700;fill:#2b4519;">R</text></g><rect x="2479.52" y="1448.67" width="379.217" height="419.514" style="fill:#979587;"/><rect x="2520.44" y="1478.68" width="108.762" height="348.904" style="fill:#3b362b;"/><rect x="2721.98" y="1486.14" width="112.78" height="341.199" style="fill:#3b362b;"/><path d="M2674.84,1451.68l0,388.067" style="fill:none;stroke-width:3.33px;stroke:#1e1e1b;"/><rect x="2472.24" y="1372.83" width="391.888" height="28.773" style="fill:#4e443a;"/></g><g id="Layer3"><path d="M2671.85,29.806l1.043,0.224l0.995,0.384l0,0l1469.68,705.08l-2.937,6.122l-2.937,6.122l-1466.56,-703.581l-1404.77,760.177l-3.231,-5.972l-3.232,-5.972l1407.82,-761.825l0.975,-0.433l1.031,-0.274l1.061,-0.11l1.064,0.058Z" style="fill:#f2f2f2;"/><path d="M1961.46,695.463l690.4,-380.656l705.425,343.684" style="fill:none;stroke-width:10.42px;stroke:#f2f2f2;"/><path d="M3350,1864.18l715.876,0" style="fill:none;stroke-width:3.96px;stroke:#f2f2f2;"/><path d="M4091.09,821.701l0,1163.57" style="fill:none;stroke-width:8.33px;stroke:#f2f2f2;"/><path d="M4166.88,742.907c0.685,80.445 -74.536,5.992 -75.139,70.569" style="fill:none;stroke-width:8.33px;stroke:#f2f2f2;"/><path d="M4092.95,806.725l-1.287,32.361" style="fill:none;stroke-width:8.33px;stroke:#f2f2f2;"/><path d="M1238.27,781.852l1433.76,-771.027" style="fill:none;stroke-width:12.5px;stroke:#786858;"/><path d="M2674.14,12.56l1478.98,706.927" style="fill:none;stroke-width:12.5px;stroke:#786858;"/><path d="M1490.24,525.275l224.241,-0.524l-346.421,188.557l122.18,-188.033Z" style="fill:#786858;stroke-width:12.5px;stroke:#786858;"/><path d="M4159.75,445.973l9.722,269.861l-627.494,-285.4l617.772,15.539Z" style="fill:#786858;stroke-width:12.5px;stroke:#786858;"/><path d="M2505.32,140.231l353.908,0" style="fill:none;stroke-width:4.17px;stroke:#322e28;"/><path d="M2679.53,46.158l168.548,91.201l-337.097,0l168.549,-91.201Z" style="fill:#786858;"/><path d="M2686.4,89.123l0.837,18.554l-1.673,0l0.836,-18.554Z" style="fill:#786858;"/><path d="M1346.9,768.98l0,1093.11" style="fill:none;stroke-width:4.17px;stroke:#928c7d;"/><g><path d="M1677.67,840.793l0,297.324" style="fill:none;stroke-width:10.42px;stroke:#f2f2f2;"/><path d="M1680.17,1476.46l0,295.438" style="fill:none;stroke-width:10.42px;stroke:#f2f2f2;"/><path d="M3689.79,798.885l0,304.966" style="fill:none;stroke-width:10.42px;stroke:#f2f2f2;"/><path d="M3694.34,1450.51l0,304.827" style="fill:none;stroke-width:10.42px;stroke:#f2f2f2;"/><path d="M2671.73,802.637l0,298.686" style="fill:none;stroke-width:10.42px;stroke:#f2f2f2;"/><path d="M2192.78,1451.87l94.824,0" style="fill:none;stroke-width:10.42px;stroke:#f2f2f2;"/><path d="M3147.14,1446.89l-139.525,0" style="fill:none;stroke-width:10.42px;stroke:#f2f2f2;"/><path d="M1566.07,841.563l223.657,0l0,293.632l-222.216,0l-1.441,-293.632Z" style="fill:none;stroke-width:8.33px;stroke:#f2f2f2;"/><path d="M1569.24,1475.7l222.867,0l0,296.099l-224.16,0l1.293,-296.099Z" style="fill:none;stroke-width:8.33px;stroke:#f2f2f2;"/><path d="M3571.99,796.635l234.704,0l0,300.502l-221.634,0l-13.07,-300.502Z" style="fill:none;stroke-width:8.33px;stroke:#f2f2f2;"/><path d="M3583.19,1452.3l232.176,0l0,305.913l-235.355,0l3.179,-305.913Z" style="fill:none;stroke-width:8.33px;stroke:#f2f2f2;"/><path d="M2287.47,806.25l-90.845,0l0,304.185l88.466,0l2.379,-304.185Z" style="fill:none;stroke-width:8.33px;stroke:#f2f2f2;"/><path d="M3154.51,788.697l-77.843,0l0,301.155l80.301,0l-2.458,-301.155Z" style="fill:none;stroke-width:8.33px;stroke:#f2f2f2;"/><path d="M2193.74,1451l0,315.015l100.243,0l0,-318.263" style="fill:none;stroke-width:8.33px;stroke:#f2f2f2;"/><path d="M3150.66,1444l0,313.346l-127.175,0l0,-311.905" style="fill:none;stroke-width:8.33px;stroke:#f2f2f2;"/><path d="M2494.78,795.045l347.504,0l0,305.261l-345.333,0l-2.171,-305.261Z" style="fill:none;stroke-width:8.33px;stroke:#f2f2f2;"/><path d="M2501.37,951.245l339.993,0" style="fill:none;stroke-width:8.33px;stroke:#f2f2f2;"/><path d="M2669.34,795.075l0,-184.81" style="fill:none;stroke-width:4.17px;stroke:#f2f2f2;"/><path d="M2670.56,787.562l-118.038,-118.038" style="fill:none;stroke-width:4.17px;stroke:#f2f2f2;"/><path d="M2670.49,784.886l123.448,-123.448" style="fill:none;stroke-width:4.17px;stroke:#f2f2f2;"/><path d="M1619.06,846.065l0,285.329" style="fill:none;stroke-width:4.17px;stroke:#f2f2f2;"/><path d="M1747.46,845.196l0,288.074" style="fill:none;stroke-width:4.17px;stroke:#f2f2f2;"/><path d="M1567.72,922.111l222.936,0" style="fill:none;stroke-width:4.17px;stroke:#f2f2f2;"/><path d="M1570.89,992.234l219.758,0" style="fill:none;stroke-width:4.17px;stroke:#f2f2f2;"/><path d="M1567.65,1065.47l221.051,0" style="fill:none;stroke-width:4.17px;stroke:#f2f2f2;"/><path d="M1619.13,1479.85l0,286.701" style="fill:none;stroke-width:4.17px;stroke:#f2f2f2;"/><path d="M1748.9,1477.32l0,293.059" style="fill:none;stroke-width:4.17px;stroke:#f2f2f2;"/><path d="M1566.99,1555.02l224.16,0" style="fill:none;stroke-width:4.17px;stroke:#f2f2f2;"/><path d="M1572.04,1630.79l220.912,0" style="fill:none;stroke-width:4.17px;stroke:#f2f2f2;"/><path d="M1570.82,1696.57l216.648,0" style="fill:none;stroke-width:4.17px;stroke:#f2f2f2;"/><path d="M2246.34,1451.68l0,312.419" style="fill:none;stroke-width:4.17px;stroke:#f2f2f2;"/><path d="M2200.55,1540.44l91.358,0" style="fill:none;stroke-width:4.17px;stroke:#f2f2f2;"/><path d="M2199.83,1614.97l94.537,0" style="fill:none;stroke-width:4.17px;stroke:#f2f2f2;"/><path d="M2202.29,1695.06l92.8,0" style="fill:none;stroke-width:4.17px;stroke:#f2f2f2;"/><path d="M2242.58,808.521l0,301.213" style="fill:none;stroke-width:4.17px;stroke:#f2f2f2;"/><path d="M2200.33,1036.43l85.86,0" style="fill:none;stroke-width:4.17px;stroke:#f2f2f2;"/><path d="M2204.81,964.434l81.535,0" style="fill:none;stroke-width:4.17px;stroke:#f2f2f2;"/><path d="M2198.88,884.853l90.845,0" style="fill:none;stroke-width:4.17px;stroke:#f2f2f2;"/><path d="M2244.3,1448.23l0,-46.439" style="fill:none;stroke-width:4.17px;stroke:#f2f2f2;"/><path d="M2247.2,1445.12l-28.239,-28.24" style="fill:none;stroke-width:4.17px;stroke:#f2f2f2;"/><path d="M2245.31,1445.77l28.886,-28.887" style="fill:none;stroke-width:4.17px;stroke:#f2f2f2;"/><path d="M3092.14,1444.46l41.345,-41.346" style="fill:none;stroke-width:4.17px;stroke:#f2f2f2;"/><path d="M3091.5,1448.23l-43.26,-43.26" style="fill:none;stroke-width:4.17px;stroke:#f2f2f2;"/><path d="M3088.97,1443.31l0,-50.843" style="fill:none;stroke-width:4.17px;stroke:#f2f2f2;"/><path d="M2244.09,805.993l35.496,-35.495" style="fill:none;stroke-width:4.17px;stroke:#f2f2f2;"/><path d="M2245.39,800.287l0,-46.508" style="fill:none;stroke-width:4.17px;stroke:#f2f2f2;"/><path d="M2246.76,803.249l-31.631,-31.631" style="fill:none;stroke-width:4.17px;stroke:#f2f2f2;"/><path d="M2547.05,798.194l0,295.587" style="fill:none;stroke-width:4.17px;stroke:#f2f2f2;"/><path d="M2608.43,800.791l0,296.741" style="fill:none;stroke-width:4.17px;stroke:#f2f2f2;"/><path d="M2737.42,800.722l0,297.462" style="fill:none;stroke-width:4.17px;stroke:#f2f2f2;"/><path d="M2791.36,794.581l0,303.741" style="fill:none;stroke-width:4.17px;stroke:#f2f2f2;"/><path d="M2501.7,1055.72l342.668,0" style="fill:none;stroke-width:4.17px;stroke:#f2f2f2;"/><path d="M2498.22,1000.55l341.947,0" style="fill:none;stroke-width:4.17px;stroke:#f2f2f2;"/><path d="M2497.65,896.552l341.147,0" style="fill:none;stroke-width:4.17px;stroke:#f2f2f2;"/><path d="M2498.8,851.416l341.729,0" style="fill:none;stroke-width:4.17px;stroke:#f2f2f2;"/><path d="M3079.63,1021.78l79.798,0" style="fill:none;stroke-width:4.17px;stroke:#f2f2f2;"/><path d="M3079.33,950.929l77.133,0" style="fill:none;stroke-width:4.17px;stroke:#f2f2f2;"/><path d="M3080.71,870.055l75.177,0" style="fill:none;stroke-width:4.17px;stroke:#f2f2f2;"/><path d="M3116.52,791.698l0,291.904" style="fill:none;stroke-width:4.17px;stroke:#f2f2f2;"/><path d="M3114.14,785.696l35.777,-35.777" style="fill:none;stroke-width:4.17px;stroke:#f2f2f2;"/><path d="M3115.3,783.1l0,-48.957" style="fill:none;stroke-width:4.17px;stroke:#f2f2f2;"/><path d="M3118.41,780.355l-34.81,-34.81" style="fill:none;stroke-width:4.17px;stroke:#f2f2f2;"/><path d="M3631.01,798.994l0,294.352" style="fill:none;stroke-width:4.17px;stroke:#f2f2f2;"/><path d="M3580.31,1033.19l109.039,0" style="fill:none;stroke-width:4.17px;stroke:#f2f2f2;"/><path d="M3583.48,952.38l226.184,0" style="fill:none;stroke-width:4.17px;stroke:#f2f2f2;"/><path d="M3587.17,1033.7l219.758,0" style="fill:none;stroke-width:4.17px;stroke:#f2f2f2;"/><path d="M3578.43,876.561l231.604,0" style="fill:none;stroke-width:4.17px;stroke:#f2f2f2;"/><path d="M3751.76,797.484l0,295.586" style="fill:none;stroke-width:4.17px;stroke:#f2f2f2;"/><path d="M3638.95,1456.54l0,296.308" style="fill:none;stroke-width:4.17px;stroke:#f2f2f2;"/><path d="M3769.23,1455.53l0,298.756" style="fill:none;stroke-width:4.17px;stroke:#f2f2f2;"/><path d="M3585.08,1533.31l229.146,0" style="fill:none;stroke-width:4.17px;stroke:#f2f2f2;"/><path d="M3583.71,1607.9l232.897,0" style="fill:none;stroke-width:4.17px;stroke:#f2f2f2;"/><path d="M3584.93,1679.76l230.311,0" style="fill:none;stroke-width:4.17px;stroke:#f2f2f2;"/><path d="M3091.55,1449.46l0,305.044" style="fill:none;stroke-width:4.17px;stroke:#f2f2f2;"/><path d="M3030.81,1527.1l122.189,0" style="fill:none;stroke-width:4.17px;stroke:#f2f2f2;"/><path d="M3024.53,1599.09l128.399,0" style="fill:none;stroke-width:4.17px;stroke:#f2f2f2;"/><path d="M3029.66,1685.54l124.065,0" style="fill:none;stroke-width:4.17px;stroke:#f2f2f2;"/><path d="M2481.4,1447.47l377.427,0" style="fill:none;stroke-width:4.17px;stroke:#f2f2f2;"/><path d="M2567.16,1397.77l0,48.938" style="fill:none;stroke-width:4.17px;stroke:#f2f2f2;"/><path d="M2615.93,1398.97l0,47.835" style="fill:none;stroke-width:4.17px;stroke:#f2f2f2;"/><path d="M2676.99,1398.31l0,48.211" style="fill:none;stroke-width:4.17px;stroke:#f2f2f2;"/><path d="M2736.29,1394.76l0,48.838" style="fill:none;stroke-width:4.17px;stroke:#f2f2f2;"/><path d="M2800.77,1397.3l0,49.67" style="fill:none;stroke-width:4.17px;stroke:#f2f2f2;"/><path d="M2519.8,1478.55l109.603,0l0,354.216l-106.729,0l-2.874,-354.216Z" style="fill:none;stroke-width:4.17px;stroke:#f2f2f2;"/><path d="M2558.87,1484.97l0,343.913" style="fill:none;stroke-width:4.17px;stroke:#f2f2f2;"/><path d="M2599.29,1481.47l0,350.709" style="fill:none;stroke-width:4.17px;stroke:#f2f2f2;"/><path d="M2523.71,1555.58l104.854,0" style="fill:none;stroke-width:4.17px;stroke:#f2f2f2;"/><path d="M2525.88,1623.56l103.475,0" style="fill:none;stroke-width:4.17px;stroke:#f2f2f2;"/><path d="M2720.7,1486.1l0,354.632l117.408,0l0,-356.924l-117.408,2.292Z" style="fill:none;stroke-width:4.17px;stroke:#f2f2f2;"/><path d="M2757.15,1490.31l0,348.834" style="fill:none;stroke-width:4.17px;stroke:#f2f2f2;"/><path d="M2796.52,1486.27l0,354.712" style="fill:none;stroke-width:4.17px;stroke:#f2f2f2;"/><path d="M2724.91,1555.75l115.026,0" style="fill:none;stroke-width:4.17px;stroke:#f2f2f2;"/><path d="M2723.83,1624.86l114.945,0" style="fill:none;stroke-width:4.17px;stroke:#f2f2f2;"/><path d="M940.639,1728.73l0,235.263" style="fill:none;stroke-width:14.58px;stroke:#f2f2f2;"/><path d="M1042.79,1732.42l0,229.417" style="fill:none;stroke-width:14.58px;stroke:#f2f2f2;"/><path d="M1253.49,1724.52l0,233.826" style="fill:none;stroke-width:14.58px;stroke:#f2f2f2;"/><path d="M1740.58,1912.04l0,-216.085" style="fill:none;stroke-width:14.58px;stroke:#f2f2f2;"/><path d="M2241.17,1864.88l0,-216.141" style="fill:none;stroke-width:14.58px;stroke:#f2f2f2;"/><path d="M2568.95,1855.85l0,-213.364" style="fill:none;stroke-width:14.58px;stroke:#f2f2f2;"/><path d="M2901.99,1865.13l0,-220.9" style="fill:none;stroke-width:14.58px;stroke:#f2f2f2;"/><path d="M3142.38,2019.01l0,-226.437" style="fill:none;stroke-width:14.58px;stroke:#f2f2f2;"/><path d="M941.221,1760.62l100.5,0" style="fill:none;stroke-width:14.58px;stroke:#f2f2f2;"/><path d="M941.733,1809.55l101.887,0" style="fill:none;stroke-width:14.58px;stroke:#f2f2f2;"/><path d="M939.63,1865.95l100.962,0" style="fill:none;stroke-width:14.58px;stroke:#f2f2f2;"/><path d="M941.936,1927.74l100.037,0" style="fill:none;stroke-width:14.58px;stroke:#f2f2f2;"/><path d="M1047.87,1758.83l203.579,-5.79" style="fill:none;stroke-width:14.58px;stroke:#f2f2f2;"/><path d="M1046.9,1811.8l204.034,1.332" style="fill:none;stroke-width:14.58px;stroke:#f2f2f2;"/><path d="M1040.75,1866.56l204.953,-6.666" style="fill:none;stroke-width:14.58px;stroke:#f2f2f2;"/><path d="M1048.28,1930.05l207.161,-4.045" style="fill:none;stroke-width:14.58px;stroke:#f2f2f2;"/><path d="M1257.39,1927.38l482.681,-46.615" style="fill:none;stroke-width:14.58px;stroke:#f2f2f2;"/><path d="M1744.17,1738.01l496.883,-62.766" style="fill:none;stroke-width:14.58px;stroke:#f2f2f2;"/><path d="M1741.97,1736.99l-486.627,14.202" style="fill:none;stroke-width:14.58px;stroke:#f2f2f2;"/><path d="M1257.6,1808.88l482.316,-25.333" style="fill:none;stroke-width:14.58px;stroke:#f2f2f2;"/><path d="M1743.8,1781.3l495.551,-52.609" style="fill:none;stroke-width:14.58px;stroke:#f2f2f2;"/><path d="M1251.28,1861.29l486.725,-19.999" style="fill:none;stroke-width:14.58px;stroke:#f2f2f2;"/><path d="M1741.8,1838.62l493.91,-61.378" style="fill:none;stroke-width:14.58px;stroke:#f2f2f2;"/><path d="M1743.29,1884.83l493.91,-47.583" style="fill:none;stroke-width:14.58px;stroke:#f2f2f2;"/><path d="M2239.45,1836.78l328.079,-4.871" style="fill:none;stroke-width:14.58px;stroke:#f2f2f2;"/><path d="M2243.36,1776.78l326.327,1.332" style="fill:none;stroke-width:14.58px;stroke:#f2f2f2;"/><path d="M2242.99,1724.33l324.029,-3.54" style="fill:none;stroke-width:14.58px;stroke:#f2f2f2;"/><path d="M2242.63,1664.74l325.823,6.666" style="fill:none;stroke-width:14.58px;stroke:#f2f2f2;"/><path d="M2573.67,1673.91l330.638,-3.078" style="fill:none;stroke-width:14.58px;stroke:#f2f2f2;"/><path d="M2568.8,1724.63l335.153,1.794" style="fill:none;stroke-width:14.58px;stroke:#f2f2f2;"/><path d="M2566.95,1773.04l333.765,3.996" style="fill:none;stroke-width:14.58px;stroke:#f2f2f2;"/><path d="M2565.52,1832.11l337.768,0.869" style="fill:none;stroke-width:14.58px;stroke:#f2f2f2;"/><path d="M2903.29,1832.98l237.366,155.169" style="fill:none;stroke-width:14.58px;stroke:#f2f2f2;"/><path d="M2902.51,1777.45l237.779,152.912" style="fill:none;stroke-width:14.58px;stroke:#f2f2f2;"/><path d="M2906.1,1722.73l234.751,151.685" style="fill:none;stroke-width:14.58px;stroke:#f2f2f2;"/><path d="M2905.28,1664.54l239.573,145.831" style="fill:none;stroke-width:14.58px;stroke:#f2f2f2;"/></g><path d="M2099.23,815.617l-83.297,0" style="fill:none;stroke-width:8.33px;stroke:#6d4a30;"/><path d="M2100.84,901.036l-86.062,0" style="fill:none;stroke-width:4.17px;stroke:#7d573a;"/><path d="M2099.04,987.618l-87.092,0" style="fill:none;stroke-width:4.17px;stroke:#7d573a;"/><path d="M2105.28,1077.48l-88.827,0" style="fill:none;stroke-width:4.17px;stroke:#7d573a;"/><path d="M2105.68,1164.06l-86.062,0" style="fill:none;stroke-width:4.17px;stroke:#7d573a;"/><path d="M2101.74,1250.58l-85.604,0" style="fill:none;stroke-width:4.17px;stroke:#7d573a;"/><path d="M2096.53,1332.64l-78.268,0" style="fill:none;stroke-width:4.17px;stroke:#7d573a;"/><path d="M2099.69,1425.79l-84.971,0" style="fill:none;stroke-width:4.17px;stroke:#7d573a;"/><path d="M2097.37,1506.25l-78.146,0" style="fill:none;stroke-width:4.17px;stroke:#7d573a;"/><path d="M2097.95,1598.82l-80.981,0" style="fill:none;stroke-width:4.17px;stroke:#7d573a;"/><path d="M3330.72,786.442l-89.989,0" style="fill:none;stroke-width:4.17px;stroke:#7d573a;"/><path d="M3335.44,879.655l-91.029,0" style="fill:none;stroke-width:4.17px;stroke:#7d573a;"/><path d="M3334.34,965.585l-86.634,0" style="fill:none;stroke-width:4.17px;stroke:#7d573a;"/><path d="M3332.6,1053.9l-85.939,0" style="fill:none;stroke-width:4.17px;stroke:#7d573a;"/><path d="M3336.02,1139.32l-93.926,0" style="fill:none;stroke-width:4.17px;stroke:#7d573a;"/><path d="M3332.54,1225.32l-85.551,0" style="fill:none;stroke-width:4.17px;stroke:#7d573a;"/><path d="M3325.84,1313.58l-82.072,0" style="fill:none;stroke-width:4.17px;stroke:#7d573a;"/><path d="M3339.31,1404.01l-88.316,0" style="fill:none;stroke-width:4.17px;stroke:#7d573a;"/><path d="M3329.19,1492.21l-75.495,0" style="fill:none;stroke-width:4.17px;stroke:#7d573a;"/><path d="M3332.54,1578.85l-78.85,0" style="fill:none;stroke-width:4.17px;stroke:#7d573a;"/><path d="M3340.46,1674.38l-90.501,0" style="fill:none;stroke-width:4.17px;stroke:#7d573a;"/><path d="M3334.22,1763.73l-84.45,0" style="fill:none;stroke-width:4.17px;stroke:#7d573a;"/><path d="M3342.47,1838.58l-93.793,0" style="fill:none;stroke-width:4.17px;stroke:#7d573a;"/><path d="M3348.71,1920.2l-88.898,0" style="fill:none;stroke-width:4.17px;stroke:#7d573a;"/><path d="M3394.4,708.614l0,1299.18" style="fill:none;stroke-width:6.25px;stroke:#7d573a;"/><path d="M2657.4,324.68l224.493,110.198l-445.799,6.269l221.306,-116.467Z" style="fill:#786858;"/><path d="M865.16,1961.38l350.176,5.188l1024.21,-100.563l659.046,-1.983l252.587,168.892" style="fill:none;stroke-width:8.33px;stroke:#6d4a30;"/><path d="M3149.48,2073.44l-1.294,-41.012" style="fill:none;stroke-width:8.33px;stroke:#6d4a30;"/></g></g></svg>