<?xml version="1.0" standalone="no"?><!DOCTYPE svg PUBLIC "-//W3C//DTD SVG 1.1//EN" "http://www.w3.org/Graphics/SVG/1.1/DTD/svg11.dtd"><svg width="100%" height="100%" viewBox="0 0 3093 2704" version="1.1" xmlns="http://www.w3.org/2000/svg" xmlns:xlink="http://www.w3.org/1999/xlink" xml:space="preserve" style="fill-rule:evenodd;clip-rule:evenodd;stroke-linejoin:round;stroke-miterlimit:1.41421;"><rect x="1.981" y="1578.09" width="3090.03" height="1125" style="fill:#109d59;"/><g><g id="Layer5"><rect x="1259.95" y="1090.53" width="782.314" height="825.184" style="fill:#926c4f;"/><path d="M2044.51,1092.85l-781.13,0l195.282,-139.59l390.565,0l195.283,139.59Z" style="fill:#926c4f;"/><path d="M1122.04,1161.6l139.938,-88.802l1.553,94.444l-141.491,-5.642Z" style="fill:#928c7f;"/><rect x="588.31" y="1847.02" width="697.954" height="68.848" style="fill:#926c4f;"/><rect x="2037.24" y="1792.49" width="435.279" height="122.079" style="fill:#926c4f;"/></g><g id="Layer6"><rect x="875.863" y="1159.48" width="385.36" height="670.132" style="fill:#928c7f;"/><rect x="2040.93" y="1136.47" width="432.833" height="654.703" style="fill:#928c7f;"/><path d="M1652.76,726.914l-782.823,423.513l64.345,118.937l782.823,-423.514l-64.345,-118.936Z" style="fill:#928c7f;"/><path d="M2475.89,1130.82l-830.856,-403.587l-62.491,128.649l830.856,403.587l62.491,-128.649Z" style="fill:#928c7f;"/><path d="M2041.73,1070.91l148.753,66.003l-148.753,0l0,-66.003Z" style="fill:#928c7f;"/><path d="M2063.98,1793.52l0,83.647" style="fill:none;stroke-width:6.25px;stroke:#fff;"/><path d="M1350.32,1784.5l0,66.482l-590.139,0l590.139,-66.482Z" style="fill:#926c4f;"/><path d="M1501.58,819.593l306.26,0" style="fill:none;stroke-width:4.17px;stroke:#757167;"/><path d="M1437.48,855.492l440.631,0" style="fill:none;stroke-width:4.17px;stroke:#757167;"/><path d="M1376.77,889.654l224.3,0" style="fill:none;stroke-width:4.17px;stroke:#757167;"/><path d="M1678.15,887.314l264.403,0" style="fill:none;stroke-width:4.17px;stroke:#757167;"/><path d="M1308.91,928.495l210.591,0" style="fill:none;stroke-width:4.17px;stroke:#757167;"/><path d="M1764.66,930.834l278.714,0" style="fill:none;stroke-width:4.17px;stroke:#757167;"/><path d="M1218.33,974.227l234.116,0" style="fill:none;stroke-width:4.17px;stroke:#757167;"/><path d="M1845.41,977.169l275.369,0" style="fill:none;stroke-width:4.17px;stroke:#757167;"/><path d="M1149.06,1011.27l223.222,0" style="fill:none;stroke-width:4.17px;stroke:#757167;"/><path d="M1931.59,1019.42l292.688,0" style="fill:none;stroke-width:4.17px;stroke:#757167;"/><path d="M1064.55,1060.6l222.089,0" style="fill:none;stroke-width:4.17px;stroke:#757167;"/><path d="M965.805,1113.35l282.992,0" style="fill:none;stroke-width:4.17px;stroke:#757167;"/><path d="M893.47,1158l355.93,0" style="fill:none;stroke-width:4.17px;stroke:#757167;"/><path d="M887.849,1211.29l360.006,0" style="fill:none;stroke-width:4.17px;stroke:#757167;"/><path d="M890.253,1266.38l355.263,0" style="fill:none;stroke-width:4.17px;stroke:#757167;"/><path d="M886.844,1326.08l351.79,0" style="fill:none;stroke-width:4.17px;stroke:#757167;"/><path d="M895.005,1379.96l352.924,0" style="fill:none;stroke-width:4.17px;stroke:#757167;"/><path d="M895.535,1423.49l349.515,0" style="fill:none;stroke-width:4.17px;stroke:#757167;"/><path d="M895.599,1481.98l346.645,0" style="fill:none;stroke-width:4.17px;stroke:#757167;"/><path d="M900.945,1532.46l344.9,0" style="fill:none;stroke-width:4.17px;stroke:#757167;"/><path d="M901.686,1593.3l338.547,0" style="fill:none;stroke-width:4.17px;stroke:#757167;"/><path d="M905.826,1646.64l325.241,0" style="fill:none;stroke-width:4.17px;stroke:#757167;"/><path d="M909.774,1698.25l309.33,0" style="fill:none;stroke-width:4.17px;stroke:#757167;"/><path d="M917.862,1759.09l309.065,0" style="fill:none;stroke-width:4.17px;stroke:#757167;"/><path d="M2057.37,1070.16l245.283,0" style="fill:none;stroke-width:4.17px;stroke:#757167;"/><path d="M2058.64,1133.94l389.553,0" style="fill:none;stroke-width:4.17px;stroke:#757167;"/><path d="M2053.3,1195.18l399.451,0" style="fill:none;stroke-width:4.17px;stroke:#757167;"/><path d="M2058.65,1254.21l398.117,0" style="fill:none;stroke-width:4.17px;stroke:#757167;"/><path d="M2056.77,1311.64l395.914,0" style="fill:none;stroke-width:4.17px;stroke:#757167;"/><path d="M2058.04,1379.43l390.632,0" style="fill:none;stroke-width:4.17px;stroke:#757167;"/><path d="M2064.46,1433.98l380.734,0" style="fill:none;stroke-width:4.17px;stroke:#757167;"/><path d="M2059.59,1510.46l379.591,0" style="fill:none;stroke-width:4.17px;stroke:#757167;"/><path d="M2062.92,1588.14l377.801,0" style="fill:none;stroke-width:4.17px;stroke:#757167;"/><path d="M2059.99,1676.79l377.188,0" style="fill:none;stroke-width:4.17px;stroke:#757167;"/><path d="M2059.85,1751.67l388.227,0" style="fill:none;stroke-width:4.17px;stroke:#757167;"/></g><g id="Layer4"><rect x="1004.09" y="1197.4" width="126.224" height="165.833" style="fill:#3b362b;"/><rect x="1006.12" y="1567.95" width="124.854" height="164.502" style="fill:#3b362b;"/><rect x="2174.81" y="1167.36" width="130.992" height="90.617" style="fill:#3b362b;"/><rect x="2179.43" y="1258.81" width="126.631" height="83.15" style="fill:#3b362b;"/><rect x="2180.45" y="1551.56" width="135.144" height="176.596" style="fill:#3b362b;"/><rect x="2204.7" y="1833.46" width="51.369" height="31.119" style="fill:#3b362b;"/><path d="M1644.1,1050.74c59.846,0 108.432,48.587 108.432,108.432c0,59.845 -216.863,59.845 -216.863,0c0,-59.845 48.586,-108.432 108.431,-108.432Z" style="fill:#3b362b;"/><path d="M1397.11,1132.05c18.539,0 33.591,15.052 33.591,33.591c0,18.539 -67.181,18.539 -67.181,0c0,-18.539 15.051,-33.591 33.59,-33.591Z" style="fill:#3b362b;"/><path d="M1909.69,1127.4c14.28,0 25.874,13.955 25.874,31.143c0,17.188 -51.748,17.188 -51.748,0c0,-17.188 11.594,-31.143 25.874,-31.143Z" style="fill:#3b362b;"/><rect x="1544.32" y="1166.67" width="202.483" height="176.415" style="fill:#3b362b;"/><rect x="1366.75" y="1171.33" width="55.684" height="178.824" style="fill:#3b362b;"/><rect x="1885.34" y="1163.31" width="45.953" height="173.765" style="fill:#3b362b;"/><path d="M1889.82,1507.57c20.721,0 37.545,17.306 37.545,38.623c0,21.317 -75.09,21.317 -75.09,0c0,-21.317 16.823,-38.623 37.545,-38.623Z" style="fill:#3b362b;"/><path d="M1397.24,1510.28c16.738,0 30.327,17.012 30.327,37.966c0,20.954 -60.653,20.954 -60.653,0c0,-20.954 13.589,-37.966 30.326,-37.966Z" style="fill:#3b362b;"/><rect x="1369.86" y="1552.04" width="54.679" height="179.374" style="fill:#3b362b;"/><rect x="1852.91" y="1548.41" width="74.081" height="179.033" style="fill:#3b362b;"/><rect x="1535.48" y="1515.73" width="216.333" height="27.694" style="fill:#3b362b;"/><g transform="matrix(3.37188,0,0,3.37188,-1103.97,-472.935)"><text x="749.002px" y="562.815px" style="font-family:Comic Sans MS;font-size:23.239px;font-weight:700;fill:#2b4519;">O</text><text x="767.554px" y="562.815px" style="font-family:Comic Sans MS;font-size:23.239px;font-weight:700;fill:#254162;">P</text><text x="779.934px" y="562.815px" style="font-family:Comic Sans MS;font-size:23.239px;font-weight:700;fill:#fcbe1f;">E</text><text x="794.448px" y="562.815px" style="font-family:Comic Sans MS;font-size:23.239px;font-weight:700;fill:#c54f39;">N</text><text x="813.341px" y="562.815px" style="font-family:Comic Sans MS;font-size:23.239px;font-weight:700;fill:#2b4519;">A</text><text x="830.339px" y="562.815px" style="font-family:Comic Sans MS;font-size:23.239px;font-weight:700;fill:#9d2727;">R</text><text x="845.215px" y="562.815px" style="font-family:Comic Sans MS;font-size:23.239px;font-weight:700;fill:#fcbe1f;">M</text><text x="865.731px" y="562.815px" style="font-family:Comic Sans MS;font-size:23.239px;font-weight:700;fill:#254162;">S</text></g><g transform="matrix(3.37188,0,0,3.37188,-1110.49,-474.772)"><text x="745.347px" y="582.534px" style="font-family:Comic Sans MS;font-size:13.794px;font-weight:700;fill:#fcbe1f;">C</text><text x="753.881px" y="582.534px" style="font-family:Comic Sans MS;font-size:13.794px;font-weight:700;fill:#c54f39;">H</text><text x="764.476px" y="582.534px" style="font-family:Comic Sans MS;font-size:13.794px;font-weight:700;fill:#9d2727;">I</text><text x="772.013px" y="582.534px" style="font-family:Comic Sans MS;font-size:13.794px;font-weight:700;fill:#2b4519;">L</text><text x="779.61px" y="582.534px" style="font-family:Comic Sans MS;font-size:13.794px;font-weight:700;fill:#254162;">D</text><text x="789.565px" y="582.534px" style="font-family:Comic Sans MS;font-size:13.794px;font-weight:700;fill:#fcbe1f;">C</text><text x="798.099px" y="582.534px" style="font-family:Comic Sans MS;font-size:13.794px;font-weight:700;fill:#9d2727;">A</text><text x="808.189px" y="582.534px" style="font-family:Comic Sans MS;font-size:13.794px;font-weight:700;fill:#254162;">R</text><text x="817.019px" y="582.534px" style="font-family:Comic Sans MS;font-size:13.794px;font-weight:700;fill:#c54f39;">E</text><text x="831.615px" y="582.534px" style="font-family:Comic Sans MS;font-size:13.794px;font-weight:700;fill:#254162;">C</text><text x="840.149px" y="582.534px" style="font-family:Comic Sans MS;font-size:13.794px;font-weight:700;fill:#fcbe1f;">E</text><text x="848.763px" y="582.534px" style="font-family:Comic Sans MS;font-size:13.794px;font-weight:700;fill:#c54f39;">N</text><text x="859.978px" y="582.534px" style="font-family:Comic Sans MS;font-size:13.794px;font-weight:700;fill:#254162;">T</text><text x="869.576px" y="582.534px" style="font-family:Comic Sans MS;font-size:13.794px;font-weight:700;fill:#9d2727;">E</text><text x="878.19px" y="582.534px" style="font-family:Comic Sans MS;font-size:13.794px;font-weight:700;fill:#2b4519;">R</text></g><rect x="1534.76" y="1547.48" width="221.441" height="244.972" style="fill:#979587;"/><rect x="1558.66" y="1565" width="63.511" height="203.74" style="fill:#3b362b;"/><rect x="1676.35" y="1569.35" width="65.857" height="199.241" style="fill:#3b362b;"/><path d="M1648.82,1549.23l0,226.609" style="fill:none;stroke-width:3.33px;stroke:#1e1e1b;"/><rect x="1530.52" y="1503.19" width="228.84" height="16.802" style="fill:#4e443a;"/></g><g id="Layer3"><path d="M1647.45,716.136l1.043,0.224l0.995,0.385l858.209,411.726l-5.875,12.245l-855.086,-410.228l-819.04,443.214l-3.231,-5.972l-3.232,-5.972l822.086,-444.863l0.975,-0.432l1.031,-0.275l1.061,-0.109l1.064,0.057Z" style="fill:#f2f2f2;"/><path d="M1232.25,1107.64l403.154,-222.282l411.928,200.692" style="fill:none;stroke-width:10.42px;stroke:#f2f2f2;"/><path d="M2043.08,1790.11l418.031,0" style="fill:none;stroke-width:3.96px;stroke:#f2f2f2;"/><path d="M2475.83,1181.36l0,679.459" style="fill:none;stroke-width:8.33px;stroke:#f2f2f2;"/><path d="M2520.08,1135.35c0.4,46.976 -43.525,3.499 -43.876,41.208" style="fill:none;stroke-width:8.33px;stroke:#f2f2f2;"/><path d="M2476.92,1172.61l-0.752,18.897" style="fill:none;stroke-width:8.33px;stroke:#f2f2f2;"/><path d="M809.944,1158.09l837.232,-450.236" style="fill:none;stroke-width:12.5px;stroke:#786858;"/><path d="M1648.41,708.866l863.637,412.805" style="fill:none;stroke-width:12.5px;stroke:#786858;"/><path d="M957.083,1008.26l130.944,-0.306l-202.291,110.107l71.347,-109.801Z" style="fill:#786858;stroke-width:12.5px;stroke:#786858;"/><path d="M2515.92,961.955l5.677,157.583l-366.421,-166.658l360.744,9.075Z" style="fill:#786858;stroke-width:12.5px;stroke:#786858;"/><path d="M1549.83,783.419l206.662,0" style="fill:none;stroke-width:4.17px;stroke:#322e28;"/><path d="M1651.56,728.485l98.423,53.257l-196.846,0l98.423,-53.257Z" style="fill:#786858;"/><path d="M1655.57,753.574l0.489,10.835l-0.977,0l0.488,-10.835Z" style="fill:#786858;"/><path d="M873.379,1150.57l0,638.314" style="fill:none;stroke-width:4.17px;stroke:#928c7d;"/><g><path d="M1066.53,1192.51l0,173.62" style="fill:none;stroke-width:10.42px;stroke:#f2f2f2;"/><path d="M1067.99,1563.7l0,172.519" style="fill:none;stroke-width:10.42px;stroke:#f2f2f2;"/><path d="M2241.49,1168.04l0,178.083" style="fill:none;stroke-width:10.42px;stroke:#f2f2f2;"/><path d="M2244.15,1548.55l0,178.001" style="fill:none;stroke-width:10.42px;stroke:#f2f2f2;"/><path d="M1647,1170.23l0,174.416" style="fill:none;stroke-width:10.42px;stroke:#f2f2f2;"/><path d="M1367.33,1549.34l55.371,0" style="fill:none;stroke-width:10.42px;stroke:#f2f2f2;"/><path d="M1924.62,1546.43l-81.475,0" style="fill:none;stroke-width:10.42px;stroke:#f2f2f2;"/><path d="M1001.36,1192.96l130.603,0l0,171.464l-129.761,0l-0.842,-171.464Z" style="fill:none;stroke-width:8.33px;stroke:#f2f2f2;"/><path d="M1003.21,1563.26l130.141,0l0,172.905l-130.897,0l0.756,-172.905Z" style="fill:none;stroke-width:8.33px;stroke:#f2f2f2;"/><path d="M2172.71,1166.72l137.053,0l0,175.476l-129.421,0l-7.632,-175.476Z" style="fill:none;stroke-width:8.33px;stroke:#f2f2f2;"/><path d="M2179.24,1549.59l135.578,0l0,178.636l-137.434,0l1.856,-178.636Z" style="fill:none;stroke-width:8.33px;stroke:#f2f2f2;"/><path d="M1422.62,1172.34l-53.049,0l0,177.627l51.659,0l1.39,-177.627Z" style="fill:none;stroke-width:8.33px;stroke:#f2f2f2;"/><path d="M1928.92,1162.09l-45.456,0l0,175.857l46.892,0l-1.436,-175.857Z" style="fill:none;stroke-width:8.33px;stroke:#f2f2f2;"/><path d="M1367.88,1548.83l0,183.951l58.536,0l0,-185.848" style="fill:none;stroke-width:8.33px;stroke:#f2f2f2;"/><path d="M1926.67,1544.75l0,182.976l-74.263,0l0,-182.135" style="fill:none;stroke-width:8.33px;stroke:#f2f2f2;"/><path d="M1543.68,1165.79l202.923,0l0,178.255l-201.655,0l-1.268,-178.255Z" style="fill:none;stroke-width:8.33px;stroke:#f2f2f2;"/><path d="M1547.52,1257l198.536,0" style="fill:none;stroke-width:8.33px;stroke:#f2f2f2;"/><path d="M1645.61,1165.81l0,-107.918" style="fill:none;stroke-width:4.17px;stroke:#f2f2f2;"/><path d="M1646.32,1161.42l-68.928,-68.928" style="fill:none;stroke-width:4.17px;stroke:#f2f2f2;"/><path d="M1646.28,1159.86l72.086,-72.087" style="fill:none;stroke-width:4.17px;stroke:#f2f2f2;"/><path d="M1032.31,1195.59l0,166.616" style="fill:none;stroke-width:4.17px;stroke:#f2f2f2;"/><path d="M1107.29,1195.08l0,168.219" style="fill:none;stroke-width:4.17px;stroke:#f2f2f2;"/><path d="M1002.32,1239.99l130.182,0" style="fill:none;stroke-width:4.17px;stroke:#f2f2f2;"/><path d="M1004.18,1280.94l128.326,0" style="fill:none;stroke-width:4.17px;stroke:#f2f2f2;"/><path d="M1002.28,1323.7l129.081,0" style="fill:none;stroke-width:4.17px;stroke:#f2f2f2;"/><path d="M1032.35,1565.68l0,167.417" style="fill:none;stroke-width:4.17px;stroke:#f2f2f2;"/><path d="M1108.13,1564.2l0,171.13" style="fill:none;stroke-width:4.17px;stroke:#f2f2f2;"/><path d="M1001.9,1609.58l130.897,0" style="fill:none;stroke-width:4.17px;stroke:#f2f2f2;"/><path d="M1004.85,1653.82l129,0" style="fill:none;stroke-width:4.17px;stroke:#f2f2f2;"/><path d="M1004.13,1692.23l126.51,0" style="fill:none;stroke-width:4.17px;stroke:#f2f2f2;"/><path d="M1398.6,1549.23l0,182.435" style="fill:none;stroke-width:4.17px;stroke:#f2f2f2;"/><path d="M1371.86,1601.06l53.348,0" style="fill:none;stroke-width:4.17px;stroke:#f2f2f2;"/><path d="M1371.44,1644.58l55.204,0" style="fill:none;stroke-width:4.17px;stroke:#f2f2f2;"/><path d="M1372.88,1691.35l54.19,0" style="fill:none;stroke-width:4.17px;stroke:#f2f2f2;"/><path d="M1396.4,1173.66l0,175.891" style="fill:none;stroke-width:4.17px;stroke:#f2f2f2;"/><path d="M1371.74,1306.75l50.137,0" style="fill:none;stroke-width:4.17px;stroke:#f2f2f2;"/><path d="M1374.35,1264.71l47.612,0" style="fill:none;stroke-width:4.17px;stroke:#f2f2f2;"/><path d="M1370.89,1218.24l53.048,0" style="fill:none;stroke-width:4.17px;stroke:#f2f2f2;"/><path d="M1397.41,1547.21l0,-27.118" style="fill:none;stroke-width:4.17px;stroke:#f2f2f2;"/><path d="M1399.1,1545.4l-16.491,-16.49" style="fill:none;stroke-width:4.17px;stroke:#f2f2f2;"/><path d="M1398,1545.78l16.868,-16.868" style="fill:none;stroke-width:4.17px;stroke:#f2f2f2;"/><path d="M1892.5,1545.02l24.143,-24.143" style="fill:none;stroke-width:4.17px;stroke:#f2f2f2;"/><path d="M1892.12,1547.21l-25.261,-25.261" style="fill:none;stroke-width:4.17px;stroke:#f2f2f2;"/><path d="M1890.65,1544.34l0,-29.689" style="fill:none;stroke-width:4.17px;stroke:#f2f2f2;"/><path d="M1397.29,1172.19l20.727,-20.728" style="fill:none;stroke-width:4.17px;stroke:#f2f2f2;"/><path d="M1398.05,1168.85l0,-27.158" style="fill:none;stroke-width:4.17px;stroke:#f2f2f2;"/><path d="M1398.85,1170.58l-18.47,-18.47" style="fill:none;stroke-width:4.17px;stroke:#f2f2f2;"/><path d="M1574.2,1167.63l0,172.605" style="fill:none;stroke-width:4.17px;stroke:#f2f2f2;"/><path d="M1610.04,1169.15l0,173.28" style="fill:none;stroke-width:4.17px;stroke:#f2f2f2;"/><path d="M1685.36,1169.11l0,173.701" style="fill:none;stroke-width:4.17px;stroke:#f2f2f2;"/><path d="M1716.86,1165.52l0,177.367" style="fill:none;stroke-width:4.17px;stroke:#f2f2f2;"/><path d="M1547.71,1318.01l200.098,0" style="fill:none;stroke-width:4.17px;stroke:#f2f2f2;"/><path d="M1545.68,1285.79l199.677,0" style="fill:none;stroke-width:4.17px;stroke:#f2f2f2;"/><path d="M1545.35,1225.07l199.21,0" style="fill:none;stroke-width:4.17px;stroke:#f2f2f2;"/><path d="M1546.03,1198.71l199.551,0" style="fill:none;stroke-width:4.17px;stroke:#f2f2f2;"/><path d="M1885.19,1298.19l46.597,0" style="fill:none;stroke-width:4.17px;stroke:#f2f2f2;"/><path d="M1885.02,1256.82l45.041,0" style="fill:none;stroke-width:4.17px;stroke:#f2f2f2;"/><path d="M1885.82,1209.59l43.9,0" style="fill:none;stroke-width:4.17px;stroke:#f2f2f2;"/><path d="M1906.74,1163.84l0,170.456" style="fill:none;stroke-width:4.17px;stroke:#f2f2f2;"/><path d="M1905.35,1160.33l20.892,-20.891" style="fill:none;stroke-width:4.17px;stroke:#f2f2f2;"/><path d="M1906.02,1158.82l0,-28.588" style="fill:none;stroke-width:4.17px;stroke:#f2f2f2;"/><path d="M1907.84,1157.21l-20.327,-20.327" style="fill:none;stroke-width:4.17px;stroke:#f2f2f2;"/><path d="M2207.17,1168.1l0,171.885" style="fill:none;stroke-width:4.17px;stroke:#f2f2f2;"/><path d="M2177.57,1304.86l63.673,0" style="fill:none;stroke-width:4.17px;stroke:#f2f2f2;"/><path d="M2179.42,1257.67l132.079,0" style="fill:none;stroke-width:4.17px;stroke:#f2f2f2;"/><path d="M2181.57,1305.15l128.326,0" style="fill:none;stroke-width:4.17px;stroke:#f2f2f2;"/><path d="M2176.46,1213.39l135.244,0" style="fill:none;stroke-width:4.17px;stroke:#f2f2f2;"/><path d="M2277.68,1167.22l0,172.605" style="fill:none;stroke-width:4.17px;stroke:#f2f2f2;"/><path d="M2211.81,1552.07l0,173.027" style="fill:none;stroke-width:4.17px;stroke:#f2f2f2;"/><path d="M2287.88,1551.48l0,174.456" style="fill:none;stroke-width:4.17px;stroke:#f2f2f2;"/><path d="M2180.35,1596.89l133.808,0" style="fill:none;stroke-width:4.17px;stroke:#f2f2f2;"/><path d="M2179.55,1640.45l135.998,0" style="fill:none;stroke-width:4.17px;stroke:#f2f2f2;"/><path d="M2180.26,1682.42l134.489,0" style="fill:none;stroke-width:4.17px;stroke:#f2f2f2;"/><path d="M1892.15,1547.93l0,178.128" style="fill:none;stroke-width:4.17px;stroke:#f2f2f2;"/><path d="M1856.69,1593.27l71.351,0" style="fill:none;stroke-width:4.17px;stroke:#f2f2f2;"/><path d="M1853.02,1635.31l74.978,0" style="fill:none;stroke-width:4.17px;stroke:#f2f2f2;"/><path d="M1856.01,1685.79l72.447,0" style="fill:none;stroke-width:4.17px;stroke:#f2f2f2;"/><path d="M1535.87,1546.77l220.396,0" style="fill:none;stroke-width:4.17px;stroke:#f2f2f2;"/><path d="M1585.94,1517.75l0,28.577" style="fill:none;stroke-width:4.17px;stroke:#f2f2f2;"/><path d="M1614.42,1518.45l0,27.933" style="fill:none;stroke-width:4.17px;stroke:#f2f2f2;"/><path d="M1650.08,1518.06l0,28.153" style="fill:none;stroke-width:4.17px;stroke:#f2f2f2;"/><path d="M1684.71,1515.99l0,28.518" style="fill:none;stroke-width:4.17px;stroke:#f2f2f2;"/><path d="M1722.36,1517.48l0,29.005" style="fill:none;stroke-width:4.17px;stroke:#f2f2f2;"/><path d="M1558.28,1564.92l64.003,0l0,206.842l-62.325,0l-1.678,-206.842Z" style="fill:none;stroke-width:4.17px;stroke:#f2f2f2;"/><path d="M1581.1,1568.67l0,200.825" style="fill:none;stroke-width:4.17px;stroke:#f2f2f2;"/><path d="M1604.7,1566.62l0,204.795" style="fill:none;stroke-width:4.17px;stroke:#f2f2f2;"/><path d="M1560.57,1609.9l61.228,0" style="fill:none;stroke-width:4.17px;stroke:#f2f2f2;"/><path d="M1561.84,1649.6l60.423,0" style="fill:none;stroke-width:4.17px;stroke:#f2f2f2;"/><path d="M1675.6,1569.33l0,207.085l68.56,0l0,-208.424l-68.56,1.339Z" style="fill:none;stroke-width:4.17px;stroke:#f2f2f2;"/><path d="M1696.88,1571.79l0,203.699" style="fill:none;stroke-width:4.17px;stroke:#f2f2f2;"/><path d="M1719.87,1569.43l0,207.131" style="fill:none;stroke-width:4.17px;stroke:#f2f2f2;"/><path d="M1678.06,1610l67.168,0" style="fill:none;stroke-width:4.17px;stroke:#f2f2f2;"/><path d="M1677.42,1650.36l67.122,0" style="fill:none;stroke-width:4.17px;stroke:#f2f2f2;"/><path d="M636.147,1711.01l0,137.38" style="fill:none;stroke-width:14.58px;stroke:#f2f2f2;"/><path d="M695.794,1713.16l0,133.966" style="fill:none;stroke-width:14.58px;stroke:#f2f2f2;"/><path d="M818.832,1708.56l0,136.541" style="fill:none;stroke-width:14.58px;stroke:#f2f2f2;"/><path d="M1103.26,1818.06l0,-126.181" style="fill:none;stroke-width:14.58px;stroke:#f2f2f2;"/><path d="M1395.58,1790.51l0,-126.213" style="fill:none;stroke-width:14.58px;stroke:#f2f2f2;"/><path d="M1586.99,1785.24l0,-124.593" style="fill:none;stroke-width:14.58px;stroke:#f2f2f2;"/><path d="M1781.46,1790.66l0,-128.993" style="fill:none;stroke-width:14.58px;stroke:#f2f2f2;"/><path d="M1921.84,1880.52l0,-132.226" style="fill:none;stroke-width:14.58px;stroke:#f2f2f2;"/><path d="M636.486,1729.64l58.686,0" style="fill:none;stroke-width:14.58px;stroke:#f2f2f2;"/><path d="M636.785,1758.2l59.497,0" style="fill:none;stroke-width:14.58px;stroke:#f2f2f2;"/><path d="M635.557,1791.14l58.956,0" style="fill:none;stroke-width:14.58px;stroke:#f2f2f2;"/><path d="M636.904,1827.22l58.416,0" style="fill:none;stroke-width:14.58px;stroke:#f2f2f2;"/><path d="M698.762,1728.59l118.878,-3.381" style="fill:none;stroke-width:14.58px;stroke:#f2f2f2;"/><path d="M698.197,1759.52l119.145,0.777" style="fill:none;stroke-width:14.58px;stroke:#f2f2f2;"/><path d="M694.603,1791.5l119.681,-3.893" style="fill:none;stroke-width:14.58px;stroke:#f2f2f2;"/><path d="M699.004,1828.57l120.97,-2.362" style="fill:none;stroke-width:14.58px;stroke:#f2f2f2;"/><path d="M821.112,1827.01l281.858,-27.22" style="fill:none;stroke-width:14.58px;stroke:#f2f2f2;"/><path d="M1105.36,1716.43l290.152,-36.651" style="fill:none;stroke-width:14.58px;stroke:#f2f2f2;"/><path d="M1104.08,1715.83l-284.163,8.293" style="fill:none;stroke-width:14.58px;stroke:#f2f2f2;"/><path d="M821.23,1757.82l281.646,-14.794" style="fill:none;stroke-width:14.58px;stroke:#f2f2f2;"/><path d="M1105.15,1741.71l289.374,-30.721" style="fill:none;stroke-width:14.58px;stroke:#f2f2f2;"/><path d="M817.542,1788.42l284.22,-11.678" style="fill:none;stroke-width:14.58px;stroke:#f2f2f2;"/><path d="M1103.98,1775.18l288.415,-35.841" style="fill:none;stroke-width:14.58px;stroke:#f2f2f2;"/><path d="M1104.85,1802.16l288.415,-27.786" style="fill:none;stroke-width:14.58px;stroke:#f2f2f2;"/><path d="M1394.58,1774.11l191.58,-2.845" style="fill:none;stroke-width:14.58px;stroke:#f2f2f2;"/><path d="M1396.86,1739.07l190.557,0.778" style="fill:none;stroke-width:14.58px;stroke:#f2f2f2;"/><path d="M1396.64,1708.44l189.214,-2.067" style="fill:none;stroke-width:14.58px;stroke:#f2f2f2;"/><path d="M1396.44,1673.64l190.261,3.892" style="fill:none;stroke-width:14.58px;stroke:#f2f2f2;"/><path d="M1589.74,1679l193.074,-1.797" style="fill:none;stroke-width:14.58px;stroke:#f2f2f2;"/><path d="M1586.9,1708.62l195.71,1.048" style="fill:none;stroke-width:14.58px;stroke:#f2f2f2;"/><path d="M1585.82,1736.89l194.9,2.333" style="fill:none;stroke-width:14.58px;stroke:#f2f2f2;"/><path d="M1584.98,1771.38l197.237,0.508" style="fill:none;stroke-width:14.58px;stroke:#f2f2f2;"/><path d="M1782.22,1771.89l138.608,90.609" style="fill:none;stroke-width:14.58px;stroke:#f2f2f2;"/><path d="M1781.77,1739.46l138.849,89.292" style="fill:none;stroke-width:14.58px;stroke:#f2f2f2;"/><path d="M1783.87,1707.51l137.081,88.575" style="fill:none;stroke-width:14.58px;stroke:#f2f2f2;"/><path d="M1783.39,1673.53l139.897,85.158" style="fill:none;stroke-width:14.58px;stroke:#f2f2f2;"/></g><path d="M1312.7,1177.81l-48.641,0" style="fill:none;stroke-width:8.33px;stroke:#6d4a30;"/><path d="M1313.64,1227.69l-50.256,0" style="fill:none;stroke-width:4.17px;stroke:#7d573a;"/><path d="M1312.59,1278.24l-50.857,0" style="fill:none;stroke-width:4.17px;stroke:#7d573a;"/><path d="M1316.23,1330.72l-51.87,0" style="fill:none;stroke-width:4.17px;stroke:#7d573a;"/><path d="M1316.46,1381.27l-50.255,0" style="fill:none;stroke-width:4.17px;stroke:#7d573a;"/><path d="M1314.16,1431.8l-49.988,0" style="fill:none;stroke-width:4.17px;stroke:#7d573a;"/><path d="M1311.12,1479.72l-45.704,0" style="fill:none;stroke-width:4.17px;stroke:#7d573a;"/><path d="M1312.96,1534.11l-49.618,0" style="fill:none;stroke-width:4.17px;stroke:#7d573a;"/><path d="M1311.61,1581.1l-45.633,0" style="fill:none;stroke-width:4.17px;stroke:#7d573a;"/><path d="M1311.95,1635.15l-47.288,0" style="fill:none;stroke-width:4.17px;stroke:#7d573a;"/><path d="M2031.82,1160.77l-52.549,0" style="fill:none;stroke-width:4.17px;stroke:#7d573a;"/><path d="M2034.57,1215.2l-53.155,0" style="fill:none;stroke-width:4.17px;stroke:#7d573a;"/><path d="M2033.93,1265.38l-50.589,0" style="fill:none;stroke-width:4.17px;stroke:#7d573a;"/><path d="M2032.92,1316.95l-50.183,0" style="fill:none;stroke-width:4.17px;stroke:#7d573a;"/><path d="M2034.91,1366.83l-54.847,0" style="fill:none;stroke-width:4.17px;stroke:#7d573a;"/><path d="M2032.88,1417.05l-49.957,0" style="fill:none;stroke-width:4.17px;stroke:#7d573a;"/><path d="M2028.97,1468.59l-47.926,0" style="fill:none;stroke-width:4.17px;stroke:#7d573a;"/><path d="M2036.83,1521.4l-51.571,0" style="fill:none;stroke-width:4.17px;stroke:#7d573a;"/><path d="M2030.92,1572.9l-44.085,0" style="fill:none;stroke-width:4.17px;stroke:#7d573a;"/><path d="M2032.88,1623.49l-46.044,0" style="fill:none;stroke-width:4.17px;stroke:#7d573a;"/><path d="M2037.5,1679.27l-52.847,0" style="fill:none;stroke-width:4.17px;stroke:#7d573a;"/><path d="M2033.86,1731.45l-49.314,0" style="fill:none;stroke-width:4.17px;stroke:#7d573a;"/><path d="M2038.68,1775.16l-54.771,0" style="fill:none;stroke-width:4.17px;stroke:#7d573a;"/><path d="M2042.32,1822.82l-51.911,0" style="fill:none;stroke-width:4.17px;stroke:#7d573a;"/><path d="M2069,1115.32l0,758.648" style="fill:none;stroke-width:6.25px;stroke:#7d573a;"/><path d="M1638.64,891.126l131.091,64.35l-260.321,3.66l129.23,-68.01Z" style="fill:#786858;"/><path d="M592.071,1846.87l204.482,3.029l598.081,-58.723l384.846,-1.158l147.496,98.624" style="fill:none;stroke-width:8.33px;stroke:#6d4a30;"/><path d="M1925.98,1912.3l-0.756,-23.949" style="fill:none;stroke-width:8.33px;stroke:#6d4a30;"/></g></g><g><g><rect x="2668.23" y="876.399" width="221.927" height="1039.47" style="fill:#4e443a;"/><path d="M2577.36,1937.52l401.017,-28.962l-218.028,-115.877c0,0 -169.288,161.554 -182.989,144.839Z" style="fill:#4e443a;stroke-width:4.17px;stroke:#4e443a;"/><path d="M2890.16,876.399c0,0 41.247,-197.176 -11.549,-214.978c-2.043,-2.406 -88.064,-107.729 -20.833,-312.5c-35.21,-11.561 -125,62.5 -125,62.5c0,0 46.408,226.643 14.098,218.664c-3.938,-4.308 -15.382,39.71 -124.044,-160.609c3.2,-6.771 -40.554,5.516 -40.554,5.516l60.093,122.531c0,0 -31.721,22.97 -123.825,-40.416c-348.882,-400.34 -449.203,-360.878 -473.268,-354.02c2.552,-4.24 523.432,500.284 579.737,488.625c-0.139,-1.835 45.263,184.687 45.263,184.687l219.882,0Z" style="fill:#4e443a;stroke-width:4.17px;stroke-linecap:round;stroke:#4e443a;"/></g><g><rect x="91.83" y="726.632" width="221.927" height="1039.47" style="fill:#4e443a;"/><path d="M404.626,1787.75l-401.018,-28.962l218.029,-115.877c0,0 169.288,161.554 182.989,144.839Z" style="fill:#4e443a;stroke-width:4.17px;stroke:#4e443a;"/><path d="M91.83,726.632c0,0 -2.598,-114.261 -4.888,-214.978c2.405,-36.077 -17.395,-109.476 37.271,-312.5c35.21,-11.561 125,62.5 125,62.5c0,0 -46.408,226.643 -14.098,218.664c3.937,-4.308 15.382,39.71 124.044,-160.609c-3.2,-6.771 40.554,5.516 40.554,5.516l-60.093,122.531c0,0 31.721,22.97 123.825,-40.416c348.882,-400.34 266.098,-281.805 290.163,-274.947c-2.552,-4.24 -340.327,421.211 -396.632,409.552c0.139,-1.835 -45.263,184.687 -45.263,184.687l-219.883,0Z" style="fill:#4e443a;stroke-width:4.17px;stroke-linecap:round;stroke:#4e443a;"/></g><path d="M2294.17,218.399c0,0 44.227,272.584 323.322,260.937c279.095,-11.646 290.812,-266.883 290.812,-266.883c0,0 24.28,-210.925 178.64,-209.366c100.266,1.013 -1314.41,-0.891 -1758.27,-0.496c-269.746,0.24 27.019,51.409 49.675,74.726c0.099,-2.194 -7.068,231.643 204.488,300.188c211.556,68.546 377.763,-130.243 377.763,-130.243l43.493,-32.649c0,0 72.781,87.963 290.078,3.786Z" style="fill:#109d59;"/><path id="(Curve)" d="M1010.89,218.399c0,0 44.227,272.584 323.322,260.937c279.095,-11.646 290.811,-266.883 290.811,-266.883c0,0 345.423,-212.546 189.697,-212.453c-74.324,0.044 -1529.8,0.656 -1806.94,1.004c-29.497,0.037 61.954,50.235 87.293,76.313c0.099,-2.194 -7.068,231.643 204.488,300.188c211.555,68.546 377.762,-130.243 377.762,-130.243l43.494,-32.649c0,0 72.78,87.963 290.078,3.786Z" style="fill:#109d59;"/></g><g transform="matrix(3.13133,0,0,3.13133,357.09,163.452)"><text x="147.048px" y="632.783px" style="font-family:Hobo Std;font-size:51.877px;font-weight:500;fill:#fff;">VOTED 2016 TOP 3</text><text x="58.546px" y="702.533px" style="font-family:Hobo Std;font-size:51.877px;font-weight:500;fill:#fff;">PRESCHOOL OR DA<tspan x="532.959px " y="702.533px ">Y</tspan>CARE</text><text x="46.225px" y="772.284px" style="font-family:Hobo Std;font-size:51.877px;font-weight:500;fill:#fff;">IN THE NEW RIVER VALLEY</text></g></svg>