<?xml version="1.0" encoding="UTF-8" standalone="no"?><!DOCTYPE svg PUBLIC "-//W3C//DTD SVG 1.1//EN" "http://www.w3.org/Graphics/SVG/1.1/DTD/svg11.dtd"><svg width="100%" height="100%" viewBox="0 0 298 296" version="1.1" xmlns="http://www.w3.org/2000/svg" xmlns:xlink="http://www.w3.org/1999/xlink" xml:space="preserve" style="fill-rule:evenodd;clip-rule:evenodd;stroke-linejoin:round;stroke-miterlimit:1.41421;"><g><path d="M120.468,188.19c-3.446,-3.058 -7.029,-6.108 -11.162,-8.995c-1.454,-1.03 -2.271,-1.751 -2.559,-2.038c-12.454,-12.683 -0.079,-36.283 17.696,-54.063l0.738,-0.729c11.233,-11.083 28.129,-22.9 41.916,-22.795c6.734,0.045 10.905,2.858 13.23,5.216c0.225,0.238 0.966,1.084 1.979,2.592c2.762,4.079 5.687,7.608 8.633,11.025c25.846,-33.238 38.008,-62.3 28.067,-72.417c-13.609,-13.8 -63.434,13.138 -111.242,60.175c-47.817,47.092 -75.508,96.454 -61.937,110.3c10.145,10.275 40.229,-1.983 74.641,-28.271l0,0Z" style="fill:#fff;fill-rule:nonzero;"/><g><path d="M70.231,70.149c-2.634,2.6 -4.771,5.487 -6.671,8.479c1.283,-0.513 2.558,-1.046 3.767,-1.754c8.066,-4.721 18.491,-2.042 23.262,6c3.913,6.704 2.825,15.158 -2.629,20.604c-1.025,1.029 -2.175,1.933 -3.442,2.654c-8.262,4.892 -17.421,7.408 -26.758,8.004c1.679,7.096 4.837,13.921 9.892,19.758c8.987,-11.258 19.52,-23.016 31.279,-34.566c11.737,-11.588 23.637,-21.95 35.091,-30.729c-18.254,-16.267 -46.154,-15.805 -63.791,1.55l0,0Z" style="fill:#fff;fill-rule:nonzero;"/><path d="M40.268,105.84c13.917,3.613 28.409,1.592 40.75,-5.704c4.792,-2.783 6.379,-8.95 3.592,-13.725c-2.829,-4.771 -8.971,-6.35 -13.75,-3.546c-7.763,4.575 -16.829,5.85 -25.533,3.596c-8.738,-2.287 -16.059,-7.808 -20.617,-15.571c-9.429,-16.016 -4.092,-36.762 11.962,-46.179c7.759,-4.575 16.846,-5.841 25.525,-3.579c6.284,1.625 11.775,4.988 16.104,9.604c0.73,0.779 1.346,1.625 1.984,2.454c0.675,0.871 1.371,1.738 1.971,2.692c3.141,5.054 4.841,10.742 5.083,16.508c6.458,-1.945 13.15,-2.662 19.829,-2.145c-0.512,-7.738 -2.804,-15.317 -6.571,-22.305c-0.183,-0.466 -0.225,-0.962 -0.487,-1.408c-0.317,-0.542 -0.763,-0.987 -1.1,-1.508c-0.892,-1.417 -1.934,-2.759 -2.975,-4.096c-1.042,-1.354 -2.063,-2.729 -3.225,-3.971c-0.267,-0.283 -0.446,-0.604 -0.725,-0.879l-0.113,0.108c-6.762,-6.891 -15.162,-11.962 -24.716,-14.441c-13.884,-3.613 -28.38,-1.571 -40.75,5.716c-3.909,2.296 -7.392,4.988 -10.471,8.009c-17.15,16.879 -21.367,43.937 -8.629,65.62c7.291,12.35 18.937,21.167 32.862,24.75l0,0Z" style="fill:#fff;fill-rule:nonzero;"/></g><path d="M276.197,274.832c-0.137,0.137 -0.283,0.283 -0.433,0.433c-28.258,27.821 -73.704,27.467 -101.538,-0.783c-13.691,-13.921 -20.554,-32.033 -20.575,-50.15c-0.025,-0.046 -0.025,-0.104 -0.025,-0.121c-3.783,-32.142 -38.429,-53.342 -39.445,-54.358c-5.971,-6.092 1.904,-23.65 17.633,-39.388c0.225,-0.225 0.454,-0.454 0.692,-0.683c16.183,-15.979 34.304,-23.867 40.375,-17.696c1.004,1.017 21.637,36 53.716,40.267c0.054,0.012 0.088,0.025 0.125,0.025c18.125,0.375 36.117,7.454 49.834,21.391c27.654,28.113 27.462,73.246 -0.359,101.063m-89.787,-21.417c-2.583,2.584 -2.563,6.767 -0.008,9.375c21.241,21.575 56.091,21.842 77.683,0.613c0.008,-0.008 0.017,-0.017 0.029,-0.029c2.596,-2.6 2.617,-6.825 0.025,-9.425c-2.571,-2.638 -6.829,-2.688 -9.462,-0.079c-16.313,16.05 -42.688,15.887 -58.751,-0.48c-2.579,-2.616 -6.808,-2.645 -9.454,-0.041c-0.016,0.021 -0.045,0.046 -0.062,0.066" style="fill:#fff;fill-rule:nonzero;"/></g></svg>