<?xml version="1.0" standalone="no"?><!DOCTYPE svg PUBLIC "-//W3C//DTD SVG 1.1//EN" "http://www.w3.org/Graphics/SVG/1.1/DTD/svg11.dtd"><svg width="100%" height="100%" viewBox="0 0 5000 5000" version="1.1" xmlns="http://www.w3.org/2000/svg" xmlns:xlink="http://www.w3.org/1999/xlink" xml:space="preserve" style="fill-rule:evenodd;clip-rule:evenodd;stroke-linejoin:round;stroke-miterlimit:1.41421;"><g><path d="M1434.52,795.291c0,193.428 -157.477,350.33 -351.095,350.33c-193.906,0 -351.095,-156.854 -351.095,-350.33c0,-193.618 157.189,-350.473 351.095,-350.473c193.571,0 351.095,156.855 351.095,350.473Z" style="fill:#109d59;fill-rule:nonzero;"/><path d="M1120.14,3196.45l75.965,1293.85c0,44.843 36.716,82.181 81.846,82.181c45.464,0 82.515,-37.338 82.515,-82.181l70.037,-1293.85l228.757,0l-236.215,-1450.42l476.206,948.349c17.402,41.735 65.687,61.623 107.662,43.887c41.735,-17.737 61.623,-65.639 43.887,-107.997c0,0 -348.896,-943.711 -435.427,-1119.59c-86.196,-176.025 -170.862,-282.922 -498.628,-282.922l-66.929,0c-326.809,0 -412.384,106.897 -498.293,282.922c-85.91,175.882 -435.14,1119.59 -435.14,1119.59c-18.023,42.358 1.577,90.26 42.931,107.997c42.022,17.736 90.259,-2.152 108.33,-43.887l476.206,-948.349l-236.836,1450.42l228.47,0l70.946,1293.85c0,44.843 37.05,82.181 81.845,82.181c46.373,0 83.089,-37.338 83.089,-82.181l70.659,-1293.85l78.117,0Z" style="fill:#109d59;fill-rule:nonzero;"/><path d="M3916.47,443.862c-193.953,0 -351.43,156.711 -351.43,350.473c0,193.762 157.477,350.617 351.43,350.617c193.284,0 350.139,-156.855 350.139,-350.617c0,-193.762 -156.855,-350.473 -350.139,-350.473Z" style="fill:#109d59;fill-rule:nonzero;"/><path d="M4279.95,2507.6l23.33,-762.571l428.303,948.683c17.736,41.401 66.308,61.624 107.996,43.553c42.357,-18.024 61.958,-65.974 44.222,-108.331c0,0 -301.615,-943.711 -387.811,-1119.26c-86.244,-175.834 -219.1,-282.779 -546.244,-282.779l-67.216,0c-327.144,0 -460.334,106.897 -546.578,282.779c-85.623,175.548 -387.237,1119.26 -387.237,1119.26c-17.737,42.357 1.577,90.307 43.6,108.331c42.022,18.071 90.594,-2.152 107.374,-43.553l428.925,-948.683l23.33,762.571l-67.551,1917.3c-4.685,75.966 52.301,141.94 127.597,146.911c3.729,0.622 7.171,0.622 9.991,0.622c71.902,0 132.569,-55.408 138.21,-128.266l155.326,-1578.97l157.141,1578.97c4.399,72.81 65.353,128.266 136.633,128.266c3.394,0 6.549,0 9.944,-0.622c76.3,-4.971 132.569,-70.945 127.931,-146.911l-67.79,-1917.3l0.574,0Z" style="fill:#109d59;fill-rule:nonzero;"/><path d="M2499.61,2575.43c-119.231,0 -215.705,95.901 -215.705,214.797c0,118.848 96.474,214.749 215.705,214.749c118.896,0 215.419,-95.901 215.419,-214.749c0,-118.896 -96.523,-214.797 -215.419,-214.797Z" style="fill:#109d59;fill-rule:nonzero;"/><path d="M2499.61,3842.27c0,0 96.762,672.884 96.762,673.553c13.386,32.939 44.221,56.652 81.893,56.652c38.628,0 70.946,-25.816 82.754,-61.002c0.669,-1.865 2.821,-41.688 0.669,-48.237l-39.871,-827.015l12.813,-283.878c11.186,-96.522 13.338,-67.551 122.912,-133.238c112.394,-67.217 302.857,-362.903 312.18,-377.246c9.322,-14.915 26.437,-40.779 29.879,-57.225c5.593,-29.879 -13.721,-58.229 -43.265,-64.157c-22.422,-3.729 -41.401,8.128 -55.696,23.665c-14.676,15.872 -234.063,308.116 -398.71,336.131c-37.051,-5.259 -76.874,-24.907 -181.811,-24.907l-41.401,0c-104.267,0 -144.138,19.601 -181.475,24.907c-164.648,-28.015 -384.082,-320.259 -399.332,-336.131c-14.008,-15.537 -32.366,-27.394 -55.074,-23.665c-29.593,5.928 -49.194,34.278 -43.266,64.157c3.108,16.494 20.558,42.31 29.88,57.225c9.657,14.343 200.455,309.981 312.18,377.246c109.861,65.687 112.394,36.764 122.96,133.238l12.477,283.878l-39.536,827.015c-2.151,6.549 0,46.372 1.578,48.237c11.521,35.186 43.265,61.002 82.18,61.002c37.05,0 68.794,-23.665 81.224,-56.652c0,-0.621 97.096,-673.553 97.096,-673.553" style="fill:#109d59;fill-rule:nonzero;"/></g></svg>