<?xml version="1.0" standalone="no"?><!DOCTYPE svg PUBLIC "-//W3C//DTD SVG 1.1//EN" "http://www.w3.org/Graphics/SVG/1.1/DTD/svg11.dtd"><svg width="100%" height="100%" viewBox="0 0 20834 20834" version="1.1" xmlns="http://www.w3.org/2000/svg" xmlns:xlink="http://www.w3.org/1999/xlink" xml:space="preserve" style="fill-rule:evenodd;clip-rule:evenodd;stroke-linejoin:round;stroke-miterlimit:1.41421;"><g><path d="M5977.17,3313.71c0,805.95 -656.155,1459.71 -1462.9,1459.71c-807.942,0 -1462.9,-653.559 -1462.9,-1459.71c0,-806.742 654.954,-1460.31 1462.9,-1460.31c806.546,0 1462.9,653.563 1462.9,1460.31l0,0Z" style="fill:#fff;fill-rule:nonzero;"/><path d="M4667.25,13318.5l316.521,5391.04c0,186.846 152.983,342.421 341.025,342.421c189.433,0 343.812,-155.575 343.812,-342.421l291.821,-5391.04l953.154,0l-984.229,-6043.42l1984.19,3951.45c72.508,173.896 273.696,256.763 448.592,182.863c173.895,-73.904 256.762,-273.496 182.862,-449.988c0,0 -1453.73,-3932.13 -1814.28,-4664.96c-359.15,-733.438 -711.925,-1178.84 -2077.62,-1178.84l-278.871,0c-1361.7,0 -1718.27,445.404 -2076.22,1178.84c-357.959,732.842 -1813.08,4664.96 -1813.08,4664.96c-75.096,176.492 6.571,376.084 178.879,449.988c175.092,73.9 376.08,-8.967 451.375,-182.863l1984.19,-3951.45l-986.817,6043.42l951.959,0l295.608,5391.04c0,186.846 154.375,342.421 341.021,342.421c193.221,0 346.204,-155.575 346.204,-342.421l294.413,-5391.04l325.487,0Z" style="fill:#fff;fill-rule:nonzero;"/><path d="M16318.6,1849.42c-808.137,0 -1464.29,652.963 -1464.29,1460.3c0,807.342 656.155,1460.9 1464.29,1460.9c805.35,0 1458.91,-653.562 1458.91,-1460.9c0,-807.341 -653.562,-1460.3 -1458.91,-1460.3l0,0Z" style="fill:#fff;fill-rule:nonzero;"/><path d="M17833.1,10448.3l97.208,-3177.38l1784.6,3952.85c73.9,172.504 276.284,256.767 449.983,181.471c176.488,-75.1 258.159,-274.892 184.259,-451.379c0,0 -1256.73,-3932.13 -1615.88,-4663.58c-359.35,-732.641 -912.917,-1178.25 -2276.02,-1178.25l-280.067,0c-1363.1,0 -1918.06,445.405 -2277.41,1178.25c-356.763,731.45 -1613.49,4663.58 -1613.49,4663.58c-73.904,176.487 6.571,376.279 181.667,451.379c175.092,75.296 377.475,-8.967 447.392,-181.471l1787.19,-3952.85l97.209,3177.38l-281.463,7988.75c-19.521,316.525 217.921,591.417 531.654,612.129c15.538,2.592 29.879,2.592 41.629,2.592c299.592,0 552.371,-230.867 575.875,-534.442l647.192,-6579.04l654.754,6579.04c18.329,303.375 272.304,534.442 569.304,534.442c14.142,0 27.288,0 41.434,-2.592c317.916,-20.712 552.371,-295.604 533.046,-612.129l-282.459,-7988.75l2.392,0Z" style="fill:#fff;fill-rule:nonzero;"/><path d="M10415,10731c-496.796,0 -898.771,399.588 -898.771,894.988c0,495.2 401.975,894.787 898.771,894.787c495.4,0 897.579,-399.587 897.579,-894.787c0,-495.4 -402.179,-894.988 -897.579,-894.988Z" style="fill:#fff;fill-rule:nonzero;"/><path d="M10415,16009.5c0,0 403.175,2803.68 403.175,2806.47c55.775,137.246 184.254,236.05 341.221,236.05c160.95,0 295.608,-107.566 344.808,-254.175c2.787,-7.771 11.754,-173.7 2.787,-200.987l-166.129,-3445.9l53.388,-1182.83c46.608,-402.175 55.575,-281.463 512.133,-555.158c468.308,-280.071 1261.9,-1512.1 1300.75,-1571.86c38.842,-62.146 110.154,-169.912 124.496,-238.437c23.304,-124.496 -57.171,-242.621 -180.271,-267.321c-93.425,-15.538 -172.504,33.867 -232.067,98.604c-61.15,66.133 -975.262,1283.82 -1661.29,1400.55c-154.379,-21.913 -320.309,-103.779 -757.546,-103.779l-172.504,0c-434.446,0 -600.575,81.671 -756.146,103.779c-686.033,-116.729 -1600.34,-1334.41 -1663.88,-1400.55c-58.367,-64.737 -134.859,-114.142 -229.475,-98.604c-123.305,24.7 -204.975,142.825 -180.275,267.321c12.95,68.725 85.658,176.291 124.5,238.437c40.237,59.763 835.229,1291.59 1300.75,1571.86c457.754,273.695 468.308,153.183 512.333,555.158l51.987,1182.83l-164.733,3445.9c-8.962,27.287 0,193.216 6.575,200.987c48.004,146.608 180.271,254.175 342.417,254.175c154.375,0 286.641,-98.604 338.433,-236.05c0,-2.587 404.567,-2806.47 404.567,-2806.47" style="fill:#fff;fill-rule:nonzero;"/></g></svg>