<?xml version="1.0" standalone="no"?><!DOCTYPE svg PUBLIC "-//W3C//DTD SVG 1.1//EN" "http://www.w3.org/Graphics/SVG/1.1/DTD/svg11.dtd"><svg width="100%" height="100%" viewBox="0 0 700 700" version="1.1" xmlns="http://www.w3.org/2000/svg" xmlns:xlink="http://www.w3.org/1999/xlink" xml:space="preserve" style="fill-rule:evenodd;clip-rule:evenodd;stroke-linejoin:round;stroke-miterlimit:1.41421;"><path d="M240.131,419.83c71.714,86.78 246.48,169.945 288.665,151.263c42.185,-18.682 51.225,-59.059 49.417,-77.741c-1.808,-18.682 -97.628,-75.933 -121.734,-86.78c-24.106,-10.848 -51.827,24.106 -65.085,39.172c-13.861,14.463 -66.893,-29.53 -89.794,-51.828c0,0 -60.264,-67.495 -46.403,-81.959c13.861,-14.463 48.211,-43.39 36.158,-66.893c-12.053,-23.503 -72.919,-117.515 -92.204,-118.72c-18.682,-1.206 -58.456,9.642 -75.33,52.429c-16.874,42.788 63.88,206.104 153.674,274.202" style="fill:#fff;fill-rule:nonzero;"/></svg>