<?xml version="1.0" standalone="no"?><!DOCTYPE svg PUBLIC "-//W3C//DTD SVG 1.1//EN" "http://www.w3.org/Graphics/SVG/1.1/DTD/svg11.dtd"><svg width="100%" height="100%" viewBox="0 0 2909 2909" version="1.1" xmlns="http://www.w3.org/2000/svg" xmlns:xlink="http://www.w3.org/1999/xlink" xml:space="preserve" style="fill-rule:evenodd;clip-rule:evenodd;stroke-linejoin:round;stroke-miterlimit:1.41421;"><path d="M1887.32,587.84c-176.19,0 -331.546,83.891 -433.179,211.983c-101.634,-128.092 -256.928,-211.983 -433.117,-211.983c-306.508,0 -555.028,248.458 -555.028,554.966c0,215.878 243.636,435.095 243.636,435.095l742.592,742.593l742.593,-742.593c0,0 247.531,-218.969 247.531,-435.095c0,-306.508 -248.52,-554.966 -555.028,-554.966ZM1826.05,1455l-247.283,0l0,247.284l-247.284,0l0,-247.284l-247.283,0l0,-247.283l247.283,0l0,-247.284l247.284,0l0,247.284l247.283,0l0,247.283Z" style="fill:#109d59;fill-rule:nonzero;"/></svg>