<?xml version="1.0" standalone="no"?><!DOCTYPE svg PUBLIC "-//W3C//DTD SVG 1.1//EN" "http://www.w3.org/Graphics/SVG/1.1/DTD/svg11.dtd"><svg width="100%" height="100%" viewBox="0 0 12121 12121" version="1.1" xmlns="http://www.w3.org/2000/svg" xmlns:xlink="http://www.w3.org/1999/xlink" xml:space="preserve" style="fill-rule:evenodd;clip-rule:evenodd;stroke-linejoin:round;stroke-miterlimit:1.41421;"><path d="M7863.83,2449.33c-734.125,0 -1381.44,349.546 -1804.91,883.263c-423.475,-533.717 -1070.53,-883.263 -1804.65,-883.263c-1277.12,0 -2312.62,1035.24 -2312.62,2312.36c0,899.491 1015.15,1812.9 1015.15,1812.9l3094.13,3094.14l3094.14,-3094.14c0,0 1031.38,-912.371 1031.38,-1812.9c0,-1277.12 -1035.5,-2312.36 -2312.62,-2312.36l0,0ZM7608.54,6062.5l-1030.35,0l0,1030.35l-1030.35,0l0,-1030.35l-1030.35,0l0,-1030.35l1030.35,0l0,-1030.35l1030.35,0l0,1030.35l1030.35,0l0,1030.35Z" style="fill:#fff;fill-rule:nonzero;"/></svg>