<?xml version="1.0" standalone="no"?><!DOCTYPE svg PUBLIC "-//W3C//DTD SVG 1.1//EN" "http://www.w3.org/Graphics/SVG/1.1/DTD/svg11.dtd"><svg width="100%" height="100%" viewBox="0 0 50646 50646" version="1.1" xmlns="http://www.w3.org/2000/svg" xmlns:xlink="http://www.w3.org/1999/xlink" xml:space="preserve" style="fill-rule:evenodd;clip-rule:evenodd;stroke-linejoin:round;stroke-miterlimit:1.41421;"><g><path d="M14342.8,13942.6c-347.788,0 -645.892,367.107 -645.892,786.659l0,5034.62c0,209.776 -149.051,419.552 -347.787,419.552c-198.736,0 -397.472,-157.332 -397.472,-419.552l0,-5034.62c0,-419.552 -298.103,-786.659 -596.207,-786.659l-49.684,0c-347.787,0 -596.207,367.107 -596.207,786.659l0,5087.07c0,209.776 -149.052,419.552 -397.472,419.552c-198.735,0 -397.471,-157.332 -397.471,-419.552l0,-5087.07c0,-419.552 -298.104,-786.659 -596.207,-786.659c-347.788,0 -596.208,367.107 -596.208,786.659l0,5034.62c0,209.776 -198.735,419.552 -397.471,419.552c-198.736,0 -347.788,-157.332 -347.788,-419.552l0,-5034.62c0,-419.552 -298.103,-786.659 -596.207,-786.659l-99.368,0c-347.787,0 -596.207,367.107 -596.207,786.659l0,6135.95c0,52.444 0,157.332 49.684,209.776c99.368,839.104 645.891,2202.65 2881.67,3094.2c0,0 149.052,52.444 248.42,262.22l-149.052,2569.76c-99.368,104.888 -149.052,262.22 -149.052,367.108l-596.207,9230.14c0,314.664 198.736,576.884 496.839,576.884l1689.25,0c298.104,0 546.524,-262.22 496.84,-576.884l-546.524,-9177.7c0,-157.332 -49.684,-262.22 -149.051,-367.108l-149.052,-2569.76c99.368,-209.776 248.419,-262.22 248.419,-262.22c2235.78,-891.548 2732.62,-2255.09 2881.67,-3094.2c0,-52.444 49.684,-157.332 49.684,-209.776l0,-6188.39c-49.684,-471.996 -298.104,-786.659 -645.891,-786.659Z" style="fill:#fff;fill-rule:nonzero;"/><path d="M39631.9,13365.7c-1838.31,0 -3328.82,2831.97 -3328.82,5559.06c0,2202.65 993.679,4090.63 2384.83,4719.96c149.052,52.444 198.735,157.332 198.735,314.664l-99.367,3041.75c0,104.888 0,157.332 -49.684,262.22c0,52.444 0,104.888 0,157.332l-347.788,9282.59c0,314.664 198.736,576.884 496.839,576.884l1589.89,0c298.104,0 496.84,-262.22 496.84,-576.884l-397.472,-9282.59c0,-52.444 0,-104.888 -49.684,-157.332c-49.684,-104.888 -49.684,-157.332 -49.684,-262.22l-99.367,-3041.75c0,-157.332 99.367,-262.22 198.735,-314.664c1391.15,-576.884 2384.83,-2464.87 2384.83,-4719.96c0,-2727.09 -1490.52,-5559.06 -3328.82,-5559.06Z" style="fill:#fff;fill-rule:nonzero;"/><path d="M25869.4,15201.2c-5415.55,0 -9837.42,4667.52 -9837.42,10383.9c0,5716.4 4421.87,10383.9 9837.42,10383.9c5415.55,0 9837.42,-4667.52 9837.42,-10383.9c0,-5716.4 -4421.87,-10383.9 -9837.42,-10383.9ZM25869.4,31301.5c-3030.72,0 -5465.23,-2569.76 -5465.23,-5768.84c0,-3199.08 2434.51,-5768.84 5465.23,-5768.84c3030.72,0 5465.23,2569.76 5465.23,5768.84c0,3199.08 -2434.51,5768.84 -5465.23,5768.84Z" style="fill:#fff;fill-rule:nonzero;"/></g></svg>