<?xml version="1.0" standalone="no"?><!DOCTYPE svg PUBLIC "-//W3C//DTD SVG 1.1//EN" "http://www.w3.org/Graphics/SVG/1.1/DTD/svg11.dtd"><svg width="100%" height="100%" viewBox="0 0 12155 12155" version="1.1" xmlns="http://www.w3.org/2000/svg" xmlns:xlink="http://www.w3.org/1999/xlink" xml:space="preserve" style="fill-rule:evenodd;clip-rule:evenodd;stroke-linejoin:round;stroke-miterlimit:1.41421;"><g><path d="M9306.88,583.146l-6316.29,0c-269.55,0 -488.762,219.212 -488.762,488.762l0,8421.75c0,269.55 219.317,488.867 488.762,488.867l6316.29,0c269.446,0 488.763,-219.317 488.763,-488.867l-0.001,-8421.75c-0.104,-269.55 -219.316,-488.762 -488.762,-488.762l0,0ZM9419.67,9493.54c0,62.245 -50.65,112.791 -112.792,112.791l-6316.29,0c-62.241,0 -112.791,-50.545 -112.791,-112.791l0,-8421.75c0,-62.246 50.55,-112.792 112.791,-112.792l6316.29,0c62.142,0 112.792,50.546 112.792,112.792l0,8421.75Z" style="fill:#fff;fill-rule:nonzero;"/><path d="M8408.12,5786.17l-4518.88,0c-124.592,0 -225.583,101.091 -225.583,225.579c0,124.492 100.991,225.583 225.583,225.583l4518.88,0c124.488,0 225.479,-101.091 225.479,-225.583c0,-124.488 -100.991,-225.579 -225.479,-225.579Z" style="fill:#fff;fill-rule:nonzero;"/><path d="M8408.12,6989.38l-4518.88,0c-124.592,0 -225.583,100.992 -225.583,225.479c0,124.592 100.991,225.584 225.583,225.584l4518.88,0c124.488,0 225.479,-100.992 225.479,-225.584c0,-124.487 -100.991,-225.479 -225.479,-225.479Z" style="fill:#fff;fill-rule:nonzero;"/><path d="M8408.12,8192.38l-4518.88,0c-124.592,0 -225.583,101.096 -225.583,225.583c0,124.488 100.991,225.584 225.583,225.584l4518.88,0c124.488,0 225.479,-101.096 225.479,-225.584c0,-124.487 -100.991,-225.583 -225.479,-225.583Z" style="fill:#fff;fill-rule:nonzero;"/><path d="M4822.79,4644.38c361.141,190.7 798.625,285.217 1326.03,285.217c531.787,0 974.912,-97.338 1329.68,-285.217c44.071,-23.287 127.934,-60.887 144.542,-88.979c34.462,-58.171 27.675,-34.883 29.658,-109.658c15.454,-556.334 -553.929,-516.23 -944.629,-629.021c-56.708,-16.396 -148.717,-54.517 -166.575,-103.704c-15.979,-43.446 0,-108.3 -11.175,-166.684c94.413,-120.412 154.879,-274.666 192.583,-451.896c29.346,-32.687 65.375,-54.512 94.513,-118.533c15.25,-33.004 73.317,-161.146 53.679,-201.979c-10.025,-20.888 -32.058,-31.438 -48.142,-42.508c106.629,-502.442 -268.195,-840.817 -751.837,-807.396c-409.496,28.196 -685.417,334.404 -607.613,811.158c-35.404,-1.046 -53.887,23.704 -62.87,42.504c-19.113,39.475 35.195,142.554 53.47,183.496c12.534,27.988 36.242,52.321 55.667,74.046c21.617,24.437 34.567,42.712 46.475,66.733c17.333,34.988 18.483,87.829 33.312,137.021c27.467,90.858 63.709,164.279 107.363,237.071c22.033,36.762 61.304,81.983 66.629,107.462c9.088,43.238 2.925,100.471 -7.312,125.95c-37.284,91.8 -256.6,130.546 -385.159,163.03c-362.291,91.275 -746.825,115.816 -725.937,577.112c3.55,78.225 -2.196,59.113 33.312,109.763c21.934,31.016 98.696,60.991 144.334,85.012l0,0Z" style="fill:#fff;fill-rule:nonzero;"/></g></svg>