<?xml version="1.0" standalone="no"?><!DOCTYPE svg PUBLIC "-//W3C//DTD SVG 1.1//EN" "http://www.w3.org/Graphics/SVG/1.1/DTD/svg11.dtd"><svg width="100%" height="100%" viewBox="0 0 2917 2917" version="1.1" xmlns="http://www.w3.org/2000/svg" xmlns:xlink="http://www.w3.org/1999/xlink" xml:space="preserve" style="fill-rule:evenodd;clip-rule:evenodd;stroke-linejoin:round;stroke-miterlimit:1.41421;"><g><path d="M2233.65,139.955l-1515.91,0c-64.692,0 -117.303,52.611 -117.303,117.303l0,2021.22c0,64.692 52.636,117.328 117.303,117.328l1515.91,0c64.667,0 117.303,-52.636 117.303,-117.328l0,-2021.22c-0.025,-64.692 -52.636,-117.303 -117.303,-117.303ZM2260.72,2278.45c0,14.939 -12.156,27.07 -27.07,27.07l-1515.91,0c-14.938,0 -27.07,-12.131 -27.07,-27.07l0,-2021.22c0,-14.939 12.132,-27.07 27.07,-27.07l1515.91,0c14.914,0 27.07,12.131 27.07,27.07l0,2021.22Z" style="fill:#109d59;fill-rule:nonzero;"/><path d="M2017.95,1388.68l-1084.53,0c-29.902,0 -54.14,24.262 -54.14,54.139c0,29.878 24.238,54.14 54.14,54.14l1084.53,0c29.877,0 54.115,-24.262 54.115,-54.14c0,-29.877 -24.238,-54.139 -54.115,-54.139Z" style="fill:#109d59;fill-rule:nonzero;"/><path d="M2017.95,1677.45l-1084.53,0c-29.902,0 -54.14,24.238 -54.14,54.115c0,29.902 24.238,54.14 54.14,54.14l1084.53,0c29.877,0 54.115,-24.238 54.115,-54.14c0,-29.877 -24.238,-54.115 -54.115,-54.115Z" style="fill:#109d59;fill-rule:nonzero;"/><path d="M2017.95,1966.17l-1084.53,0c-29.902,0 -54.14,24.263 -54.14,54.14c0,29.877 24.238,54.14 54.14,54.14l1084.53,0c29.877,0 54.115,-24.263 54.115,-54.14c0,-29.877 -24.238,-54.14 -54.115,-54.14Z" style="fill:#109d59;fill-rule:nonzero;"/><path d="M1157.47,1114.65c86.674,45.768 191.67,68.452 318.247,68.452c127.629,0 233.979,-23.361 319.124,-68.452c10.577,-5.589 30.704,-14.613 34.69,-21.355c8.271,-13.961 6.642,-8.372 7.118,-26.318c3.709,-133.52 -132.943,-123.895 -226.711,-150.965c-13.61,-3.935 -35.692,-13.084 -39.978,-24.889c-3.835,-10.427 0,-25.992 -2.682,-40.004c22.659,-28.899 37.171,-65.92 46.22,-108.455c7.043,-7.845 15.69,-13.083 22.683,-28.448c3.66,-7.921 17.596,-38.675 12.883,-48.475c-2.406,-5.013 -7.694,-7.545 -11.554,-10.202c25.591,-120.586 -64.367,-201.796 -180.441,-193.775c-98.279,6.767 -164.5,80.257 -145.827,194.678c-8.497,-0.251 -12.933,5.689 -15.089,10.201c-4.587,9.474 8.447,34.213 12.833,44.039c3.008,6.717 8.698,12.557 13.36,17.771c5.188,5.865 8.296,10.251 11.154,16.016c4.16,8.397 4.436,21.079 7.995,32.885c6.592,21.806 15.29,39.427 25.767,56.897c5.288,8.823 14.713,19.676 15.991,25.791c2.181,10.377 0.702,24.113 -1.755,30.228c-8.948,22.032 -61.584,31.331 -92.438,39.127c-86.95,21.906 -179.238,27.796 -174.225,138.507c0.852,18.774 -0.527,14.187 7.995,26.343c5.264,7.444 23.687,14.638 34.64,20.403Z" style="fill:#109d59;fill-rule:nonzero;"/></g></svg>