<?xml version="1.0" standalone="no"?><!DOCTYPE svg PUBLIC "-//W3C//DTD SVG 1.1//EN" "http://www.w3.org/Graphics/SVG/1.1/DTD/svg11.dtd"><svg width="100%" height="100%" viewBox="0 0 12155 12155" version="1.1" xmlns="http://www.w3.org/2000/svg" xmlns:xlink="http://www.w3.org/1999/xlink" xml:space="preserve" style="fill-rule:evenodd;clip-rule:evenodd;stroke-linejoin:round;stroke-miterlimit:1.41421;"><g><path d="M7724.21,8561.58l-1360.7,0c0,0 -65.417,-601.85 -65.417,-811.187c0.001,-209.342 13.084,-614.933 536.43,-1138.28c523.35,-523.346 1242.95,-601.85 1439.21,-601.85c196.254,0 798.104,-942.025 1321.45,-1085.95c523.346,-143.921 229.017,150.512 117.754,261.675c-111.266,111.158 -641.104,902.775 -641.104,902.775l157.004,-26.171c0,0 745.771,-824.271 811.192,-1138.28c65.417,-314.009 -300.925,-170.088 -300.925,-170.088c0,0 39.25,-1099.03 143.921,-1203.7c104.666,-104.671 287.841,-104.671 346.771,137.429c58.929,242.1 58.82,1236.36 58.82,1327.94c0,91.588 -529.941,1458.89 -732.683,1661.63c-202.746,202.742 -1897.14,1818.63 -1831.72,1884.05l0,0Z" style="fill:#fff;fill-rule:nonzero;"/><path d="M4498.17,8574.67l1342.81,0c0,0 64.579,-601.85 64.579,-811.188c0,-209.341 -12.979,-614.933 -529.417,-1138.28c-516.545,-523.346 -1226.62,-601.85 -1420.37,-601.85c-193.642,0 -787.533,-942.025 -1304.08,-1085.95c-516.546,-143.921 -225.984,150.513 -116.184,261.675c109.8,111.263 632.73,902.775 632.73,902.775l-155.017,-26.171c0,0 -736.038,-824.271 -800.513,-1138.28c-64.479,-314.008 296.946,-170.087 296.946,-170.087c0,0 -38.729,-1099.03 -142.037,-1203.7c-103.204,-104.671 -284.071,-104.671 -342.267,137.429c-57.987,241.996 -57.987,1236.36 -57.987,1327.94c0,91.588 522.929,1458.89 723.058,1661.63c200.125,202.85 1872.23,1818.63 1807.75,1884.05Z" style="fill:#fff;fill-rule:nonzero;"/><circle cx="4602.33" cy="3172.14" r="532.35" style="fill:#fff;"/><circle cx="7559.96" cy="3195.69" r="532.454" style="fill:#fff;"/><circle cx="6048.54" cy="4390.92" r="380.267" style="fill:#fff;"/><path d="M6567.71,5729.33c0,145.388 -117.754,263.246 -263.246,263.246l-467.979,0c-145.383,0 -263.241,-117.858 -263.241,-263.246l0,-555.691c0,-145.488 117.858,-263.242 263.241,-263.242l467.979,0c145.492,0 263.246,117.754 263.246,263.242l0,555.691Z" style="fill:#fff;fill-rule:nonzero;"/><path d="M5342.21,5448.29c0,283.862 -230.166,514.033 -514.029,514.033l-428.412,0c-283.867,0 -514.138,-230.171 -514.138,-514.033l0,-1068.89c0,-283.862 230.167,-514.133 514.138,-514.133l428.412,0c283.863,0 514.029,230.166 514.029,514.133l0,1068.89Z" style="fill:#fff;fill-rule:nonzero;"/><path d="M8293.38,5448.29c0,283.862 -230.171,514.033 -514.033,514.033l-428.413,0c-283.971,0 -514.137,-230.171 -514.137,-514.033l0,-1068.89c0,-283.862 230.166,-514.133 514.137,-514.133l428.413,0c283.862,0 514.033,230.166 514.033,514.133l0,1068.89Z" style="fill:#fff;fill-rule:nonzero;"/></g></svg>