<?xml version="1.0" standalone="no"?><!DOCTYPE svg PUBLIC "-//W3C//DTD SVG 1.1//EN" "http://www.w3.org/Graphics/SVG/1.1/DTD/svg11.dtd"><svg width="100%" height="100%" viewBox="0 0 2917 2917" version="1.1" xmlns="http://www.w3.org/2000/svg" xmlns:xlink="http://www.w3.org/1999/xlink" xml:space="preserve" style="fill-rule:evenodd;clip-rule:evenodd;stroke-linejoin:round;stroke-miterlimit:1.41421;"><g><path d="M1853.81,2054.78l-326.569,0c0,0 -15.7,-144.444 -15.7,-194.685c0,-50.242 3.14,-147.584 128.743,-273.188c125.604,-125.603 298.309,-144.444 345.41,-144.444c47.101,0 191.545,-226.086 317.149,-260.627c125.603,-34.541 54.964,36.123 28.261,62.802c-26.704,26.678 -153.865,216.666 -153.865,216.666l37.681,-6.281c0,0 178.985,-197.825 194.686,-273.187c15.7,-75.362 -72.222,-40.821 -72.222,-40.821c0,0 9.42,-263.768 34.541,-288.888c25.12,-25.121 69.082,-25.121 83.225,32.983c14.143,58.104 14.117,296.726 14.117,318.706c0,21.981 -127.186,350.133 -175.844,398.792c-48.659,48.658 -455.313,436.472 -439.613,452.172Z" style="fill:#109d59;fill-rule:nonzero;"/><path d="M1079.56,2057.92l322.274,0c0,0 15.499,-144.444 15.499,-194.685c0,-50.242 -3.115,-147.584 -127.06,-273.188c-123.971,-125.603 -294.39,-144.444 -340.888,-144.444c-46.474,0 -189.008,-226.086 -312.979,-260.627c-123.971,-34.541 -54.236,36.123 -27.884,62.802c26.352,26.703 151.855,216.666 151.855,216.666l-37.204,-6.281c0,0 -176.649,-197.825 -192.123,-273.187c-15.475,-75.362 71.267,-40.821 71.267,-40.821c0,0 -9.295,-263.768 -34.089,-288.888c-24.769,-25.121 -68.177,-25.121 -82.144,32.983c-13.917,58.079 -13.917,296.726 -13.917,318.706c0,21.981 125.503,350.133 173.534,398.792c48.03,48.684 449.334,436.472 433.859,452.172Z" style="fill:#109d59;fill-rule:nonzero;"/><circle cx="1104.56" cy="761.314" r="127.764" style="fill:#109d59;"/><circle cx="1814.39" cy="766.966" r="127.789" style="fill:#109d59;"/><circle cx="1451.65" cy="1053.82" r="91.264" style="fill:#109d59;"/><path d="M1576.25,1375.04c0,34.893 -28.261,63.179 -63.179,63.179l-112.315,0c-34.892,0 -63.178,-28.286 -63.178,-63.179l0,-133.366c0,-34.917 28.286,-63.178 63.178,-63.178l112.315,0c34.918,0 63.179,28.261 63.179,63.178l0,133.366Z" style="fill:#109d59;fill-rule:nonzero;"/><path d="M1282.13,1307.59c0,68.127 -55.24,123.368 -123.367,123.368l-102.819,0c-68.128,0 -123.393,-55.241 -123.393,-123.368l0,-256.533c0,-68.127 55.24,-123.392 123.393,-123.392l102.819,0c68.127,0 123.367,55.24 123.367,123.392l0,256.533Z" style="fill:#109d59;fill-rule:nonzero;"/><path d="M1990.41,1307.59c0,68.127 -55.241,123.368 -123.368,123.368l-102.819,0c-68.153,0 -123.393,-55.241 -123.393,-123.368l0,-256.533c0,-68.127 55.24,-123.392 123.393,-123.392l102.819,0c68.127,0 123.368,55.24 123.368,123.392l0,256.533Z" style="fill:#109d59;fill-rule:nonzero;"/></g></svg>