<?xml version="1.0" standalone="no"?><!DOCTYPE svg PUBLIC "-//W3C//DTD SVG 1.1//EN" "http://www.w3.org/Graphics/SVG/1.1/DTD/svg11.dtd"><svg width="100%" height="100%" viewBox="0 0 3334 2834" version="1.1" xmlns="http://www.w3.org/2000/svg" xmlns:xlink="http://www.w3.org/1999/xlink" xml:space="preserve" style="fill-rule:evenodd;clip-rule:evenodd;stroke-linejoin:round;stroke-miterlimit:1.41421;"><g><rect x="0" y="0" width="3329.17" height="2080.73" style="fill:#322b47;"/><circle cx="936.33" cy="754.266" r="26.009" style="fill:#fff;fill-opacity:0.180392;"/><circle cx="2412.35" cy="461.663" r="71.525" style="fill:#fff;fill-opacity:0.180392;"/><circle cx="2262.8" cy="1794.63" r="26.009" style="fill:#fff;fill-opacity:0.180392;"/><circle cx="611.215" cy="1339.47" r="91.032" style="fill:#fff;fill-opacity:0.180392;"/><circle cx="2913.03" cy="1560.55" r="26.009" style="fill:#fff;fill-opacity:0.180392;"/><g><path d="M338.141,338.052c0,0 260.092,9.775 260.092,-260.091c-0.234,0.233 0,260.091 0,260.091l-260.092,0Z" style="fill:#fff;fill-opacity:0.180392;"/><path d="M598.277,78.005c0,0 -9.774,260.092 260.092,260.092c-0.233,-0.234 -260.092,0 -260.092,0l0,-260.092Z" style="fill:#fff;fill-opacity:0.180392;"/><path d="M858.347,338.074c0,0 -260.092,-9.774 -260.092,260.092c0.234,-0.233 0,-260.092 0,-260.092l260.092,0Z" style="fill:#fff;fill-opacity:0.180392;"/><path d="M598.211,598.211c0,0 9.774,-260.092 -260.092,-260.092c0.233,0.233 260.092,0 260.092,0l0,260.092Z" style="fill:#fff;fill-opacity:0.180392;"/></g><g><path d="M2886.96,416.16c0,0 156.068,5.865 156.068,-156.068c-0.14,0.14 0,156.068 0,156.068l-156.068,0Z" style="fill:#fff;fill-opacity:0.180392;"/><path d="M3043.06,260.118c0,0 -5.866,156.069 156.068,156.069c-0.14,-0.14 -156.068,0 -156.068,0l0,-156.069Z" style="fill:#fff;fill-opacity:0.180392;"/><path d="M3199.11,416.173c0,0 -156.069,-5.865 -156.069,156.069c0.14,-0.141 0,-156.069 0,-156.069l156.069,0Z" style="fill:#fff;fill-opacity:0.180392;"/><path d="M3043.02,572.268c0,0 5.865,-156.068 -156.069,-156.068c0.14,0.14 156.069,0 156.069,0l0,156.068Z" style="fill:#fff;fill-opacity:0.180392;"/></g><g><path d="M1703.61,585.124c0,0 117.026,4.398 117.026,-117.026c-0.105,0.105 0,117.026 0,117.026l-117.026,0Z" style="fill:#fff;fill-opacity:0.180392;"/><path d="M1820.66,468.118c0,0 -4.398,117.026 117.026,117.026c-0.105,-0.105 -117.026,0 -117.026,0l0,-117.026Z" style="fill:#fff;fill-opacity:0.180392;"/><path d="M1937.67,585.134c0,0 -117.026,-4.398 -117.026,117.026c0.105,-0.105 0,-117.026 0,-117.026l117.026,0Z" style="fill:#fff;fill-opacity:0.180392;"/><path d="M1820.63,702.18c0,0 4.398,-117.026 -117.026,-117.026c0.105,0.105 117.026,0 117.026,0l0,117.026Z" style="fill:#fff;fill-opacity:0.180392;"/></g><g><path d="M416.159,1638.56c0,0 143.032,5.376 143.032,-143.032c-0.129,0.129 0,143.032 0,143.032l-143.032,0Z" style="fill:#fff;fill-opacity:0.180392;"/><path d="M559.215,1495.55c0,0 -5.375,143.032 143.032,143.032c-0.128,-0.128 -143.032,0 -143.032,0l0,-143.032Z" style="fill:#fff;fill-opacity:0.180392;"/><path d="M702.235,1638.57c0,0 -143.032,-5.376 -143.032,143.032c0.128,-0.129 0,-143.032 0,-143.032l143.032,0Z" style="fill:#fff;fill-opacity:0.180392;"/><path d="M559.178,1781.63c0,0 5.376,-143.032 -143.032,-143.032c0.129,0.129 143.032,0 143.032,0l0,143.032Z" style="fill:#fff;fill-opacity:0.180392;"/></g><g><path d="M1729.62,1345.95c0,0 188.542,7.085 188.542,-188.543c-0.169,0.17 0,188.543 0,188.543l-188.542,0Z" style="fill:#fff;fill-opacity:0.180392;"/><path d="M1918.2,1157.44c0,0 -7.085,188.542 188.543,188.542c-0.17,-0.169 -188.543,0 -188.543,0l0,-188.542Z" style="fill:#fff;fill-opacity:0.180392;"/><path d="M2106.72,1345.97c0,0 -188.542,-7.086 -188.542,188.542c0.169,-0.169 0,-188.542 0,-188.542l188.542,0Z" style="fill:#fff;fill-opacity:0.180392;"/><path d="M1918.15,1534.54c0,0 7.086,-188.542 -188.542,-188.542c0.169,0.169 188.542,0 188.542,0l0,188.542Z" style="fill:#fff;fill-opacity:0.180392;"/></g><g><path d="M143.059,936.316c0,0 104.024,3.91 104.024,-104.023c-0.094,0.093 0,104.023 0,104.023l-104.024,0Z" style="fill:#fff;fill-opacity:0.180392;"/><path d="M247.1,832.311c0,0 -3.909,104.023 104.024,104.023c-0.094,-0.093 -104.024,0 -104.024,0l0,-104.023Z" style="fill:#fff;fill-opacity:0.180392;"/><path d="M351.115,936.325c0,0 -104.024,-3.909 -104.024,104.023c0.094,-0.093 0,-104.023 0,-104.023l104.024,0Z" style="fill:#fff;fill-opacity:0.180392;"/><path d="M247.074,1040.37c0,0 3.909,-104.023 -104.024,-104.023c0.094,0.093 104.024,0 104.024,0l0,104.023Z" style="fill:#fff;fill-opacity:0.180392;"/></g><g><path d="M1092.4,1742.59c0,0 208.047,7.819 208.047,-208.047c-0.187,0.187 0,208.047 0,208.047l-208.047,0Z" style="fill:#fff;fill-opacity:0.180392;"/><path d="M1300.49,1534.58c0,0 -7.819,208.046 208.046,208.046c-0.187,-0.186 -208.046,0 -208.046,0l0,-208.046Z" style="fill:#fff;fill-opacity:0.180392;"/><path d="M1508.51,1742.6c0,0 -208.046,-7.818 -208.046,208.047c0.186,-0.187 0,-208.047 0,-208.047l208.046,0Z" style="fill:#fff;fill-opacity:0.180392;"/><path d="M1300.43,1950.69c0,0 7.819,-208.047 -208.046,-208.047c0.186,0.187 208.046,0 208.046,0l0,208.047Z" style="fill:#fff;fill-opacity:0.180392;"/></g><g><path d="M2952.05,1885.65c0,0 117.026,4.398 117.026,-117.026c-0.105,0.105 0,117.026 0,117.026l-117.026,0Z" style="fill:#fff;fill-opacity:0.180392;"/><path d="M3069.1,1768.64c0,0 -4.398,117.026 117.027,117.026c-0.106,-0.105 -117.027,0 -117.027,0l0,-117.026Z" style="fill:#fff;fill-opacity:0.180392;"/><path d="M3186.11,1885.66c0,0 -117.026,-4.398 -117.026,117.026c0.105,-0.105 0,-117.026 0,-117.026l117.026,0Z" style="fill:#fff;fill-opacity:0.180392;"/><path d="M3069.07,2002.71c0,0 4.398,-117.026 -117.026,-117.026c0.105,0.105 117.026,0 117.026,0l0,117.026Z" style="fill:#fff;fill-opacity:0.180392;"/></g><g><path d="M2483.9,1098.85c0,0 279.563,10.507 279.563,-279.563c-0.251,0.251 0,279.563 0,279.563l-279.563,0Z" style="fill:#fff;fill-opacity:0.180392;"/><path d="M2763.51,819.336c0,0 -10.507,279.563 279.562,279.563c-0.251,-0.251 -279.562,0 -279.562,0l0,-279.563Z" style="fill:#fff;fill-opacity:0.180392;"/><path d="M3043.05,1098.88c0,0 -279.562,-10.507 -279.562,279.562c0.251,-0.251 0,-279.562 0,-279.562l279.562,0Z" style="fill:#fff;fill-opacity:0.180392;"/><path d="M2763.44,1378.49c0,0 10.506,-279.562 -279.563,-279.562c0.251,0.251 279.563,0 279.563,0l0,279.562Z" style="fill:#fff;fill-opacity:0.180392;"/></g><g><path d="M1290.71,1154.15c0,0 61.763,2.322 61.763,-61.763c-0.055,0.055 0,61.763 0,61.763l-61.763,0Z" style="fill:#fff;fill-opacity:0.180392;"/><path d="M1352.48,1092.39c0,0 -2.321,61.764 61.764,61.764c-0.056,-0.056 -61.764,0 -61.764,0l0,-61.764Z" style="fill:#fff;fill-opacity:0.180392;"/><path d="M1414.24,1154.15c0,0 -61.764,-2.322 -61.764,61.763c0.055,-0.055 0,-61.763 0,-61.763l61.764,0Z" style="fill:#fff;fill-opacity:0.180392;"/><path d="M1352.47,1215.93c0,0 2.321,-61.764 -61.764,-61.764c0.056,0.056 61.764,0 61.764,0l0,61.764Z" style="fill:#fff;fill-opacity:0.180392;"/></g></g><path d="M0.165,2832.15c0,0 -16.678,-106.479 285.079,-61.943c2.879,-4.795 71.834,-400.999 540.965,-279.716c-2.384,-2.648 128.088,-372.724 505.38,-309.057c377.291,63.666 387.672,429.643 387.672,429.643c0,0 110.099,-211.014 456.806,-121.767c-0.704,-1.989 137.109,-381.813 514.052,-307.876c376.944,73.936 378.999,428.463 378.999,428.463c0,0 177.956,-24.812 264.216,158.895c-0.016,-5.12 0,64.538 0,64.538l-3333.17,-1.18l0,0Z" style="fill:#fff;"/><path d="M3333.33,1231.85l0,1541.67l-138.45,-263.348l-362.468,263.348l138.451,-426.106l-293.243,-50.295l207.676,-213.053l-362.468,-263.348l448.035,0l-42.784,-294.432l266.801,131.674l138.45,-426.106Z" style="fill:#fcbe1f;"/></svg>