<?xml version="1.0" standalone="no"?><!DOCTYPE svg PUBLIC "-//W3C//DTD SVG 1.1//EN" "http://www.w3.org/Graphics/SVG/1.1/DTD/svg11.dtd"><svg width="100%" height="100%" viewBox="0 0 2509 2509" version="1.1" xmlns="http://www.w3.org/2000/svg" xmlns:xlink="http://www.w3.org/1999/xlink" xml:space="preserve" style="fill-rule:evenodd;clip-rule:evenodd;stroke-linejoin:round;stroke-miterlimit:1.41421;"><g><rect x="1068.28" y="432.665" width="371.741" height="208.203" style="fill:#109d59;"/><path d="M1068.28,353.541c0,-86.578 64.446,-81.874 143.926,-81.874l83.974,0c79.417,0 143.863,-4.704 143.863,81.874l0,1.302l-371.763,0l0,-1.302Z" style="fill:#109d59;fill-rule:nonzero;"/><path d="M1664.14,784.436c-67.049,-34.753 -79.523,-31.33 -226.304,-57.494l-370.104,0c-146.718,26.164 -156.377,23.161 -223.637,57.494c-91.449,46.701 -90.21,145.774 -90.21,145.774c0,0 20.39,1137.96 67.658,1243.57c37.588,83.911 844.235,83.911 881.822,0c47.269,-105.603 51.069,-1243.57 51.069,-1243.57c0,0 3.192,-97.33 -90.294,-145.774ZM1599.19,1133.46c-0.441,127.525 -10.058,731.177 -40.758,799.591c-16.589,37.084 -113.247,61.842 -299.002,61.842c-185.776,0 -282.433,-24.737 -299.022,-61.842c-30.554,-68.288 -49.032,-672.213 -51.3,-799.36c-1.218,-34.522 -16.085,-158.793 346.563,-158.793c362.649,0 344.464,120.533 343.519,158.562Z" style="fill:#109d59;fill-rule:nonzero;"/><path d="M1259.41,1035.56c-310.257,0 -297.531,89.013 -297.468,89.391c0,0 20.557,725.046 40.317,783.444c18.059,11.612 106.695,26.983 257.151,26.983c150.394,0 239.008,-15.371 257.088,-26.941c17.471,-52.707 29.798,-783.486 29.798,-783.486c0.021,-8.357 23.35,-89.391 -286.886,-89.391ZM1359.28,1272.53l24.758,-24.779c5.733,-5.733 15.035,-5.754 20.768,-0.021c5.732,5.733 5.732,15.035 0.021,20.768l-24.758,24.715c-2.877,2.877 -6.635,4.284 -10.394,4.284c-3.759,0 -7.497,-1.407 -10.374,-4.263c-5.753,-5.732 -5.753,-14.993 -0.021,-20.704ZM1239.44,1200.07c0,-8.106 6.573,-14.678 14.679,-14.678c8.105,0 14.699,6.572 14.699,14.678l0,34.942c0,8.126 -6.573,14.699 -14.699,14.699c-8.127,0 -14.679,-6.552 -14.679,-14.699l0,-34.942ZM1103.47,1247.73c5.733,-5.712 15.077,-5.712 20.768,0.021l24.758,24.779c5.732,5.711 5.732,14.993 0,20.704c-2.856,2.856 -6.615,4.263 -10.374,4.263c-3.758,0 -7.517,-1.407 -10.394,-4.284l-24.758,-24.715c-5.753,-5.733 -5.753,-15.035 0,-20.768ZM1055.74,1412.99c-8.105,0 -14.678,-6.551 -14.678,-14.678c0,-8.126 6.573,-14.678 14.678,-14.678l35.005,0c8.106,0 14.678,6.552 14.678,14.678c0,8.127 -6.572,14.678 -14.678,14.678l-35.005,0ZM1148.98,1524.22l-24.758,24.779c-2.856,2.876 -6.614,4.304 -10.394,4.304c-3.759,0 -7.518,-1.428 -10.374,-4.283c-5.732,-5.733 -5.732,-15.036 0,-20.768l24.758,-24.779c5.733,-5.711 15.035,-5.732 20.768,-0.021c5.732,5.733 5.732,15.014 0,20.768ZM1268.82,1596.69c0,8.126 -6.573,14.678 -14.699,14.678c-8.127,0 -14.679,-6.552 -14.679,-14.678l0,-34.984c0,-8.127 6.573,-14.678 14.679,-14.678c8.105,0 14.699,6.551 14.699,14.678l0,34.984ZM1254.14,1505.56c-59.217,0 -107.241,-48.024 -107.241,-107.241c0,-59.216 48.024,-107.156 107.241,-107.156c59.216,0 107.24,47.919 107.24,107.156c0,59.238 -48.045,107.241 -107.24,107.241ZM1404.81,1549.02c-2.877,2.855 -6.615,4.283 -10.374,4.283c-3.758,0 -7.517,-1.428 -10.394,-4.304l-24.758,-24.779c-5.711,-5.733 -5.711,-15.035 0.021,-20.768c5.733,-5.69 15.036,-5.711 20.768,0.021l24.758,24.779c5.711,5.732 5.711,15.014 -0.021,20.768ZM1452.54,1412.99l-35.026,0c-8.126,0 -14.678,-6.551 -14.678,-14.678c0,-8.126 6.552,-14.678 14.678,-14.678l35.026,0c8.127,0 14.678,6.552 14.678,14.678c0,8.127 -6.551,14.678 -14.678,14.678Z" style="fill:#109d59;fill-rule:nonzero;"/></g></svg>