<?xml version="1.0" standalone="no"?><!DOCTYPE svg PUBLIC "-//W3C//DTD SVG 1.1//EN" "http://www.w3.org/Graphics/SVG/1.1/DTD/svg11.dtd"><svg width="100%" height="100%" viewBox="0 0 10455 10455" version="1.1" xmlns="http://www.w3.org/2000/svg" xmlns:xlink="http://www.w3.org/1999/xlink" xml:space="preserve" style="fill-rule:evenodd;clip-rule:evenodd;stroke-linejoin:round;stroke-miterlimit:1.41421;"><g><rect x="4451.17" y="1802.77" width="1548.92" height="867.513" style="fill:#fff;"/><path d="M4451.17,1473.09c0,-360.742 268.525,-341.142 599.691,-341.142l349.892,0c330.904,0 599.429,-19.6 599.429,341.142l0,5.425l-1549.01,0l0,-5.425l0,0Z" style="fill:#fff;fill-rule:nonzero;"/><path d="M6933.92,3268.48c-279.371,-144.804 -331.346,-130.541 -942.934,-239.558l-1542.1,0c-611.325,109.017 -651.57,96.504 -931.82,239.558c-381.038,194.588 -375.875,607.392 -375.875,607.392c0,0 84.958,4741.5 281.908,5181.54c156.617,349.629 3517.65,349.629 3674.26,0c196.954,-440.013 212.788,-5181.54 212.788,-5181.54c0,0 13.3,-405.542 -376.225,-607.392l0,0ZM6663.29,4722.75c-1.838,531.354 -41.909,3046.57 -169.825,3331.63c-69.121,154.517 -471.863,257.675 -1245.84,257.675c-774.067,0 -1176.8,-103.071 -1245.92,-257.675c-127.308,-284.533 -204.3,-2800.89 -213.75,-3330.67c-5.075,-143.841 -67.021,-661.637 1444.01,-661.637c1511.04,0 1435.27,502.221 1431.33,660.675l0,0Z" style="fill:#fff;fill-rule:nonzero;"/><path d="M5247.54,4314.83c-1292.74,0 -1239.71,370.888 -1239.45,372.463c0,0 85.654,3021.03 167.987,3264.35c75.246,48.383 444.563,112.429 1071.46,112.429c626.641,0 995.866,-64.046 1071.2,-112.254c72.796,-219.613 124.158,-3264.53 124.158,-3264.53c0.087,-34.821 97.292,-372.463 -1195.36,-372.463ZM5663.67,5302.21l103.158,-103.246c23.887,-23.887 62.646,-23.974 86.533,-0.087c23.884,23.887 23.884,62.646 0.088,86.533l-103.159,102.979c-11.987,11.988 -27.645,17.851 -43.308,17.851c-15.662,0 -31.237,-5.863 -43.225,-17.763c-23.971,-23.883 -23.971,-62.471 -0.087,-86.267l0,0ZM5164.33,5000.29c0,-33.775 27.388,-61.159 61.163,-61.159c33.771,0 61.246,27.384 61.246,61.159l0,145.591c0,33.859 -27.388,61.246 -61.246,61.246c-33.863,0 -61.163,-27.3 -61.163,-61.246l0,-145.591ZM4597.79,5198.88c23.887,-23.8 62.82,-23.8 86.533,0.088l103.158,103.245c23.884,23.796 23.884,62.471 0,86.267c-11.9,11.9 -27.562,17.763 -43.225,17.763c-15.658,0 -31.321,-5.863 -43.308,-17.851l-103.158,-102.979c-23.971,-23.887 -23.971,-62.646 0,-86.533l0,0ZM4398.92,5887.46c-33.771,0 -61.159,-27.296 -61.159,-61.158c0,-33.858 27.388,-61.158 61.159,-61.158l145.854,0c33.775,0 61.158,27.3 61.158,61.158c0,33.862 -27.383,61.158 -61.158,61.158l-145.854,0ZM4787.42,6350.92l-103.159,103.246c-11.9,11.983 -27.558,17.933 -43.308,17.933c-15.663,0 -31.325,-5.95 -43.225,-17.846c-23.883,-23.887 -23.883,-62.65 0,-86.533l103.158,-103.246c23.888,-23.796 62.646,-23.883 86.534,-0.088c23.883,23.888 23.883,62.559 0,86.534l0,0ZM5286.75,6652.88c0,33.858 -27.388,61.158 -61.246,61.158c-33.862,0 -61.162,-27.3 -61.162,-61.158l0,-145.767c0,-33.862 27.387,-61.158 61.162,-61.158c33.771,0 61.246,27.296 61.246,61.158l0,145.767ZM5225.58,6273.17c-246.737,0 -446.837,-200.1 -446.837,-446.838c0,-246.733 200.1,-446.483 446.837,-446.483c246.734,0 446.834,199.662 446.834,446.483c0,246.825 -200.188,446.838 -446.834,446.838ZM5853.38,6454.25c-11.987,11.896 -27.563,17.846 -43.225,17.846c-15.658,0 -31.321,-5.95 -43.308,-17.934l-103.159,-103.245c-23.796,-23.888 -23.796,-62.646 0.088,-86.534c23.887,-23.708 62.65,-23.796 86.533,0.088l103.158,103.246c23.796,23.883 23.796,62.558 -0.087,86.533l0,0ZM6052.25,5887.46l-145.942,0c-33.858,0 -61.158,-27.296 -61.158,-61.158c0,-33.858 27.3,-61.158 61.158,-61.158l145.942,0c33.863,0 61.158,27.3 61.158,61.158c0,33.862 -27.295,61.158 -61.158,61.158Z" style="fill:#fff;fill-rule:nonzero;"/></g></svg>