<?xml version="1.0" standalone="no"?><!DOCTYPE svg PUBLIC "-//W3C//DTD SVG 1.1//EN" "http://www.w3.org/Graphics/SVG/1.1/DTD/svg11.dtd"><svg width="100%" height="100%" viewBox="0 0 417 417" version="1.1" xmlns="http://www.w3.org/2000/svg" xmlns:xlink="http://www.w3.org/1999/xlink" xml:space="preserve" style="fill-rule:evenodd;clip-rule:evenodd;stroke-linejoin:round;stroke-miterlimit:1.41421;"><g id="Layer1"><path d="M106.091,388.981c-5.367,0 -9.73,4.367 -9.73,9.729l-2.083,0c0,-5.7 4.058,-10.466 9.433,-11.57l0,-5.625l-23.266,0l0,20.058l36.416,0l0,-2.867l-1.041,0c0.004,-5.358 -4.363,-9.725 -9.729,-9.725Z" style="fill:#4385f5;fill-rule:nonzero;"/><path d="M149.882,388.981c-5.366,0 -9.733,4.367 -9.733,9.729l-2.083,0c0,-5.7 4.058,-10.466 9.437,-11.57l0,-5.625l-23.267,0l0,20.058l36.417,0l0,-2.867l-1.042,0c0,-5.358 -4.366,-9.725 -9.729,-9.725Z" style="fill:#4385f5;fill-rule:nonzero;"/><path d="M149.72,378.735l0,-125.712c0.029,-0.421 0.125,-0.825 0.125,-1.254l0,-6.521l-71.284,0l0,6.521c0,0.587 0.121,1.141 0.175,1.716l0,125.25l27.867,0l0,-108.233l15.254,0l0,108.233l27.863,0Z" style="fill:#4385f5;fill-rule:nonzero;"/><path d="M138.841,37.569c7.17,-1.584 4.491,-9.721 0.145,-11.171c0.242,6.737 -18.754,3.854 -18.754,3.854l0.159,0.071c-2,-0.283 -4.025,-0.483 -6.105,-0.483c-23.745,0 -42.995,19.25 -42.995,42.995c0,8.613 1.783,16.634 6.145,23.359l0.005,-0.063c4.729,15.884 19.425,27.471 36.845,27.471c17.421,0 32.117,-11.587 36.846,-27.471l0.004,0.063c4.363,-6.725 6.146,-14.746 6.146,-23.359c0,-14.608 -7.304,-27.495 -18.441,-35.266Z" style="fill:#4385f5;fill-rule:nonzero;"/><path d="M78.561,241.027l71.284,0l0,-81.425l5.637,15.492l13.892,-5.054l-0.021,-0.059l4.363,-1.608l-12.5,-31.771c-1.175,-3.225 -7.396,-4.629 -11.371,-4.008l0,-0.067l-22.996,0c0,7.146 -5.663,12.942 -12.646,12.942c-6.983,0 -12.646,-5.796 -12.646,-12.942l-22.996,0l0,0.063c-3.887,-0.53 -9.67,1.079 -10.837,4.275l-12.5,32.033l17.775,6.2l5.558,-15.275l0,81.204l0.004,0Z" style="fill:#4385f5;fill-rule:nonzero;"/><path d="M104.27,125.148l0,7.625c0,5.533 4.483,10.017 10.016,10.017c5.534,0 10.017,-4.484 10.017,-10.017l0,-7.625c-3.217,0.779 -6.562,1.237 -10.017,1.237c-3.454,0 -6.795,-0.458 -10.016,-1.237Z" style="fill:#4385f5;fill-rule:nonzero;"/><path d="M56.528,172.794l-29.75,81.741c-1.379,3.784 0.575,7.975 4.363,9.35c0.825,0.3 1.666,0.442 2.495,0.442c2.98,0 5.78,-1.837 6.859,-4.804l29.8,-81.875l-13.767,-4.854Z" style="fill:#4385f5;fill-rule:nonzero;"/><path d="M171.891,172.86l29.75,81.742c1.379,3.783 -0.575,7.975 -4.363,9.35c-0.825,0.3 -1.667,0.442 -2.496,0.442c-2.979,0 -5.779,-1.838 -6.858,-4.804l-29.8,-81.875l13.767,-4.855Z" style="fill:#4385f5;fill-rule:nonzero;"/><path d="M302.37,108.365c5.4,0 9.775,-4.375 9.775,-9.775l-19.546,0c-0.004,5.4 4.375,9.775 9.771,9.775Z" style="fill:#4385f5;fill-rule:nonzero;"/><path d="M320.374,33.877c0.133,0.071 0.258,0.15 0.387,0.221c-0.133,-0.067 -0.258,-0.15 -0.387,-0.221Z" style="fill:#4385f5;fill-rule:nonzero;"/><path d="M340.061,58.565c0.155,0.587 0.288,1.183 0.413,1.779c-0.029,-0.521 -0.1,-0.996 -0.113,-1.529l0.296,-0.188c-0.2,-0.017 -0.4,-0.037 -0.596,-0.062Z" style="fill:#4385f5;fill-rule:nonzero;"/><path d="M267.145,101.756c0.291,-0.429 0.471,-0.921 0.675,-1.396c5.921,13.246 19.187,22.492 34.633,22.492c15.542,0 28.879,-9.35 34.75,-22.725c0.154,0.3 0.246,0.625 0.433,0.9c1.888,1.692 -0.433,-4.312 3.142,-8.171c3.575,-3.858 3.204,-8.633 0.708,-13.079c-2.041,-3.637 -0.404,-6.546 0.821,-8.079c5.842,20.321 22.863,24.742 22.084,22.054c-13.317,-12.312 -1.238,-49.525 -1.238,-49.525l-0.112,0.071c0.825,-2.304 1.354,-4.754 1.354,-7.342c0,-10.666 -7.65,-19.521 -17.754,-21.45c-1.23,-0.329 -2.467,-0.437 -3.692,-0.371c-0.142,-0.004 -0.275,-0.041 -0.417,-0.041c-10.383,0 -19.037,7.258 -21.266,16.966c-1.655,-0.175 -3.313,-0.22 -4.955,-0.008c0.046,0.017 0.088,0.042 0.13,0.058c-4.355,-1.683 -9.084,-2.625 -14.034,-2.625c-21.512,0 -38.95,17.438 -38.95,38.95c0,0.742 0.188,1.425 0.479,2.055c0.009,0.016 -0.008,0.05 0,0.066c0.759,1.271 1.617,5.396 -0.879,9.842c-2.496,4.446 -2.629,9.329 0.946,13.187c3.575,3.859 1.254,9.863 3.142,8.171ZM340.474,60.344c-0.125,-0.596 -0.258,-1.192 -0.413,-1.779c0.196,0.02 0.396,0.041 0.596,0.058l-0.296,0.187c0.013,0.542 0.084,1.013 0.113,1.534ZM320.761,34.102c-0.133,-0.071 -0.258,-0.154 -0.387,-0.221c0.129,0.067 0.254,0.15 0.387,0.221Z" style="fill:#4385f5;fill-rule:nonzero;"/><path d="M271.024,285.985l0.017,91.73l19.637,-0.009l-0.017,-91.716l23.596,0l0.021,91.729l19.638,-0.009l-0.017,-91.716l3.642,0l0,-44.413l0.554,0l0,-81.425l5.637,15.492l13.892,-5.054l-0.021,-0.059l4.363,-1.608l-12.5,-31.771c-1.175,-3.225 -7.396,-4.629 -11.371,-4.008l0,-0.067l-22.996,0c0,7.146 -5.663,12.942 -12.646,12.942c-6.983,0 -12.646,-5.796 -12.646,-12.942l-22.996,0l0,0.063c-3.887,-0.529 -9.67,1.079 -10.837,4.275l-12.5,32.033l17.775,6.2l5.558,-15.275l0,81.208l0.396,0l0,44.4l3.821,0Z" style="fill:#4385f5;fill-rule:nonzero;"/><path d="M295.174,388.015c-5.367,0 -9.729,4.366 -9.729,9.729l-2.084,0c0,-5.7 4.059,-10.467 9.434,-11.571l0,-5.625l-23.267,0l0,20.058l36.417,0l0,-2.866l-1.042,0c0.004,-5.359 -4.362,-9.725 -9.729,-9.725Z" style="fill:#4385f5;fill-rule:nonzero;"/><path d="M338.961,388.015c-5.366,0 -9.733,4.366 -9.733,9.729l-2.083,0c0,-5.7 4.058,-10.467 9.437,-11.571l0,-5.625l-23.266,0l0,20.058l36.416,0l0,-2.866l-1.041,0c0,-5.359 -4.367,-9.725 -9.73,-9.725Z" style="fill:#4385f5;fill-rule:nonzero;"/><path d="M292.757,132.719c0,5.533 4.484,10.016 10.017,10.016c5.533,0 10.017,-4.483 10.017,-10.016l0,-7.625c-3.217,0.779 -6.563,1.237 -10.017,1.237c-3.454,0 -6.796,-0.458 -10.017,-1.237l0,7.625Z" style="fill:#4385f5;fill-rule:nonzero;"/><path d="M215.024,255.094c-1.379,3.783 0.575,7.975 4.362,9.35c0.825,0.3 1.667,0.441 2.496,0.441c2.979,0 5.779,-1.837 6.859,-4.804l29.8,-81.875l-13.767,-4.858l-29.75,81.746Z" style="fill:#4385f5;fill-rule:nonzero;"/><path d="M389.886,255.156l-29.75,-81.741l-13.766,4.858l29.8,81.875c1.079,2.967 3.879,4.804 6.858,4.804c0.829,0 1.671,-0.142 2.496,-0.442c3.792,-1.379 5.746,-5.57 4.362,-9.354Z" style="fill:#4385f5;fill-rule:nonzero;"/></g></svg>