<?xml version="1.0" standalone="no"?><!DOCTYPE svg PUBLIC "-//W3C//DTD SVG 1.1//EN" "http://www.w3.org/Graphics/SVG/1.1/DTD/svg11.dtd"><svg width="100%" height="100%" viewBox="0 0 100 100" version="1.1" xmlns="http://www.w3.org/2000/svg" xmlns:xlink="http://www.w3.org/1999/xlink" xml:space="preserve" style="fill-rule:evenodd;clip-rule:evenodd;stroke-linejoin:round;stroke-miterlimit:1.41421;"><g><path d="M35.53,28.801c2.3,5.7 7.8,9.7 14.3,9.7c8.3,0 15,-6.5 15.3,-14.7c-8.9,0.1 -13.9,-9.6 -13.9,-9.6c-3.9,11.1 -15.7,14.6 -15.7,14.6Z" style="fill:#4385f5;fill-rule:nonzero;"/><path d="M65.23,21.901c0,0 1.2,-10.4 -13.1,-14.8c0,0 0,12.9 13.1,14.8Z" style="fill:#4385f5;fill-rule:nonzero;"/><path d="M50.33,7.501c0,0 -20,-1.6 -18.6,19.8c0.1,0 17.5,-4.7 18.6,-19.8Z" style="fill:#4385f5;fill-rule:nonzero;"/><path d="M36.03,75.401c1,-2.1 3.7,-4 3.7,-19.5c0,0 0.1,-2.2 1.8,-2.1c0,0 0.6,6.7 -0.2,12.3c0,0 11,1.5 18.1,-0.6c0,0 -1.3,-9 -0.8,-11.4c0,0 1.9,-0.1 1.9,1.7c0,0 0.5,16.2 5.6,21.3c5.1,5.1 7.8,0.8 7.8,0.8c0,0 1.8,-3 -1.3,-6.5c-3.1,-3.5 -4.1,-10.1 -4.4,-14.1c-0.3,-4 -3.9,-17.6 -17.4,-17.4c-13.4,0.1 -17.5,6.8 -18.9,16c0,0 0.5,11.1 -4.3,15.3c0,0 -3.7,2.1 -0.9,6.4c2.8,4.4 8.4,-0.1 9.3,-2.2Z" style="fill:#4385f5;fill-rule:nonzero;"/><path d="M60.43,72.401l-0.3,-4.9c0,0 -8,1.7 -19.7,0.3l-0.3,4.6c0,0 4.9,1.9 4.9,8.6c0,0.7 0.5,1.2 1.2,1.2l7.9,0c0.6,0 1.1,-0.5 1.2,-1.1c0.3,-2.3 1.4,-8.1 5.1,-8.7Z" style="fill:#4385f5;fill-rule:nonzero;"/><path d="M39.03,73.801c0,0 -6.4,12.9 -14.1,4.3l-3.7,0.5l-2.4,0.3c0,0 -3.7,-6.2 -7.4,-3.6c-3.7,2.6 -5.1,7.4 -0.8,13.9c4.3,6.5 15.9,2.1 15.9,2.1c0,0 10.5,-4.4 16.1,-9.7c0.1,0 0.5,-4.3 -3.6,-7.8Z" style="fill:#4385f5;fill-rule:nonzero;"/><path d="M88.63,75.401c-3.7,-2.6 -7.4,3.6 -7.4,3.6l-2.4,-0.3l-3.7,-0.5c-7.2,8.6 -14.1,-4.3 -14.1,-4.3c-4.2,3.5 -3.7,7.8 -3.7,7.8c5.6,5.3 16.1,9.7 16.1,9.7c0,0 11.6,4.5 15.9,-2.1c4.3,-6.6 3,-11.4 -0.7,-13.9Z" style="fill:#4385f5;fill-rule:nonzero;"/></g></svg>