<?xml version="1.0" standalone="no"?><!DOCTYPE svg PUBLIC "-//W3C//DTD SVG 1.1//EN" "http://www.w3.org/Graphics/SVG/1.1/DTD/svg11.dtd"><svg width="100%" height="100%" viewBox="0 0 3083 613" version="1.1" xmlns="http://www.w3.org/2000/svg" xmlns:xlink="http://www.w3.org/1999/xlink" xml:space="preserve" style="fill-rule:evenodd;clip-rule:evenodd;stroke-linejoin:round;stroke-miterlimit:1.41421;"><path d="M1457.21,612.5c-3.387,-2.995 1627.71,1.976 1625,0c-1.21,-100.082 -31.329,-250.218 -265.912,-310.43c1.7,1.654 -114.609,-286.389 -445.979,-149.141c1.756,0.752 -332.965,-401.897 -574.816,96.479c1.961,-1.797 -328.268,18.046 -338.293,363.092Z" style="fill:#109d59;"/><path d="M0,610.88c-0.465,-0.8 1665.53,3.587 1665.55,1.558c47.941,-136.627 70.883,-174.839 -299.191,-269.829c1.7,1.654 -114.609,-286.389 -445.979,-149.141c1.756,0.752 -332.965,-401.896 -574.816,96.48c1.961,-1.798 -337.049,-24.154 -345.563,320.932Z" style="fill:#109d59;"/></svg>