<?xml version="1.0" standalone="no"?><!DOCTYPE svg PUBLIC "-//W3C//DTD SVG 1.1//EN" "http://www.w3.org/Graphics/SVG/1.1/DTD/svg11.dtd"><svg width="100%" height="100%" viewBox="0 0 417 417" version="1.1" xmlns="http://www.w3.org/2000/svg" xmlns:xlink="http://www.w3.org/1999/xlink" xml:space="preserve" style="fill-rule:evenodd;clip-rule:evenodd;stroke-linejoin:round;stroke-miterlimit:1.41421;"><path d="M106.379,95.937c0,-26.437 -21.433,-47.871 -47.871,-47.871c-26.437,0 -47.871,21.434 -47.871,47.871c0.001,26.442 21.434,47.875 47.871,47.875c26.438,0 47.871,-21.433 47.871,-47.875ZM253.654,131.258c26.442,0 47.875,-21.433 47.875,-47.871c0,-26.437 -21.437,-47.871 -47.875,-47.871c-26.437,0 -47.866,21.434 -47.866,47.871c0,26.438 21.429,47.871 47.866,47.871ZM170.213,280.533c0,0 14.183,-65.404 -10.642,-71.708c-22.913,-5.821 -37.542,0 -37.542,0l0,-14.184l-44.016,-15.366l70.92,15.366c0,0 31.913,15.367 42.555,0c10.637,-15.366 0,-11.82 -13.005,-15.366c-13,-3.546 -9.458,-9.459 -9.458,-9.459c0,0 -15.367,8.275 -18.908,3.546c-3.55,-4.729 22.458,-14.183 22.458,-14.183c0,0 -3.55,-9.458 -22.458,0c0,0 -19.505,-17.729 -57.921,-17.729c0,0 -10.638,15.366 -50.825,9.458c0,0 18.912,42.55 17.729,74.467c-1.179,31.916 7.092,46.1 30.737,72.112c0,0 1.18,20.092 -24.233,29.55c0,0 -23.05,8.271 -11.821,28.371c11.229,20.1 13.613,26.004 36.059,26.004c22.454,0 36.058,-26.004 0,-26.004c0,0 40.183,-30.733 33.087,-63.833c-7.092,-33.092 -10.637,-41.367 -10.637,-41.367l30.733,-13.004c0,0 0,34.279 0,55.554c0,21.275 4.729,39.004 27.183,21.275c22.454,-17.729 37.825,-27.183 30.734,-40.192c-7.092,-13.004 -30.73,6.692 -30.73,6.692ZM141.842,168.637c0,0 -5.909,0 -59.105,-11.821c0,0 41.371,-3.545 59.105,11.821ZM311.271,186.758c0,0 2.254,-16.054 -1.975,-45.312c-4.154,-28.775 -29.946,-8.671 -29.946,-8.671c0,0 -16.154,13 -43.733,4.333c0,0 -5.125,20.883 -64.621,15.367c0,0 4.329,1.183 7.879,6.7c0,0 -24.021,9.754 -24.037,11.425c-0.038,4.179 19.308,-5.717 19.308,-5.717c0,0 -4.725,6.896 0.4,9.263c5.121,2.362 22.062,2.362 24.033,10.637c0,0 -0.054,-7.092 4.109,-6.304c4.162,0.787 60.508,4.371 81.787,-15.942c0,0 -7.492,13.575 -25.613,16.729l-0.787,11.034c0,0 -33.488,3.937 -46.883,29.941c0,0 -18.521,6.305 -10.246,18.913c0,0 -13.396,7.487 -5.121,11.821c8.275,4.329 19.308,4.329 19.308,4.329c0,0 13.792,16.55 18.517,19.308c0,0 -24.033,31.525 -3.55,44.134c20.488,12.604 37.825,-40.192 29.946,-49.25c-7.879,-9.063 -9.846,-15.367 -9.846,-15.367c-7.092,-9.263 -16.55,-20.883 -16.55,-20.883c13.229,2.858 16.55,20.883 16.55,20.883c0,0 13.004,0.396 15.763,-5.513l-6.309,-8.687l5.913,0c0,0 14.183,41.392 57.129,21.487c0,0 -3.938,9.263 -20.883,10.442c0,0 9.458,8.671 -3.55,25.221c-13,16.55 -30.734,37.037 -25.217,43.337c5.517,6.309 24.037,35.855 42.95,31.917c18.912,-3.937 -8.271,-37.429 -8.271,-37.429c0,0 15.758,-17.333 24.038,-35.071c8.27,-17.729 4.333,-31.908 0,-43.729c0,0 8.666,-5.121 16.549,-15.758c7.88,-10.642 21.667,-20.492 28.371,-20.096c-0.008,0 -12.82,-28.721 -65.412,-33.492ZM211.113,163.883c-18.517,1.4 -30.655,1.992 -30.655,1.992c0,0 14.975,-6.696 32.705,-6.696c17.729,0 55.95,-12.217 55.95,-12.217c-8.671,6.7 -39.492,15.525 -58,16.921ZM245.488,221.871c-14.584,-13.005 -26.821,-3.588 -26.821,-3.588c23.646,-21.671 42.166,14.971 42.166,14.971c0,0 -0.771,1.617 -15.346,-11.383ZM343.913,80.871c27.487,27.458 62.116,3.983 62.116,3.983c-12.737,7.183 -42.154,-19.008 -42.154,-19.008l13.462,3.004c-8,-14.746 -37.049,-26.638 -37.049,-26.638l7.954,-3.766c-30.304,-12.95 -48.296,17.695 -48.296,17.695c4.412,4.605 5.15,10.417 5.15,10.417c0,0 11.325,-13.142 38.817,14.313Z" style="fill:#4385f5;fill-rule:nonzero;"/></svg>