<?xml version="1.0" standalone="no"?><!DOCTYPE svg PUBLIC "-//W3C//DTD SVG 1.1//EN" "http://www.w3.org/Graphics/SVG/1.1/DTD/svg11.dtd"><svg width="100%" height="100%" viewBox="0 0 12155 12155" version="1.1" xmlns="http://www.w3.org/2000/svg" xmlns:xlink="http://www.w3.org/1999/xlink" xml:space="preserve" style="fill-rule:evenodd;clip-rule:evenodd;stroke-linejoin:round;stroke-miterlimit:1.41421;"><g><path d="M9717.83,3591.2c-36.408,-37.5 -966.758,-971.363 -2082.44,-854.467c-494.783,51.542 -660.588,120.188 -793.934,175.238c-125.887,52.196 -225.679,93.208 -764.108,95.183c-540.183,-1.975 -639.971,-42.987 -765.862,-95.183c-133.346,-55.05 -299.15,-123.696 -793.713,-175.238c-1111.51,-114.704 -2045.37,816.309 -2093.4,866.313c-633.396,748.975 -888.246,1625.37 -757.75,2605.29c255.725,1923.21 1909.83,3607.58 2483.35,4003.67c302.663,209.229 639.534,315.163 1001.19,315.163c400.258,0 734.721,-129.838 925.087,-224.363c190.371,94.525 524.83,224.363 925.088,224.363c361.437,0 698.75,-105.934 1001.19,-315.384c573.52,-395.871 2227.84,-2080.24 2483.57,-4003.45c130.713,-979.92 -124.137,-1856.54 -768.275,-2617.14l0,0Z" style="fill:#fff;fill-rule:nonzero;"/><path d="M6076.71,3398.2c-14.475,0 -29.166,-0.875 -43.641,-3.288c-163.613,-23.908 -276.784,-175.895 -252.659,-339.287c223.925,-1528.43 -830.779,-2527.21 -841.746,-2537.08c-121.062,-112.292 -128.083,-301.563 -15.57,-422.846c112.291,-121.284 301.783,-128.084 423.066,-15.792c52.854,49.129 1295.52,1226.21 1026.41,3062.57c-22.15,148.7 -149.796,255.725 -295.863,255.725l0,0Z" style="fill:#fff;fill-rule:nonzero;"/><path d="M6111.58,2099.39c0,0 -132.47,-2058.97 3290.22,-1509.79c0,0 -816.962,2653.54 -3290.22,1509.79Z" style="fill:#fff;fill-rule:nonzero;"/></g></svg>