<?xml version="1.0" standalone="no"?><!DOCTYPE svg PUBLIC "-//W3C//DTD SVG 1.1//EN" "http://www.w3.org/Graphics/SVG/1.1/DTD/svg11.dtd"><svg width="100%" height="100%" viewBox="0 0 2917 2917" version="1.1" xmlns="http://www.w3.org/2000/svg" xmlns:xlink="http://www.w3.org/1999/xlink" xml:space="preserve" style="fill-rule:evenodd;clip-rule:evenodd;stroke-linejoin:round;stroke-miterlimit:1.41421;"><g><path d="M2332.28,861.887c-8.738,-9 -232.022,-233.127 -499.785,-205.072c-118.748,12.37 -158.541,28.845 -190.544,42.057c-30.213,12.527 -54.163,22.37 -183.386,22.844c-129.644,-0.474 -153.593,-10.317 -183.807,-22.844c-32.003,-13.212 -71.796,-29.687 -190.491,-42.057c-266.763,-27.529 -490.889,195.914 -502.416,207.915c-152.015,179.754 -213.179,390.089 -181.86,625.27c61.374,461.57 458.359,865.818 596.004,960.88c72.639,50.215 153.488,75.639 240.286,75.639c96.062,0 176.333,-31.161 222.021,-53.847c45.689,22.686 125.959,53.847 222.021,53.847c86.745,0 167.7,-25.424 240.286,-75.692c137.645,-95.009 534.682,-499.257 596.057,-960.827c31.371,-235.181 -29.793,-445.569 -184.386,-628.113Z" style="fill:#109d59;fill-rule:nonzero;"/><path d="M1458.41,815.567c-3.474,0 -7,-0.21 -10.474,-0.789c-39.267,-5.738 -66.428,-42.215 -60.638,-81.429c53.742,-366.824 -199.387,-606.531 -202.019,-608.9c-29.055,-26.95 -30.74,-72.375 -3.737,-101.483c26.95,-29.108 72.428,-30.74 101.536,-3.79c12.685,11.791 310.924,294.291 246.339,735.017c-5.316,35.688 -35.951,61.374 -71.007,61.374Z" style="fill:#109d59;fill-rule:nonzero;"/><path d="M1466.78,503.853c0,0 -31.793,-494.152 789.653,-362.35c0,0 -196.071,636.85 -789.653,362.35Z" style="fill:#109d59;fill-rule:nonzero;"/></g></svg>